<svg xmlns="http://www.w3.org/2000/svg" xmlns:xlink="http://www.w3.org/1999/xlink" viewBox="0 0 367.03 259"><defs><style>.cls-1{fill:none;}.cls-2{isolation:isolate;}.cls-3{fill:#0099a5;}.cls-4,.cls-6,.cls-8,.cls-9{fill:#00acc1;}.cls-4{opacity:0.2;}.cls-11,.cls-14,.cls-16,.cls-18,.cls-19,.cls-4,.cls-59,.cls-65,.cls-66,.cls-68,.cls-74,.cls-75,.cls-76,.cls-77,.cls-8,.cls-9{mix-blend-mode:multiply;}.cls-5,.cls-7{fill:#fff;}.cls-60,.cls-7{mix-blend-mode:overlay;}.cls-8{opacity:0.5;}.cls-10{fill:#d8dbef;}.cls-12,.cls-59{fill:#1ad4e2;}.cls-13{fill:url(#radial-gradient);}.cls-14{fill:url(#radial-gradient-2);}.cls-15{fill:url(#radial-gradient-3);}.cls-16{fill:url(#radial-gradient-4);}.cls-17{fill:url(#radial-gradient-5);}.cls-18{fill:url(#radial-gradient-6);}.cls-19{fill:url(#linear-gradient);}.cls-20{fill:#06b1b5;}.cls-21{clip-path:url(#clip-path);}.cls-22{fill:#e8eaf7;}.cls-23{fill:#eaebf8;}.cls-24{fill:#ebedf8;}.cls-25{fill:#edeef9;}.cls-26{fill:#eeeff9;}.cls-27{fill:#f0f0fa;}.cls-28{fill:#f1f1fa;}.cls-29{fill:#f2f2fb;}.cls-30{fill:#f3f3fb;}.cls-31{fill:#f5f4fb;}.cls-32{fill:#f6f5fc;}.cls-33{fill:#f6f6fc;}.cls-34{fill:#f7f7fc;}.cls-35{fill:#f8f7fd;}.cls-36{fill:#f8f8fd;}.cls-37{fill:#f9f8fd;}.cls-38{fill:#f9f9fd;}.cls-39{fill:#faf9fd;}.cls-40{fill:#fbfbfe;}.cls-41{fill:#fcfcfe;}.cls-42{fill:#fefdff;}.cls-43{clip-path:url(#clip-path-2);}.cls-44{fill:#e9eaf7;}.cls-45{fill:#e9ebf7;}.cls-46{fill:#eaecf8;}.cls-47{fill:#ebecf8;}.cls-48{fill:#ecedf8;}.cls-49{fill:#eff0f9;}.cls-50{fill:#f0f1fa;}.cls-51{fill:#f1f2fa;}.cls-52{fill:#f4f4fb;}.cls-53{fill:#f5f5fc;}.cls-54{fill:#fbfafe;}.cls-55{fill:#fcfbfe;}.cls-56{fill:#fdfcfe;}.cls-57{fill:#fefeff;}.cls-58{clip-path:url(#clip-path-3);}.cls-59{opacity:0.3;}.cls-61{fill:url(#radial-gradient-7);}.cls-62{fill:url(#radial-gradient-8);}.cls-63{fill:url(#radial-gradient-9);}.cls-64{fill:url(#radial-gradient-10);}.cls-65{fill:url(#radial-gradient-11);}.cls-66{fill:url(#radial-gradient-12);}.cls-67{fill:url(#radial-gradient-13);}.cls-68{fill:url(#radial-gradient-14);}.cls-69{fill:#007d87;}.cls-70{fill:url(#linear-gradient-2);}.cls-71{fill:url(#linear-gradient-3);}.cls-72{fill:url(#linear-gradient-4);}.cls-73{fill:url(#linear-gradient-5);}.cls-74{fill:url(#linear-gradient-6);}.cls-75{fill:url(#linear-gradient-7);}.cls-76{fill:url(#linear-gradient-8);}.cls-77{fill:url(#linear-gradient-9);}</style><radialGradient id="radial-gradient" cx="531.4" cy="75.64" r="10.5" gradientTransform="matrix(-1, 0, 0, 1, 795.88, 0)" gradientUnits="userSpaceOnUse"><stop offset="0.23" stop-color="#fff"/><stop offset="0.52" stop-color="#f9f8fd"/><stop offset="0.76" stop-color="#f3f3fb"/><stop offset="1" stop-color="#e8eaf7"/></radialGradient><radialGradient id="radial-gradient-2" cx="529.45" cy="75.6" r="7.75" gradientTransform="matrix(-1, 0, 0, 1, 795.88, 0)" gradientUnits="userSpaceOnUse"><stop offset="0.02" stop-color="#fff"/><stop offset="0.37" stop-color="#f9f8fd"/><stop offset="0.8" stop-color="#e8eaf7"/><stop offset="1" stop-color="#f9f8fd"/></radialGradient><radialGradient id="radial-gradient-3" cx="511.86" cy="-18.92" r="6.05" gradientTransform="matrix(0.8, 0.6, -0.97, 1.29, -168.03, -194.12)" xlink:href="#radial-gradient"/><radialGradient id="radial-gradient-4" cx="508.07" cy="-18.97" r="10.45" gradientTransform="matrix(0.8, 0.6, -0.97, 1.29, -168.03, -194.12)" gradientUnits="userSpaceOnUse"><stop offset="0.02" stop-color="#fff"/><stop offset="0.53" stop-color="#f9f8fd"/><stop offset="0.8" stop-color="#e8eaf7"/><stop offset="0.94" stop-color="#f9f8fd"/></radialGradient><radialGradient id="radial-gradient-5" cx="282.14" cy="84.66" r="28.47" gradientTransform="matrix(1, 0, 0, 1, 0, 0)" xlink:href="#radial-gradient"/><radialGradient id="radial-gradient-6" cx="305.25" cy="76.88" r="43.28" gradientUnits="userSpaceOnUse"><stop offset="0.02" stop-color="#fff"/><stop offset="0.75" stop-color="#f9f8fd"/><stop offset="1" stop-color="#e8eaf7"/></radialGradient><linearGradient id="linear-gradient" x1="291.32" y1="63.34" x2="291.32" y2="66.81" gradientUnits="userSpaceOnUse"><stop offset="0.02" stop-color="#fff"/><stop offset="0.2" stop-color="#fafafd"/><stop offset="1" stop-color="#e8eaf7"/></linearGradient><clipPath id="clip-path"><path class="cls-1" d="M291.32,64.41c11.41,0,18.76-6.24,18.76-13.95s-7.35-14-18.76-14-18.76,6.25-18.76,14S279.91,64.41,291.32,64.41Z"/></clipPath><clipPath id="clip-path-2"><path class="cls-1" d="M310.08,50.46c0,7.71-7.35,13.95-18.76,13.95-7.94,0-13.91-3-16.8-7.46a11.65,11.65,0,0,1-2-6.49,11.38,11.38,0,0,1,.27-2.49c1.4-6.52,8.34-11.47,18.49-11.47C302.73,36.5,310.08,42.75,310.08,50.46Z"/></clipPath><clipPath id="clip-path-3"><path class="cls-1" d="M294.05,55.69l-.21.59a2.37,2.37,0,0,1-2.07,1.54A77.6,77.6,0,0,1,274.52,57a11.65,11.65,0,0,1-2-6.49,11.38,11.38,0,0,1,.27-2.49c1.64.42,6.87,1.38,18.8.66h.14A2.34,2.34,0,0,1,294,50.09,7.68,7.68,0,0,1,294.05,55.69Z"/></clipPath><radialGradient id="radial-gradient-7" cx="276.55" cy="80.95" r="8.35" gradientTransform="matrix(1, 0, 0, 1, 0, 0)" xlink:href="#radial-gradient"/><radialGradient id="radial-gradient-8" cx="281.21" cy="80.95" r="8.35" gradientTransform="matrix(1, 0, 0, 1, 0, 0)" xlink:href="#radial-gradient"/><radialGradient id="radial-gradient-9" cx="279.39" cy="85.17" r="8.35" gradientTransform="matrix(1, 0, 0, 1, 0, 0)" xlink:href="#radial-gradient"/><radialGradient id="radial-gradient-10" cx="317.79" cy="80.22" r="10.5" gradientTransform="matrix(1, 0, 0, 1, 0, 0)" xlink:href="#radial-gradient"/><radialGradient id="radial-gradient-11" cx="315.84" cy="80.18" r="7.75" gradientTransform="matrix(1, 0, 0, 1, 0, 0)" xlink:href="#radial-gradient-2"/><radialGradient id="radial-gradient-12" cx="530.47" cy="-3382.13" r="7.21" gradientTransform="matrix(0.83, 0.56, -0.99, 1.45, -3472.66, 4719.28)" gradientUnits="userSpaceOnUse"><stop offset="0" stop-color="#d0d3e2"/><stop offset="0.17" stop-color="#dadde8"/><stop offset="0.69" stop-color="#f5f6f9"/><stop offset="1" stop-color="#fff"/></radialGradient><radialGradient id="radial-gradient-13" cx="553.06" cy="-34.63" r="6.05" gradientTransform="matrix(0.8, 0.6, -0.97, 1.29, -168.03, -194.12)" xlink:href="#radial-gradient"/><radialGradient id="radial-gradient-14" cx="549.26" cy="-34.67" r="10.45" xlink:href="#radial-gradient-4"/><linearGradient id="linear-gradient-2" x1="96.86" y1="81.21" x2="109.63" y2="91.83" gradientUnits="userSpaceOnUse"><stop offset="0" stop-color="#fff"/><stop offset="0.13" stop-color="#fcfcfc"/><stop offset="1" stop-color="#e8e8ea"/></linearGradient><linearGradient id="linear-gradient-3" x1="129.21" y1="77.99" x2="52.04" y2="118.98" xlink:href="#linear-gradient-2"/><linearGradient id="linear-gradient-4" x1="125.02" y1="69.16" x2="46.88" y2="110.66" xlink:href="#linear-gradient-2"/><linearGradient id="linear-gradient-5" x1="171.62" y1="77.58" x2="63.08" y2="179.04" xlink:href="#linear-gradient-2"/><linearGradient id="linear-gradient-6" x1="143.04" y1="52.54" x2="136.96" y2="206.12" gradientUnits="userSpaceOnUse"><stop offset="0" stop-color="#e4e4ea"/><stop offset="0.24" stop-color="#dedee5"/><stop offset="0.56" stop-color="#ccccd6"/><stop offset="0.94" stop-color="#afafbe"/><stop offset="1" stop-color="#aaaaba"/></linearGradient><linearGradient id="linear-gradient-7" x1="163.42" y1="31.58" x2="23.71" y2="147.78" xlink:href="#linear-gradient-6"/><linearGradient id="linear-gradient-8" x1="183.17" y1="58.01" x2="46.29" y2="171.87" xlink:href="#linear-gradient-6"/><linearGradient id="linear-gradient-9" x1="156.67" y1="26.16" x2="19.79" y2="140.02" xlink:href="#linear-gradient-6"/></defs><title>ai</title><g class="cls-2"><g id="Object"><path class="cls-3" d="M321.32,206.62a2,2,0,0,0-1.64-.06l-24.24-14h-14l-2.09-1.21,0-3.14v-.05l-4.23-2.44h-4.88l-2.44-1.41.31-.18a.35.35,0,0,0,.17-.49l-.54-.81-2.81-1.62,1.22-.71-1.25-.72,2.76-1.6.53-.81c.12-.16.05-.36-.18-.49l-.38-.22,1.33-.77,0-3.9,2.15-1.25h8.86l2.48-1.44,0-2.51,3.43-2,0-3,1.59-.92h4.12l21.35-12.41a2,2,0,0,0,1.59-.09.55.55,0,0,0,0-1,2,2,0,0,0-1.8,0c-.46.27-.48.69-.07,1l-21.22,12.33h-4.14l-1.81,1.06,0,3-3.44,2v2.5l-2.23,1.3h-8.86l-2.39,1.39,0,3.9-1.22.7-.24-.13a1.25,1.25,0,0,0-.84-.11l-1.4.31L262,178.17l-1.28-.74,2.76-1.6.53-.82a.33.33,0,0,0-.18-.48l-.32-.19,1.33-.77v-3.89l2.16-1.26h8.86l2.47-1.43,0-2.52,3.42-2,0-3,1.59-.92h4.13l8.47-4.92a2,2,0,0,0,1.56-.09c.5-.28.5-.75,0-1a2,2,0,0,0-1.81,0,.54.54,0,0,0-.07,1l-8.31,4.84h-4.13l-1.82,1.06v3l-3.44,2,0,2.51-2.24,1.3h-8.86l-2.38,1.38,0,3.9-1.22.71L263,174a1.2,1.2,0,0,0-.84-.1l-1.41.31-2.75,1.6-1.29-.74,2.76-1.6.53-.82c.11-.16,0-.36-.18-.49l-.31-.18,1.66-1,0-2.51,4.13-2.41h3.93l5.65-3.28,0-4,4.25-2.47h4.17l13.77-8a2,2,0,0,0,1.59-.08.55.55,0,0,0,0-1,2,2,0,0,0-1.82,0,.53.53,0,0,0-.06,1l-13.65,7.93h-4.17l-4.49,2.61v4l-5.4,3.14h-3.92l-4.37,2.53v2.51l-1.54.9-.31-.18a1.25,1.25,0,0,0-.84-.1l-1.41.31-2.75,1.6-1.28-.74,2.76-1.6.53-.82a.34.34,0,0,0-.18-.48l-.32-.19,3.88-2.25,0-3.2,1.62-.94h7.62l3.87-2.25,0-6.69L291.83,143a2,2,0,0,0,1.64-.07.55.55,0,0,0,0-1,2,2,0,0,0-1.8,0c-.44.26-.47.66-.12.94l-19.63,11.41,0,6.7-3.62,2.1h-7.64l-1.84,1.08v3.21l-3.75,2.18-.31-.18a1.2,1.2,0,0,0-.84-.1l-1.41.31-2.75,1.6-1.29-.74,2.76-1.6.53-.82c.11-.16,0-.36-.18-.48l-.91-.53a1.25,1.25,0,0,0-.84-.1l-1.41.31-2.75,1.6-1.28-.74,2.76-1.6.53-.81c.1-.17,0-.36-.18-.49l-.31-.18,1.3-.75h3.6l2.09-1.22,0-4,2.67-1.55h3.62l4.81-2.8,0-3.51,4.18-2.43a2,2,0,0,0,1.63-.06c.5-.3.5-.77,0-1.05a2,2,0,0,0-1.81,0c-.45.26-.46.66-.11.94l-4.3,2.5,0,3.52-4.57,2.65H256.7l-2.91,1.69,0,4L252,163.92h-3.61l-1.41.82-.31-.18a1.26,1.26,0,0,0-.84-.1l-1.41.31-2.75,1.6-1.29-.74,2.75-1.6.54-.82c.11-.16,0-.35-.18-.48l-.31-.18,1.33-.77,0-3.9,2.15-1.25h8.86l2.48-1.44,0-2.51,3.43-2,0-3,1.59-.92H267l25.68-14.92a2,2,0,0,0,1.57-.09.56.56,0,0,0,0-1.05,2,2,0,0,0-1.8,0,.54.54,0,0,0-.07,1l-25.54,14.84h-4.14l-1.81,1.06v3l-3.43,2v2.5l-2.24,1.3h-8.85L244,157.78l0,3.89-1.21.71-.31-.18a1.31,1.31,0,0,0-.84-.1l-1.41.31-2.75,1.6-1.28-.74,2.75-1.6.54-.81c.1-.17,0-.36-.18-.49l-.31-.18,1.66-1,0-2.51,4.14-2.41h3.92L254.4,151l0-4,4.25-2.47h4.18l4.82-2.8a2,2,0,0,0,1.59-.09.55.55,0,0,0,0-1,2,2,0,0,0-1.8,0,.53.53,0,0,0-.09,1l-4.69,2.73h-4.16L254,146.94v4l-5.4,3.14h-3.94l-4.36,2.53v2.52l-1.53.9-.31-.18a1.21,1.21,0,0,0-.84-.11l-1.41.32-2.75,1.6-1.29-.75,2.75-1.6.54-.81c.11-.16,0-.36-.18-.49l-.31-.18,3.88-2.25,0-3.21,1.62-.94h7.62l3.87-2.25V142.5l20.27-11.78a2,2,0,0,0,1.62-.07.55.55,0,0,0,0-1,2,2,0,0,0-1.8,0c-.44.26-.46.65-.11.94L251.49,142.4l0,6.69-3.62,2.11h-7.63l-1.85,1.07v3.21l-3.75,2.18-.32-.18a1.28,1.28,0,0,0-.83-.1l-1.41.31-2.75,1.6-1.28-.73,2.75-1.6.54-.82a.33.33,0,0,0-.18-.48l-.32-.19L233.4,154v-2.84l4-2.3h5.5l2.32-1.35,0-8.13,9.89-5.75a2,2,0,0,0,1.63-.06.56.56,0,0,0,0-1,2,2,0,0,0-1.8,0c-.44.26-.46.66-.11.94l-10,5.82.05,8.14-2.08,1.21h-5.52l-4.2,2.44,0,2.84-2.42,1.41.14.08-.47-.27a1.22,1.22,0,0,0-.83-.09l-1.4.31-2.76,1.6-1.1-.64L223,157l-2.69-1.55-1.41-.31a1.28,1.28,0,0,0-.83.1l-.38.23-1.35-.78h-6.73l-2.16-1.25,0-5.08v-.05l-2.49-1.44h-4.34l-3.45-2h-5.22l-1.59-.92v-2.4l-21.49-12.4c.31-.29.27-.67-.15-.92a2,2,0,0,0-1.81,0,.55.55,0,0,0,0,1.05,2,2,0,0,0,1.69,0l21.36,12.33v2.38l1.84,1.06h5.21l3.45,2h4.33l2.25,1.3,0,5.09v.05l2.41,1.39h6.73l1.22.7-.24.14c-.21.13-.28.31-.18.48l.54.82,2.69,1.55-1.28.74-2.69-1.55-1.41-.31a1.11,1.11,0,0,0-.81.1l-.32.19-1.35-.78h-6.73l-2.16-1.25,0-5.08v-.05l-2.49-1.44h-4.34l-3.44-2H187.9l-1.59-.91v-2.4L177.78,139c.3-.28.26-.65-.17-.9a2,2,0,0,0-1.81,0c-.49.29-.48.76,0,1.05a2,2,0,0,0,1.7,0L185.9,144v2.39l1.84,1.06H193l3.45,2h4.33l2.25,1.3,0,5.08v.05l2.41,1.39h6.71l1.23.7-.31.18c-.22.13-.29.32-.18.48l.55.81,2.69,1.55-1.28.75-2.69-1.55-1.41-.32a1.28,1.28,0,0,0-.83.11l-.31.18-1.67-1h-4.34l-4.16-2.4v-2.28l-5.68-3.28h-6.9l-4.28-2.47v-2.41l-13.88-8c.32-.3.29-.67-.15-.93a2,2,0,0,0-1.81,0,.55.55,0,0,0,0,1,2,2,0,0,0,1.69.06l13.72,7.92,0,2.37v.05l4.51,2.61h6.9l5.44,3.14v2.27l4.4,2.55h4.34l1.55.9-.3.18c-.22.13-.29.31-.19.48l.54.81,2.69,1.56-1.28.74-2.68-1.55-1.41-.31a1.14,1.14,0,0,0-.82.1l-.32.18-3.9-2.25H196.1l-1.62-.93,0-4.37v0l-3.88-2.24H179L159.37,141.3c.35-.28.32-.68-.12-.94a2,2,0,0,0-1.81,0c-.5.29-.49.76,0,1a2,2,0,0,0,1.63.06l19.76,11.41h11.55L194,155l0,4.37v0l1.86,1.08h5.53l3.79,2.19-.31.18c-.22.13-.29.31-.18.48l.55.81L208,165.7l-1.28.75L204,164.89l-1.41-.31a1.22,1.22,0,0,0-.83.11l-.31.18-2.56-1.48-2.43,0-5.29-3.05-.07-2.25-4.08-2.36h-6.44l-14.92-8.61c.35-.29.33-.69-.12-.95a2,2,0,0,0-1.8,0,.56.56,0,0,0,0,1,2,2,0,0,0,1.62.06l15,8.68h6.43l3.85,2.22.07,2.26,5.52,3.18,2.45,0L201.2,165l-.31.18c-.22.12-.29.31-.19.48l.55.81,2.69,1.55-1.28.75L200,167.26l-1.41-.32a1.2,1.2,0,0,0-.82.11l-.32.18-1.31-.75v-2.1L194,163.16h-6.86l-2.69-1.56v-2.09l-4.84-2.8h-6.06l-4.22-2.43c.35-.29.33-.68-.12-.94a2,2,0,0,0-1.8,0,.55.55,0,0,0,0,1,2,2,0,0,0,1.62.07l4.33,2.5h6.07l4.61,2.66v2.09L187,163.4h6.87l1.86,1.07,0,2.1,1.43.82-.32.19c-.21.12-.29.31-.18.48l.55.81,2.69,1.55-1.28.74-2.69-1.55-1.41-.31a1.18,1.18,0,0,0-.82.11l-.31.18-1.35-.78h-6.73l-2.16-1.25,0-5.08v0L180.61,161h-4.34l-3.44-2h-5.22l-1.59-.91,0-2.35v0l-25.85-14.92c.31-.29.28-.67-.16-.92a2,2,0,0,0-1.8,0,.55.55,0,0,0,0,1,2,2,0,0,0,1.7.05l25.7,14.84v2.39l1.84,1.06h5.21l3.45,2h4.32l2.26,1.31,0,5.08v0l2.41,1.39h6.72l1.23.71-.31.18c-.22.12-.29.31-.19.47l.55.82,2.69,1.55-1.28.75L191.85,172l-1.41-.31a1.23,1.23,0,0,0-.83.11l-.31.18-1.67-1h-4.34l-4.15-2.4V166.3L173.45,163h-6.91l-4.28-2.47v-2.41l-4.85-2.81c.31-.28.29-.66-.14-.91a2,2,0,0,0-1.82,0c-.49.29-.48.76,0,1.05a2,2,0,0,0,1.67,0l4.71,2.72v2.43l4.52,2.6h6.9l5.45,3.14v2.28l4.4,2.54h4.33l1.55.9-.31.18a.34.34,0,0,0-.18.48l.55.81,2.69,1.55-1.28.74-2.69-1.55-1.4-.31a1.21,1.21,0,0,0-.83.11l-.31.18-3.91-2.26H175.8l-1.62-.93,0-4.38v-.05l-3.88-2.24H158.71l-20.4-11.78c.36-.29.33-.68-.12-.95a2,2,0,0,0-1.8,0c-.51.3-.51.76,0,1a2,2,0,0,0,1.65.07l20.52,11.84h11.54l3.66,2.11v4.42l1.87,1.08h5.54l3.79,2.19-.31.18c-.22.13-.3.32-.18.48l.54.82,2.69,1.55-1.28.74-2.69-1.55-1.41-.31a1.18,1.18,0,0,0-.83.11l-.31.18-2.56-1.48h-4.89l-4-2.31,0-3.14v0l-2.34-1.35h-14l-10-5.75c.35-.29.32-.69-.13-.95a2,2,0,0,0-1.8,0,.55.55,0,0,0,0,1,2,2,0,0,0,1.63.08l10.08,5.81h14l2.09,1.2V173l4.23,2.44h4.9l2.44,1.41-.31.17c-.22.13-.29.32-.19.48l.54.82,2.69,1.55-1.1.64,1.1.64-2.7,1.57-.54.82c-.11.16,0,.34.18.47l.4.23-1.34.78,0,3.89-2.15,1.25h-8.86l-2.47,1.44v2.51l-3.42,2v3l-1.57.92h-4.13L135.7,212.44a2,2,0,0,0-1.57.09.55.55,0,0,0,0,1.05,2,2,0,0,0,1.81,0,.53.53,0,0,0,.06-1l21.22-12.33h4.13l1.83-1.06,0-3,3.43-2,0-2.51,2.24-1.3h8.86l2.39-1.39,0-3.9,1.22-.71.24.14a1.22,1.22,0,0,0,.83.11l1.4-.31,2.7-1.57,1.28.73-2.7,1.58-.53.81c-.11.17,0,.35.18.48l.32.18-1.35.78,0,3.9-2.15,1.24h-8.86l-2.47,1.44v2.52l-3.42,2v3l-1.58.92h-4.14l-8.45,4.91a2,2,0,0,0-1.57.09c-.5.3-.5.77,0,1.05a2,2,0,0,0,1.82,0,.53.53,0,0,0,.06-1l8.32-4.84h4.12l1.83-1.06,0-3,3.42-2V194l2.24-1.3h8.86l2.39-1.39,0-3.89,1.22-.71.31.18a1.29,1.29,0,0,0,.83.11l1.4-.32,2.71-1.57,1.28.75-2.7,1.57-.53.81c-.12.16,0,.35.19.48l.31.18-1.66,1v2.52l-4.13,2.39h-3.93l-5.64,3.28v4l-4.25,2.47h-4.17l-10.06,5.85a2,2,0,0,0-1.57.08.56.56,0,0,0,0,1.05,2,2,0,0,0,1.81,0c.45-.27.47-.69.07-1l9.92-5.77h4.18l4.49-2.6,0-4,5.41-3.14h3.93l4.37-2.54V190l1.55-.9.31.18a1.22,1.22,0,0,0,.83.11l1.4-.31,2.71-1.57,1.27.73-2.7,1.57-.53.82c-.11.17,0,.35.19.48l.31.18-3.88,2.25,0,3.22-1.61.93H180l-3.86,2.24,0,6.7-22.42,13a2,2,0,0,0-1.63.07c-.5.28-.49.75,0,1a2,2,0,0,0,1.81,0c.44-.26.47-.66.11-1l22.53-13.09,0-6.7,3.63-2.11h7.62l1.86-1.08,0-3.21,3.77-2.18.31.18a1.23,1.23,0,0,0,.83.1l1.4-.31,2.71-1.57,1.28.74-2.7,1.58-.53.81c-.12.16,0,.35.19.48l.31.18-2.55,1.48,0,1.41-5.25,3.05-3.91,0-4,2.36,0,3.73-14.82,8.62a2,2,0,0,0-1.63.06.55.55,0,0,0,0,1,2,2,0,0,0,1.8,0,.53.53,0,0,0,.11-.94l14.94-8.68,0-3.73,3.81-2.22,3.9,0,5.49-3.19,0-1.41,2.43-1.41.31.18a1.28,1.28,0,0,0,.83.11l1.4-.32,2.71-1.57,1.27.74-2.7,1.57-.53.82c-.1.16,0,.35.19.48l.31.18-1.3.75h-3.61l-2.1,1.21,0,4-2.68,1.56h-3.61l-4.81,2.79,0,3.52-4.18,2.43a2,2,0,0,0-1.64.06c-.49.29-.49.76,0,1.05a2,2,0,0,0,1.8,0,.53.53,0,0,0,.1-1l4.3-2.5v-3.5l4.58-2.67h3.6l2.91-1.69v-4l1.85-1.08h3.61l1.42-.83.31.18a1.17,1.17,0,0,0,.83.11l1.41-.31,2.7-1.57,1.29.74-2.71,1.57-.53.82c-.11.16,0,.35.19.48l.31.18-1.34.78,0,3.89-2.15,1.25h-8.85l-2.48,1.44v2.51l-3.42,2,0,3-1.58.92h-4.14l-11.18,6.5a2.05,2.05,0,0,0-1.58.08c-.49.29-.48.76,0,1.05a2,2,0,0,0,1.8,0,.54.54,0,0,0,.07-1l11-6.42h4.12l1.83-1.06,0-3,3.43-2,0-2.51,2.24-1.3h8.85l2.39-1.39v-3.89l1.22-.7.31.18a1.28,1.28,0,0,0,.83.1l1.41-.31,2.7-1.57,1.28.74-2.71,1.57L209,200c-.1.17,0,.36.19.48l.31.18-1.66,1v2.52l-4.12,2.39h-3.94l-5.64,3.28,0,4-4.25,2.47h-4.17l-4.82,2.81a2,2,0,0,0-1.59.08c-.5.29-.5.76,0,1a2,2,0,0,0,1.81,0,.54.54,0,0,0,.09-1l4.68-2.72h4.17l4.49-2.61,0-4,5.4-3.15h3.93l4.38-2.54,0-2.51,1.55-.9.31.18a1.17,1.17,0,0,0,.83.11l1.41-.31,2.7-1.57,1.29.74-2.71,1.57-.53.82c-.11.16,0,.34.19.48l.31.18-3.88,2.25v3.21l-1.61.93h-7.63l-3.85,2.24v6.69l-16.34,9.5a1.94,1.94,0,0,0-1.62.06.55.55,0,0,0,0,1,2,2,0,0,0,1.8,0,.52.52,0,0,0,.11-.94L197,218.49l0-6.69,3.63-2.11h7.62l1.85-1.08v-3.2l3.76-2.19.31.18a1.22,1.22,0,0,0,.83.11l1.41-.31,2.7-1.57,1.28.74-2.71,1.57-.53.81c-.1.17,0,.36.19.48l.31.18-2.55,1.48,0,2.84-4,2.3h-5.51l-2.32,1.35.05,8.13-24,13.93a2,2,0,0,0-1.62.06c-.5.29-.49.76,0,1.05a2,2,0,0,0,1.8,0c.44-.26.47-.66.11-.94l24.08-14,0-8.14,2.07-1.21h5.51l4.19-2.44V207l2.42-1.41.31.18a1.23,1.23,0,0,0,.83.11l1.41-.31,2.7-1.58,1.25.72,1.1-.64,2.8,1.62,1.41.31a1.25,1.25,0,0,0,.84-.1l.39-.23,1.34.78h6.73l2.17,1.25,0,5.08v0l2.49,1.44h4.33l3.44,2h5.22l1.6.92v2.39L279.83,232c-.3.29-.26.66.17.91a2,2,0,0,0,1.81,0c.49-.28.49-.75,0-1a2,2,0,0,0-1.69,0l-21.36-12.33v-2.4l-1.83-1H251.7l-3.45-2h-4.34l-2.25-1.3,0-5.07v-.06l-2.4-1.38h-6.71l-1.23-.7.23-.14c.23-.13.29-.32.17-.48l-.54-.82-2.8-1.62,1.27-.74,2.81,1.62,1.41.31a1.25,1.25,0,0,0,.84-.1l.3-.18,1.34.77H243l2.17,1.26,0,5.08v0l2.49,1.44h4.33l3.44,2h5.22l1.6.92v2.38l8.53,4.93c-.31.28-.27.66.16.9a2,2,0,0,0,1.8,0,.55.55,0,0,0,0-1,2,2,0,0,0-1.7,0l-8.37-4.84,0-2.35v0l-1.82-1.06h-5.22l-3.45-2H247.9l-2.26-1.31,0-5.07v-.06l-2.39-1.38h-6.73l-1.23-.71.31-.18a.34.34,0,0,0,.18-.48l-.55-.82-2.8-1.62,1.28-.74,2.8,1.62,1.4.32a1.31,1.31,0,0,0,.84-.11L239,201l1.67,1H245l4.16,2.41v2.27l5.69,3.28h6.91l4.27,2.47,0,2.37v.05l10.11,5.84c-.31.29-.28.66.16.91a2,2,0,0,0,1.8,0c.5-.28.49-.75,0-1a2,2,0,0,0-1.68,0l-10-5.76v-2.42L262,209.67h-6.91l-5.44-3.14,0-2.23v-.05l-4.39-2.53h-4.35l-1.54-.89.31-.18c.22-.14.28-.33.17-.49l-.54-.82-2.81-1.61,1.28-.75,2.81,1.62,1.41.31a1.21,1.21,0,0,0,.83-.1l.31-.18,3.91,2.26h5.53l1.63.94,0,4.37v.05l3.89,2.25h11.56l22.56,13c-.36.29-.33.69.11.95a2,2,0,0,0,1.8,0c.5-.29.51-.77,0-1.05a2,2,0,0,0-1.64-.06l-22.68-13.1H258.24l-3.65-2.11,0-4.37v-.05l-1.86-1.07h-5.55l-3.78-2.19.31-.18c.22-.12.28-.31.17-.48l-.54-.82-2.8-1.62,1.28-.74,2.8,1.62,1.4.32a1.31,1.31,0,0,0,.84-.1l.32-.19,2.55,1.47,2.43,0,5.3,3.06.06,2.26,4.08,2.36H268L282.94,214c-.35.29-.33.68.13.94a2,2,0,0,0,1.8,0c.5-.28.49-.75,0-1a2,2,0,0,0-1.64-.07l-15-8.68h-6.45L257.91,203l-.07-2.26-5.52-3.19h-2.44l-2.44-1.41.32-.19a.33.33,0,0,0,.16-.48l-.54-.81L244.57,193l1.28-.74,2.8,1.61,1.41.32a1.24,1.24,0,0,0,.84-.11l.31-.18,1.31.76v2.09l2.11,1.21h6.86l2.69,1.55v2.09l4.85,2.8h6.05l4.21,2.43c-.35.29-.33.68.12.94a2,2,0,0,0,1.81,0c.5-.29.49-.76,0-1.05a2,2,0,0,0-1.62-.07l-4.33-2.5H269.2l-4.6-2.65v-2.1l-2.93-1.69H254.8l-1.87-1.07v-2.1l-1.42-.82.31-.18c.22-.13.28-.32.17-.49l-.54-.81-2.8-1.62,1.28-.75,2.8,1.62,1.4.32a1.31,1.31,0,0,0,.84-.1l.32-.19,1.33.77h6.72l2.17,1.25,0,5.08v.05l2.49,1.44h4.33l3.45,2H281l1.6.92v2.39l11.26,6.5c-.31.29-.28.67.16.92a2,2,0,0,0,1.8,0,.55.55,0,0,0,0-1,1.92,1.92,0,0,0-1.67-.05L283,205.36l0-2.39-1.82-1.06H276l-3.45-2h-4.34l-2.26-1.3v-5.07l0-.06-2.39-1.38h-6.73l-1.23-.71.32-.19c.22-.12.28-.31.17-.48l-.55-.81-2.8-1.62,1.28-.74,2.8,1.62,1.41.31a1.31,1.31,0,0,0,.84-.1l.31-.18,1.67,1h4.34l4.16,2.41v2.27l5.69,3.29h6.9l4.27,2.47,0,2.36V203l4.85,2.8c-.33.29-.3.68.14.93a2,2,0,0,0,1.81,0c.49-.28.49-.75,0-1a2,2,0,0,0-1.68-.05l-4.72-2.72v-2.42l-4.52-2.61h-6.9l-5.44-3.15,0-2.23v0l-4.39-2.54h-4.34l-1.55-.89.31-.18c.21-.13.28-.32.17-.49l-.54-.81-2.81-1.62,1.28-.74,2.81,1.61,1.4.32a1.21,1.21,0,0,0,.83-.1l.32-.19,3.91,2.26h5.52l1.63.94,0,4.36v.05l3.89,2.25h11.55l16.44,9.49c-.35.29-.32.69.13.95a2,2,0,0,0,1.8,0,.56.56,0,0,0,0-1,2,2,0,0,0-1.63-.07l-16.56-9.56H278.53l-3.65-2.11,0-4.38v0L273,188.85h-5.55l-3.78-2.18.32-.18c.22-.13.28-.32.16-.48l-.54-.82-2.8-1.62,1.28-.74,2.8,1.62,1.41.31a1.31,1.31,0,0,0,.84-.1l.31-.18L270,186h4.9l4,2.3,0,3.14v0l2.33,1.34h14l24.12,13.93a.52.52,0,0,0,.11.94,2,2,0,0,0,1.81,0A.55.55,0,0,0,321.32,206.62Zm-8.44-59.14a1.37,1.37,0,0,1,1.23,0c.34.2.35.51,0,.71a1.36,1.36,0,0,1-1.24,0A.38.38,0,0,1,312.88,147.48ZM296,152.65a1.34,1.34,0,0,1,1.23,0,.38.38,0,0,1,0,.71,1.4,1.4,0,0,1-1.23,0A.38.38,0,0,1,296,152.65Zm1.09-5.26a1.37,1.37,0,0,1,1.23,0c.33.2.34.51,0,.71a1.35,1.35,0,0,1-1.22,0C296.73,147.9,296.71,147.59,297.06,147.39ZM292,142a1.32,1.32,0,0,1,1.22,0c.35.19.36.51,0,.71a1.36,1.36,0,0,1-1.24,0C291.6,142.52,291.61,142.2,292,142Zm-22.39,5.72a1.37,1.37,0,0,1,1.23,0c.34.2.35.53,0,.72a1.34,1.34,0,0,1-1.23,0A.38.38,0,0,1,269.56,147.73Zm23.21-16.87a1.35,1.35,0,0,1,1.22,0c.34.2.36.52,0,.71a1.36,1.36,0,0,1-1.24,0A.38.38,0,0,1,292.77,130.86Zm-25.08,9.95a1.32,1.32,0,0,1,1.22,0,.37.37,0,0,1,0,.7,1.34,1.34,0,0,1-1.23,0A.37.37,0,0,1,267.69,140.81Zm4.58-11a1.34,1.34,0,0,1,1.23,0c.35.19.35.51,0,.7a1.32,1.32,0,0,1-1.22,0C271.94,130.29,271.93,130,272.27,129.77Zm-17.13,2.92a1.37,1.37,0,0,1,1.23,0c.35.2.35.53,0,.72a1.36,1.36,0,0,1-1.24,0A.37.37,0,0,1,255.14,132.69Zm-86.79-3.56a1.37,1.37,0,0,1-1.23,0,.38.38,0,0,1,0-.72,1.34,1.34,0,0,1,1.23,0A.38.38,0,0,1,168.35,129.13Zm9,9.82a1.38,1.38,0,0,1-1.22,0c-.35-.2-.35-.52,0-.71a1.38,1.38,0,0,1,1.25,0C177.67,138.43,177.67,138.75,177.33,139Zm-9.09-.65a1.4,1.4,0,0,1-1.23,0c-.34-.2-.34-.52,0-.71a1.37,1.37,0,0,1,1.23,0C168.58,137.78,168.58,138.1,168.24,138.3ZM159,141.24a1.35,1.35,0,0,1-1.22,0c-.34-.2-.35-.52,0-.71a1.34,1.34,0,0,1,1.23,0A.38.38,0,0,1,159,141.24Zm6.33,5.79a1.39,1.39,0,0,1-1.24,0,.38.38,0,0,1,0-.72,1.34,1.34,0,0,1,1.23,0C165.63,146.52,165.63,146.83,165.29,147Zm3.62,7.19a1.32,1.32,0,0,1-1.22,0c-.35-.19-.35-.51,0-.7a1.32,1.32,0,0,1,1.22,0C169.25,153.71,169.25,154,168.91,154.22Zm-29.19-13.49a1.34,1.34,0,0,1-1.23,0c-.33-.19-.35-.51,0-.7a1.34,1.34,0,0,1,1.23,0A.37.37,0,0,1,139.72,140.73ZM157,155.29a1.35,1.35,0,0,1-1.22,0c-.34-.2-.36-.52,0-.71a1.34,1.34,0,0,1,1.23,0A.38.38,0,0,1,157,155.29Zm-19.06-2.7a1.36,1.36,0,0,1-1.24,0c-.33-.19-.33-.51,0-.71a1.38,1.38,0,0,1,1.22,0C138.24,152.08,138.24,152.4,137.91,152.59Zm5.09,9.94a1.36,1.36,0,0,1-1.24,0c-.34-.19-.34-.51,0-.71a1.35,1.35,0,0,1,1.22,0C143.33,162,143.34,162.33,143,162.53Zm-7.35,50.87a1.34,1.34,0,0,1-1.23,0c-.35-.2-.34-.52,0-.71a1.32,1.32,0,0,1,1.22,0A.37.37,0,0,1,135.65,213.4Zm16.92-5.16a1.42,1.42,0,0,1-1.24,0,.38.38,0,0,1,0-.72,1.4,1.4,0,0,1,1.23,0A.38.38,0,0,1,152.57,208.24Zm2.64,3.09a1.38,1.38,0,0,1-1.25,0c-.34-.19-.33-.51,0-.71a1.35,1.35,0,0,1,1.22,0C155.53,210.82,155.54,211.14,155.21,211.33Zm-1.54,9.24a1.35,1.35,0,0,1-1.22,0c-.34-.2-.35-.51,0-.71a1.36,1.36,0,0,1,1.24,0C154,220.05,154,220.37,153.67,220.57Zm12.89-5.33a1.37,1.37,0,0,1-1.23,0,.38.38,0,0,1,0-.72,1.37,1.37,0,0,1,1.23,0A.37.37,0,0,1,166.56,215.24ZM179,213.16a1.35,1.35,0,0,1-1.22,0c-.35-.2-.36-.51,0-.71a1.34,1.34,0,0,1,1.23,0C179.3,212.65,179.31,213,179,213.16Zm-8.71,8.44a1.37,1.37,0,0,1-1.23,0c-.34-.2-.35-.52,0-.72a1.39,1.39,0,0,1,1.24,0A.37.37,0,0,1,170.26,221.6Zm10.59-1.52a1.37,1.37,0,0,1-1.23,0c-.35-.2-.35-.53,0-.72a1.4,1.4,0,0,1,1.23,0C181.19,219.57,181.18,219.89,180.85,220.08Zm-.67,8.75a1.37,1.37,0,0,1-1.23,0c-.34-.19-.33-.51,0-.71a1.35,1.35,0,0,1,1.22,0C180.52,228.32,180.51,228.63,180.18,228.83Zm-.86,7.55a1.37,1.37,0,0,1-1.23,0c-.34-.2-.35-.52,0-.71a1.34,1.34,0,0,1,1.23,0A.38.38,0,0,1,179.32,236.38Zm101-4.38a1.37,1.37,0,0,1,1.23,0c.34.2.35.51,0,.71a1.37,1.37,0,0,1-1.23,0A.38.38,0,0,1,280.28,232Zm-9-9.81a1.34,1.34,0,0,1,1.23,0c.35.19.35.51,0,.7a1.32,1.32,0,0,1-1.22,0C271,222.71,271,222.39,271.29,222.19Zm5.34-1.52a1.39,1.39,0,0,1,1.24,0,.37.37,0,0,1,0,.71,1.38,1.38,0,0,1-1.22,0C276.31,221.19,276.29,220.87,276.63,220.67Zm16,.92a1.37,1.37,0,0,1,1.23,0,.38.38,0,0,1,0,.72,1.34,1.34,0,0,1-1.23,0A.38.38,0,0,1,292.59,221.59Zm-9.24-7.49a1.37,1.37,0,0,1,1.23,0,.38.38,0,0,1,0,.71,1.4,1.4,0,0,1-1.23,0C283,214.62,283,214.3,283.35,214.1Zm-3.64-7.18a1.39,1.39,0,0,1,1.24,0,.38.38,0,0,1,0,.72,1.37,1.37,0,0,1-1.23,0A.37.37,0,0,1,279.71,206.92Zm14.6,5.07a1.38,1.38,0,0,1,1.25,0c.33.19.33.51,0,.71a1.38,1.38,0,0,1-1.22,0C294,212.5,294,212.18,294.31,212Zm-2.65-6.15a1.37,1.37,0,0,1,1.23,0c.35.2.34.51,0,.71a1.37,1.37,0,0,1-1.23,0C291.32,206.36,291.32,206,291.66,205.84Zm15.1.42a1.34,1.34,0,0,1,1.23,0,.37.37,0,0,1,0,.71,1.35,1.35,0,0,1-1.22,0C306.43,206.77,306.42,206.45,306.76,206.26Zm-82.32-2.89L184.83,180.5l39.35-22.87,39.61,22.87ZM321,207.5a1.4,1.4,0,0,1-1.23,0,.38.38,0,0,1,0-.71,1.37,1.37,0,0,1,1.23,0A.38.38,0,0,1,321,207.5Z"/><path class="cls-3" d="M283.49,146.53a.56.56,0,0,0,0-1.05,2,2,0,0,0-1.8,0c-.46.27-.48.66-.12,1l-14.94,8.68,0,3.73-3.81,2.22-3.91,0-5.48,3.19,0,1.41L251,167.1l.29.17,2.54-1.48,0-1.41,5.26-3,3.89,0,4.06-2.36,0-3.72,14.81-8.61A2,2,0,0,0,283.49,146.53Zm-1.51-.88a1.35,1.35,0,0,1,1.22,0,.38.38,0,0,1,0,.71,1.34,1.34,0,0,1-1.23,0C281.63,146.17,281.64,145.85,282,145.65Z"/><polygon class="cls-3" points="224.43 201.11 259.88 180.5 224.19 159.9 188.74 180.5 224.43 201.11"/><path class="cls-4" d="M297.79,88.41c6.55,3.78,6.59,9.92.08,13.7L137,195.6c-6.51,3.78-17.11,3.78-23.66,0l-76.24-44c-6.55-3.78-6.59-9.92-.07-13.7L197.89,44.39c6.51-3.78,17.11-3.78,23.66,0Z"/><path class="cls-5" d="M297.79,65.24c6.55,3.78,6.59,9.92.08,13.7L137,172.43c-6.51,3.78-17.11,3.78-23.66,0l-76.24-44c-6.55-3.78-6.59-9.92-.07-13.71L197.89,21.22c6.51-3.78,17.11-3.78,23.66,0Z"/><polygon class="cls-6" points="197.82 28.45 52.69 112.79 140.25 163.35 285.38 79.01 197.82 28.45"/><path class="cls-6" d="M98.69,144.2l-13.28-7.67a11.73,11.73,0,0,0-10.62,0,3.56,3.56,0,0,0,0,6.68l13.29,7.67a11.69,11.69,0,0,0,10.62,0,3.57,3.57,0,0,0,0-6.7Zm-.43,5.89a10.68,10.68,0,0,1-9.69,0l-13.29-7.67a3.18,3.18,0,0,1-1.88-2.55,3.12,3.12,0,0,1,1.85-2.53,10.7,10.7,0,0,1,9.69,0L98.23,145a2.66,2.66,0,0,1,0,5.08Z"/><path class="cls-6" d="M264.56,53.55,241.84,40.43a2.54,2.54,0,0,0-2.31,0c-.63.37-.62,1,0,1.34l22.71,13.11a2.52,2.52,0,0,0,2.3,0,.7.7,0,0,0,0-1.33"/><path class="cls-6" d="M302.68,72.63a3.07,3.07,0,0,1-.06.52c0,.15-.07.29-.1.43s-.09.34-.15.5-.11.27-.17.41-.15.35-.24.52-.15.25-.23.37-.25.39-.39.59-.28.36-.44.54l-.11.14c-.22.23-.45.46-.71.69l-.51.42a5.9,5.9,0,0,1-.47.37c-.19.14-.39.27-.6.4s-.41.28-.63.41L137,172.42a14.46,14.46,0,0,1-1.57.8l-.48.21c-.43.18-.87.34-1.32.5l-.48.16-.86.25-.66.17c-.3.08-.61.14-.92.2l-.63.13c-.63.11-1.27.2-1.91.26l-.59.05-1.13.08-.73,0h-.91l-.77,0-.85,0-.77-.07-.84-.09-.75-.11-.88-.15-.7-.14-1-.26-.58-.15c-.61-.18-1.21-.38-1.79-.61-.29-.11-.57-.23-.85-.36l-.43-.18c-.42-.2-.83-.42-1.23-.64l-76.24-44a10.46,10.46,0,0,1-4.24-4.12,5.9,5.9,0,0,1-.69-2.78l0,14c0,2.5,1.64,5,4.94,6.9l76.24,44c.39.22.8.44,1.22.64l.44.18c.25.12.49.23.75.33l.09,0c.58.23,1.18.43,1.8.61l.14.05.43.1,1,.26.28.07.41.07c.3,0,.59.11.89.15l.36.07.39,0c.28,0,.55.07.83.09l.4,0,.38,0,.84,0,.43,0h1.72l.26,0c.38,0,.76,0,1.14-.08l.45,0,.14,0c.64-.06,1.27-.15,1.9-.26h.1l.54-.12c.31-.06.61-.12.92-.2l.66-.17.86-.25.18-.05.3-.11c.45-.16.89-.32,1.31-.5l.48-.21a15.52,15.52,0,0,0,1.58-.79L297.83,93l.21-.12c.15-.09.28-.19.43-.29s.41-.26.6-.4l.47-.37.51-.42.1-.09a6.79,6.79,0,0,0,.6-.6l.12-.13c.11-.13.22-.25.32-.38a1,1,0,0,1,.12-.17c.14-.19.27-.39.39-.59s.12-.16.16-.24a.75.75,0,0,0,.06-.13c.1-.17.17-.35.25-.52s.1-.2.14-.3l0-.11a4.1,4.1,0,0,0,.14-.5,3.37,3.37,0,0,0,.1-.34s0-.06,0-.09,0-.35.06-.52,0-.23,0-.35v-.14l0-14A4.28,4.28,0,0,1,302.68,72.63Z"/><path class="cls-7" d="M40.9,138.17c0,.65-.46.9-1,.58a2.21,2.21,0,0,1-1-1.73c0-.64.45-.89,1-.57A2.21,2.21,0,0,1,40.9,138.17Zm3.68,1c-.56-.32-1-.06-1,.57a2.18,2.18,0,0,0,1,1.73c.55.32,1,.07,1-.58A2.2,2.2,0,0,0,44.58,139.15Zm4.68,2.7c-.56-.32-1-.06-1,.57a2.21,2.21,0,0,0,1,1.73c.55.32,1,.07,1-.57A2.17,2.17,0,0,0,49.26,141.85Zm4.68,2.71c-.55-.32-1-.07-1,.56a2.2,2.2,0,0,0,1,1.73c.55.32,1,.07,1-.57A2.21,2.21,0,0,0,53.94,144.56Zm4.67,2.7c-.55-.32-1-.07-1,.57a2.18,2.18,0,0,0,1,1.72c.56.33,1,.07,1-.57A2.16,2.16,0,0,0,58.61,147.26Zm36.12,20.85c-.56-.32-1-.07-1,.57a2.16,2.16,0,0,0,1,1.73c.55.32,1,.06,1-.58A2.21,2.21,0,0,0,94.73,168.11Zm4.68,2.7c-.55-.32-1-.07-1,.57a2.21,2.21,0,0,0,1,1.73c.55.32,1,.07,1-.58A2.21,2.21,0,0,0,99.41,170.81Zm4.68,2.7c-.55-.32-1-.06-1,.57a2.16,2.16,0,0,0,1,1.73c.55.32,1,.07,1-.57A2.21,2.21,0,0,0,104.09,173.51Zm4.68,2.7c-.55-.32-1-.06-1,.57a2.2,2.2,0,0,0,1,1.73c.56.32,1,.07,1-.57A2.18,2.18,0,0,0,108.77,176.21Zm4.68,2.71c-.55-.32-1-.07-1,.56a2.2,2.2,0,0,0,1,1.73c.56.32,1,.07,1-.57A2.19,2.19,0,0,0,113.45,178.92Zm-31.7-19.13L71.6,153.94c-.94-.55-1.71-.11-1.71,1a3.74,3.74,0,0,0,1.7,3l10.15,5.86c.94.54,1.71.11,1.71-1A3.76,3.76,0,0,0,81.75,159.79Z"/><polygon class="cls-8" points="197.82 29.36 284.6 79.46 285.38 79.01 197.82 28.45 52.69 112.79 53.48 113.25 197.82 29.36"/><path class="cls-9" d="M238.17,89.23l10.57-1.41,0-7.91-10.6-1.41A20.7,20.7,0,0,0,232.7,71l5.74-5.33-9.68-5.59-9.18,3.34a61.59,61.59,0,0,0-13-3.1l-2.46-6.14H190.5l-2.39,6.13a60.63,60.63,0,0,0-12.93,3.1L166,60.08l-9.62,5.6,5.8,5.32a20,20,0,0,0-5.32,7.51l-10.58,1.4,0,7.9,10.59,1.41a20.5,20.5,0,0,0,5.41,7.5l-5.74,5.33,9.68,5.59,9.18-3.34a61,61,0,0,0,13,3.11l2.47,6.13h13.64l2.4-6.13a61.17,61.17,0,0,0,12.94-3.11l9.2,3.34,9.62-5.59-5.78-5.33A20.57,20.57,0,0,0,238.17,89.23ZM215.22,94.1c-9.73,5.65-25.56,5.66-35.35,0s-9.83-14.82-.11-20.48,25.56-5.65,35.35,0S225,88.44,215.22,94.1Z"/><polygon class="cls-3" points="232.7 54.38 232.68 63.32 238.41 57.99 238.44 49.05 232.7 54.38"/><polygon class="cls-3" points="162.14 54.38 162.11 63.32 156.31 58 156.34 49.06 162.14 54.38"/><path class="cls-3" d="M222.49,67.31c0-3.72-2.46-7.46-7.38-10.3-.59-.34-1.21-.66-1.84-1l-.64-.28c-.38-.17-.74-.34-1.13-.49l-.13-.05c-.87-.34-1.77-.64-2.69-.9l-.21-.08c-.21-.06-.43-.1-.64-.15-.52-.14-1-.27-1.56-.38l-.41-.11-.62-.1c-.44-.09-.88-.17-1.33-.23l-.53-.1-.59-.06c-.41-.06-.82-.1-1.24-.14l-.6-.07-.56,0-1.26-.07-.64,0h-2.56l-.4,0c-.57,0-1.13.06-1.69.11-.22,0-.45,0-.68,0L193,53c-1,.1-1.9.23-2.84.39l-.14,0-.8.17c-.47.1-.93.19-1.38.3l-1,.26-1.28.37-.28.08-.44.17c-.67.22-1.33.47-2,.74l-.71.3a26.1,26.1,0,0,0-2.36,1.2l-.3.18c-.23.14-.43.28-.64.43s-.62.39-.91.6-.46.36-.69.55-.53.42-.77.63l-.16.13c-.09.09-.16.19-.26.28A14,14,0,0,0,175,61c-.07.08-.16.16-.23.25l-.17.25a9.65,9.65,0,0,0-.59.88c-.07.12-.17.24-.24.36s-.06.13-.09.19c-.14.26-.26.52-.37.78s-.15.3-.21.46l0,.15c-.08.25-.14.5-.21.75s-.11.34-.15.5a.66.66,0,0,1,0,.14,6.82,6.82,0,0,0-.09.79c0,.17-.05.34-.06.51v.22l0,8.94c0-.25,0-.49.06-.74s.05-.52.09-.78.11-.43.16-.64.13-.5.22-.75.17-.41.26-.61.22-.52.36-.78a6.26,6.26,0,0,1,.34-.55c.18-.3.37-.59.58-.88s.27-.33.41-.5A12.46,12.46,0,0,1,176,68.75l.41-.41c.24-.21.51-.42.77-.63s.45-.37.7-.55.59-.41.9-.61.61-.41,1-.61c.75-.43,1.54-.82,2.36-1.19l.71-.3c.64-.27,1.29-.52,2-.75.24-.08.48-.17.72-.24.42-.14.86-.25,1.29-.37l1-.26,1.38-.3,1-.19c.93-.17,1.88-.3,2.84-.4l.89-.07c.56,0,1.12-.09,1.68-.11.36,0,.73,0,1.09,0s.91,0,1.37,0l1.14,0,1.27.07,1.16.1c.41,0,.83.08,1.24.14l1.12.15,1.32.23,1,.21,1.55.38.86.23c.91.27,1.81.57,2.68.91q.65.26,1.26.54l.65.28c.63.3,1.24.61,1.83,1,4.31,2.49,6.74,5.66,7.27,8.92a9.3,9.3,0,0,1,.11,1.39h0Z"/><polygon class="cls-3" points="238.17 72.61 238.14 81.55 248.72 80.14 248.74 71.2 238.17 72.61"/><path class="cls-3" d="M238.17,72.61a17.21,17.21,0,0,1-1,2.09c-.3.54-.64,1.08-1,1.62l-.27.37c-.32.44-.66.86-1,1.29l-.42.5c-.5.55-1,1.09-1.59,1.62h0l0,8.93c.57-.53,1.09-1.07,1.59-1.62l.43-.5c.19-.22.39-.44.56-.66s.31-.42.46-.63.19-.25.27-.37c.34-.5.67-1,1-1.5a.52.52,0,0,0,.06-.13,16.41,16.41,0,0,0,1-2.08Z"/><path class="cls-3" d="M159,76.46a18.21,18.21,0,0,1-2.13-3.86h0l0,8.94a20.62,20.62,0,0,0,5.41,7.5l0-8.93A24.4,24.4,0,0,1,159,76.46Z"/><path class="cls-3" d="M219.82,87.68c-.82.3-1.67.57-2.51.83s-1.71.51-2.58.73l-1,.27c-1.2.29-2.42.55-3.66.77-1.06.2-2.14.37-3.22.51l0,8.94c1.05-.14,2.09-.3,3.12-.49l.11,0c1.23-.22,2.45-.48,3.65-.78l1-.26c.87-.22,1.74-.46,2.58-.73l.47-.13c.69-.22,1.36-.45,2-.69h0Z"/><path class="cls-3" d="M186.77,90.54q-1.31-.2-2.58-.45l-1.27-.26c-1-.22-2-.47-3-.74-.34-.09-.69-.17-1-.27-1.19-.35-2.36-.72-3.51-1.14h0l0,8.94c1.14.42,2.32.79,3.51,1.14l.3.1.72.17c1,.27,2,.51,3,.73.22,0,.43.12.65.16s.41.07.61.11c.85.17,1.72.31,2.58.45.3,0,.58.11.88.15l.73.1,0-8.94C187.83,90.72,187.3,90.62,186.77,90.54Z"/><polygon class="cls-3" points="238.64 85.43 238.62 94.37 228.99 99.96 229.02 91.02 238.64 85.43"/><polygon class="cls-3" points="229.02 91.02 228.99 99.96 219.79 96.62 219.81 87.68 229.02 91.02"/><polygon class="cls-3" points="166.22 91.02 166.19 99.96 156.51 94.37 156.54 85.44 166.22 91.02"/><polygon class="cls-3" points="175.4 87.68 175.38 96.62 166.19 99.96 166.22 91.02 175.4 87.68"/><polygon class="cls-3" points="206.88 90.79 206.85 99.73 204.46 105.86 204.48 96.92 206.88 90.79"/><polygon class="cls-3" points="204.48 96.92 204.46 105.86 190.81 105.86 190.84 96.92 204.48 96.92"/><polygon class="cls-3" points="190.84 96.92 190.81 105.86 188.35 99.73 188.37 90.79 190.84 96.92"/><path class="cls-5" d="M238.17,72.61l10.57-1.41,0-7.91-10.6-1.4a20.65,20.65,0,0,0-5.41-7.51l5.74-5.33-9.68-5.58-9.18,3.34a61,61,0,0,0-13-3.11l-2.46-6.13H190.5l-2.39,6.13a60.64,60.64,0,0,0-12.93,3.11L166,43.47l-9.62,5.59,5.8,5.32a20.11,20.11,0,0,0-5.32,7.51l-10.58,1.4,0,7.9,10.59,1.41a20.53,20.53,0,0,0,5.41,7.51l-5.74,5.33L166.22,91l9.18-3.34a61,61,0,0,0,13,3.11l2.47,6.13h13.64l2.4-6.13a60.57,60.57,0,0,0,12.94-3.11L229,91l9.62-5.59-5.78-5.32A20.52,20.52,0,0,0,238.17,72.61Zm-22.95,4.87c-9.73,5.65-25.56,5.66-35.35,0S170,62.66,179.76,57s25.56-5.66,35.35,0S225,71.82,215.22,77.48Z"/><polygon class="cls-3" points="146.28 74.92 146.25 83.86 146.21 75.96 146.24 67.02 146.28 74.92"/><polygon class="cls-3" points="156.87 72.61 156.84 81.55 146.25 80.14 146.28 71.2 156.87 72.61"/><path class="cls-10" d="M232.7,53.9l5.42-5,.32.18L233,54.15C232.86,54.07,232.79,54,232.7,53.9Zm-70.56,0-5.48-5-.32.19,5.55,5.1Zm53,2.62c-9.79-5.65-25.62-5.65-35.35,0-5,2.89-7.36,6.69-7.24,10.47.09-3.62,2.49-7.22,7.24-10,9.73-5.66,25.56-5.66,35.35,0,4.79,2.77,7.24,6.38,7.36,10C222.56,63.23,220.12,59.42,215.11,56.52ZM162,79.86l.25-.24a20.5,20.5,0,0,1-5.41-7.5l-10.59-1.41,0-7.42h0l0,7.9,10.59,1.41A20.5,20.5,0,0,0,162,79.86Zm76.14-7.73a20.57,20.57,0,0,1-5.31,7.49l.24.23a20.25,20.25,0,0,0,5.07-7.24l10.57-1.41v-.48ZM229,90.54l-9.2-3.34a61.17,61.17,0,0,1-12.94,3.11l-2.4,6.13H190.84l-2.47-6.13a61,61,0,0,1-13-3.11l-9.18,3.34-9.36-5.4-.32.3L166.22,91l9.18-3.34a61,61,0,0,0,13,3.11l2.47,6.13h13.64l2.4-6.13a60.57,60.57,0,0,0,12.94-3.11L229,91l9.62-5.59-.32-.29Z"/><path class="cls-4" d="M329.45,143.07a6.59,6.59,0,0,0-1.62-1.28l-4.07-2.36-9-5.22-5.72-3.33-.49-.28-5.67-3.3-4.39-2.55a14.22,14.22,0,0,0-12.92,0l-29.52,17c-3.58,2.07-3.6,5.42,0,7.48l29.32,17a14.28,14.28,0,0,0,12.92,0l29.52-17C330.7,147.6,331.26,145.07,329.45,143.07Z"/><path class="cls-6" d="M253.38,131.1c0,.05,0,.09,0,.14a.5.5,0,0,0,0,.12.68.68,0,0,0,0,.14.5.5,0,0,0,0,.12l0,.13a.56.56,0,0,1,0,.12s0,.09,0,.13l.05.12.06.14a.37.37,0,0,0,.05.11l.07.14.06.11c0,.06.07.11.1.16a.36.36,0,0,0,.07.1l.13.18,0,.08.24.27.07.07.2.21.1.09.14.12.12.1.15.11.13.1a.91.91,0,0,0,.16.11.71.71,0,0,0,.14.1l.17.11.21.13,29.33,17c.19.11.4.22.61.32l.17.08.58.25.08,0,.66.23.47.13.36.1.5.11.37.07.15,0,.64.09.18,0,.74.06h1.56l.46,0,.43,0,.45,0,.41-.06.49-.08.5-.1.12,0,.68-.19a.76.76,0,0,0,.2-.06c.19,0,.37-.12.55-.18l.16-.06.49-.21.23-.1c.23-.11.46-.23.67-.35l29.52-17c1.8-1,2.7-2.41,2.7-3.77V139c0,1.36-.89,2.72-2.69,3.76l-29.52,17c-.22.12-.44.24-.67.35l-.24.1-.41.18-.07,0-.16.05-.56.19-.19.06-.13,0c-.18.06-.37.1-.56.15l-.12,0-.27.07-.23,0-.48.08-.2,0-.21,0-.46,0-.22,0h-.2l-.46,0h-1.17l-.25,0h-.14l-.62-.05h-.12l-.19,0-.63-.09-.16,0h-.07l-.29-.07-.51-.1-.36-.1-.47-.13a.38.38,0,0,0-.1,0l-.55-.2-.08,0-.59-.25-.16-.08c-.22-.1-.42-.21-.62-.32L256,142.8l-.11-.06-.1-.07-.16-.1-.15-.1-.15-.11-.14-.1-.14-.11L255,142l-.13-.11-.06-.05,0,0-.21-.21-.06-.07a2.09,2.09,0,0,1-.24-.28h0l-.05-.06L254,141l-.06-.1a1.4,1.4,0,0,1-.1-.16l0,0,0-.07a.91.91,0,0,1-.07-.14l-.06-.11-.06-.14a.14.14,0,0,0,0-.06s0,0,0-.06,0-.09-.05-.13l0-.12,0-.13a.24.24,0,0,1,0-.08.43.43,0,0,1,0-.05s0-.09,0-.13a.49.49,0,0,1,0-.12.66.66,0,0,1,0-.14.22.22,0,0,1,0-.08v-.08l0-8.15C253.37,131,253.38,131.05,253.38,131.1Z"/><path class="cls-5" d="M329.45,128.75a6.59,6.59,0,0,0-1.62-1.28l-4.07-2.37-9-5.22-5.72-3.32-.49-.28L302.9,113l-4.39-2.55a14.22,14.22,0,0,0-12.92,0l-29.52,17c-3.58,2.06-3.6,5.41,0,7.48l29.32,17a14.22,14.22,0,0,0,12.92,0l29.52-17C330.7,133.27,331.26,130.75,329.45,128.75Zm-3.27,6L298,151.06a13.62,13.62,0,0,1-12.34,0l-28-16.28c-3.4-2-3.38-5.17,0-7.14l28.19-16.28a13.56,13.56,0,0,1,12.34,0l4.2,2.44,5.42,3.15.46.27,5.46,3.17,8.59,5,3.88,2.26a6.39,6.39,0,0,1,1.55,1.22C329.49,130.77,329,133.18,326.18,134.78Z"/><path class="cls-6" d="M326.18,134.78,298,151.06a13.62,13.62,0,0,1-12.34,0l-28-16.28c-3.4-2-3.38-5.17,0-7.14l28.19-16.28a13.56,13.56,0,0,1,12.34,0l4.2,2.44,5.42,3.15.46.27,5.46,3.17,8.59,5,3.88,2.26a6.39,6.39,0,0,1,1.55,1.22C329.49,130.77,329,133.18,326.18,134.78Z"/><path class="cls-4" d="M254.22,129.09a2.91,2.91,0,0,0,.24.27l.06.07.21.21,0,0,.06,0,.13.12.13.1.14.11.14.11.15.1.15.1.16.11.1.06.11.07,29.33,17a6,6,0,0,0,.62.32l.16.08.59.25.08,0,.55.2.1,0,.47.13.36.1.51.11.29.06h.07l.16,0,.63.09.19,0h.12l.62,0h1.56l.46,0h.2l.22,0,.46-.05.21,0,.2,0,.48-.08.23,0,.27-.06.12,0,.56-.14.13,0,.19-.06.56-.19.16-.06.07,0c.14-.05.27-.12.41-.18l.24-.1c.23-.11.45-.23.67-.35l29.52-17a6.4,6.4,0,0,0,1.85-1.58,2.55,2.55,0,0,0-.21-.28,6.59,6.59,0,0,0-1.62-1.28l-4.07-2.36-.27-.16L298.27,139.5a7.06,7.06,0,0,1-.67.35l-.23.1a4.25,4.25,0,0,1-.49.21l-.16.06-.55.19-.2.06c-.22.07-.45.13-.68.18l-.12,0-.5.1-.49.09-.41,0-.45.05-.43,0-.46,0-.42,0h-1.14l-.74-.06-.18,0-.64-.09-.15,0-.37-.07-.5-.11-.36-.09-.47-.14-.66-.22-.08,0a6,6,0,0,1-.58-.25l-.17-.07c-.21-.11-.42-.21-.61-.33l-25-14.51-4.31,2.48a6.26,6.26,0,0,0-1.87,1.59v0Z"/><path class="cls-6" d="M253.38,116.83s0,.09,0,.14a.5.5,0,0,0,0,.12.78.78,0,0,0,0,.14.5.5,0,0,0,0,.12l0,.13a.56.56,0,0,1,0,.12l0,.13.05.12.06.14a.37.37,0,0,0,.05.11l.07.14.06.11c0,.06.07.11.1.16a.36.36,0,0,0,.07.1l.13.18,0,.08.24.27.07.07.2.21.1.09.14.12.12.1.15.11.13.1a.91.91,0,0,0,.16.11.71.71,0,0,0,.14.1l.17.11.21.13,29.33,17c.19.11.4.22.61.32l.17.08.58.25.08,0,.66.23.47.13.36.1.5.11.37.07.15,0,.64.09.18,0,.74.06h1.56l.46,0,.43,0,.45-.05.41-.06.49-.08.5-.1.12,0,.68-.19a1.52,1.52,0,0,0,.2-.06,5.1,5.1,0,0,0,.55-.19l.16,0,.49-.21.23-.1c.23-.11.46-.23.67-.35l29.52-17c1.8-1,2.7-2.41,2.7-3.77v8.15c0,1.36-.89,2.72-2.69,3.76l-29.52,17.05c-.22.12-.44.24-.67.35l-.24.1-.41.18-.07,0-.16.06-.56.19-.19.06-.13,0c-.18.06-.37.1-.56.15l-.12,0-.27.07-.23,0-.48.08-.2,0-.21,0-.46.05-.22,0h-.2l-.46,0h-1.17l-.25,0h-.14l-.62,0h-.12l-.19,0q-.31,0-.63-.09l-.16,0h-.07l-.29-.07-.51-.1-.36-.1-.47-.13a.38.38,0,0,0-.1,0l-.55-.2-.08,0-.59-.25-.16-.08c-.22-.1-.42-.21-.62-.32L256,128.53l-.11-.06-.1-.07-.16-.1-.15-.1-.15-.11-.14-.1-.14-.11-.13-.11-.13-.11-.06,0,0,0-.21-.21-.06-.07a2.09,2.09,0,0,1-.24-.28h0l-.05-.06-.13-.18-.06-.1a1.4,1.4,0,0,1-.1-.16l0,0,0-.07a.91.91,0,0,1-.07-.14l-.06-.11-.06-.14a.14.14,0,0,0,0-.06s0,0,0-.06,0-.09-.05-.13l0-.12,0-.13a.24.24,0,0,1,0-.08.43.43,0,0,1,0,0s0-.09,0-.13a.49.49,0,0,1,0-.12.66.66,0,0,1,0-.14.22.22,0,0,1,0-.08v-.08l0-8.15S253.38,116.78,253.38,116.83Z"/><path class="cls-5" d="M329.45,114.48a6.59,6.59,0,0,0-1.62-1.28l-4.07-2.37-9-5.22-5.72-3.32-.49-.28-5.67-3.3-4.39-2.55a14.22,14.22,0,0,0-12.92,0l-29.52,17c-3.58,2.06-3.6,5.41,0,7.48l29.32,17a14.22,14.22,0,0,0,12.92,0l29.52-17C330.7,119,331.26,116.47,329.45,114.48Zm-3.27,6L298,136.79a13.62,13.62,0,0,1-12.34,0l-28-16.28c-3.4-2-3.38-5.17,0-7.14l28.19-16.28a13.56,13.56,0,0,1,12.34,0l4.2,2.44,5.42,3.15.46.27,5.46,3.17,8.59,5,3.88,2.26a6.39,6.39,0,0,1,1.55,1.22C329.49,116.5,329,118.91,326.18,120.51Z"/><path class="cls-6" d="M326.18,120.51,298,136.79a13.62,13.62,0,0,1-12.34,0l-28-16.28c-3.4-2-3.38-5.17,0-7.14l28.19-16.28a13.56,13.56,0,0,1,12.34,0l4.2,2.44,5.42,3.15.46.27,5.46,3.17,8.59,5,3.88,2.26a6.39,6.39,0,0,1,1.55,1.22C329.49,116.5,329,118.91,326.18,120.51Z"/><rect class="cls-12" x="260.9" y="79" width="2.88" height="14.87" transform="translate(89.39 -128.92) rotate(33)"/><path class="cls-13" d="M260.05,75.7a7,7,0,1,0,7-7A7,7,0,0,0,260.05,75.7Z"/><path class="cls-14" d="M260.05,75.7a7,7,0,1,0,7-7A7,7,0,0,0,260.05,75.7Z"/><path class="cls-15" d="M254.06,98.32c2.63,2,9.61-4.23,11.75-7.09s1.84-5.5-.78-7.47-5.26-1.54-7.41,1.31S251.44,96.35,254.06,98.32Z"/><path class="cls-16" d="M265.81,91.23a28.7,28.7,0,0,1-5.48,5.2l-.52.37c-2.24,1.54-4.49,2.47-5.75,1.52s-1-3.37-.12-5.95q.09-.3.21-.6a28.78,28.78,0,0,1,3.47-6.7c2.15-2.85,4.78-3.29,7.41-1.31S268,88.38,265.81,91.23Z"/><path class="cls-17" d="M291.32,117c15.46,0,24.13-26.81,24.13-37.26s-8.67-16.12-24.13-16.12-24.14,5.67-24.14,16.12S275.85,117,291.32,117Z"/><path class="cls-18" d="M315.45,79.71c0,5.07-2,14-5.89,21.81-.3.6-.61,1.19-.92,1.77-4.08,7.55-9.92,13.68-17.32,13.68s-13.24-6.14-17.34-13.7c-.31-.58-.61-1.17-.91-1.77-3.85-7.83-5.89-16.73-5.89-21.79,0-10.45,8.68-16.12,24.14-16.12S315.45,69.26,315.45,79.71Z"/><path class="cls-12" d="M291.32,64C285,64,281,65.24,281,66.73s4.06,2.71,10.37,2.71,10.37-1.21,10.37-2.71S297.63,64,291.32,64Zm0,4.28c-5.49,0-9-.87-9-2s3.53-2,9-2,9,.88,9,2S296.8,68.31,291.32,68.31Z"/><path class="cls-19" d="M300.33,66.36c0,.86-2.19,1.58-5.81,1.85-1,.07-2,.1-3.2.1s-2.24,0-3.21-.1c-3.61-.27-5.81-1-5.81-1.85,0-1.07,3.54-2,9-2S300.33,65.29,300.33,66.36Z"/><path class="cls-20" d="M294.52,66.17v2c-1,.07-2,.1-3.2.1s-2.24,0-3.21-.1v-2Z"/><path class="cls-12" d="M291.32,66.86c-2,0-3.21-.31-3.21-.69s1.25-.7,3.21-.7,3.21.32,3.21.7S293.27,66.86,291.32,66.86Z"/><g class="cls-21"><rect class="cls-22" x="272.56" y="36.5" width="37.52" height="27.91"/><ellipse class="cls-22" cx="291.32" cy="50.41" rx="18.54" ry="13.82"/><ellipse class="cls-23" cx="291.32" cy="50.41" rx="18.01" ry="13.42"/><path class="cls-24" d="M291.32,63.44c-9.66,0-17.48-5.84-17.48-13s7.82-13,17.48-13,17.48,5.83,17.48,13S301,63.44,291.32,63.44Z"/><ellipse class="cls-25" cx="291.32" cy="50.41" rx="16.95" ry="12.64"/><ellipse class="cls-26" cx="291.32" cy="50.41" rx="16.42" ry="12.24"/><path class="cls-27" d="M291.32,62.25c-8.78,0-15.9-5.3-15.9-11.84s7.12-11.85,15.9-11.85,15.89,5.3,15.89,11.85S300.09,62.25,291.32,62.25Z"/><path class="cls-28" d="M291.32,61.86c-8.49,0-15.37-5.13-15.37-11.45S282.83,39,291.32,39s15.36,5.13,15.36,11.46S299.8,61.86,291.32,61.86Z"/><path class="cls-29" d="M291.32,61.47c-8.2,0-14.84-5-14.84-11.06s6.64-11.06,14.84-11.06,14.83,4.95,14.83,11.06S299.51,61.47,291.32,61.47Z"/><path class="cls-30" d="M291.32,61.07c-7.9,0-14.31-4.77-14.31-10.66s6.41-10.67,14.31-10.67,14.3,4.77,14.3,10.67S299.22,61.07,291.32,61.07Z"/><ellipse class="cls-31" cx="291.32" cy="50.41" rx="13.78" ry="10.27"/><path class="cls-32" d="M291.32,60.28c-7.32,0-13.25-4.42-13.25-9.87s5.93-9.88,13.25-9.88,13.25,4.42,13.25,9.88S298.64,60.28,291.32,60.28Z"/><path class="cls-33" d="M291.32,59.89c-7,0-12.72-4.25-12.72-9.48s5.69-9.49,12.72-9.49S304,45.17,304,50.41,298.34,59.89,291.32,59.89Z"/><ellipse class="cls-34" cx="291.32" cy="50.41" rx="12.19" ry="9.09"/><path class="cls-35" d="M291.32,59.1c-6.44,0-11.67-3.89-11.67-8.69s5.23-8.7,11.67-8.7S303,45.6,303,50.41,297.76,59.1,291.32,59.1Z"/><path class="cls-36" d="M291.32,58.71c-6.15,0-11.14-3.72-11.14-8.3s5-8.31,11.14-8.31,11.13,3.72,11.13,8.31S297.47,58.71,291.32,58.71Z"/><path class="cls-37" d="M291.32,58.31c-5.86,0-10.61-3.54-10.61-7.9s4.75-7.91,10.61-7.91,10.6,3.54,10.6,7.91S297.18,58.31,291.32,58.31Z"/><path class="cls-37" d="M291.32,57.92c-5.57,0-10.08-3.36-10.08-7.51s4.51-7.52,10.08-7.52,10.08,3.37,10.08,7.52S296.88,57.92,291.32,57.92Z"/><ellipse class="cls-37" cx="291.32" cy="50.41" rx="9.55" ry="7.12"/><path class="cls-38" d="M291.32,57c-4.86,0-8.8-2.94-8.8-6.56s3.94-6.57,8.8-6.57,8.8,2.94,8.8,6.57S296.18,57,291.32,57Z"/><ellipse class="cls-39" cx="291.32" cy="50.41" rx="8.05" ry="6"/><path class="cls-40" d="M291.32,55.85c-4,0-7.3-2.44-7.3-5.44s3.26-5.45,7.3-5.45,7.3,2.44,7.3,5.45S295.35,55.85,291.32,55.85Z"/><path class="cls-41" d="M291.32,55.29c-3.62,0-6.56-2.19-6.56-4.88s2.94-4.89,6.56-4.89,6.55,2.19,6.55,4.89S294.94,55.29,291.32,55.29Z"/><path class="cls-42" d="M291.32,54.73c-3.21,0-5.81-1.94-5.81-4.32s2.6-4.33,5.81-4.33,5.8,1.94,5.8,4.33S294.52,54.73,291.32,54.73Z"/><path class="cls-5" d="M291.32,54.17c-2.79,0-5.06-1.68-5.06-3.76s2.27-3.77,5.06-3.77,5.05,1.68,5.05,3.77S294.11,54.17,291.32,54.17Z"/></g><g class="cls-11"><g class="cls-43"><rect class="cls-22" x="272.56" y="36.5" width="37.52" height="27.91"/><path class="cls-22" d="M301.22,78.29c-17.21,0-31.16-10.4-31.16-23.22S284,31.84,301.22,31.84a37.06,37.06,0,0,1,22,6.8H312.5v28.2H301.22Z"/><path class="cls-44" d="M301.22,78.11c-17.08,0-30.92-10.32-30.92-23s13.84-23,30.92-23a36.75,36.75,0,0,1,21.85,6.75H312.5V66.84H301.22Z"/><path class="cls-45" d="M301.22,77.93c-17,0-30.68-10.24-30.68-22.86S284.27,32.2,301.22,32.2a36.49,36.49,0,0,1,21.69,6.7H312.5V66.84H301.22Z"/><path class="cls-46" d="M301.22,77.76c-16.81,0-30.44-10.16-30.44-22.69s13.63-22.69,30.44-22.69A36.18,36.18,0,0,1,322.74,39H312.5V66.84H301.22Z"/><path class="cls-47" d="M301.22,77.58c-16.68,0-30.2-10.08-30.2-22.51s13.52-22.52,30.2-22.52a35.9,35.9,0,0,1,21.35,6.6H312.5V66.84H301.22Z"/><path class="cls-48" d="M301.22,77.4c-16.55,0-30-10-30-22.33s13.42-22.34,30-22.34a35.63,35.63,0,0,1,21.18,6.54h-9.9V66.84H301.22Z"/><path class="cls-25" d="M301.22,77.22c-16.42,0-29.73-9.92-29.73-22.15s13.31-22.16,29.73-22.16a35.35,35.35,0,0,1,21,6.49H312.5V66.84H301.22Z"/><path class="cls-26" d="M301.22,77.05c-16.29,0-29.49-9.84-29.49-22s13.2-22,29.49-22a35.07,35.07,0,0,1,20.85,6.44H312.5V66.84H301.22Z"/><path class="cls-49" d="M301.22,76.87c-16.16,0-29.25-9.76-29.25-21.8s13.09-21.81,29.25-21.81a34.79,34.79,0,0,1,20.68,6.39h-9.4V66.84H301.22Z"/><path class="cls-50" d="M301.22,76.69c-16,0-29-9.68-29-21.62s13-21.63,29-21.63a34.52,34.52,0,0,1,20.51,6.33H312.5V66.84H301.22Z"/><path class="cls-51" d="M301.22,76.51c-15.9,0-28.78-9.6-28.78-21.44s12.88-21.45,28.78-21.45a34.23,34.23,0,0,1,20.34,6.28H312.5V66.84H301.22Z"/><path class="cls-30" d="M301.22,76.34c-15.76,0-28.54-9.53-28.54-21.27s12.78-21.28,28.54-21.28A33.93,33.93,0,0,1,321.39,40H312.5V66.84H301.22Z"/><path class="cls-52" d="M301.22,76.16c-15.63,0-28.3-9.44-28.3-21.09S285.59,34,301.22,34a33.62,33.62,0,0,1,20,6.18H312.5V66.84H301.22Z"/><ellipse class="cls-53" cx="301.22" cy="55.07" rx="28.06" ry="20.92"/><ellipse class="cls-33" cx="301.22" cy="55.07" rx="27.82" ry="20.74"/><ellipse class="cls-35" cx="301.22" cy="55.07" rx="27.58" ry="20.56"/><ellipse class="cls-37" cx="301.22" cy="55.07" rx="27.35" ry="20.39"/><ellipse class="cls-37" cx="301.22" cy="55.07" rx="27.11" ry="20.21"/><ellipse class="cls-39" cx="301.22" cy="55.07" rx="23.3" ry="17.37"/><ellipse class="cls-54" cx="301.22" cy="55.07" rx="19.5" ry="14.54"/><path class="cls-55" d="M301.22,66.77c-8.67,0-15.7-5.24-15.7-11.7s7-11.71,15.7-11.71,15.69,5.24,15.69,11.71S309.88,66.77,301.22,66.77Z"/><path class="cls-56" d="M301.22,63.93c-6.57,0-11.9-4-11.9-8.86s5.33-8.87,11.9-8.87,11.89,4,11.89,8.87S307.78,63.93,301.22,63.93Z"/><path class="cls-57" d="M301.22,61.1c-4.47,0-8.1-2.7-8.1-6s3.63-6,8.1-6,8.09,2.7,8.09,6S305.68,61.1,301.22,61.1Z"/><path class="cls-5" d="M301.22,58.26c-2.37,0-4.29-1.43-4.29-3.19s1.92-3.2,4.29-3.2,4.28,1.43,4.28,3.2S303.58,58.26,301.22,58.26Z"/></g></g><g class="cls-58"><rect class="cls-12" x="272.56" y="47.97" width="22.16" height="10.25"/><path class="cls-12" d="M291.17,64.16c-10.3,0-18.65-6.22-18.65-13.9s8.35-13.9,18.65-13.9,18.65,6.22,18.65,13.9S301.47,64.16,291.17,64.16Z"/><ellipse class="cls-12" cx="291.17" cy="50.26" rx="18.34" ry="13.68"/><ellipse class="cls-12" cx="291.17" cy="50.26" rx="18.04" ry="13.45"/><path class="cls-12" d="M291.17,63.48c-9.79,0-17.73-5.92-17.73-13.22S281.38,37,291.17,37,308.91,43,308.91,50.26,301,63.48,291.17,63.48Z"/><path class="cls-12" d="M291.17,63.25c-9.62,0-17.42-5.82-17.42-13s7.8-13,17.42-13,17.43,5.81,17.43,13S300.8,63.25,291.17,63.25Z"/><path class="cls-12" d="M291.17,63c-9.45,0-17.12-5.71-17.12-12.76s7.67-12.76,17.12-12.76,17.12,5.71,17.12,12.76S300.63,63,291.17,63Z"/><path class="cls-12" d="M291.17,62.79c-9.28,0-16.81-5.61-16.81-12.53s7.53-12.54,16.81-12.54S308,43.34,308,50.26,300.46,62.79,291.17,62.79Z"/><path class="cls-12" d="M291.17,62.56c-9.11,0-16.5-5.51-16.5-12.3S282.06,38,291.17,38s16.51,5.51,16.51,12.31S300.29,62.56,291.17,62.56Z"/><ellipse class="cls-12" cx="291.17" cy="50.26" rx="16.2" ry="12.08"/><path class="cls-12" d="M291.17,62.11c-8.78,0-15.89-5.31-15.89-11.85s7.11-11.85,15.89-11.85,15.9,5.3,15.9,11.85S300,62.11,291.17,62.11Z"/><path class="cls-12" d="M291.17,61.88c-8.61,0-15.59-5.2-15.59-11.62s7-11.62,15.59-11.62,15.59,5.2,15.59,11.62S299.78,61.88,291.17,61.88Z"/><path class="cls-12" d="M291.17,61.65c-8.44,0-15.28-5.1-15.28-11.39s6.84-11.4,15.28-11.4,15.29,5.11,15.29,11.4S299.62,61.65,291.17,61.65Z"/><ellipse class="cls-12" cx="291.17" cy="50.26" rx="14.98" ry="11.17"/><path class="cls-12" d="M291.17,61.2c-8.1,0-14.67-4.9-14.67-10.94s6.57-10.94,14.67-10.94,14.68,4.9,14.68,10.94S299.28,61.2,291.17,61.2Z"/><path class="cls-12" d="M291.17,61c-7.93,0-14.36-4.8-14.36-10.71s6.43-10.71,14.36-10.71,14.37,4.79,14.37,10.71S299.11,61,291.17,61Z"/><path class="cls-12" d="M291.17,60.74c-7.76,0-14.06-4.69-14.06-10.48s6.3-10.48,14.06-10.48,14.06,4.69,14.06,10.48S298.94,60.74,291.17,60.74Z"/><path class="cls-12" d="M291.17,60.51c-7.59,0-13.75-4.59-13.75-10.25S283.58,40,291.17,40s13.76,4.6,13.76,10.26S298.77,60.51,291.17,60.51Z"/><path class="cls-12" d="M291.17,60.28c-7.42,0-13.44-4.48-13.44-10s6-10,13.44-10,13.45,4.49,13.45,10S298.6,60.28,291.17,60.28Z"/><path class="cls-12" d="M291.17,60.06c-7.25,0-13.14-4.39-13.14-9.8s5.89-9.8,13.14-9.8,13.15,4.39,13.15,9.8S298.43,60.06,291.17,60.06Z"/><path class="cls-12" d="M291.17,59.83c-7.09,0-12.83-4.29-12.83-9.57s5.74-9.57,12.83-9.57S304,45,304,50.26,298.26,59.83,291.17,59.83Z"/><path class="cls-12" d="M291.17,59.6c-6.92,0-12.53-4.18-12.53-9.34s5.61-9.34,12.53-9.34,12.53,4.18,12.53,9.34S298.09,59.6,291.17,59.6Z"/><path class="cls-12" d="M291.17,59.37c-6.75,0-12.22-4.08-12.22-9.11s5.47-9.11,12.22-9.11,12.23,4.08,12.23,9.11S297.93,59.37,291.17,59.37Z"/><path class="cls-12" d="M291.17,59.14c-6.58,0-11.91-4-11.91-8.88s5.33-8.89,11.91-8.89,11.92,4,11.92,8.89S297.76,59.14,291.17,59.14Z"/><path class="cls-12" d="M291.17,58.91c-6.41,0-11.61-3.87-11.61-8.65s5.2-8.66,11.61-8.66,11.62,3.88,11.62,8.66S297.59,58.91,291.17,58.91Z"/><path class="cls-12" d="M291.17,58.69c-6.24,0-11.3-3.78-11.3-8.43s5.06-8.43,11.3-8.43,11.31,3.77,11.31,8.43S297.42,58.69,291.17,58.69Z"/><path class="cls-12" d="M291.17,58.46c-6.07,0-11-3.67-11-8.2s4.93-8.2,11-8.2,11,3.67,11,8.2S297.25,58.46,291.17,58.46Z"/><path class="cls-12" d="M291.17,58.23c-5.9,0-10.69-3.57-10.69-8s4.79-8,10.69-8,10.7,3.57,10.7,8S297.08,58.23,291.17,58.23Z"/><path class="cls-12" d="M291.17,58c-5.73,0-10.38-3.46-10.38-7.74s4.65-7.75,10.38-7.75,10.39,3.47,10.39,7.75S296.91,58,291.17,58Z"/><path class="cls-12" d="M291.17,57.77c-5.56,0-10.08-3.36-10.08-7.51s4.52-7.52,10.08-7.52,10.09,3.37,10.09,7.52S296.74,57.77,291.17,57.77Z"/><path class="cls-12" d="M291.17,57.55c-5.4,0-9.77-3.27-9.77-7.29S285.77,43,291.17,43,301,46.23,301,50.26,296.57,57.55,291.17,57.55Z"/><path class="cls-12" d="M291.17,57.32c-5.23,0-9.47-3.16-9.47-7.06s4.24-7.06,9.47-7.06,9.47,3.16,9.47,7.06S296.4,57.32,291.17,57.32Z"/><path class="cls-12" d="M291.17,57.09c-5.06,0-9.16-3.06-9.16-6.83s4.1-6.83,9.16-6.83,9.17,3.06,9.17,6.83S296.23,57.09,291.17,57.09Z"/><path class="cls-12" d="M291.17,56.86c-4.89,0-8.85-3-8.85-6.6s4-6.61,8.85-6.61,8.86,3,8.86,6.61S296.07,56.86,291.17,56.86Z"/><path class="cls-12" d="M291.17,56.63c-4.72,0-8.55-2.85-8.55-6.37s3.83-6.38,8.55-6.38,8.56,2.86,8.56,6.38S295.9,56.63,291.17,56.63Z"/><path class="cls-12" d="M291.17,56.41c-4.55,0-8.24-2.76-8.24-6.15s3.69-6.15,8.24-6.15,8.25,2.75,8.25,6.15S295.73,56.41,291.17,56.41Z"/><path class="cls-12" d="M291.17,56.18c-4.38,0-7.94-2.65-7.94-5.92s3.56-5.92,7.94-5.92,7.94,2.65,7.94,5.92S295.56,56.18,291.17,56.18Z"/><path class="cls-12" d="M291.17,56c-4.21,0-7.63-2.55-7.63-5.69s3.42-5.69,7.63-5.69,7.64,2.55,7.64,5.69S295.39,56,291.17,56Z"/><path class="cls-12" d="M291.17,55.72c-4,0-7.32-2.44-7.32-5.46s3.28-5.46,7.32-5.46,7.33,2.44,7.33,5.46S295.22,55.72,291.17,55.72Z"/><path class="cls-12" d="M291.17,55.49c-3.87,0-7-2.34-7-5.23s3.15-5.24,7-5.24,7,2.35,7,5.24S295.05,55.49,291.17,55.49Z"/><path class="cls-12" d="M291.17,55.26c-3.71,0-6.71-2.24-6.71-5s3-5,6.71-5,6.72,2.24,6.72,5S294.88,55.26,291.17,55.26Z"/><path class="cls-12" d="M291.17,55c-3.54,0-6.41-2.14-6.41-4.78s2.87-4.78,6.41-4.78,6.41,2.14,6.41,4.78S294.71,55,291.17,55Z"/><path class="cls-12" d="M291.17,54.81c-3.37,0-6.1-2-6.1-4.55s2.73-4.55,6.1-4.55,6.11,2,6.11,4.55S294.54,54.81,291.17,54.81Z"/><path class="cls-12" d="M291.17,54.58c-3.2,0-5.79-1.93-5.79-4.32s2.59-4.32,5.79-4.32,5.8,1.93,5.8,4.32S294.38,54.58,291.17,54.58Z"/><path class="cls-12" d="M291.17,54.35c-3,0-5.49-1.83-5.49-4.09s2.46-4.1,5.49-4.1,5.5,1.84,5.5,4.1S294.21,54.35,291.17,54.35Z"/><path class="cls-12" d="M291.17,54.12c-2.86,0-5.18-1.73-5.18-3.86s2.32-3.87,5.18-3.87,5.19,1.73,5.19,3.87S294,54.12,291.17,54.12Z"/><path class="cls-12" d="M291.17,53.9c-2.69,0-4.88-1.63-4.88-3.64s2.19-3.64,4.88-3.64,4.88,1.63,4.88,3.64S293.87,53.9,291.17,53.9Z"/><path class="cls-12" d="M291.17,53.67c-2.52,0-4.57-1.53-4.57-3.41s2-3.41,4.57-3.41,4.58,1.53,4.58,3.41S293.7,53.67,291.17,53.67Z"/><path class="cls-12" d="M291.17,53.44c-2.35,0-4.26-1.42-4.26-3.18s1.91-3.18,4.26-3.18,4.27,1.42,4.27,3.18S293.53,53.44,291.17,53.44Z"/><path class="cls-12" d="M291.17,53.21c-2.18,0-4-1.32-4-3s1.78-3,4-3,4,1.33,4,3S293.36,53.21,291.17,53.21Z"/><path class="cls-12" d="M291.17,53c-2,0-3.65-1.22-3.65-2.72s1.64-2.73,3.65-2.73,3.66,1.22,3.66,2.73S293.19,53,291.17,53Z"/><path class="cls-12" d="M291.17,52.76c-1.85,0-3.35-1.12-3.35-2.5s1.5-2.5,3.35-2.5,3.35,1.12,3.35,2.5S293,52.76,291.17,52.76Z"/><path class="cls-12" d="M291.17,52.53c-1.68,0-3-1-3-2.27s1.36-2.27,3-2.27,3.05,1,3.05,2.27S292.85,52.53,291.17,52.53Z"/><path class="cls-12" d="M291.17,52.3c-1.51,0-2.73-.91-2.73-2s1.22-2,2.73-2,2.74.91,2.74,2S292.69,52.3,291.17,52.3Z"/><path class="cls-12" d="M291.17,52.07c-1.34,0-2.43-.81-2.43-1.81s1.09-1.81,2.43-1.81,2.44.81,2.44,1.81S292.52,52.07,291.17,52.07Z"/><path class="cls-12" d="M291.17,51.84c-1.17,0-2.12-.71-2.12-1.58s.95-1.59,2.12-1.59,2.13.71,2.13,1.59S292.35,51.84,291.17,51.84Z"/><path class="cls-12" d="M291.17,51.61c-1,0-1.82-.6-1.82-1.35s.82-1.36,1.82-1.36,1.82.61,1.82,1.36S292.18,51.61,291.17,51.61Z"/><path class="cls-12" d="M291.17,51.39c-.83,0-1.51-.51-1.51-1.13s.68-1.13,1.51-1.13,1.52.51,1.52,1.13S292,51.39,291.17,51.39Z"/><path class="cls-12" d="M291.17,51.16c-.66,0-1.2-.4-1.2-.9s.54-.9,1.2-.9,1.21.4,1.21.9S291.84,51.16,291.17,51.16Z"/><path class="cls-12" d="M291.17,50.93c-.49,0-.9-.3-.9-.67s.41-.67.9-.67.91.3.91.67S291.67,50.93,291.17,50.93Z"/><path class="cls-12" d="M291.17,50.7c-.32,0-.59-.2-.59-.44a.54.54,0,0,1,.59-.45c.33,0,.6.2.6.45S291.5,50.7,291.17,50.7Z"/></g><path class="cls-59" d="M294,50.09a2.34,2.34,0,0,0-2.18-1.46h-.14c-11.93.72-17.16-.24-18.8-.66,0,.11,0,.23-.06.35l.34.09a49.67,49.67,0,0,0,10.6.85c2.42,0,5.09-.09,7.94-.26h.09a2,2,0,0,1,1.87,1.23,7.35,7.35,0,0,1,.1,5.34l-.22.6a2,2,0,0,1-1.74,1.29c-1.11.06-2.87.14-5,.14a67.09,67.09,0,0,1-12-1l-.48-.09c.08.14.17.28.26.42a77.6,77.6,0,0,0,17.25.87,2.37,2.37,0,0,0,2.07-1.54l.21-.59A7.68,7.68,0,0,0,294,50.09Z"/><path class="cls-12" d="M291.32,36.5c-3.41,0-5.61.42-5.61.94s2.2.93,5.61.93,5.6-.42,5.6-.93S294.73,36.5,291.32,36.5Zm0,1.48c-3,0-4.87-.3-4.87-.67s1.9-.68,4.87-.68,4.87.3,4.87.68S294.28,38,291.32,38Z"/><path class="cls-12" d="M309.55,101.52c-.29.6-.6,1.19-.91,1.77-3.15,2-9.28,3.34-17.32,3.34s-14.21-1.36-17.34-3.36c-.31-.58-.62-1.17-.91-1.77a5.32,5.32,0,0,0,.62.48c3,2.1,9.3,3.54,17.63,3.54C300.24,105.52,306.79,103.87,309.55,101.52Z"/><path class="cls-12" d="M279.47,76.51c-5.94-.91-6.43,5.9-3.93,10.25a8.21,8.21,0,0,0,5.37,4.13,4.37,4.37,0,0,0,4.7-2.6C287.3,84.58,285.41,77.41,279.47,76.51Z"/><g class="cls-60"><path class="cls-61" d="M277.17,80.61c-1.29-.2-1.4,1.28-.85,2.24a1.78,1.78,0,0,0,1.17.9,1,1,0,0,0,1-.57A1.92,1.92,0,0,0,277.17,80.61Z"/><path class="cls-62" d="M281.83,80.61c-1.3-.2-1.4,1.28-.86,2.24a1.82,1.82,0,0,0,1.18.9,1,1,0,0,0,1-.57A1.91,1.91,0,0,0,281.83,80.61Z"/><path class="cls-63" d="M280,84.83c-1.3-.2-1.4,1.29-.86,2.24a1.79,1.79,0,0,0,1.18.9,1,1,0,0,0,1-.57A1.91,1.91,0,0,0,280,84.83Z"/></g><path class="cls-12" d="M301.86,48.38c3.31-1,4.09,2.88,3,5.54a4.69,4.69,0,0,1-2.75,2.74,2.51,2.51,0,0,1-2.86-1.13C298,53.54,298.55,49.33,301.86,48.38Z"/><path class="cls-12" d="M314.09,80.57c0,3.86-1.69,7-3.77,7s-3.78-3.14-3.78-7,1.69-7,3.78-7S314.09,76.71,314.09,80.57Z"/><rect class="cls-12" x="309.01" y="83.59" width="2.88" height="14.87" transform="translate(99.62 -154.36) rotate(32.99)"/><path class="cls-64" d="M322.23,80.29a7,7,0,1,1-7-7A7,7,0,0,1,322.23,80.29Z"/><path class="cls-65" d="M322.23,80.29a7,7,0,1,1-7-7A7,7,0,0,1,322.23,80.29Z"/><path class="cls-66" d="M312.36,105.3c-4.06,6-10.27,8.84-13.87,6.4s-3.22-9.27.84-15.24,10.27-8.84,13.87-6.4S316.42,99.33,312.36,105.3Z"/><path class="cls-67" d="M302.17,102.9c2.62,2,9.6-4.23,11.75-7.08s1.84-5.5-.79-7.48-5.26-1.53-7.4,1.32S299.55,100.93,302.17,102.9Z"/><path class="cls-68" d="M313.92,95.82a29.33,29.33,0,0,1-5.48,5.2l-.52.37c-2.25,1.53-4.49,2.46-5.75,1.52s-1-3.37-.13-6q.1-.28.21-.6a29.26,29.26,0,0,1,3.48-6.69c2.14-2.86,4.78-3.29,7.4-1.32S316.06,93,313.92,95.82Z"/><path class="cls-10" d="M253.38,131.62s0,.09,0,.14a.5.5,0,0,0,0,.12.59.59,0,0,0,0,.13.51.51,0,0,0,0,.13.93.93,0,0,0,0,.13l0,.12,0,.13.05.12.06.14a.54.54,0,0,0,.05.11c0,.05.05.09.07.14l.06.11c0,.06.07.11.1.16a.36.36,0,0,0,.07.1l.13.18,0,.07.24.28.07.07.2.21.1.09.14.11.12.11.15.11.13.1a.91.91,0,0,0,.16.11l.14.1.17.11.21.12,29.33,17.05c.19.11.4.22.61.32l.17.08.58.25.08,0,.66.23.47.13.36.1.5.1.37.08.15,0c.21,0,.42.07.64.09l.18,0,.74.06H291l.5,0h.92c.16,0,.31,0,.46,0l.43,0,.45-.05.41-.06.49-.08.5-.11.12,0,.68-.19.2-.06.55-.19.16-.05.49-.21.23-.1c.23-.11.46-.23.67-.35l29.52-17.05c1.8-1,2.7-2.4,2.7-3.76V139h0v-8.15c0,1.36-.9,2.73-2.7,3.77l-29.52,17c-.21.12-.44.24-.67.35l-.23.1-.49.21-.16.06c-.18.06-.36.13-.55.18a1.52,1.52,0,0,1-.2.06l-.68.19-.12,0-.5.1-.49.08-.41.06-.45,0-.43,0-.46,0h-1.56l-.74-.06-.18,0-.64-.09-.15,0-.37-.07-.5-.11-.36-.1-.47-.13-.66-.23-.08,0-.58-.25L286,152c-.21-.1-.42-.21-.61-.32l-29.33-17-.21-.13-.17-.11a.71.71,0,0,1-.14-.1.91.91,0,0,1-.16-.11l-.13-.1-.15-.11-.12-.1-.14-.12-.1-.09-.2-.21-.07-.07-.24-.27,0-.08-.13-.18a.36.36,0,0,1-.07-.1c0-.05-.07-.1-.1-.16l-.06-.11-.07-.14a.37.37,0,0,1-.05-.11l-.06-.14-.05-.12,0-.13,0-.12a.65.65,0,0,1,0-.13.5.5,0,0,1,0-.12.68.68,0,0,1,0-.14.5.5,0,0,1,0-.12c0-.05,0-.09,0-.14s0-.11,0-.16v.68Z"/><path class="cls-10" d="M253.38,117.35c0,.05,0,.09,0,.14a.5.5,0,0,0,0,.12,526368323137.23,526368323137.23,0,0,1,0,.26.93.93,0,0,0,0,.13l0,.12,0,.13.05.12.06.14a.54.54,0,0,0,.05.11s.05.09.07.14l.06.11.1.16a.36.36,0,0,0,.07.1l.13.18,0,.07.24.28.07.07.2.21.1.09.14.11.12.11.15.11.13.1a.91.91,0,0,0,.16.11l.14.1.17.1.21.13,29.33,17c.19.11.4.22.61.32l.17.08.58.25.08,0,.66.23.47.13.36.1.5.1.37.08.15,0c.21,0,.42.07.64.09l.18,0,.74.06H291l.5,0h.92l.46,0,.43,0,.45,0,.41-.06.49-.08.5-.11.12,0,.68-.19.2-.06.55-.19.16,0,.49-.21.23-.1c.23-.11.46-.23.67-.35l29.52-17c1.8-1,2.7-2.4,2.7-3.76v7.63h0v-8.15c0,1.36-.9,2.73-2.7,3.77l-29.52,17c-.21.12-.44.24-.67.35l-.23.1-.49.21-.16,0a5.1,5.1,0,0,1-.55.19,1.52,1.52,0,0,1-.2.06l-.68.19-.12,0-.5.1-.49.08-.41.06-.45.05-.43,0-.46,0h-1.56l-.74-.06-.18,0-.64-.09-.15,0-.37-.07-.5-.11-.36-.1-.47-.13-.66-.23-.08,0-.58-.25-.17-.08c-.21-.1-.42-.21-.61-.32l-29.33-17-.21-.13-.17-.11a.71.71,0,0,1-.14-.1.91.91,0,0,1-.16-.11l-.13-.1-.15-.11-.12-.1-.14-.12-.1-.09-.2-.21-.07-.07-.24-.27,0-.08-.13-.18a.36.36,0,0,1-.07-.1c0-.05-.07-.1-.1-.16l-.06-.11-.07-.14a.37.37,0,0,1-.05-.11l-.06-.14-.05-.12,0-.13,0-.12a.65.65,0,0,1,0-.13.5.5,0,0,1,0-.12.78.78,0,0,1,0-.14.5.5,0,0,1,0-.12s0-.09,0-.14,0-.11,0-.16v.68Z"/><g class="cls-2"><path class="cls-69" d="M95.84,103,108,96l-3.16,17.54-12.18,7.08Zm6.83-41.64L97.84,91.84,110,84.76l4.82-30.44Z"/><polygon class="cls-5" points="106.2 30.04 94.02 37.12 111.57 47.25 123.75 40.17 106.2 30.04"/><polygon class="cls-70" points="110.03 84.76 97.84 91.84 107.31 97.3 119.49 90.22 110.03 84.76"/><path class="cls-3" d="M111.57,47.25,94,37.12,79.39,112.9l13.29,7.68L95.84,103l13.32,7.69,2.93,21,13.42,7.75ZM97.84,91.84l4.83-30.44,4.64,35.9Z"/><polygon class="cls-69" points="123.75 40.17 111.57 47.25 125.51 139.53 137.69 132.45 123.75 40.17"/></g><g class="cls-2"><polygon class="cls-3" points="134.62 60.56 134.62 144.66 147.2 152.02 147.2 67.92 134.62 60.56"/><polygon class="cls-69" points="147.2 67.92 147.2 152.02 159.56 144.94 159.56 60.84 147.2 67.92"/><polygon class="cls-5" points="147.2 53.48 134.62 60.56 147.2 67.92 159.56 60.84 147.2 53.48"/></g><path class="cls-71" d="M111.57,47.25,94,37.12,79.39,112.9l13.29,7.68L95.84,103l13.32,7.69,2.93,21,13.42,7.75ZM110.24,110,95,101.2l-3.16,17.54-11.14-6.43L94.85,38.94l15.65,9L124,137.31l-10.83-6.25Z"/><path class="cls-72" d="M101.52,61.21l-5,31.24,12.19,7-4.94-38.24s-.18-1.82-1.15-1.82S101.52,61.21,101.52,61.21ZM97.84,91.84l4.83-30.44,4.64,35.9Z"/><path class="cls-73" d="M134.62,60.56v84.1L147.2,152V67.92ZM146,150l-10.26-6V62.59l10.26,6Z"/><polygon class="cls-74" points="136.06 143.74 136.06 62.75 135.78 62.59 135.78 143.99 146.04 149.99 146.04 149.58 136.06 143.74"/><path class="cls-75" d="M103.82,61.25l4.89,37.82.38.23-4.93-38.24a2.93,2.93,0,0,0-.3-1,1.19,1.19,0,0,0-1-.59C103.69,59.67,103.82,61.25,103.82,61.25Z"/><polygon class="cls-76" points="123.93 136.9 113.49 130.87 110.57 109.82 95.32 101.01 95.26 101.36 110.24 110.01 113.16 131.06 123.99 137.31 123.93 136.9"/><polygon class="cls-77" points="94.85 38.94 80.69 112.31 91.83 118.74 91.89 118.4 81.02 112.12 95.12 39.09 94.85 38.94"/></g></g></svg>