<?xml version="1.0" encoding="UTF-8"?>
<svg width="991px" height="185px" viewBox="0 0 991 185" version="1.1" xmlns="http://www.w3.org/2000/svg" xmlns:xlink="http://www.w3.org/1999/xlink">
    <!-- Generator: Sketch 53.2 (72643) - https://sketchapp.com -->
    <title>Group 3</title>
    <desc>Created with Sketch.</desc>
    <g id="Page-1" stroke="none" stroke-width="1" fill="none" fill-rule="evenodd">
        <g id="Group-3" transform="translate(0.000000, 0.000000)" fill-rule="nonzero">
            <g id="android-(1)" fill="#8BC34A">
                <path d="M12,69 C5.652,69 0.5,74.152 0.5,80.5 L0.5,126.5 C0.5,132.848 5.652,138 12,138 C18.348,138 23.5,132.848 23.5,126.5 L23.5,80.5 C23.5,74.152 18.348,69 12,69 Z" id="Path"></path>
                <path d="M150,69 C143.652,69 138.5,74.152 138.5,80.5 L138.5,126.5 C138.5,132.848 143.652,138 150,138 C156.348,138 161.5,132.848 161.5,126.5 L161.5,80.5 C161.5,74.152 156.348,69 150,69 Z" id="Path"></path>
                <path d="M34.5,139.402535 C34.5,145.787568 39.652,150.969624 46,150.969624 L46,173.432911 C46,179.817944 51.152,185 57.5,185 C63.848,185 69,179.817944 69,173.432911 L69,150.969624 L92,150.969624 L92,173.432911 C92,179.817944 97.152,185 103.5,185 C109.848,185 115,179.817944 115,173.432911 L115,150.969624 C121.348,150.969624 126.5,145.787568 126.5,139.402535 L126.5,70 L34.5,70 L34.5,139.402535 Z" id="Path"></path>
                <path d="M109.204,22.0067988 L119.439,9.49095471 C121.463,7.02026445 121.118,3.36642675 118.6685,1.32491743 C116.2075,-0.704992403 112.5965,-0.368607345 110.5725,2.10208291 L99.383,15.7778754 C93.61,13.1447924 87.2505,11.6020609 80.5,11.6020609 C73.6575,11.6020609 67.2175,13.2027898 61.387,15.9170693 L50.4965,2.1832793 C48.507,-0.310609921 44.896,-0.728191373 42.412,1.27851949 C39.9395,3.28523036 39.537,6.92746857 41.515,9.43295728 L51.612,22.1691916 C41.2505,30.6716139 34.5,43.4774451 34.5,58 L126.5,58 C126.5,43.3846492 119.669,30.5092211 109.204,22.0067988 Z M69,40.6007729 C65.826,40.6007729 63.25,38.0024883 63.25,34.8010305 C63.25,31.5995727 65.826,29.0012881 69,29.0012881 C72.174,29.0012881 74.75,31.5995727 74.75,34.8010305 C74.75,38.0024883 72.174,40.6007729 69,40.6007729 Z M92,40.6007729 C88.826,40.6007729 86.25,38.0024883 86.25,34.8010305 C86.25,31.5995727 88.826,29.0012881 92,29.0012881 C95.174,29.0012881 97.75,31.5995727 97.75,34.8010305 C97.75,38.0024883 95.174,40.6007729 92,40.6007729 Z" id="Shape"></path>
            </g>
            <g id="Group-2" transform="translate(192.500000, 43.000000)" fill="#D6D6D8">
                <g id="Group" transform="translate(0.500000, 0.000000)">
                    <path d="M86.2588387,116.659974 C84.6428685,116.659974 85.1524367,121.352026 85.1508784,35.1902895 C85.1508784,33.3333421 83.6346402,31.8210789 81.76934,31.8210789 L58.3338759,31.8210789 C50.5469876,31.8210789 43.1496774,35.1996053 38.0415285,41.0918421 C23.0770521,58.3493421 35.3098065,85.2595526 59.1441985,85.2595526 L73.4744417,85.2595526 C73.8141538,85.2595526 74.0915335,85.5359211 74.0915335,85.8743947 C74.0915335,117.403684 74.4889032,116.659974 73.3778263,116.659974 L59.7207742,116.659974 C29.0749975,116.659974 2.95300248,93.5148947 0.25244665,63.9683158 C-2.96391067,28.7996579 25.0592258,0.422210526 58.3338759,0.422210526 L115.606541,0.422210526 C117.217836,0.422210526 116.667752,-5.3955 116.667752,115.560711 C116.667752,117.166132 117.164854,116.659974 86.2588387,116.659974 Z M243.385062,116.659974 C213.250412,116.659974 212.877975,117.262395 212.876417,115.012632 L212.876417,58.5434211 C212.876417,43.9269474 200.991166,31.8288421 185.992407,31.8288421 C170.632119,31.8288421 159.240854,44.7141316 159.240854,59.3476842 L159.240854,115.532763 C159.240854,117.138184 159.845479,116.659974 128.623127,116.659974 C127.226878,116.659974 127.725538,118.776211 127.725538,59.9221579 C127.725538,29.3912105 150.953747,3.36444737 180.606878,0.670631579 C215.851236,-2.54331579 244.391732,25.3403947 244.391732,58.5418684 C244.391732,118.543316 244.954283,116.659974 243.385062,116.659974 Z M313.783395,116.659974 C253.306839,116.659974 255.451077,117.229789 255.451077,115.309184 L255.451077,86.6072368 C255.451077,84.6866316 253.253856,85.2611053 313.783395,85.2611053 C329.999196,85.2611053 342.722819,70.9070263 340.301201,54.519 C338.392268,41.5793684 326.641032,31.8226316 312.969955,31.8226316 L256.390739,31.8226316 C255.871821,31.8226316 255.451077,31.4018684 255.451077,30.8863947 L255.451077,0.922157895 C255.451077,0.645789474 255.675474,0.422210526 255.951295,0.422210526 L312.391821,0.422210526 C343.037598,0.422210526 369.161151,23.5672895 371.864824,53.1138684 C375.082739,88.2809737 347.059603,116.659974 313.783395,116.659974 Z M499.836576,116.482974 C499.836576,116.759342 468.59864,116.618053 468.321261,116.619605 L468.321261,100.964421 C468.321261,92.0787105 461.065757,84.8496579 452.147533,84.8496579 L383.831107,84.8496579 C383.46802,84.8496579 383.173499,84.5546579 383.173499,84.1944474 L383.173499,53.9429737 C383.173499,53.6712632 383.396337,53.4492368 383.669042,53.4492368 L457.467613,53.4492368 C464.643643,53.4492368 470.116437,46.5167368 467.769618,39.1603684 C466.392069,34.8409474 462.035027,31.8241842 457.176208,31.8241842 L383.396337,31.8241842 C383.050392,31.8241842 383.173499,1.15505263 383.173499,0.810368421 C383.173499,0.2095 455.776844,0.423763158 456.378352,0.423763158 C492.856893,0.423763158 513.915931,41.4380789 489.007861,70.8200789 C501.271782,86.5265 499.836576,97.2629474 499.836576,116.482974 Z" id="Combined-Shape"></path>
                    <path d="M575.2106,0.721868421 C573.231543,0.524684211 571.252486,0.426868421 569.287454,0.426868421 C553.825876,0.426868421 539.039047,6.46971053 528.004635,17.4623421 C493.344645,51.9913158 514.490948,111.508342 563.250551,116.361868 C600.131136,120.029184 630.935861,89.2668947 627.259801,52.5921842 C624.520288,25.2705263 602.63067,3.45605263 575.2106,0.721868421 Z M595.669687,63.0584737 C592.133876,84.3947368 565.630094,92.7261579 550.272923,77.4265263 C534.794203,62.0026842 543.519196,35.6809211 564.69199,32.1968158 C583.022422,29.1769474 598.694372,44.7964211 595.669687,63.0584737 Z" id="Shape"></path>
                </g>
                <path d="M681.814468,115.672512 C681.814468,116.300772 682.325686,116.812111 682.953798,116.812111 L714.491897,116.812111 C713.863785,116.812111 713.352567,116.300772 713.352567,115.672512 C713.352567,84.674151 712.902134,85.2852634 714.546448,85.2852634 L683.008349,85.2852634 C681.973573,85.2852634 681.768032,85.0480188 681.758052,92.5726616 C681.768004,85.0464282 681.973504,85.2837044 683.008349,85.2837044 L740.157223,85.2837044 C747.948622,85.2837044 755.348814,81.8882895 760.457877,75.9704774 C775.420355,58.6379602 763.180736,31.6274194 739.342079,31.6274194 L714.82757,31.6274194 C714.886475,31.6286753 714.947562,31.6289784 715.010908,31.6289784 C697.413535,31.6289784 689.143873,31.806207 685.257985,31.6274194 L683.472809,31.6274194 C682.935881,31.6274194 682.561176,31.6054969 682.30175,31.1668945 C681.822452,30.9050839 681.814091,30.5233377 681.814468,29.9718039 L681.814468,28.0237627 C681.663333,24.3493241 681.814457,16.9307813 681.814468,1.95573387 C681.814468,1.95521408 681.814468,1.95469443 681.814468,1.95417491 C681.814468,1.43295527 681.768795,1.0461042 682.161036,0.760718086 C682.852835,0.153412305 684.918506,0.0171515489 691.070294,0.0162537027 C698.779797,-0.0483698979 712.902235,0.100571479 738.765401,0.100571479 C769.415102,0.100571479 795.54333,23.3384291 798.247486,53.0054378 C801.467536,88.3174405 773.436268,116.812111 740.157223,116.812111 L682.953798,116.812111 C682.326204,116.812111 681.813756,116.301616 681.814465,115.672512 Z M681.75805,92.5726053 C681.757801,92.7604895 681.757675,92.9532119 681.75766,93.1508971 Z M639.886798,116.812111 C639.526764,116.812111 639.233749,116.519027 639.23219,116.157348 L639.23219,0.532403397 C639.23219,0.293882518 639.425455,0.100571479 639.66392,0.100571479 L669.810196,0.100571479 C670.330766,0.100571479 670.753144,0.523049637 670.753144,1.04218331 L670.753144,116.160466 C670.753144,116.520586 670.460129,116.812111 670.101653,116.812111 L639.886798,116.812111 Z M32.2917291,63.905686 C34.47064,87.8248092 51.8785483,107.555007 74.6043707,114.306863 C74.6043707,115.335776 74.8677727,116.812111 73.8905358,116.812111 L60.2310401,116.812111 C29.57978,116.812111 3.45311093,93.5726947 0.752071894,63.905686 C-2.46486093,28.5936833 25.5632897,0.100571479 58.8438936,0.100571479 L90.3835509,0.100571479 C56.8551309,0.100571479 29.102851,28.8462348 32.2917291,63.905686 Z M202.471216,2.26908483 C178.49852,9.11915503 160.743046,31.602476 159.839063,57.749353 C159.74243,59.5452749 159.772044,53.1769234 159.772044,115.680306 C159.772044,117.292271 160.376777,116.812111 129.148838,116.812111 C127.75234,116.812111 128.25109,118.936974 128.25109,59.8430363 C128.25109,21.3897291 164.189092,-8.52515416 202.471216,2.26908483 Z M287.534463,86.6353227 C287.534463,117.02413 287.023245,116.812111 288.890438,116.812151 L257.352339,116.812111 C255.483588,116.812111 255.996365,117.035043 255.996365,86.6353227 C255.996365,84.7739245 255.464885,85.2837044 288.885762,85.2837044 C288.140755,85.2837044 287.534463,85.8901398 287.534463,86.6353227 Z M256.934637,31.6289784 C256.417184,31.6289784 255.996365,31.2065002 255.994806,30.6889255 L255.994806,0.602556596 C255.994806,0.325061718 256.219243,0.100571479 256.495114,0.100571479 L288.033213,0.100571479 C287.757342,0.100571479 287.532905,0.326620678 287.532905,0.602556596 L287.532905,30.6889255 C287.532905,31.2080592 287.955283,31.6289784 288.472735,31.6289784 L256.934637,31.6289784 Z M415.502617,31.6289784 C415.15661,31.6289784 383.74164,31.7521362 383.74164,31.4060471 L383.74164,0.488752517 C383.74164,0.275174998 383.916202,0.100571479 384.129729,0.100571479 L415.667828,0.100571479 C415.454301,0.100571479 415.279738,0.275174998 415.279738,0.488752517 C415.279738,0.836400595 415.15661,31.6289784 415.502617,31.6289784 Z M415.279738,84.2126989 C415.279738,84.5743776 415.575871,84.869021 415.937464,84.87058 L384.399365,84.87058 C384.036214,84.87058 383.74164,84.5743776 383.74164,84.2126989 L383.74164,53.8379224 C383.74164,53.5651044 383.964518,53.3421731 384.237272,53.3421731 L415.77537,53.3421731 C415.502617,53.3421731 415.279738,53.5651044 415.279738,53.8379224 L415.279738,84.2126989 Z M585.691455,2.27064379 C529.354608,17.9989911 528.394515,98.5800742 585.496631,114.642039 C527.118029,130.928494 486.820646,58.9934031 528.598691,17.2101574 C539.635077,6.17272065 554.424552,0.105248359 569.888896,0.105248359 C571.85428,0.105248359 573.833691,0.203462838 575.813103,0.401450757 C579.198363,0.739745076 582.49946,1.37268283 585.691455,2.27064379 Z" id="Combined-Shape"></path>
            </g>
        </g>
    </g>
</svg>