<?xml version="1.0" standalone="no"?>
<!DOCTYPE svg PUBLIC "-//W3C//DTD SVG 1.1//EN" "http://www.w3.org/Graphics/SVG/1.1/DTD/svg11.dtd" >
<svg xmlns="http://www.w3.org/2000/svg">
<metadata>Generated by IcoMoon</metadata>
<defs>
<font id="qognitiv" horiz-adv-x="1024">
<font-face units-per-em="1024" ascent="896" descent="-128" />
<missing-glyph horiz-adv-x="1024" />
<glyph unicode="&#x20;" horiz-adv-x="400" d="" />
<glyph unicode="&#xe900;" glyph-name="advertising" horiz-adv-x="853" d="M544.017 682.672l170.657-298.672h-448.003l128.001 213.328 51.516-85.844 97.829 171.188zM397.718 426.672l24.188 42.328-27.234 45.406-52.64-87.734h55.686zM446.861 426.672h194.281l-97.125 170-97.157-170zM576.018 213.312c11.75 0 21.312-9.532 21.312-21.312s-9.562-21.312-21.312-21.312h-170.673c-11.782 0-21.344 9.532-21.344 21.312s9.562 21.312 21.344 21.312h170.673zM661.33 298.688c11.812 0 21.344-9.564 21.344-21.376 0-11.75-9.532-21.312-21.344-21.312h-341.33c-11.782 0-21.328 9.562-21.328 21.312 0 11.814 9.546 21.376 21.328 21.376h341.33zM832.019 896c11.75 0 21.312-9.546 21.314-21.328v-981.36c0-11.75-9.53-21.312-21.312-21.312-11.812 0-21.344 9.562-21.344 21.312v106.688h-640.004v-106.686c0-11.75-9.546-21.312-21.328-21.312s-21.344 9.562-21.344 21.312v149.374h-70.546l-14.984-109.562h-0.016c-1.406-10.438-10.314-18.438-21.11-18.438-11.782 0-21.344 9.53-21.344 21.312 0 1 0.094 1.938 0.218 2.876h-0.016l127.907 937.922c0.014 0.11 0.030 0.218 0.046 0.328l0.172 1.218h0.016c1.75 10.032 10.468 17.656 21 17.656h682.676zM127.999 85.312v473.376l-64.718-473.376h64.718zM810.675 42.688v810.64h-640.004v-810.64h640.004z" />
<glyph unicode="&#xe901;" horiz-adv-x="832" d="M92 783.311v-33.225h-60v33.225c0.042 44.543 30.462 80.639 68 80.689h60c-37.538-0.050-67.958-36.146-68-80.689zM32 721.608h60v-678.737h-60v678.737zM92-47.311c0.042-44.543 30.462-80.639 68-80.689h-60c-37.538 0.050-67.958 36.146-68 80.689v61.703h60v-61.703z" />
<glyph unicode="&#xe902;" horiz-adv-x="832" d="M104.173-128c-27.775 0.071-54.378 11.353-73.927 31.352s-30.432 47.067-30.244 75.218v810.86c-0.188 28.152 10.696 55.219 30.244 75.218s46.152 31.281 73.927 31.352h365.713c57.977 0 106.114-47.808 106.114-106.57v-136.688h-27.428v76.452h-32.971c-7.574 0-13.714 6.223-13.714 13.9s6.14 13.9 13.714 13.9h32.971v32.434c0 43.434-35.833 78.769-78.685 78.769h-365.713c-20.503-0.063-40.134-8.413-54.541-23.2s-22.398-34.788-22.202-55.569v-32.434h371.598c7.574 0 13.714-6.223 13.714-13.9s-6.14-13.9-13.714-13.9h-371.598v-662.588h521.141v55.602h27.428v-143.638c0-58.762-48.137-106.57-106.114-106.57h-365.713zM27.427 38.805l0.004-60.235c-0.196-20.781 7.795-40.782 22.202-55.569s34.038-23.138 54.541-23.2h365.713c42.852 0 78.685 35.335 78.685 78.769v60.235h-521.144zM444.046 756.995h25.406c7.574 0 13.714-6.223 13.714-13.9s-6.14-13.9-13.714-13.9h-25.406c-7.574 0-13.714 6.223-13.714 13.9s6.14 13.9 13.714 13.9zM287.030-79.348c-26.498 0.029-47.971 21.794-48 48.652 0 26.87 21.49 48.652 48 48.652s48-21.782 48-48.652c0-26.87-21.49-48.652-48-48.652zM287.030-9.846c-11.356-0.013-20.559-9.34-20.571-20.851 0-11.516 9.21-20.851 20.571-20.851s20.571 9.335 20.571 20.851c0 11.516-9.21 20.851-20.571 20.851zM223.339 428.018h18.948c7.574 0 13.714-6.223 13.714-13.9s-6.14-13.9-13.714-13.9h-18.948c-7.574 0-13.714 6.223-13.714 13.9s6.14 13.9 13.714 13.9zM80.002 400.217c-7.574 0-13.714 6.223-13.714 13.9s6.14 13.9 13.714 13.9h82.69c7.574 0 13.714-6.223 13.714-13.9s-6.14-13.9-13.714-13.9h-82.69zM256.001 298.281c0-7.677-6.14-13.9-13.714-13.9h-87.52c-7.574 0-13.714 6.223-13.714 13.9s6.14 13.9 13.714 13.9h87.52c7.574 0 13.714-6.223 13.714-13.9zM80.002 284.38c-7.574 0-13.714 6.223-13.714 13.9s6.14 13.9 13.714 13.9h14.119c7.574 0 13.714-6.223 13.714-13.9s-6.14-13.9-13.714-13.9h-14.119zM246.859 168.543c-7.574 0-13.714 6.223-13.714 13.9s6.14 13.9 13.714 13.9h64c7.574 0 13.714-6.223 13.714-13.9s-6.14-13.9-13.714-13.9h-64zM80.002 168.543c-7.574 0-13.714 6.223-13.714 13.9s6.14 13.9 13.714 13.9h105.547c7.574 0 13.714-6.223 13.714-13.9s-6.14-13.9-13.714-13.9h-105.547zM278.858 539.222c0-7.677-6.14-13.9-13.714-13.9h-86.857c-7.574 0-13.714 6.223-13.714 13.9s6.14 13.9 13.714 13.9h86.857c7.574 0 13.714-6.223 13.714-13.9zM80.002 525.321c-7.574 0-13.714 6.223-13.714 13.9s6.14 13.9 13.714 13.9h36.976c7.574 0 13.714-6.223 13.714-13.9s-6.14-13.9-13.714-13.9h-36.976z" />
<glyph unicode="&#xe903;" horiz-adv-x="832" d="M299.937 348.677c-6.883 0.697-12.075 6.539-11.934 13.427v75.794c-0.14 6.885 5.048 12.724 11.927 13.422l46.499 4.496c5.274 19.431 13.178 38.057 23.493 55.367l-29.822 35.864c-4.457 5.36-4.087 13.217 0.853 18.139l53.684 53.463c4.942 4.922 12.833 5.291 18.216 0.852l35.928-29.632c17.384 10.309 36.123 18.162 55.679 23.334l4.514 46.606c0.67 6.915 6.504 12.192 13.48 12.193h76.107c6.972-0.002 12.803-5.275 13.476-12.186l4.514-46.613c19.512-5.25 38.215-13.12 55.595-23.394l36.007 29.7c5.407 4.455 13.336 4.059 18.268-0.913l52.988-53.463c4.878-4.937 5.209-12.75 0.765-18.078l-29.813-35.78c10.314-17.319 18.159-35.983 23.31-55.454l46.557-4.496c6.849-0.711 11.984-6.57 11.765-13.425v-75.794c0.218-6.844-4.9-12.699-11.738-13.425l-45.67-4.482c-5.271-19.436-13.175-38.067-23.493-55.38l29.825-35.864c4.457-5.36 4.087-13.217-0.853-18.139l-53.684-53.463c-4.941-4.921-12.831-5.29-18.214-0.852l-35.93 29.632c-17.384-10.309-36.123-18.162-55.679-23.334l-4.514-46.606c-0.67-6.916-6.506-12.194-13.482-12.193h-76.107c-6.972 0.006-12.8 5.282-13.469 12.193l-4.514 46.613c-19.512 5.248-38.216 13.116-55.598 23.388l-36.009-29.7c-5.382-4.437-13.27-4.068-18.211 0.852l-53.672 53.463c-4.935 4.926-5.297 12.783-0.835 18.139l29.795 35.78c-10.33 17.317-18.192 35.981-23.36 55.454l-46.643 4.496zM315.089 425.647v-51.293l43.847-4.251c5.793-0.58 10.519-4.874 11.629-10.565 4.992-22.963 14.233-44.8 27.251-64.394 3.317-4.957 2.977-11.493-0.837-16.082l-28.152-33.854 36.255-36.097 33.994 28.034c4.55 3.753 11.017 4.136 15.981 0.946 19.784-12.903 41.748-22.136 64.832-27.252 5.756-1.244 10.045-6.050 10.609-11.889l4.257-43.974h51.505l4.264 43.974c0.564 5.839 4.853 10.645 10.609 11.889 23.058 4.972 44.985 14.175 64.66 27.139 4.977 3.303 11.539 2.964 16.146-0.834l33.987-28.034 36.233 36.097-28.181 33.854c-3.786 4.517-4.194 10.957-1.009 15.913 12.92 19.706 22.149 41.581 27.24 64.563 1.142 5.695 5.881 9.981 11.683 10.565l43.014 4.235v51.309l-43.677 4.251c-5.754 0.592-10.424 4.897-11.46 10.565-4.992 22.963-14.233 44.8-27.251 64.394-3.317 4.957-2.975 11.494 0.84 16.082l28.199 33.924-35.678 35.987-33.931-27.994c-4.55-3.753-11.017-4.136-15.981-0.946-19.784 12.903-41.748 22.136-64.832 27.252-5.761 1.24-10.055 6.047-10.62 11.889l-4.255 43.974h-51.505l-4.266-43.983c-0.564-5.839-4.853-10.645-10.609-11.889-23.058-4.972-44.985-14.176-64.66-27.139-4.977-3.304-11.541-2.965-16.148 0.834l-33.989 28.034-36.235-36.097 28.17-33.854c3.779-4.522 4.179-10.962 0.989-15.913-12.934-19.705-22.178-41.58-27.285-64.565-1.18-5.712-5.957-9.995-11.785-10.565l-43.847-4.24zM560.508 238.945c-89.274 0.1-161.62 72.149-161.721 161.055 0 88.948 72.405 161.055 161.721 161.055s161.721-72.107 161.721-161.055c0-88.948-72.405-161.055-161.721-161.055zM560.508 534.080c-74.322-0.083-134.551-60.064-134.634-134.080 0-74.050 60.278-134.080 134.634-134.080s134.634 60.030 134.634 134.080c0 74.050-60.278 134.080-134.634 134.080zM533.137 351.959l-43.831 42.616c-5.297 5.213-5.374 13.707-0.172 19.015s13.73 5.436 19.092 0.288l34.371-33.418 69.507 67.58c3.455 3.403 8.476 4.701 13.157 3.403s8.305-4.995 9.496-9.686c1.191-4.692-0.232-9.659-3.731-13.018l-78.967-76.78c-5.262-5.116-13.661-5.116-18.922 0z" />
<glyph unicode="&#xe904;" horiz-adv-x="869" d="M522.499-22.724c-4.145 4.44-10.041 4.44-14.185 0l-11.828-12.63 43.147-46.1 18.914 20.208-36.047 38.522z" />
<glyph unicode="&#xe905;" horiz-adv-x="869" d="M264.883-81.455l45.149 37.281v377.708c0.362 1.839 0.362 3.723 0 5.561v408.837c0.009 39.584-17.557 76.992-47.671 101.522h-45.149c30.114-24.529 47.68-61.938 47.671-101.522v-408.837c0.362-1.839 0.362-3.723 0-5.561v-414.989z" />
<glyph unicode="&#xe906;" horiz-adv-x="869" d="M367.337-22.717c-4.144 4.43-10.039 4.43-14.184 0l-11.82-12.63 43.149-46.108 18.911 20.208-36.057 38.53z" />
<glyph unicode="&#xe907;" horiz-adv-x="869" d="M832.178-52.494c-4.046 2.76-9.802 2.76-13.849 0l-11.541-7.85 31.030-21.11v25.121l-5.641 3.839z" />
<glyph unicode="&#xe908;" horiz-adv-x="869" d="M708.68-22.725c-4.152 4.441-10.041 4.441-14.185 0l-11.828-12.632 43.147-46.098 18.914 20.212-36.047 38.518z" />
<glyph unicode="&#xe909;" horiz-adv-x="869" d="M77.366 720.068c0.072 45.6 32.245 85.194 77.785 95.714-30.028 6.922-61.649 0.079-85.849-18.58-24.191-18.651-38.291-47.072-38.273-77.134v-367.098l43.295 36.596c0.923 0.758 1.946 1.393 3.041 1.896v328.606z" />
<glyph unicode="&#xe90a;" horiz-adv-x="869" d="M255.434 383.875l-14.52-14.088 14.656-16.818v31.030c-0.045-0.044-0.091-0.080-0.136-0.125z" />
<glyph unicode="&#xe90b;" horiz-adv-x="869" d="M130.704 381.398c-5.577 3.241-14.771 3.486-20.891 0.556l-16.722-8.018 36.076-20.966 25.985 14.222-24.448 14.206z" />
<glyph unicode="&#xe90c;" horiz-adv-x="869" d="M8.166 333.688c4.969-2.255 10.8-1.416 14.933 2.138l56.48 48.656 45.698-47.736c2.589-2.697 6.149-4.249 9.901-4.312 3.751-0.054 7.367 1.389 10.028 4.005l47.651 46.843 37.687-43.848v-438.056c0-5.322 3.079-10.184 7.912-12.493 4.832-2.3 10.573-1.651 14.76 1.669l67.598 53.698 67.589-53.698c5.105-4.050 12.344-4.050 17.44 0l67.589 53.698 67.589-53.698c5.096-4.050 12.335-4.050 17.44 0l67.571 53.698 67.58-53.689c5.096-4.059 12.344-4.059 17.44 0l67.58 53.689 67.571-53.689c4.187-3.319 9.919-3.96 14.742-1.651 4.823 2.3 7.893 7.144 7.903 12.466v872.884c-0.064 58.641-47.915 106.161-106.965 106.224h-630.91c-0.145 0-0.291 0-0.436 0-0.436 0-0.872 0-1.308 0-71.341-0.081-129.147-57.487-129.229-128.324v-405.872c0-5.43 3.188-10.355 8.166-12.601zM761.883 852.774c43.645-0.045 79.016-35.17 79.061-78.513v-844.055l-53.619 42.603c-5.096 4.059-12.344 4.059-17.44 0l-67.571-53.689-67.58 53.689c-5.105 4.059-12.344 4.059-17.44 0l-67.589-53.689-67.562 53.689c-5.096 4.059-12.344 4.059-17.44 0l-67.589-53.689-67.598 53.698c-5.096 4.050-12.344 4.050-17.44 0l-53.646-42.621v411.275c0.372 1.822 0.372 3.689 0 5.511v405.177c0.009 39.23-18.076 76.303-49.086 100.613h552.539zM27.904 752.161c0 55.566 45.362 100.613 101.325 100.613 55.953 0 101.316-45.048 101.316-100.613v-370.043l-26.215 30.498c-2.525 2.932-6.149 4.682-10.028 4.844s-7.639-1.29-10.4-3.996l-48.205-47.384-45.081 47.086c-5.141 5.367-13.616 5.773-19.257 0.92l-43.455-37.435v375.509z" />
<glyph unicode="&#xe90d;" horiz-adv-x="869" d="M324.269 376.161h5.27c7.448 0 13.491 6.145 13.491 13.719s-6.043 13.719-13.491 13.719h-5.27c-7.457 0-13.491-6.145-13.491-13.719s6.034-13.719 13.491-13.719z" />
<glyph unicode="&#xe90e;" horiz-adv-x="869" d="M382.196 376.161h39.859c7.457 0 13.491 6.145 13.491 13.719s-6.034 13.719-13.491 13.719h-39.859c-7.457 0-13.491-6.145-13.491-13.719s6.034-13.719 13.491-13.719z" />
<glyph unicode="&#xe90f;" horiz-adv-x="869" d="M475.564 376.161h285.762c7.448 0 13.491 6.145 13.491 13.719s-6.043 13.719-13.491 13.719h-285.762c-7.448 0-13.491-6.145-13.491-13.719s6.043-13.719 13.491-13.719z" />
<glyph unicode="&#xe910;" horiz-adv-x="869" d="M324.269 490.483h5.27c7.448 0 13.491 6.145 13.491 13.719s-6.043 13.719-13.491 13.719h-5.27c-7.457 0-13.491-6.145-13.491-13.719s6.034-13.719 13.491-13.719z" />
<glyph unicode="&#xe911;" horiz-adv-x="869" d="M382.196 490.483h39.859c7.457 0 13.491 6.145 13.491 13.719s-6.034 13.719-13.491 13.719h-39.859c-7.457 0-13.491-6.145-13.491-13.719s6.034-13.719 13.491-13.719z" />
<glyph unicode="&#xe912;" horiz-adv-x="869" d="M475.564 490.483h285.762c7.448 0 13.491 6.145 13.491 13.719s-6.043 13.719-13.491 13.719h-285.762c-7.448 0-13.491-6.145-13.491-13.719s6.043-13.719 13.491-13.719z" />
<glyph unicode="&#xe913;" horiz-adv-x="869" d="M324.269 604.805h5.27c7.448 0 13.491 6.145 13.491 13.719s-6.043 13.719-13.491 13.719h-5.27c-7.457 0-13.491-6.145-13.491-13.719s6.034-13.719 13.491-13.719z" />
<glyph unicode="&#xe914;" horiz-adv-x="869" d="M382.196 604.805h39.859c7.457 0 13.491 6.145 13.491 13.719s-6.034 13.719-13.491 13.719h-39.859c-7.457 0-13.491-6.145-13.491-13.719s6.034-13.719 13.491-13.719z" />
<glyph unicode="&#xe915;" horiz-adv-x="869" d="M475.564 604.805h285.762c7.448 0 13.491 6.145 13.491 13.719s-6.043 13.719-13.491 13.719h-285.762c-7.448 0-13.491-6.145-13.491-13.719s6.043-13.719 13.491-13.719z" />
<glyph unicode="&#xe916;" horiz-adv-x="869" d="M324.269 261.839h5.27c7.448 0 13.491 6.145 13.491 13.719s-6.043 13.719-13.491 13.719h-5.27c-7.457 0-13.491-6.145-13.491-13.719s6.034-13.719 13.491-13.719z" />
<glyph unicode="&#xe917;" horiz-adv-x="869" d="M382.196 261.839h39.859c7.457 0 13.491 6.145 13.491 13.719s-6.034 13.719-13.491 13.719h-39.859c-7.457 0-13.491-6.145-13.491-13.719s6.034-13.719 13.491-13.719z" />
<glyph unicode="&#xe918;" horiz-adv-x="869" d="M475.564 261.839h285.762c7.448 0 13.491 6.145 13.491 13.719s-6.043 13.719-13.491 13.719h-285.762c-7.448 0-13.491-6.145-13.491-13.719s6.043-13.719 13.491-13.719z" />
<glyph unicode="&#xe919;" horiz-adv-x="869" d="M371.296 2.926c22.372 6.779 36.46 29.241 33.079 52.731-3.39 23.49-23.224 40.888-46.57 40.852-11.067-0.009-20.053 9.101-20.053 20.355-0.009 11.254 8.959 20.381 20.026 20.39 11.067 0 20.035-9.119 20.035-20.373 0-7.583 6.043-13.719 13.491-13.719s13.491 6.136 13.491 13.719c-0.026 21.096-13.632 39.691-33.5 45.774v7.038c0 7.583-6.043 13.719-13.491 13.719-7.457 0-13.491-6.136-13.491-13.719v-7.038c-22.38-6.779-36.469-29.233-33.087-52.731 3.39-23.49 23.224-40.888 46.579-40.852 11.058 0.063 20.079-8.994 20.141-20.239 0.070-11.254-8.845-20.417-19.903-20.489-0.088 0-0.158 0.018-0.237 0.018-0.088 0-0.158-0.018-0.246-0.018-10.953 0.143-19.772 9.208-19.789 20.346 0 7.583-6.034 13.719-13.491 13.719-7.448 0-13.491-6.136-13.491-13.719 0.035-21.096 13.65-39.682 33.527-45.765v-8.601c0-7.574 6.034-13.719 13.491-13.719 7.448 0 13.491 6.145 13.491 13.719v8.601z" />
<glyph unicode="&#xe91a;" horiz-adv-x="869" d="M761.326 59.006h-25.7c-7.448 0-13.491-6.145-13.491-13.719 0-7.583 6.043-13.719 13.491-13.719h25.7c7.448 0 13.491 6.136 13.491 13.719 0 7.574-6.043 13.719-13.491 13.719z" />
<glyph unicode="&#xe91b;" horiz-adv-x="869" d="M613.483 59.006c-7.457 0-13.491-6.145-13.491-13.719 0-7.583 6.034-13.719 13.491-13.719h73.799c7.448 0 13.491 6.136 13.491 13.719 0 7.574-6.043 13.719-13.491 13.719h-73.799z" />
<glyph unicode="&#xe91c;" horiz-adv-x="869" d="M465.63 31.569h100.061c7.448 0 13.491 6.136 13.491 13.719 0 7.574-6.043 13.719-13.491 13.719h-100.061c-7.448 0-13.491-6.145-13.491-13.719 0-7.583 6.043-13.719 13.491-13.719z" />
<glyph unicode="&#xe91d;" d="M512 405.72c-93.538 0.097-169.333 75.903-169.441 169.441 0 93.581 75.86 169.441 169.441 169.441s169.441-75.86 169.441-169.441c0-93.581-75.86-169.441-169.441-169.441zM512 711.57c-75.301-0.086-136.323-61.108-136.409-136.409 0-75.344 61.075-136.419 136.409-136.419s136.409 61.075 136.409 136.419c0 75.333-61.075 136.409-136.409 136.409zM236.731 23.398c-9.118 0-16.516 7.398-16.516 16.516 0 161.151 130.634 291.785 291.785 291.785s291.785-130.634 291.785-291.785c0-9.118-7.398-16.516-16.516-16.516h-550.538zM512 298.667c-136.43-0.161-249.355-106.097-258.237-242.237h516.473c-8.882 136.14-121.806 242.075-258.237 242.237z" />
<glyph unicode="&#xe91e;" d="M267.204 896c9.118 0 16.516-7.398 16.516-16.516s-7.398-16.516-16.516-16.516h-234.172v-234.172c0-9.118-7.398-16.516-16.516-16.516s-16.516 7.398-16.516 16.516v250.688c0 9.118 7.398 16.516 16.516 16.516h250.688zM267.204-94.968c9.118 0 16.516-7.398 16.516-16.516s-7.398-16.516-16.516-16.516h-250.688c-9.118 0-16.516 7.398-16.516 16.516v250.688c0 9.118 7.398 16.516 16.516 16.516s16.516-7.398 16.516-16.516v-234.172h234.172zM756.796-128c-9.118 0-16.516 7.398-16.516 16.516s7.398 16.516 16.516 16.516h234.172v234.172c0 9.118 7.398 16.516 16.516 16.516s16.516-7.398 16.516-16.516v-250.688c0-9.118-7.398-16.516-16.516-16.516h-250.688zM756.796 862.968c-9.118 0-16.516 7.398-16.516 16.516s7.398 16.516 16.516 16.516h250.688c9.118 0 16.516-7.398 16.516-16.516v-250.688c0-9.118-7.398-16.516-16.516-16.516s-16.516 7.398-16.516 16.516v234.172h-234.172z" />
<glyph unicode="&#xe91f;" glyph-name="facial-recognition" horiz-adv-x="672" d="M175.619 785.14c-15.666-10.893-30.034-23.449-42.841-37.436l-48.525 42.017c15.986 17.482 33.915 33.185 53.462 46.819l37.904-51.399zM99.746 701.96c-9.184-16.36-16.378-33.706-21.437-51.684l-62.654 16.712c6.407 22.675 15.487 44.556 27.056 65.205l57.035-30.233zM654.147 364.215c0-77.936-59.179-146.395-129.92-200.574v-164.276l111.959-54.59-29.037-56.549-147.881 72.060v158.81c-10.686-6.729-21.339-13.047-31.765-18.955-60.705-34.225-135.604-34.225-196.309 0-10.426 6.034-21.080 12.384-31.765 18.955v-158.779l-147.881-71.934-29.037 56.549 111.959 54.369v164.276c-70.741 54.274-129.92 122.891-129.92 200.669v222.151c0 3.706 0.055 7.434 0.162 11.183l64.96-2.338c-0.162-2.938-0.162-5.908-0.162-8.846v-222.183c0-63.215 70.839-139.508 194.295-209.262 40.671-22.367 90.418-22.367 131.089 0 123.456 69.786 194.295 146.111 194.295 209.294v222.151c-1.979 137.759-118.203 247.977-259.84 246.414-35.525 0.089-70.703-6.81-103.416-20.282l-25.334 58.192c40.732 16.763 84.523 25.358 128.751 25.273 177.497 1.526 322.784-136.959 324.8-309.597v-222.183zM262.698 347.503l-118.714 115.467 45.927 44.67 76.166-74.082 204.527 170.499 42.289-47.956-250.193-208.599z" />
<glyph unicode="&#xe920;" horiz-adv-x="1103" d="M78.769 856.615c-17.905-0.019-32.415-14.187-32.434-31.671v-580.904h-46.335v580.904c0.019 17.484 14.529 31.652 32.434 31.671h46.335zM46.335 139.979c0.020-17.483 14.53-31.651 32.434-31.671h-46.335c-17.905 0.020-32.414 14.188-32.434 31.671v76.915h46.335v-76.915z" />
<glyph unicode="&#xe921;" horiz-adv-x="1103" d="M1006.179 561.335c3.827-1.919 6.695-5.325 7.932-9.418 19.185-63.271 5.199-131.932-37.215-182.698-33.16-40.006-81.014-65.054-132.834-69.529-5.889-0.521-11.751-0.782-17.587-0.782-45.86-0.029-90.242 16.184-125.253 45.755-82.903 69.518-93.967 192.842-24.758 275.962 49.098 59.093 95.364 65.909 118.579 64.705 4.39-0.232 8.469-2.331 11.207-5.765 2.102-2.633 3.295-5.874 3.4-9.239l23.17-161.307 161.368 53.115c3.943 1.342 8.261 1.054 11.99-0.8zM955.918 386.678c33.806 40.453 46.792 94.326 35.123 145.704l-162.92-53.624c-4.662-1.591-9.803-0.882-13.859 1.911s-6.544 7.34-6.709 12.256l-23.689 164.913c-18.456-1.809-50.884-11.904-86.372-54.621-59.576-71.269-50.153-177.227 21.067-236.903s177.381-50.569 237.359 20.364zM839.952 550.333l-18.001 125.316c-0.962 8.655 4.815 16.625 13.351 18.418 48.283 10.227 90.487-1.179 122.025-32.99 24.299-24.512 35.435-54.030 39.092-65.584 1.386-4.37 0.944-9.114-1.228-13.153s-5.886-7.030-10.3-8.292l-123.175-37.537c-4.744-1.445-9.884-0.748-14.069 1.91s-6.997 7.009-7.696 11.912zM937.915 641.902v-0.007c-22.981 23.176-52.362 32.306-87.432 27.209l14.794-102.994 101.53 30.94c-6.666 16.658-16.474 31.884-28.891 44.851zM132.611 226.948c-3.623-0.002-7.099 1.433-9.662 3.99s-4.003 6.026-4.003 9.643v419.83c0.005 10.106 8.203 18.301 18.326 18.318h87.79c10.123-0.018 18.321-8.212 18.326-18.318v-419.83c0-7.529-6.114-13.633-13.656-13.633s-13.656 6.104-13.656 13.633v410.882h-69.809v-410.882c0-7.529-6.114-13.633-13.656-13.633zM278.222 226.948c-7.542 0-13.656 6.104-13.656 13.633v326.15c0.005 10.106 8.203 18.301 18.326 18.318h87.778c10.123-0.018 18.321-8.212 18.326-18.318v-326.15c0-7.529-6.114-13.633-13.656-13.633s-13.656 6.104-13.656 13.633v317.198h-69.807v-317.198c0-3.616-1.439-7.083-4-9.64s-6.034-3.993-9.656-3.993zM423.836 226.948c-7.542 0-13.656 6.104-13.656 13.633v209.041c0.005 10.106 8.204 18.3 18.326 18.316h87.783c10.123-0.016 18.321-8.21 18.326-18.316v-209.041c0-7.529-6.114-13.633-13.656-13.633s-13.656 6.104-13.656 13.633v200.1h-69.812v-200.1c0-7.529-6.114-13.633-13.656-13.633z" />
<glyph unicode="&#xe922;" horiz-adv-x="1103" d="M491.777-40.135h-142.553c-7.427 0-13.448-6.223-13.448-13.9v-60.064c0-7.677 6.021-13.9 13.448-13.9h411.606c7.427 0 13.448 6.223 13.448 13.9v60.064c0 7.677-6.021 13.9-13.448 13.9h-142.553v114.188h426.216c32.17 0.038 58.239 26.984 58.276 60.235v701.477c-0.037 33.251-26.107 60.197-58.276 60.235h-986.216c-32.17-0.038-58.239-26.984-58.276-60.235v-701.477c0.037-33.251 26.107-60.197 58.276-60.235h433.5v-114.188zM747.382-100.199h-384.703v32.263h384.703v-32.263zM591.38-40.135h-72.707v114.188h72.713l-0.007-114.188zM58.276 868.199h986.216c17.323-0.019 31.361-14.529 31.38-32.434v-594.907h-1048.976v594.907c0.019 17.905 14.057 32.415 31.38 32.434zM26.897 134.288v78.769h1048.976v-78.769c-0.020-17.905-14.057-32.414-31.38-32.434h-986.216c-17.322 0.020-31.36 14.53-31.38 32.434v0z" />
<glyph unicode="&#xe923;" horiz-adv-x="1130" d="M702.393 549.793l-208.048-208.048c15.783-84.045 89.367-145.055 175.013-145.055 98.202 0 178.091 79.889 178.091 178.091 0 85.645-61.010 159.23-145.055 175.013v0z" />
<glyph unicode="&#xe924;" horiz-adv-x="1130" d="M760.276 696.815l15.315-12.847-592.836-595.581-12.752 15.404c-62.621 75.427-97.103 171.129-97.103 269.451 0 232.198 188.022 421.109 419.168 421.109 97.869 0 193.112-34.642 268.209-97.535zM255.146 212.894l378.287 380.056h-378.287v-380.056zM669.882 629.568l51.346 51.575c-65.887 49.51-146.509 76.589-229.161 76.589-211.026 0-382.719-172.47-382.719-384.49 0-83.052 26.954-164.031 76.254-230.222l33.095 33.257v453.292h451.186zM1129.931 629.568v-512.654h-217.326c-88.997-146.982-249.006-238.018-420.538-238.018-271.333 0-492.067 221.756-492.067 494.345s220.734 494.345 492.067 494.345c171.533 0 331.56-91.018 420.556-238.018h217.308zM492.067-84.485c151.324 0 293.108 76.437 377.45 201.4h-45.072c-79.11-103.284-202.545-164.782-332.378-164.782-97.869 0-193.13 34.642-268.209 97.553l-15.333 12.811 592.819 595.581 12.77-15.368c3.56-4.282 6.87-8.725 10.242-13.142h45.161c-84.325 124.963-226.109 201.4-377.45 201.4-251.23 0-455.617-205.333-455.617-457.727s204.387-457.727 455.617-457.727zM314.234 116.914l-51.328-51.557c65.887-49.527 146.492-76.607 229.161-76.607 108.859 0 212.805 47.382 285.019 128.163h-462.852zM1093.482 153.533v439.418h-305.406l-95.537-95.98v-32.184c30.14 0 54.674-24.648 54.674-54.927h-36.449c0 10.084-8.169 18.309-18.225 18.309h-36.449c-10.056 0-18.225-8.225-18.225-18.309s8.169-18.309 18.225-18.309h36.449c30.14 0 54.674-24.648 54.674-54.927s-24.534-54.927-54.674-54.927v-36.618h-36.449v36.618c-30.14 0-54.674 24.648-54.674 54.927h36.449c0-10.102 8.169-18.309 18.225-18.309h36.449c10.056 0 18.225 8.207 18.225 18.309s-8.169 18.309-18.225 18.309h-36.449c-28.779 0-52.174 22.52-54.274 50.895l-251.132-252.295h742.799zM328.044 519.714v-54.927h-36.449v91.545h91.123v-36.618h-54.674zM1057.032 190.151h-91.123v36.618h54.674v54.927h36.449v-91.545zM1020.583 464.787v54.927h-54.674v36.618h91.123v-91.545h-36.449z" />
<glyph unicode="&#xe925;" horiz-adv-x="768" d="M655.059 896c62.365-0.026 112.915-50.502 112.941-112.775v-798.449c-0.026-62.273-50.576-112.749-112.941-112.775h-542.118c-62.365 0.026-112.915 50.502-112.941 112.775v798.449c0.026 62.273 50.576 112.749 112.941 112.775h542.118zM722.824-15.225v798.449c-0.106 37.322-30.388 67.559-67.765 67.665h-542.118c-37.376-0.106-67.659-30.344-67.765-67.665v-798.449c0.106-37.322 30.388-67.559 67.765-67.665h542.118c37.376 0.106 67.659 30.344 67.765 67.665zM470.515 789.762c12.476 0 22.588-10.097 22.588-22.555 0-12.449-10.112-22.555-22.588-22.555h-180.706c-12.476 0-22.588 10.106-22.588 22.555 0 12.458 10.112 22.555 22.588 22.555h180.706z" />
<glyph unicode="&#xe926;" horiz-adv-x="768" d="M384 352.423c-64.465 0.088-116.7 52.247-116.779 116.608 0 64.405 52.279 116.608 116.779 116.608s116.779-52.203 116.779-116.608c0-64.396-52.279-116.608-116.779-116.608zM384 540.308c-39.538-0.018-71.594-32.018-71.603-71.498 0-39.489 32.056-71.507 71.603-71.507s71.603 32.018 71.603 71.507c0 39.489-32.056 71.498-71.603 71.498zM384 309.339c47.779 0.352 93.635-18.793 126.944-53.004 33.882-34.502 52.403-81.419 52.403-132.396-0.035-12.441-10.121-22.52-22.588-22.555h-313.518c-12.468 0.035-22.553 10.115-22.588 22.555 0 50.978 18.521 97.894 52.403 132.396 33.309 34.211 79.165 53.357 126.944 53.004zM251.409 146.493h265.182c-3.918 29.48-17.224 56.916-37.95 78.264-24.997 25.26-59.082 39.471-94.641 39.471s-69.644-14.211-94.641-39.471c-20.771-21.322-34.085-48.775-37.95-78.264z" />
<glyph unicode="&#xe927;" horiz-adv-x="745" d="M149.4 8.563l41.169-32.508-43.717-34.54-48.876 38.603 36.002 28.444c4.508 3.563 10.913 3.563 15.421 0zM87.16 821.135v-832.548c-4.476 3.206-10.576 3.063-14.899-0.341l-46.819-36.976v907.175l46.795-36.984c4.331-3.413 10.439-3.548 14.923-0.325zM283.138 8.563l41.145-32.508-43.717-34.54-48.86 38.603 36.002 28.444c4.508 3.571 10.921 3.571 15.429 0z" />
<glyph unicode="&#xe928;" horiz-adv-x="745" d="M478.578 765.865c6.815 0 12.344-5.46 12.344-12.19s-5.529-12.19-12.344-12.19h-129.479c-6.823 0-12.344 5.46-12.344 12.19s5.521 12.19 12.344 12.19h129.479zM478.578 714.214c6.815 0 12.344-5.46 12.344-12.19s-5.529-12.19-12.344-12.19h-129.479c-6.823 0-12.344 5.46-12.344 12.19s5.521 12.19 12.344 12.19h129.479zM82.515 396.881c-6.823 0-12.344 5.46-12.344 12.19 0 6.738 5.521 12.19 12.344 12.19h4.773c6.823 0 12.344-5.452 12.344-12.19 0-6.73-5.521-12.19-12.344-12.19h-4.773zM171.13 421.262c6.815 0 12.344-5.452 12.344-12.19 0-6.73-5.529-12.19-12.344-12.19h-36.123c-6.815 0-12.344 5.46-12.344 12.19 0 6.738 5.529 12.19 12.344 12.19h36.123zM478.578 421.262c6.815 0 12.344-5.452 12.344-12.19 0-6.73-5.529-12.19-12.344-12.19h-258.957c-6.815 0-12.344 5.46-12.344 12.19 0 6.738 5.529 12.19 12.344 12.19h258.957zM82.515 497.5c-6.823 0-12.344 5.46-12.344 12.19 0 6.738 5.521 12.19 12.344 12.19h4.773c6.823 0 12.344-5.452 12.344-12.19 0-6.73-5.521-12.19-12.344-12.19h-4.773zM171.13 521.881c6.815 0 12.344-5.452 12.344-12.19 0-6.73-5.529-12.19-12.344-12.19h-36.123c-6.815 0-12.344 5.46-12.344 12.19 0 6.738 5.529 12.19 12.344 12.19h36.123zM478.578 521.881c6.815 0 12.344-5.452 12.344-12.19 0-6.73-5.529-12.19-12.344-12.19h-258.957c-6.815 0-12.344 5.46-12.344 12.19 0 6.738 5.529 12.19 12.344 12.19h258.957zM82.515 275.944c-6.823 0-12.344 5.46-12.344 12.19 0 6.738 5.521 12.19 12.344 12.19h4.773c6.823 0 12.344-5.452 12.344-12.19 0-6.73-5.521-12.19-12.344-12.19h-4.773zM183.474 288.135c0-6.73-5.529-12.19-12.344-12.19h-36.123c-6.815 0-12.344 5.46-12.344 12.19 0 6.738 5.529 12.19 12.344 12.19h36.123c6.815 0 12.344-5.452 12.344-12.19zM351.068 288.135c0-6.73-5.521-12.19-12.344-12.19h-119.112c-6.815 0-12.344 5.46-12.344 12.19 0 6.738 5.529 12.19 12.344 12.19h119.112c6.823 0 12.344-5.452 12.344-12.19zM553.338 894.794c4.283-2.024 7.016-6.294 7.024-10.992v-511.46c0-6.73-5.529-12.19-12.344-12.19s-12.344 5.46-12.344 12.19v486.095l-46.819-36.976c-4.508-3.563-10.921-3.563-15.429 0l-59.162 46.73-59.146-46.73c-4.516-3.563-10.921-3.563-15.429 0l-59.154 46.73-59.146-46.73c-4.508-3.563-10.921-3.563-15.429 0l-59.146 46.73-59.146-46.73c-4.508-3.563-10.921-3.563-15.429 0l-46.795 36.976v-907.167l46.803 36.968c4.508 3.571 10.921 3.571 15.429 0l59.162-46.73 59.154 46.73c4.508 3.571 10.921 3.571 15.429 0l59.146-46.73 59.154 46.73c4.838 3.833 11.805 3.516 16.273-0.738l48.297-45.952 26.519 17.857c5.633 3.794 13.308 2.357 17.149-3.206s2.387-13.151-3.247-16.937l-34.789-23.429c-4.83-3.254-11.315-2.714-15.518 1.294l-47.719 45.397-58.391-46.135c-4.516-3.571-10.921-3.571-15.429 0l-59.154 46.73-59.146-46.73c-4.516-3.571-10.921-3.571-15.429 0l-59.162 46.73-59.162-46.73c-3.705-2.929-8.784-3.5-13.059-1.468s-6.999 6.302-6.999 10.984v957.897c0.008 4.683 2.724 8.944 6.991 10.968 4.267 2.032 9.338 1.468 13.043-1.444l59.138-46.73 59.138 46.73c4.508 3.563 10.921 3.563 15.429 0l59.146-46.73 59.154 46.73c4.508 3.563 10.921 3.563 15.429 0l59.146-46.73 59.154 46.73c4.508 3.563 10.921 3.563 15.429 0l59.162-46.73 59.162 46.73c3.705 2.929 8.784 3.5 13.059 1.468zM298.624 598.722c0-6.738-5.529-12.19-12.344-12.19h-203.765c-6.823 0-12.344 5.452-12.344 12.19v154.952c0 6.73 5.521 12.19 12.344 12.19h203.765c6.815 0 12.344-5.46 12.344-12.19v-154.952zM273.937 610.913v130.571h-179.078v-130.571h179.078zM478.578 610.913c6.815 0 12.344-5.46 12.344-12.19 0-6.738-5.529-12.19-12.344-12.19h-129.479c-6.823 0-12.344 5.452-12.344 12.19 0 6.73 5.521 12.19 12.344 12.19h129.479zM478.578 662.563c6.815 0 12.344-5.46 12.344-12.19s-5.529-12.19-12.344-12.19h-129.479c-6.823 0-12.344 5.46-12.344 12.19s5.521 12.19 12.344 12.19h129.479zM149.923 161.183l-13.276 0.135c1.101-2.262 2.001-4.611 2.692-7.016l10.503-0.111c6.815-0.040 12.311-5.524 12.279-12.262-0.040-6.73-5.593-12.159-12.408-12.119h-0.137l-10.503 0.111c-4.741-15.444-17.736-27.040-33.776-30.135l31.028-29.579c4.902-4.675 5.039-12.389 0.305-17.238-4.733-4.841-12.552-4.976-17.455-0.302l-52.412 49.984c-3.616 3.452-4.757 8.73-2.869 13.333 1.88 4.611 6.413 7.627 11.443 7.627h0.129l21.4-0.222c5.722 0 11.154 2.5 14.843 6.825l-36.163 0.381c-6.815 0.040-12.311 5.524-12.279 12.262 0.040 6.73 5.593 12.159 12.408 12.119h0.137l36.179-0.381c-0.394 0.476-0.804 0.937-1.246 1.389-3.6 3.643-8.518 5.714-13.67 5.762l-21.191 0.222c-6.815 0.032-12.311 5.516-12.279 12.254 0.032 6.73 5.593 12.159 12.408 12.127h0.137l74.037-0.786c6.815-0.040 12.311-5.524 12.271-12.254-0.032-6.738-5.585-12.167-12.408-12.127h-0.129zM260.356 161.183l-13.276 0.135c1.109-2.262 2.009-4.603 2.692-7.016l10.511-0.111c6.815-0.040 12.311-5.524 12.279-12.262-0.040-6.73-5.593-12.159-12.408-12.119h-0.137l-10.503 0.111c-4.749-15.444-17.736-27.032-33.776-30.135l31.028-29.579c4.902-4.675 5.039-12.389 0.305-17.238-4.741-4.841-12.552-4.976-17.455-0.302l-52.412 49.984c-3.632 3.468-4.765 8.778-2.845 13.397 1.953 4.587 6.509 7.571 11.556 7.563l21.392-0.222c5.079-0.016 9.957 1.952 13.581 5.468 0.45 0.437 0.86 0.889 1.27 1.357l-36.171 0.381c-6.823 0.040-12.319 5.524-12.279 12.262 0.032 6.73 5.593 12.159 12.408 12.119h0.137l36.179-0.381c-0.394 0.476-0.812 0.937-1.254 1.389-3.592 3.643-8.51 5.714-13.661 5.762l-21.191 0.222c-6.823 0.032-12.319 5.524-12.279 12.254 0.032 6.73 5.593 12.159 12.408 12.127h0.137l74.029-0.786c6.823-0.040 12.319-5.524 12.279-12.254-0.032-6.73-5.585-12.167-12.408-12.127h-0.137z" />
<glyph unicode="&#xe929;" horiz-adv-x="745" d="M736.884 271.571c4.026-2.119 6.541-6.254 6.541-10.762v-126.492c-0.008-108.579-65.945-206.556-167.305-248.611l-28.544-12.175c-3.134-1.333-6.694-1.325-9.828 0.024l-25.33 10.905c-99.52 42.968-163.873 140.024-163.986 247.294v129.063c0 4.452 2.459 8.548 6.413 10.69l182.558 98.802c3.648 1.976 8.060 2 11.733 0.063l187.749-98.802zM718.738 134.317v119.175l-175.325 92.27-170.294-92.167v-121.849c0.113-97.579 58.656-185.849 149.183-224.937l20.412-8.794 23.747 10.135c92.239 38.23 152.261 127.373 152.277 226.167zM476.705 139.659l41.555-48.040 105.643 84.881c3.415 2.794 8.092 3.563 12.239 2.016s7.136-5.183 7.827-9.508c0.691-4.325-1.021-8.683-4.484-11.421l-115.006-92.389c-5.191-4.175-12.818-3.492-17.173 1.54l-49.374 57.087c-2.885 3.31-3.761 7.897-2.29 12.016s5.063 7.151 9.41 7.937c4.356 0.794 8.8-0.778 11.652-4.119z" />
<glyph unicode="&#xe92a;" glyph-name="modules" horiz-adv-x="990" d="M74.238 468.873c5.637 30.139 14.287 59.6 25.791 87.791 3.54 8.687 13.189 12.749 21.586 9.062 8.381-3.669 12.3-13.687 8.743-22.374-10.207-25.026-17.988-51.134-23.191-77.826 33.549-10.785 57.983-43.254 57.983-81.526 0-38.264-24.424-70.727-57.962-81.519 5.209-26.698 12.979-52.818 23.187-77.832 3.54-8.687-0.362-18.705-8.743-22.374-2.108-0.905-4.281-1.348-6.422-1.348-6.422 0-12.514 3.908-15.165 10.411-11.503 28.189-20.165 57.66-25.795 87.789-41.383 4.457-73.757 40.821-73.757 84.874 0 44.049 32.367 80.409 73.744 84.873zM89.561 434.725c-0.496-0.047-0.997-0.071-1.502-0.071-0.873 0-1.729 0.068-2.618 0.222-0.494 0.082-0.98 0.186-1.456 0.31-0.386 0.009-0.774 0.014-1.162 0.014-27.234 0-49.397-22.972-49.397-51.2s22.163-51.2 49.397-51.2c0.394 0 0.786 0.005 1.178 0.014 0.476 0.125 0.962 0.228 1.457 0.31 1.391 0.238 2.773 0.282 4.121 0.153 24.051 3.425 42.641 24.869 42.641 50.723 0 25.86-18.599 47.308-42.658 50.725zM412.578 819.56c4.304 42.889 39.386 76.44 81.884 76.44s77.58-33.551 81.884-76.44c29.072-5.846 57.489-14.823 84.682-26.745 8.381-3.669 12.3-13.687 8.743-22.374-2.651-6.502-8.743-10.411-15.165-10.411-2.141 0-4.314 0.427-6.405 1.348-24.13 10.579-49.325 18.643-75.087 24.046-10.408-34.769-41.731-60.091-78.652-60.091s-68.244 25.322-78.652 60.091c-25.762-5.403-50.958-13.467-75.087-24.046-2.108-0.905-4.265-1.348-6.405-1.348-6.422 0-12.514 3.908-15.165 10.411-3.54 8.687 0.362 18.705 8.743 22.374 27.193 11.922 55.61 20.899 84.682 26.745zM445.077 809.551c0.129-0.517 0.235-1.044 0.318-1.581 0.225-1.466 0.264-2.918 0.134-4.33 3.315-24.917 23.998-44.174 48.933-44.174 24.936 0 45.621 19.259 48.934 44.178-0.13 1.411-0.091 2.861 0.134 4.325 0.083 0.538 0.189 1.066 0.318 1.583 0.008 0.37 0.012 0.741 0.012 1.113 0 28.228-22.163 51.2-49.397 51.2s-49.397-22.972-49.397-51.2c0-0.373 0.004-0.745 0.012-1.115zM415.81-17.424c10.408 34.769 41.731 60.091 78.652 60.091s68.246-25.324 78.653-60.094c25.768 5.403 50.968 13.468 75.103 24.050 8.397 3.652 18.046-0.358 21.586-9.062 3.54-8.687-0.362-18.705-8.743-22.374-27.203-11.926-55.632-20.906-84.716-26.752-4.307-42.886-39.387-76.433-81.884-76.433-42.498 0-77.578 33.549-81.884 76.437-29.078 5.846-57.501 14.824-84.699 26.748-8.381 3.669-12.3 13.687-8.743 22.374 3.54 8.704 13.189 12.715 21.586 9.062 24.13-10.579 49.325-18.643 75.087-24.046zM445.529-35.645c0.13-1.411 0.091-2.861-0.134-4.325-0.083-0.535-0.189-1.060-0.318-1.575-0.008-0.373-0.012-0.747-0.012-1.121 0-28.228 22.163-51.2 49.397-51.2s49.397 22.972 49.397 51.2c0 0.395-0.004 0.789-0.013 1.182-0.121 0.495-0.221 1.001-0.3 1.515-0.221 1.44-0.263 2.867-0.141 4.256-3.284 24.953-23.983 44.248-48.943 44.248-24.936 0-45.621-19.259-48.934-44.178zM881.742 302.479c-33.541 10.79-57.968 43.255-57.968 81.521 0 38.264 24.424 70.727 57.962 81.519-5.209 26.698-12.979 52.818-23.187 77.832-3.54 8.687 0.362 18.705 8.743 22.374 8.397 3.686 18.046-0.375 21.586-9.062 11.503-28.189 20.165-57.66 25.795-87.789 41.383-4.457 73.757-40.821 73.757-84.874 0-44.055-32.376-80.419-73.761-84.875-5.637-30.138-14.286-59.598-25.79-87.789-2.651-6.502-8.76-10.411-15.181-10.411-2.141 0-4.314 0.427-6.405 1.348-8.381 3.669-12.3 13.687-8.743 22.374 10.208 25.028 17.989 51.137 23.192 77.831zM899.339 333.278c1.348 0.128 2.733 0.083 4.13-0.154 0.494-0.082 0.979-0.185 1.454-0.31 0.392-0.010 0.786-0.014 1.18-0.014 27.234 0 49.397 22.972 49.397 51.2s-22.163 51.2-49.397 51.2c-0.394 0-0.786-0.005-1.178-0.014-0.476-0.125-0.962-0.228-1.457-0.31-0.873-0.154-1.745-0.222-2.618-0.222-0.501 0-0.998 0.024-1.491 0.071-24.057-3.42-42.654-24.867-42.654-50.725 0-25.85 18.586-47.293 42.633-50.722zM820.399 627.49c-4.923 0-9.797 2.287-13.041 6.639-20.714 27.802-44.836 52.804-71.708 74.308-7.195 5.751-8.529 16.469-2.964 23.927s15.906 8.823 23.101 3.072c29.095-23.279 55.209-50.347 77.635-80.452 5.549-7.475 4.232-18.176-2.964-23.927-3.013-2.406-6.537-3.567-10.060-3.567zM745.843 29.099c-4.923 0-9.797 2.287-13.041 6.639-5.549 7.475-4.232 18.176 2.964 23.927 26.839 21.487 50.961 46.507 71.691 74.342 5.532 7.475 15.873 8.823 23.085 3.089 7.212-5.769 8.529-16.486 2.98-23.945-22.443-30.157-48.557-57.242-77.619-80.486-2.997-2.406-6.537-3.567-10.060-3.567zM243.197 28.996c-3.524 0-7.064 1.161-10.060 3.567-29.095 23.279-55.209 50.347-77.635 80.452-5.549 7.475-4.232 18.176 2.964 23.927 7.195 5.769 17.519 4.403 23.101-3.072 20.714-27.802 44.836-52.804 71.708-74.308 7.195-5.751 8.529-16.469 2.964-23.927-3.244-4.352-8.118-6.639-13.041-6.639zM168.427 627.354c-3.507 0-7.047 1.161-10.044 3.55-7.212 5.769-8.529 16.486-2.98 23.945 22.443 30.157 48.557 57.242 77.619 80.486 7.195 5.751 17.519 4.403 23.101-3.072 5.549-7.475 4.232-18.176-2.964-23.927-26.839-21.487-50.961-46.507-71.691-74.342-3.244-4.352-8.118-6.639-13.041-6.639zM362.738 315.733c-2.519 0-5.038 0.597-7.36 1.792l-131.725 68.267c-5.582 2.901-9.105 8.806-9.105 15.275v136.533c0 5.922 2.964 11.401 7.805 14.524 4.857 3.14 10.933 3.379 16.021 0.751l131.725-68.267c5.582-2.901 9.105-8.806 9.105-15.275v-136.533c0-5.922-2.964-11.401-7.805-14.524-2.651-1.69-5.664-2.543-8.661-2.543v0zM247.478 411.614l98.794-51.2v98.372l-98.794 51.2v-98.372zM362.738 315.733c-3.013 0-6.010 0.853-8.661 2.543-4.841 3.123-7.805 8.602-7.805 14.524v136.533c0 6.468 3.524 12.373 9.105 15.275l131.725 68.267c5.104 2.628 11.164 2.389 16.021-0.751 4.841-3.123 7.805-8.602 7.805-14.524v-136.533c0-6.468-3.524-12.373-9.105-15.275l-131.725-68.267c-2.322-1.195-4.841-1.792-7.36-1.792v0zM379.203 458.786v-98.372l98.794 51.2v98.372l-98.794-51.2zM362.738 452.267c-2.519 0-5.055 0.597-7.36 1.792l-131.725 68.267c-5.582 2.901-9.105 8.806-9.105 15.275s3.524 12.373 9.105 15.275l131.725 68.267c4.627 2.406 10.093 2.406 14.737 0l131.725-68.267c5.582-2.901 9.105-8.806 9.105-15.275s-3.524-12.373-9.105-15.275l-131.725-68.267c-2.338-1.195-4.857-1.792-7.377-1.792zM267.83 537.6l94.908-49.186 94.908 49.186-94.908 49.186-94.908-49.186zM626.187 315.733c-2.519 0-5.038 0.597-7.36 1.792l-131.725 68.267c-5.582 2.901-9.105 8.806-9.105 15.275v136.533c0 5.922 2.964 11.401 7.805 14.524 4.857 3.14 10.933 3.379 16.021 0.751l131.725-68.267c5.582-2.901 9.105-8.806 9.105-15.275v-136.533c0-5.922-2.964-11.401-7.805-14.524-2.651-1.69-5.664-2.543-8.661-2.543v0zM510.928 411.614l98.794-51.2v98.372l-98.794 51.2v-98.372zM626.187 315.733c-3.013 0-6.010 0.853-8.661 2.543-4.841 3.123-7.805 8.602-7.805 14.524v136.533c0 6.468 3.524 12.373 9.105 15.275l131.725 68.267c5.104 2.628 11.164 2.389 16.021-0.751 4.841-3.123 7.805-8.602 7.805-14.524v-136.533c0-6.468-3.524-12.373-9.105-15.275l-131.725-68.267c-2.322-1.195-4.841-1.792-7.36-1.792v0zM642.653 458.786v-98.372l98.794 51.2v98.372l-98.794-51.2zM626.187 452.267c-2.519 0-5.055 0.597-7.36 1.792l-131.725 68.267c-5.582 2.901-9.105 8.806-9.105 15.275s3.524 12.373 9.105 15.275l131.725 68.267c4.627 2.406 10.093 2.406 14.737 0l131.725-68.267c5.582-2.901 9.105-8.806 9.105-15.275s-3.524-12.373-9.105-15.275l-131.725-68.267c-2.338-1.195-4.857-1.792-7.377-1.792zM531.28 537.6l94.908-49.186 94.908 49.186-94.908 49.186-94.908-49.186zM494.463 110.933c-2.519 0-5.038 0.597-7.36 1.792l-131.725 68.267c-5.582 2.901-9.105 8.806-9.105 15.275v136.533c0 5.922 2.964 11.401 7.805 14.524 4.857 3.14 10.917 3.379 16.021 0.751l131.725-68.267c5.582-2.901 9.105-8.806 9.105-15.275v-136.533c0-5.922-2.964-11.401-7.805-14.524-2.651-1.69-5.664-2.543-8.661-2.543v0zM379.203 206.814l98.794-51.2v98.372l-98.794 51.2v-98.372zM494.463 110.933c-3.013 0-6.010 0.853-8.661 2.543-4.841 3.123-7.805 8.602-7.805 14.524v136.533c0 6.468 3.524 12.373 9.105 15.275l131.725 68.267c5.104 2.628 11.164 2.389 16.021-0.751 4.841-3.123 7.805-8.602 7.805-14.524v-136.533c0-6.468-3.524-12.373-9.105-15.275l-131.725-68.267c-2.322-1.195-4.841-1.792-7.36-1.792v0zM510.928 253.986v-98.372l98.794 51.2v98.372l-98.794-51.2zM494.463 247.467c-2.519 0-5.055 0.597-7.36 1.792l-131.725 68.267c-5.582 2.901-9.105 8.806-9.105 15.275s3.524 12.373 9.105 15.275l131.725 68.267c4.627 2.406 10.093 2.406 14.737 0l131.725-68.267c5.582-2.901 9.105-8.806 9.105-15.275s-3.524-12.373-9.105-15.275l-131.725-68.267c-2.338-1.195-4.857-1.792-7.377-1.792zM399.555 332.8l94.908-49.186 94.908 49.186-94.908 49.186-94.908-49.186z" />
<glyph unicode="&#xe92b;" glyph-name="museum" d="M19.229 613.138c-0.38-2.024-0.594-4.074-0.663-6.125v-42.125c0.055-17.36 11.057-32.88 27.652-38.978v-61.983c0.076-20.751 16.727-37.807 37.873-38.789v-358.085c-21.147-0.988-37.797-18.044-37.873-38.789v-61.8c-16.63-6.261-27.624-21.895-27.652-39.344v-41.205c0-7.682 6.367-13.915 14.206-13.915h957.823c7.838 0 14.199 6.234 14.199 13.915v41.205c-0.028 17.455-11.022 33.090-27.645 39.344v62.166c-0.076 20.751-16.734 37.807-37.873 38.789v357.72c21.14 0.981 37.797 18.037 37.873 38.789v61.983c16.588 6.098 27.59 21.618 27.645 38.978v41.848c-0.062 2.051-0.283 4.102-0.663 6.125 7.141-3.1 15.49 0.054 18.653 7.052 3.163 6.992-0.055 15.174-7.189 18.281l-497.378 256.197c-4.151 2.146-9.109 2.146-13.26 0l-497.371-255.919c-6.941-3.594-9.599-12.007-5.946-18.809 3.343-6.213 10.884-9.015 17.59-6.525zM74.623 501.788v21.435h163.799v-21.252l-163.799-0.183zM439.341 425.043v-357.99c-21.147-0.988-37.797-18.044-37.873-38.789v-59.201h-134.835v59.201c-0.076 20.745-16.727 37.8-37.873 38.789v358.085c21.147 0.981 37.797 18.037 37.873 38.789v59.296h134.642v-59.208c0.035-20.785 16.699-37.882 37.88-38.877l0.186-0.095zM429.873 501.788v21.435h163.806v-21.252l-163.806-0.183zM794.599 425.043v-357.99c-21.147-0.988-37.804-18.044-37.88-38.789v-59.201h-134.828v59.201c-0.076 20.745-16.734 37.8-37.873 38.789v358.085c21.14 0.981 37.797 18.037 37.873 38.789v59.296h134.642v-59.208c0.028-20.785 16.692-37.882 37.873-38.877l0.193-0.095zM785.13 501.788v21.435h163.799v-21.252l-163.799-0.183zM948.93-9.692v-21.245h-163.993v21.245h163.993zM593.679-9.692v-21.245h-163.993v21.245h163.993zM453.354 452.698h-12.307c-6.278 0-11.361 4.981-11.361 11.134v10.118h163.799v-10.118c0-6.152-5.083-11.134-11.361-11.134h-128.771zM555.709 424.86v-357.625h-88.15v357.625c0 0 88.15 0 88.15 0zM453.354 39.398h128.771c6.278 0 11.361-4.981 11.361-11.134v-10.118h-163.799v10.118c0 6.152 5.083 11.134 11.361 11.134h12.307zM238.235-9.692v-21.245h-163.806v21.245h163.806zM74.429 463.554v10.396h163.807v-10.118c0-6.152-5.083-11.134-11.367-11.134h-141.361c-6.202 0.149-11.133 5.151-11.077 11.228v-0.372zM200.362 424.583v-357.347h-88.060v357.625l88.060-0.277zM74.429 27.98c0 6.159 5.083 11.14 11.361 11.14h141.078c6.285 0 11.367-4.981 11.367-11.14v-10.112h-163.806v10.112zM976.388-73.442v-27.276h-929.604v27.276c0 7.946 6.568 14.389 14.675 14.389h900.253c7.99 0 14.524-6.274 14.675-14.105 0 0 0-0.284 0-0.284zM948.743 27.98v-10.112h-163.806v10.112c0 6.159 5.083 11.14 11.361 11.14h141.368c6.057-0.149 10.925-4.92 11.077-10.856v-0.284zM822.81 66.958v357.902h88.15v-357.625l-88.15-0.277zM948.743 463.554c0-6.152-5.083-11.134-11.361-11.134h-140.988c-6.278 0-11.361 4.981-11.361 11.134v10.396h163.799l-0.090-10.396zM511.586 866.553l422.951-217.875h-845.902l422.951 217.875zM46.784 606.736c0 7.682 6.361 13.915 14.199 13.915h901.206c7.838 0 14.199-6.234 14.199-13.915v-42.132c0-7.682-6.361-13.915-14.199-13.915h-901.206c-7.838 0-14.199 6.234-14.199 13.915v42.132z" />
<glyph unicode="&#xe92c;" horiz-adv-x="884" d="M710.669 896h-536.978c-95.774 0-173.691-76.748-173.691-171.082v-431.867c0-94.334 77.919-171.082 173.693-171.082h89.867l-17.718-207.14c-2.94-34.364 37.213-55.442 64.56-34.47l315.151 241.61h85.117c95.774 0 173.693 76.748 173.693 171.082v431.867c-0.002 94.334-77.923 171.082-173.695 171.082zM804.197 293.051c0-50.796-41.957-92.12-93.526-92.12h-98.878c-8.92 0-17.582-2.93-24.618-8.326l-253.763-194.546 10.597 123.91h34.411c22.137 0 40.083 17.676 40.083 39.48s-17.946 39.48-40.083 39.48c-28.748 0-188.461 0-204.725 0-51.571 0-93.526 41.326-93.526 92.12v431.869c0 50.796 41.957 92.12 93.526 92.12h536.974c51.571 0 93.526-41.326 93.526-92.12v-431.867h0.002z" />
<glyph unicode="&#xe92d;" horiz-adv-x="884" d="M585.024 559.241l-245.471 145.019c-26.779 15.822-60.28-4.031-60.28-35.612v-290.043c0-31.837 33.727-51.305 60.28-35.612l245.471 145.019c26.775 15.824 26.738 55.436 0 71.228zM359.646 449.836v147.59l124.909-73.795-124.909-73.795z" />
<glyph unicode="&#xf129;" glyph-name="linkedin" d="M1024 273.332v-378.58h-219.476v353.224c0 88.734-31.744 149.291-111.188 149.291-60.645 0-96.734-40.812-112.611-80.289-5.791-14.113-7.281-33.756-7.281-53.512v-368.714h-219.55s2.957 598.246 0 660.23h219.53v-93.586c-0.445-0.699-1.023-1.455-1.443-2.133h1.443v2.133c29.166 44.922 81.256 109.096 197.846 109.096 144.447 0.002 252.732-94.363 252.732-297.16zM124.234 873.244c75.115 0 121.287-49.264 122.73-114.049 0-63.383-47.615-114.133-124.178-114.133h-1.467c-73.615 0-121.32 50.76-121.32 114.133 0 64.785 49.127 114.049 124.234 114.049zM13.039-105.248v660.23h219.466v-660.23h-219.466z" />
<glyph unicode="&#xf12b;" glyph-name="facebook" d="M376.354 697.682c0 25.76-5.244 198.328 217.402 198.316h157.18v-179.475h-115.602c-22.865 0-46-23.697-46-41.316v-117.873h161.379c-6.465-90.383-19.799-173.047-19.799-173.047h-142.383v-512.286h-212.178v512.3h-103.289v172.396h103.289v140.982z" />
<glyph unicode="&#xf215;" glyph-name="github" d="M511.968 768c212.096 0 384.032-171.936 384.032-384.032 0-169.602-109.92-313.408-262.4-364.32-19.488-3.744-26.4 8.191-26.4 18.463 0 12.609 0.48 54.018 0.48 105.344 0 35.809-12.287 59.266-26.080 71.105 85.537 9.504 175.328 41.951 175.328 189.471 0 41.92-14.848 76.193-39.455 103.041 3.967 9.729 17.152 48.768-3.809 101.631 0 0-32.191 10.336-105.504-39.359-30.656 8.512-63.52 12.768-96.129 12.928-32.639-0.16-65.504-4.416-96.127-12.928-73.344 49.695-105.6 39.359-105.6 39.359-20.896-52.863-7.713-91.902-3.777-101.631-24.543-26.848-39.52-61.121-39.52-103.041 0-147.168 89.633-180.096 174.912-189.791-10.977-9.6-20.896-26.527-24.385-51.328-21.855-9.824-77.504-26.783-111.742 31.904 0 0-20.289 36.863-58.816 39.584 0 0-37.504 0.512-2.625-23.328 0 0 25.152-11.809 42.625-56.16 0 0 22.527-74.688 129.344-51.488 0.191-32.031 0.512-56.191 0.512-65.312 0-10.176-7.008-22.016-26.209-18.496-152.607 50.785-262.624 194.721-262.624 364.354 0 212.096 171.936 384.032 383.968 384.032z" />
<glyph unicode="&#xf292;" glyph-name="mobile" horiz-adv-x="896" d="M208 864h-71.111c-31.407-0.050-56.852-34.147-56.889-76.234v-19.766h71.111v19.766c0.037 42.088 25.481 76.185 56.889 76.234zM151.111-37.918v69.918h-71.111v-69.918c0.037-32.066 25.481-58.044 56.889-58.082h71.111c-31.407 0.038-56.852 26.016-56.889 58.082zM80 768h96v-672h-96zM880 174.456v419.089c-0.028 25.647-19.411 46.425-43.337 46.456h-404.663v-30.97h404.663c7.975-0.010 14.436-6.936 14.446-15.485v-65.732h-24.941c-7.975 0-14.446-6.926-14.446-15.485 0-8.549 6.47-15.485 14.446-15.485h24.941v-322.387c-0.009-8.549-6.47-15.475-14.446-15.485h-404.663v-30.97h404.663c23.925 0.030 43.308 20.818 43.337 46.456zM503.469 896h-398.938c-48.877-0.058-88.474-40.078-88.531-89.476v-845.049c0.058-49.398 39.655-89.417 88.531-89.476h398.938c48.877 0.058 88.474 40.087 88.531 89.476v201.971c0 8.243-6.609 14.913-14.755 14.913s-14.755-6.67-14.755-14.913v-100.34h-516.979v698.126h516.979v-133.66c0-8.233 6.609-14.913 14.755-14.913s14.755 6.68 14.755 14.913v178.951c-0.058 49.388-39.655 89.417-88.531 89.476zM562.49 33.282v-71.806c-0.038-32.932-26.436-59.612-59.021-59.65h-398.938c-32.584 0.039-58.982 26.718-59.021 59.65v71.806h516.979zM45.51 791.058v15.466c0.038 32.932 26.436 59.612 59.021 59.65h398.938c32.584-0.039 58.982-26.718 59.021-59.65v-15.466h-516.979zM254.46-32h99.081c7.983 0 14.46 7.156 14.46 16 0 8.833-6.477 16-14.46 16h-99.081c-7.983 0-14.46-7.167-14.46-16 0-8.844 6.477-16 14.46-16zM644.435 225.66c10.64-0.009 21.158 2.168 30.866 6.396 31.901-13.827 69.373-4.727 90.866 22.065s21.494 64.397 0 91.189c-21.494 26.791-58.966 35.891-90.866 22.065-28.323 12.257-61.444 6.55-83.73-14.425-22.276-20.976-29.264-53.029-17.646-81 11.618-27.98 39.512-46.297 70.509-46.288v0zM658.745 299.72c0 13.455 6.056 26.238 16.556 34.984 10.509-8.737 16.565-21.529 16.565-34.993 0-13.455-6.056-26.247-16.565-34.993-10.5 8.755-16.556 21.538-16.556 35.002zM753.609 299.72c-0.028-25.503-21.252-46.161-47.432-46.189-0.764 0-1.519 0.073-2.264 0.109 22.099 26.946 22.099 65.205 0 92.15 0.745 0.036 1.5 0.109 2.264 0.109 26.18-0.027 47.404-20.685 47.432-46.179zM644.435 345.899c0.764 0 1.509-0.073 2.264-0.109-22.099-26.946-22.099-65.205 0-92.15-0.755-0.036-1.5-0.109-2.264-0.109-26.068 0.172-47.096 20.803-47.096 46.179 0 25.385 21.028 46.016 47.096 46.189v0zM765.394 482.215c7.91 0 14.311 6.242 14.311 13.935 0 7.703-6.401 13.935-14.311 13.935h-127.602c-7.901 0-14.311-6.233-14.311-13.935 0-7.694 6.41-13.935 14.311-13.935h127.602zM601.261 482.215c7.901 0 14.311 6.242 14.311 13.935 0 7.703-6.41 13.935-14.311 13.935h-9.391c-7.91 0-14.311-6.233-14.311-13.935 0-7.694 6.401-13.935 14.311-13.935h9.391zM554.509 482.215c7.901 0 14.311 6.242 14.311 13.935 0 7.703-6.41 13.935-14.311 13.935h-137.86c-7.901 0-14.311-6.233-14.311-13.935 0-7.694 6.41-13.935 14.311-13.935h137.86zM464 651.086v37.634c0 8.436-8.304 15.28-18.539 15.28h-58.923c-10.235 0-18.539-6.844-18.539-15.28v-577.439c0-8.436 8.304-15.28 18.539-15.28h58.911c10.235 0 18.539 6.844 18.539 15.28v33.844h-37.077v-18.563h-21.834v546.879h21.834v-22.353h37.089z" />
<glyph unicode="&#xf2b3;" glyph-name="phone" horiz-adv-x="591" d="M482.93 896c59.53-0.066 107.772-47.741 107.839-106.57v-810.86c-0.067-58.83-48.309-106.504-107.839-106.57h-375.092c-59.53 0.066-107.772 47.741-107.839 106.57v810.86c0.067 58.83 48.309 106.504 107.839 106.57h375.092zM482.93-100.199c44.001 0.049 79.658 35.286 79.707 78.769v60.235h-534.505v-60.235c0.049-43.483 35.706-78.721 79.707-78.769h375.092zM562.637 756.995v32.434c-0.049 43.483-35.706 78.721-79.707 78.769h-375.092c-44.001-0.049-79.658-35.286-79.707-78.769v-32.434h382.125c7.768 0 14.066-6.223 14.066-13.9s-6.298-13.9-14.066-13.9h-382.125v-662.588h534.505v662.588h-32.821c-7.768 0-14.066 6.223-14.066 13.9s6.298 13.9 14.066 13.9h32.821zM482.485 756.995c7.768 0 14.066-6.223 14.066-13.9s-6.298-13.9-14.066-13.9h-26.045c-7.768 0-14.066 6.223-14.066 13.9s6.298 13.9 14.066 13.9h26.045zM295.385-79.348c27.189 0 49.231 21.782 49.231 48.652s-22.041 48.652-49.231 48.652c-27.189 0-49.231-21.782-49.231-48.652 0.031-26.857 22.054-48.621 49.231-48.652zM295.385-9.846c11.653 0 21.099-9.335 21.099-20.851s-9.446-20.851-21.099-20.851c-11.653 0-21.099 9.335-21.099 20.851 0.013 11.51 9.452 20.838 21.099 20.851z" />
<glyph unicode="&#xf2df;" glyph-name="rocket" horiz-adv-x="991" d="M510.299 521.989c33.958 33.958 89.214 33.96 123.174 0 33.958-33.96 33.956-89.216 0-123.174-33.96-33.96-89.218-33.958-123.174 0-33.96 33.96-33.96 89.216 0 123.174zM592.416 439.872c11.319 11.321 11.319 29.741-0.002 41.057-11.321 11.323-29.741 11.317-41.057 0-11.321-11.319-11.321-29.737 0-41.057s29.739-11.321 41.059 0zM941.407 870.979c11.336 11.34 29.719 11.34 41.057 0 11.338-11.338 11.338-29.719 0-41.057l-53.086-53.086c-0.079-179.067-3.735-250.083-172.732-419.078l-112.186-112.186 38.011-190.052c2.408-12.031-3.010-24.277-13.531-30.588l-205.289-123.174c-9.84-5.905-22.256-5.466-31.661 1.163-9.395 6.619-13.999 18.157-11.745 29.425l31.246 156.232-75.712-25.239c-10.434-3.474-21.929-0.763-29.704 7.010-4.363-30.981-18.55-59.595-41.065-82.111-51.134-51.135-175.926-88.782-272.771-99.544-8.754-0.974-17.493 2.085-23.735 8.326-6.236 6.236-9.3 14.969-8.326 23.735 10.759 96.846 48.408 221.638 99.544 272.773 23.090 23.090 52.088 36.751 82.173 41.001l-0.056 0.056c-7.777 7.775-10.49 19.277-7.014 29.71l25.237 75.712-156.232-31.246c-11.268-2.253-22.806 2.352-29.425 11.744s-7.076 21.807-1.163 31.661l123.174 205.289c6.312 10.519 18.557 15.939 30.588 13.531l190.053-38.011 112.186 112.186c168.995 168.994 240.011 172.653 419.078 172.732l53.086 53.086zM175.678 510.037l-78.883-131.467 132.315 26.462 78.6 78.6-132.033 26.406zM263.951 29.297c16.452 16.45 25.512 38.321 25.512 61.585s-9.060 45.135-25.51 61.587c-16.98 16.978-39.283 25.469-61.587 25.469s-44.607-8.489-61.587-25.469c-30.515-30.513-62.683-115.587-77.524-200.696 85.109 14.841 170.183 47.009 200.696 77.524zM374.438 124.101l61.587 20.528-179.915 179.914-20.528-61.587 138.855-138.855zM621.52 64.194l-26.406 132.035-78.6-78.6-26.462-132.315 131.468 78.88zM715.588 398.817c33.344 33.344 59.53 62.030 80.123 88.304-45.406 15.718-86.777 41.52-121.183 75.925-34.403 34.403-60.205 75.774-75.923 121.18-26.274-20.594-54.962-46.777-88.306-80.123-24.78-24.778-204.848-204.847-225.819-225.816l205.291-205.289c21.058 21.058 200.905 200.905 225.817 225.818zM829.942 537.223c37.765 65.88 41.061 124.775 41.346 222.582-97.808-0.286-156.701-3.581-222.582-41.346 12.021-43.115 34.922-82.395 66.883-114.354 31.959-31.963 71.239-54.863 114.354-66.882z" />
<glyph unicode="&#xf35a;" glyph-name="twitter" d="M896 622.176c-21.119-31.584-47.84-59.328-78.623-81.568 0.287-6.752 0.447-13.568 0.447-20.383 0-208.224-158.465-448.32-448.29-448.32-88.99 0-171.807 26.080-241.536 70.783 12.352-1.471 24.896-2.207 37.6-2.207 73.824 0 141.76 25.184 195.68 67.455-68.959 1.281-127.135 46.848-147.199 109.439 9.6-1.822 19.488-2.814 29.633-2.814 14.398 0 28.318 1.92 41.535 5.535-72.096 14.465-126.4 78.145-126.4 154.496v1.984c21.248-11.809 45.537-18.881 71.359-19.713-42.271 28.256-70.078 76.48-70.078 131.137 0 28.896 7.775 55.969 21.311 79.232 77.729-95.328 193.824-158.080 324.77-164.641-2.656 11.52-4.064 23.553-4.064 35.904 0 87.008 70.559 157.568 157.568 157.568 45.311 0 86.271-19.137 115.008-49.76 35.904 7.070 69.631 20.191 100.062 38.24-11.775-36.801-36.734-67.682-69.279-87.17 31.871 3.809 62.24 12.258 90.496 24.801z" />
</font>
</defs>
</svg>
