<?xml version="1.0" encoding="utf-8"?>
<!-- Generator: Adobe Illustrator 23.0.1, SVG Export Plug-In . SVG Version: 6.00 Build 0)  -->
<svg version="1.1" id="Layer_1" xmlns="http://www.w3.org/2000/svg" xmlns:xlink="http://www.w3.org/1999/xlink" x="0px" y="0px"
	 viewBox="0 0 367 259" style="enable-background:new 0 0 367 259;" xml:space="preserve">
<style type="text/css">
	.st0{fill:#0099A5;}
	.st1{opacity:0.2;fill:#00ACC1;enable-background:new    ;}
	.st2{fill:#FFFFFF;}
	.st3{fill:#00ACC1;}
	.st4{opacity:0.5;fill:#00ACC1;enable-background:new    ;}
	.st5{fill:#D8DBEF;}
	.st6{fill:#1AD4E2;}
	.st7{fill:url(#SVGID_1_);}
	.st8{fill:url(#SVGID_2_);}
	.st9{fill:url(#SVGID_3_);}
	.st10{fill:url(#SVGID_4_);}
	.st11{fill:url(#SVGID_5_);}
	.st12{fill:url(#SVGID_6_);}
	.st13{fill:url(#SVGID_7_);}
	.st14{fill:#06B1B5;}
	.st15{clip-path:url(#SVGID_9_);}
	.st16{fill:#E8EAF7;}
	.st17{fill:#EAEBF8;}
	.st18{fill:#EBEDF8;}
	.st19{fill:#EDEEF9;}
	.st20{fill:#EEEFF9;}
	.st21{fill:#F0F0FA;}
	.st22{fill:#F1F1FA;}
	.st23{fill:#F2F2FB;}
	.st24{fill:#F3F3FB;}
	.st25{fill:#F5F4FB;}
	.st26{fill:#F6F5FC;}
	.st27{fill:#F6F6FC;}
	.st28{fill:#F7F7FC;}
	.st29{fill:#F8F7FD;}
	.st30{fill:#F8F8FD;}
	.st31{fill:#F9F8FD;}
	.st32{fill:#F9F9FD;}
	.st33{fill:#FAF9FD;}
	.st34{fill:#FBFBFE;}
	.st35{fill:#FCFCFE;}
	.st36{fill:#FEFDFF;}
	.st37{clip-path:url(#SVGID_11_);}
	.st38{fill:#E9EAF7;}
	.st39{fill:#E9EBF7;}
	.st40{fill:#EAECF8;}
	.st41{fill:#EBECF8;}
	.st42{fill:#ECEDF8;}
	.st43{fill:#EFF0F9;}
	.st44{fill:#F0F1FA;}
	.st45{fill:#F1F2FA;}
	.st46{fill:#F4F4FB;}
	.st47{fill:#F5F5FC;}
	.st48{fill:#FBFAFE;}
	.st49{fill:#FCFBFE;}
	.st50{fill:#FDFCFE;}
	.st51{fill:#FEFEFF;}
	.st52{clip-path:url(#SVGID_13_);}
	.st53{opacity:0.3;fill:#1AD4E2;enable-background:new    ;}
	.st54{fill:url(#SVGID_14_);}
	.st55{fill:url(#SVGID_15_);}
	.st56{fill:url(#SVGID_16_);}
	.st57{fill:url(#SVGID_17_);}
	.st58{fill:url(#SVGID_18_);}
	.st59{fill:url(#SVGID_19_);}
	.st60{fill:url(#SVGID_20_);}
	.st61{fill:url(#SVGID_21_);}
	.st62{fill:#007D87;}
	.st63{fill:url(#SVGID_22_);}
	.st64{fill:url(#SVGID_23_);}
	.st65{fill:url(#SVGID_24_);}
	.st66{fill:url(#SVGID_25_);}
	.st67{fill:url(#SVGID_26_);}
	.st68{fill:url(#SVGID_27_);}
	.st69{fill:url(#SVGID_28_);}
	.st70{fill:url(#SVGID_29_);}
</style>
<title>ai</title>
<g>
	<g id="Object">
		<path class="st0" d="M321.3,206.6c-0.5-0.3-1.1-0.3-1.6-0.1l-24.2-14h-14l-2.1-1.2v-3.1v-0.1l-4.2-2.4h-4.9l-2.4-1.4l0.3-0.2
			c0.2-0.1,0.3-0.3,0.2-0.5c0,0,0,0,0,0l-0.5-0.8l-2.8-1.6l1.2-0.7l-1.2-0.7l2.8-1.6l0.5-0.8c0.1-0.2,0-0.4-0.2-0.5l-0.4-0.2
			l1.3-0.8V172l2.1-1.2h8.9l2.5-1.4v-2.5l3.4-2v-3l1.6-0.9h4.1l21.4-12.4c0.5,0.2,1.1,0.2,1.6-0.1c0.3-0.1,0.4-0.5,0.3-0.7
			c-0.1-0.1-0.2-0.2-0.3-0.3c-0.6-0.3-1.2-0.3-1.8,0c-0.5,0.3-0.5,0.7-0.1,1l-21.2,12.3h-4.1l-1.8,1.1v3l-3.4,2v2.5l-2.2,1.3H271
			l-2.4,1.4v3.9l-1.2,0.7l-0.2-0.1c-0.3-0.1-0.6-0.2-0.8-0.1l-1.4,0.3l-2.9,1.6l-1.3-0.7l2.8-1.6l0.5-0.8c0.1-0.2,0-0.4-0.1-0.5
			c0,0,0,0-0.1,0l-0.3-0.2l1.3-0.8v-3.9l2.2-1.3h8.9l2.5-1.4v-2.5l3.4-2v-3l1.6-0.9h4.1l8.5-4.9c0.5,0.2,1.1,0.2,1.6-0.1
			c0.5-0.3,0.5-0.8,0-1c-0.6-0.3-1.2-0.3-1.8,0c-0.3,0.1-0.4,0.4-0.3,0.7c0,0.1,0.1,0.3,0.3,0.3l-8.3,4.8h-4.1l-1.8,1.1v3l-3.4,2
			v2.5l-2.2,1.3h-8.9l-2.4,1.4v3.9l-1.2,0.7L263,174c-0.3-0.1-0.6-0.2-0.8-0.1l-1.4,0.3l-2.8,1.6l-1.3-0.7l2.8-1.6l0.5-0.8
			c0.1-0.2,0-0.4-0.2-0.5l-0.3-0.2l1.7-1v-2.5l4.1-2.4h3.9l5.6-3.3v-4l4.2-2.5h4.2l13.8-8c0.5,0.2,1.1,0.2,1.6-0.1
			c0.3-0.1,0.4-0.5,0.3-0.7c-0.1-0.1-0.2-0.2-0.3-0.3c-0.6-0.3-1.2-0.3-1.8,0c-0.3,0.1-0.4,0.4-0.4,0.7c0,0.2,0.2,0.3,0.3,0.3
			l-13.6,7.9H279l-4.5,2.6v4l-5.4,3.1h-3.9l-4.4,2.5v2.5l-1.5,0.9l-0.3-0.2c-0.3-0.1-0.6-0.2-0.8-0.1l-1.4,0.3l-2.8,1.6l-1.3-0.7
			l2.8-1.6l0.5-0.8c0.1-0.2,0-0.4-0.1-0.5c0,0,0,0,0,0l-0.3-0.2l3.9-2.2v-3.2l1.6-0.9h7.6l3.9-2.2v-6.7l19.4-11.3
			c0.5,0.2,1.1,0.2,1.6-0.1c0.3-0.1,0.4-0.5,0.3-0.7c-0.1-0.1-0.2-0.2-0.3-0.3c-0.6-0.3-1.2-0.3-1.8,0c-0.4,0.3-0.5,0.7-0.1,0.9
			l-19.6,11.4v6.7l-3.6,2.1h-7.6l-1.8,1.1v3.2l-3.8,2.2l-0.3-0.2c-0.3-0.1-0.6-0.2-0.8-0.1l-1.4,0.3l-2.8,1.6l-1.3-0.7l2.8-1.6
			l0.5-0.8c0.1-0.2,0-0.4-0.2-0.5l-0.9-0.5c-0.3-0.1-0.6-0.2-0.8-0.1l-1.4,0.3l-2.8,1.6l-1.3-0.7l2.8-1.6l0.5-0.8
			c0.1-0.2,0-0.4-0.2-0.5l-0.3-0.2l1.3-0.8h3.6l2.1-1.2v-4l2.7-1.6h3.6l4.8-2.8v-3.5l4.2-2.4c0.5,0.2,1.1,0.2,1.6-0.1
			c0.5-0.3,0.5-0.8,0-1.1c-0.6-0.3-1.2-0.3-1.8,0c-0.5,0.3-0.5,0.7-0.1,0.9l-4.3,2.5v3.5l-4.6,2.6h-3.6l-2.9,1.7v4l-1.8,1h-3.6
			l-1.4,0.8l-0.3-0.2c-0.3-0.1-0.6-0.2-0.8-0.1l-1.4,0.3l-2.8,1.6l-1.3-0.7l2.8-1.6l0.5-0.8c0.1-0.2,0-0.4-0.2-0.5l-0.3-0.2l1.3-0.8
			v-3.9l2.1-1.2h8.9l2.5-1.4v-2.5l3.4-2v-3l1.6-0.9h4l25.7-14.9c0.5,0.2,1.1,0.2,1.6-0.1c0.3-0.1,0.4-0.4,0.3-0.7
			c-0.1-0.2-0.2-0.3-0.3-0.3c-0.6-0.3-1.2-0.3-1.8,0c-0.3,0.1-0.4,0.4-0.3,0.7c0,0.1,0.1,0.3,0.3,0.3l-25.5,14.8h-4.1l-1.8,1.1v3
			l-3.4,2v2.5l-2.2,1.3h-8.9l-2.4,1.4v3.9l-1.2,0.7l-0.3-0.2c-0.3-0.1-0.6-0.2-0.8-0.1l-1.4,0.3l-2.8,1.6l-1.3-0.7l2.8-1.6l0.5-0.8
			c0.1-0.2,0-0.4-0.2-0.5l-0.3-0.2l1.7-1v-2.5l4.1-2.4h3.9l5.7-3.3v-4l4.2-2.5h4.2l4.8-2.8c0.5,0.2,1.1,0.2,1.6-0.1
			c0.3-0.1,0.4-0.5,0.3-0.7c-0.1-0.1-0.2-0.2-0.3-0.3c-0.6-0.3-1.2-0.3-1.8,0c-0.3,0.1-0.5,0.4-0.4,0.6c0,0.2,0.1,0.3,0.3,0.4
			l-4.7,2.7h-4.2l-4.5,2.6v4l-5.4,3.1h-3.9l-4.4,2.5v2.5l-1.5,0.9l-0.3-0.2c-0.3-0.1-0.6-0.2-0.8-0.1l-1.4,0.3l-2.8,1.6l-1.3-0.8
			l2.8-1.6l0.5-0.8c0.1-0.2,0-0.4-0.2-0.5l-0.3-0.2l3.9-2.2v-3.2l1.6-0.9h7.6l3.9-2.2v-6.7l20.3-11.8c0.5,0.2,1.1,0.2,1.6-0.1
			c0.3-0.1,0.4-0.5,0.3-0.7c-0.1-0.1-0.2-0.2-0.3-0.3c-0.6-0.3-1.2-0.3-1.8,0c-0.4,0.3-0.5,0.6-0.1,0.9l-20.5,11.8v6.7l-3.6,2.1
			h-7.6l-1.9,1.1v3.2l-3.8,2.2l-0.3-0.2c-0.3-0.1-0.5-0.2-0.8-0.1l-1.4,0.3l-2.8,1.6l-1.3-0.7l2.8-1.6l0.5-0.8
			c0.1-0.2,0-0.4-0.1-0.5c0,0,0,0-0.1,0l-0.3-0.2l2.6-1.5v-2.8l4-2.3h5.5l2.3-1.4v-8.1l9.9-5.8c0.5,0.2,1.1,0.2,1.6-0.1
			c0.3-0.1,0.4-0.5,0.2-0.8c-0.1-0.1-0.1-0.2-0.2-0.2c-0.6-0.3-1.2-0.3-1.8,0c-0.4,0.3-0.5,0.7-0.1,0.9l-10,5.8l0.1,8.1l-2.1,1.2
			h-5.5l-4.2,2.4v2.8l-2.4,1.4l0.1,0.1l-0.5-0.3c-0.3-0.1-0.6-0.2-0.8-0.1l-1.4,0.3l-2.8,1.6l-1.1-0.6L223,157l-2.7-1.6l-1.4-0.3
			c-0.3-0.1-0.6,0-0.8,0.1l-0.4,0.2l-1.4-0.8h-6.7l-2.2-1.2v-5.1v-0.1l-2.5-1.4h-4.3l-3.4-2h-5.2l-1.6-0.9v-2.4l-21.5-12.4
			c0.3-0.3,0.3-0.7-0.1-0.9c-0.6-0.3-1.2-0.3-1.8,0c-0.3,0.1-0.5,0.4-0.4,0.7c0.1,0.2,0.2,0.3,0.4,0.4c0.5,0.2,1.2,0.2,1.7,0
			l21.4,12.3v2.4l1.8,1.1h5.2l3.4,2h4.3l2.2,1.3v5.1v0.1l2.4,1.4h6.7l1.2,0.7l-0.2,0.1c-0.2,0.1-0.3,0.3-0.2,0.5l0.5,0.8l2.7,1.6
			l-1.3,0.7l-2.7-1.6l-1.4-0.3c-0.3-0.1-0.6,0-0.8,0.1l-0.3,0.2l-1.4-0.8h-6.7l-2.2-1.2v-5.1v-0.1l-2.5-1.4h-4.3l-3.4-2h-5.3
			l-1.6-0.9v-2.4l-8.5-4.8c0.3-0.3,0.3-0.6-0.2-0.9c-0.6-0.3-1.2-0.3-1.8,0c-0.5,0.3-0.5,0.8,0,1.1c0.5,0.3,1.2,0.3,1.7,0l8.4,4.8
			v2.4l1.8,1.1h5.3l3.4,2h4.3l2.2,1.3v5.1v0.1l2.4,1.4h6.7l1.2,0.7l-0.3,0.2c-0.2,0.1-0.3,0.3-0.2,0.5l0.6,0.8l2.7,1.6l-1.3,0.8
			l-2.7-1.6l-1.4-0.3c-0.3-0.1-0.6,0-0.8,0.1l-0.3,0.2l-1.7-1h-4.3l-4.2-2.4v-2.3l-5.7-3.3h-6.9l-4.3-2.5v-2.4l-13.9-8
			c0.3-0.3,0.3-0.7-0.1-0.9c-0.6-0.3-1.2-0.3-1.8,0c-0.3,0.1-0.4,0.5-0.3,0.7c0.1,0.1,0.2,0.2,0.3,0.3c0.5,0.3,1.1,0.3,1.7,0.1
			l13.7,7.9v2.4v0.1l4.5,2.6h6.9l5.4,3.1v2.3l4.4,2.6h4.3l1.6,0.9l-0.3,0.2c-0.2,0.1-0.3,0.3-0.2,0.5l0.5,0.8l2.7,1.6l-1.3,0.7
			l-2.7-1.6l-1.4-0.3c-0.3-0.1-0.6,0-0.8,0.1l-0.3,0.2l-3.9-2.2h-5.5l-1.6-0.9v-4.4l0,0l-3.9-2.2H179l-19.6-11.4
			c0.4-0.3,0.3-0.7-0.1-0.9c-0.6-0.3-1.2-0.3-1.8,0c-0.5,0.3-0.5,0.8,0,1c0.5,0.3,1.1,0.3,1.6,0.1l19.8,11.4h11.6l3.6,2.2v4.4l0,0
			l1.9,1.1h5.5l3.8,2.2l-0.3,0.2c-0.2,0.1-0.3,0.3-0.2,0.5l0.6,0.8l2.8,1.6l-1.3,0.8l-2.7-1.6l-1.4-0.3c-0.3-0.1-0.6,0-0.8,0.1
			l-0.3,0.2l-2.6-1.5h-2.4l-5.3-3.1l-0.1-2.2l-4.1-2.4h-6.4l-14.9-8.6c0.4-0.3,0.3-0.7-0.1-0.9c-0.6-0.3-1.2-0.3-1.8,0
			c-0.3,0.1-0.4,0.5-0.2,0.8c0.1,0.1,0.1,0.2,0.2,0.2c0.5,0.2,1.1,0.3,1.6,0.1l15,8.7h6.4l3.9,2.2l0.1,2.3l5.5,3.2h2.4l2.5,1.4
			l-0.3,0.2c-0.2,0.1-0.3,0.3-0.2,0.5l0.6,0.8l2.7,1.6l-1.3,0.8l-2.7-1.5l-1.4-0.3c-0.3-0.1-0.6,0-0.8,0.1l-0.3,0.2l-1.3-0.8v-2.1
			l-2.1-1.2h-6.9l-2.7-1.6v-2.1l-4.8-2.8h-6.1l-4.2-2.4c0.4-0.3,0.3-0.7-0.1-0.9c-0.6-0.3-1.2-0.3-1.8,0c-0.3,0.1-0.4,0.5-0.3,0.7
			c0.1,0.1,0.2,0.2,0.3,0.3c0.5,0.3,1.1,0.3,1.6,0.1l4.3,2.5h6.1l4.6,2.7v2.1l3,1.7h6.9l1.9,1.1v2.1l1.4,0.8l-0.3,0.2
			c-0.2,0.1-0.3,0.3-0.2,0.5l0.6,0.8l2.7,1.6l-1.3,0.7l-2.7-1.6l-1.4-0.3c-0.3-0.1-0.6,0-0.8,0.1l-0.3,0.2l-1.4-0.8h-6.7l-2.2-1.2
			v-5.1l0,0l-2.5-1.5h-4.3l-3.4-2h-5.2l-1.6-0.9v-2.4l0,0l-25.9-14.9c0.3-0.3,0.3-0.7-0.2-0.9c-0.6-0.3-1.2-0.3-1.8,0
			c-0.3,0.1-0.4,0.5-0.3,0.7c0.1,0.1,0.2,0.2,0.3,0.3c0.5,0.3,1.2,0.3,1.7,0.1l25.7,14.8v2.4l1.8,1.1h5.2l3.4,2h4.3l2.3,1.3v5.1l0,0
			l2.4,1.4h6.7l1.2,0.7l-0.3,0.2c-0.2,0.1-0.3,0.3-0.2,0.5l0.6,0.8l2.7,1.6l-1.3,0.8l-2.7-1.5l-1.4-0.3c-0.3-0.1-0.6,0-0.8,0.1
			l-0.3,0.2l-1.7-1h-4.3l-4.1-2.4v-2.3l-5.7-3.3h-6.9l-4.3-2.5v-2.4l-4.9-2.8c0.3-0.3,0.3-0.7-0.1-0.9c-0.6-0.3-1.2-0.3-1.8,0
			c-0.5,0.3-0.5,0.8,0,1.1c0.5,0.2,1.1,0.2,1.7,0l4.7,2.7v2.4l4.5,2.6h6.9l5.4,3.1v2.3l4.4,2.5h4.3l1.6,0.9l-0.3,0.2
			c-0.2,0.1-0.3,0.3-0.2,0.4c0,0,0,0,0,0l0.6,0.8l2.7,1.6l-1.3,0.7l-2.7-1.6l-1.4-0.3c-0.3-0.1-0.6,0-0.8,0.1l-0.3,0.2l-3.9-2.3
			h-5.5l-1.6-0.9v-4.4v-0.1l-3.9-2.2h-11.6l-20.4-11.8c0.4-0.3,0.3-0.7-0.1-0.9c-0.6-0.3-1.2-0.3-1.8,0c-0.5,0.3-0.5,0.8,0,1
			c0.5,0.3,1.1,0.3,1.6,0.1l20.5,11.8h11.5l3.7,2.1v4.4l1.9,1.1h5.5l3.8,2.2l-0.3,0.2c-0.2,0.1-0.3,0.3-0.2,0.5l0.5,0.8l2.7,1.6
			l-1.3,0.7l-2.7-1.6l-1.4-0.3c-0.3-0.1-0.6,0-0.8,0.1l-0.3,0.2l-2.6-1.5h-4.9l-4-2.3v-3.1l0,0l-2.3-1.4h-14l-10-5.8
			c0.4-0.3,0.3-0.7-0.1-0.9c-0.6-0.3-1.2-0.3-1.8,0c-0.3,0.1-0.4,0.5-0.3,0.7c0.1,0.1,0.2,0.2,0.3,0.3c0.5,0.3,1.1,0.3,1.6,0.1
			l10.1,5.8h14l2.1,1.2v3.3l4.2,2.4h4.9l2.4,1.4l-0.3,0.2c-0.2,0.1-0.3,0.3-0.2,0.5l0.5,0.8l2.7,1.6l-1.1,0.6l1.1,0.6l-2.7,1.6
			l-0.5,0.8c-0.1,0.2,0,0.3,0.2,0.5l0.4,0.2l-1.3,0.8v3.9l-2.1,1.2h-8.9l-2.5,1.4v2.5l-3.4,2v3l-1.6,0.9H157l-21.3,12.4
			c-0.5-0.2-1.1-0.2-1.6,0.1c-0.3,0.1-0.5,0.4-0.4,0.7c0.1,0.2,0.2,0.3,0.4,0.4c0.6,0.3,1.2,0.3,1.8,0c0.3-0.1,0.4-0.4,0.4-0.7
			c0-0.2-0.2-0.3-0.3-0.3l21.2-12.3h4.1l1.8-1.1v-3l3.4-2v-2.5l2.2-1.3h8.9l2.4-1.4v-3.9l1.2-0.7l0.2,0.1c0.3,0.1,0.5,0.2,0.8,0.1
			l1.4-0.3l2.7-1.6l1.3,0.7l-2.7,1.6l-0.5,0.8c-0.1,0.2,0,0.4,0.2,0.5l0.3,0.2l-1.4,0.8v3.9l-2.1,1.2h-8.9l-2.5,1.4v2.5l-3.4,2v3
			l-1.6,0.9h-4.1l-8.4,4.9c-0.5-0.2-1.1-0.2-1.6,0.1c-0.5,0.3-0.5,0.8,0,1.1c0.6,0.3,1.2,0.3,1.8,0c0.3-0.1,0.4-0.4,0.4-0.7
			c0-0.2-0.2-0.3-0.3-0.3l8.3-4.8h4.1l1.8-1.1v-3l3.4-2V194l2.2-1.3h8.9l2.4-1.4v-3.9l1.2-0.7l0.3,0.2c0.3,0.1,0.5,0.2,0.8,0.1
			l1.4-0.3l2.7-1.6l1.3,0.8l-2.7,1.6l-0.5,0.8c-0.1,0.2,0,0.4,0.2,0.5l0.3,0.2l-1.7,1v2.5l-4.1,2.4h-3.9l-5.6,3.3v4l-4.2,2.5h-4.2
			l-10.1,5.9c-0.5-0.2-1.1-0.2-1.6,0.1c-0.3,0.1-0.4,0.4-0.3,0.7c0.1,0.2,0.2,0.3,0.3,0.3c0.6,0.3,1.2,0.3,1.8,0
			c0.4-0.3,0.5-0.7,0.1-1l9.9-5.8h4.2l4.5-2.6v-4l5.4-3.1h3.9l4.4-2.5V190l1.6-0.9l0.3,0.2c0.3,0.1,0.5,0.2,0.8,0.1l1.4-0.3l2.7-1.6
			l1.3,0.7l-2.7,1.6l-0.5,0.8c-0.1,0.2,0,0.4,0.2,0.5l0.3,0.2l-3.9,2.2v3.2l-1.6,0.9H180l-3.9,2.2v6.7l-22.4,13
			c-0.5-0.2-1.1-0.2-1.6,0.1c-0.5,0.3-0.5,0.8,0,1c0.6,0.3,1.2,0.3,1.8,0c0.4-0.3,0.5-0.7,0.1-1l22.5-13.1v-6.7l3.6-2.1h7.6l1.9-1.1
			v-3.2l3.8-2.2l0.3,0.2c0.3,0.1,0.6,0.2,0.8,0.1l1.4-0.3l2.7-1.6l1.3,0.7l-2.7,1.6l-0.5,0.8c-0.1,0.2,0,0.4,0.2,0.5l0.3,0.2
			l-2.6,1.5v1.4l-5.2,3.1h-3.9l-4,2.4v3.7l-14.8,8.6c-0.5-0.2-1.1-0.2-1.6,0.1c-0.3,0.1-0.4,0.5-0.3,0.7c0.1,0.1,0.2,0.2,0.3,0.3
			c0.6,0.3,1.2,0.3,1.8,0c0.3-0.1,0.4-0.4,0.3-0.7c0-0.1-0.1-0.2-0.2-0.3l14.9-8.7v-3.7l3.8-2.2h3.9l5.5-3.2v-1.4l2.4-1.4l0.3,0.2
			c0.3,0.1,0.5,0.2,0.8,0.1l1.4-0.3l2.7-1.6l1.3,0.7l-2.7,1.6l-0.5,0.8c-0.1,0.2,0,0.4,0.2,0.5l0.3,0.2l-1.3,0.8h-3.6l-2.1,1.2v4
			l-2.7,1.6H188l-4.8,2.8v3.5l-4.2,2.4c-0.5-0.2-1.1-0.2-1.6,0.1c-0.5,0.3-0.5,0.8,0,1.1c0.6,0.3,1.2,0.3,1.8,0
			c0.3-0.1,0.5-0.3,0.4-0.6c0-0.2-0.1-0.3-0.3-0.4l4.3-2.5v-3.5l4.6-2.7h3.6l2.9-1.7v-4l1.9-1.1h3.6l1.4-0.8l0.3,0.2
			c0.3,0.1,0.5,0.2,0.8,0.1l1.4-0.3l2.7-1.6l1.3,0.7l-2.7,1.6l-0.5,0.8c-0.1,0.2,0,0.4,0.2,0.5l0.3,0.2l-1.3,0.8v3.9l-2.1,1.2H193
			l-2.5,1.4v2.5l-3.4,2v3l-1.6,0.9h-4.1l-11.2,6.5c-0.5-0.2-1.1-0.2-1.6,0.1c-0.5,0.3-0.5,0.8,0,1.1c0.6,0.3,1.2,0.3,1.8,0
			c0.3-0.1,0.4-0.4,0.3-0.7c0-0.1-0.1-0.3-0.3-0.3l11-6.4h4.1l1.8-1.1v-3l3.4-2v-2.5l2.2-1.3h8.9l2.4-1.4V199l1.2-0.7l0.3,0.2
			c0.3,0.1,0.5,0.2,0.8,0.1l1.4-0.3l2.7-1.6l1.3,0.7l-2.7,1.6l-0.4,1c-0.1,0.2,0,0.4,0.2,0.5l0.3,0.2l-1.7,1v2.5l-4.1,2.4h-3.9
			l-5.6,3.3v4l-4.2,2.5h-4.2l-4.8,2.8c-0.5-0.2-1.1-0.2-1.6,0.1c-0.5,0.3-0.5,0.8,0,1c0.6,0.3,1.2,0.3,1.8,0
			c0.3-0.1,0.4-0.4,0.4-0.7c0-0.1-0.1-0.3-0.3-0.3l4.7-2.7h4.2l4.5-2.6v-4l5.4-3.1h3.9l4.4-2.5v-2.5l1.6-0.9l0.3,0.2
			c0.3,0.1,0.5,0.2,0.8,0.1l1.4-0.3l2.7-1.6l1.3,0.7l-2.7,1.6l-0.5,0.8c-0.1,0.2,0,0.3,0.2,0.5l0.3,0.2l-3.9,2.2v3.2l-1.6,0.9h-7.6
			l-3.9,2.2v6.7l-16.3,9.5c-0.5-0.2-1.1-0.2-1.6,0.1c-0.3,0.1-0.4,0.5-0.3,0.7c0.1,0.1,0.2,0.2,0.3,0.3c0.6,0.3,1.2,0.3,1.8,0
			c0.3-0.1,0.4-0.4,0.3-0.7c0-0.1-0.1-0.2-0.2-0.3l16.4-9.4v-6.7l3.6-2.1h7.6l1.9-1.1v-3.2l3.8-2.2l0.3,0.2c0.3,0.1,0.5,0.2,0.8,0.1
			l1.4-0.3l2.7-1.6l1.3,0.7l-2.7,1.6l-0.5,0.8c-0.1,0.2,0,0.4,0.2,0.5l0.3,0.2l-2.6,1.5v2.8l-4,2.3h-5.5l-2.3,1.4l0.1,8.1l-24,13.9
			c-0.5-0.2-1.1-0.2-1.6,0.1c-0.5,0.3-0.5,0.8,0,1.1c0.6,0.3,1.2,0.3,1.8,0c0.4-0.3,0.5-0.7,0.1-0.9l24.1-14v-8.1l2.1-1.2h5.5
			l4.2-2.4V207l2.4-1.4l0.3,0.2c0.3,0.1,0.5,0.2,0.8,0.1l1.4-0.3l2.7-1.6l1.2,0.7l1.1-0.6l2.8,1.6l1.4,0.3c0.3,0.1,0.6,0,0.8-0.1
			l0.4-0.2l1.3,0.8h6.7l2.2,1.2v5.1l0,0l2.5,1.4h4.3l3.4,2h5.2l1.6,0.9v2.4l21.6,12.5c-0.3,0.3-0.3,0.7,0.2,0.9
			c0.6,0.3,1.2,0.3,1.8,0c0.5-0.3,0.5-0.8,0-1c-0.5-0.2-1.2-0.2-1.7,0l-21.4-12.3v-2.4l-1.8-1h-5.2l-3.4-2h-4.3l-2.2-1.3v-5.1v-0.1
			l-2.4-1.4h-6.7l-1.2-0.7l0.2-0.1c0.2-0.1,0.3-0.3,0.2-0.5l-0.5-0.8l-2.8-1.6l1.3-0.7l2.8,1.6l1.4,0.3c0.3,0.1,0.6,0,0.8-0.1
			l0.3-0.2l1.3,0.8h6.6l2.2,1.3v5.1l0,0l2.5,1.4h4.3l3.4,2h5.2l1.6,0.9v2.4l8.5,4.9c-0.3,0.3-0.3,0.7,0.2,0.9c0.6,0.3,1.2,0.3,1.8,0
			c0.3-0.1,0.4-0.5,0.3-0.7c-0.1-0.1-0.2-0.2-0.3-0.3c-0.5-0.3-1.2-0.3-1.7,0l-8.4-4.8V215l0,0l-1.8-1.1h-5.2l-3.4-2h-4.3l-2.3-1.3
			v-5.1v-0.1l-2.4-1.4h-6.7l-1.2-0.7l0.3-0.2c0.2-0.1,0.3-0.3,0.2-0.4c0,0,0,0,0,0l-0.6-0.8l-2.8-1.6l1.3-0.7l2.8,1.6l1.4,0.3
			c0.3,0.1,0.6,0,0.8-0.1l0.3-0.4l1.7,1h4.3l4.2,2.4v2.3l5.7,3.3h6.9l4.3,2.5v2.4v0.1l10.1,5.8c-0.3,0.3-0.3,0.7,0.2,0.9
			c0.6,0.3,1.2,0.3,1.8,0c0.5-0.3,0.5-0.8,0-1c-0.5-0.2-1.1-0.2-1.7,0l-10-5.8v-2.4l-4.4-2.8h-6.9l-5.4-3.1v-2.2v-0.1l-4.4-2.5h-4.4
			l-1.5-0.9l0.3-0.2c0.2-0.1,0.3-0.3,0.2-0.5l-0.5-0.8l-2.8-1.6l1.3-0.8l2.8,1.6l1.4,0.3c0.3,0.1,0.6,0,0.8-0.1l0.3-0.2l3.9,2.3h5.5
			l1.6,0.9v4.4v0.1l3.9,2.2h11.6l22.6,13c-0.4,0.3-0.3,0.7,0.1,0.9c0.6,0.3,1.2,0.3,1.8,0c0.5-0.3,0.5-0.8,0-1.1
			c-0.5-0.3-1.1-0.3-1.6-0.1l-22.7-13.1h-11.6l-3.6-2.1v-4.4v-0.1l-1.9-1.1h-5.6l-3.8-2.2l0.3-0.2c0.2-0.1,0.3-0.3,0.2-0.5l-0.5-0.8
			l-2.8-1.6l1.3-0.7l2.8,1.6l1.4,0.3c0.3,0.1,0.6,0,0.8-0.1l0.3-0.2l2.6,1.5h2.4l5.3,3.1l0.1,2.3l4.1,2.4h6.4l14.9,8.6
			c-0.4,0.3-0.3,0.7,0.1,0.9c0.6,0.3,1.2,0.3,1.8,0c0.5-0.3,0.5-0.8,0-1c-0.5-0.3-1.1-0.3-1.6-0.1l-15-8.7h-6.5l-3.9-2.2l-0.1-2.3
			l-5.5-3.2h-2.4l-2.4-1.4l0.3-0.2c0.2-0.1,0.3-0.3,0.2-0.4c0,0,0,0,0-0.1l-0.5-0.8l-2.8-1.7l1.3-0.7l2.8,1.6l1.4,0.3
			c0.3,0.1,0.6,0,0.8-0.1l0.3-0.2l1.3,0.8v2.1l2.1,1.2h6.9l2.7,1.6v2.1l4.9,2.8h6l4.2,2.4c-0.4,0.3-0.3,0.7,0.1,0.9
			c0.6,0.3,1.2,0.3,1.8,0c0.5-0.3,0.5-0.8,0-1.1c-0.5-0.3-1.1-0.3-1.6-0.1l-4.3-2.5h-6.1l-4.6-2.6v-2.1l-2.9-1.7h-6.9l-1.9-1.1v-2.1
			l-1.4-0.8l0.3-0.2c0.2-0.1,0.3-0.3,0.2-0.5l-0.5-0.8l-2.8-1.6l1.3-0.8l2.8,1.6l1.4,0.3c0.3,0.1,0.6,0,0.8-0.1l0.3-0.2l1.3,0.8h6.7
			l2.2,1.2v5.1v0.1l2.5,1.4h4.3l3.5,2h5.2l1.6,0.9v2.4l11.3,6.5c-0.3,0.3-0.3,0.7,0.2,0.9c0.6,0.3,1.2,0.3,1.8,0
			c0.3-0.1,0.4-0.5,0.3-0.7c-0.1-0.1-0.2-0.2-0.3-0.3c-0.5-0.3-1.1-0.3-1.7-0.1l-11.1-6.4V203l-1.8-1.1H276l-3.5-2h-4.3l-2.3-1.3
			v-5.1v-0.1l-2.4-1.4h-6.7l-1.2-0.7l0.3-0.2c0.2-0.1,0.3-0.3,0.2-0.5l-0.6-0.8l-2.8-1.6l1.3-0.7l2.8,1.6l1.4,0.3
			c0.3,0.1,0.6,0,0.8-0.1l0.3-0.2l1.7,1h4.3l4.2,2.4v2.3l5.7,3.3h6.9l4.3,2.5v2.4v0l4.9,2.8c-0.3,0.3-0.3,0.7,0.1,0.9
			c0.6,0.3,1.2,0.3,1.8,0c0.5-0.3,0.5-0.8,0-1c-0.5-0.3-1.1-0.3-1.7-0.1l-4.7-2.7v-2.4l-4.5-2.6h-6.9l-5.4-3.1v-2.2l0,0l-4.4-2.5
			h-4.3l-1.5-0.9l0.3-0.2c0.2-0.1,0.3-0.3,0.2-0.5l-0.5-0.8l-2.8-1.6l1.3-0.7l2.8,1.6l1.4,0.3c0.3,0.1,0.6,0,0.8-0.1l0.3-0.2
			l3.9,2.3h5.5l1.6,0.9v4.4v0.1l3.9,2.2h11.5l16.4,9.5c-0.4,0.3-0.3,0.7,0.1,0.9c0.6,0.3,1.2,0.3,1.8,0c0.3-0.1,0.4-0.5,0.2-0.8
			c-0.1-0.1-0.1-0.2-0.2-0.2c-0.5-0.3-1.1-0.3-1.6-0.1l-16.6-9.6h-11.6l-3.6-2.1v-4.4l0,0l-1.9-1.2h-5.5l-3.8-2.2l0.3-0.2
			c0.2-0.1,0.3-0.3,0.2-0.5l-0.5-0.8l-2.8-1.6l1.3-0.7l2.8,1.6l1.4,0.3c0.3,0.1,0.6,0,0.8-0.1l0.3-0.2l2.5,1.5h4.9l4,2.3v3.1l0,0
			l2.3,1.3h14l24.1,13.9c-0.2,0.1-0.3,0.5-0.2,0.7c0.1,0.1,0.2,0.2,0.3,0.2c0.6,0.3,1.2,0.3,1.8,0c0.3-0.1,0.4-0.4,0.4-0.7
			C321.6,206.8,321.5,206.7,321.3,206.6z M312.9,147.5c0.4-0.2,0.8-0.2,1.2,0c0.3,0.2,0.4,0.5,0,0.7c-0.4,0.2-0.9,0.2-1.2,0
			c-0.2-0.1-0.3-0.3-0.2-0.5C312.7,147.6,312.8,147.5,312.9,147.5z M296,152.6c0.4-0.2,0.8-0.2,1.2,0c0.2,0.1,0.3,0.3,0.2,0.5
			c0,0.1-0.1,0.2-0.2,0.2c-0.4,0.2-0.8,0.2-1.2,0c-0.2-0.1-0.3-0.3-0.2-0.5C295.8,152.8,295.9,152.7,296,152.6z M297.1,147.4
			c0.4-0.2,0.8-0.2,1.2,0c0.3,0.2,0.3,0.5,0,0.7c-0.4,0.2-0.8,0.2-1.2,0C296.7,147.9,296.7,147.6,297.1,147.4L297.1,147.4z M292,142
			c0.4-0.2,0.8-0.2,1.2,0c0.4,0.2,0.4,0.5,0,0.7c-0.4,0.2-0.9,0.2-1.2,0C291.6,142.5,291.6,142.2,292,142z M269.6,147.7
			c0.4-0.2,0.8-0.2,1.2,0c0.3,0.2,0.4,0.5,0,0.7c-0.4,0.2-0.8,0.2-1.2,0c-0.2-0.1-0.3-0.3-0.3-0.5
			C269.4,147.9,269.5,147.8,269.6,147.7L269.6,147.7z M292.8,130.9c0.4-0.2,0.8-0.2,1.2,0c0.3,0.2,0.4,0.5,0,0.7
			c-0.4,0.2-0.9,0.2-1.2,0c-0.2-0.1-0.3-0.3-0.2-0.5C292.6,131,292.7,130.9,292.8,130.9L292.8,130.9z M267.7,140.8
			c0.4-0.2,0.8-0.2,1.2,0c0.2,0.1,0.3,0.3,0.2,0.5c0,0.1-0.1,0.2-0.2,0.2c-0.4,0.2-0.8,0.2-1.2,0c-0.2-0.1-0.3-0.3-0.2-0.5
			C267.5,140.9,267.6,140.9,267.7,140.8L267.7,140.8z M272.3,129.8c0.4-0.2,0.8-0.2,1.2,0c0.4,0.2,0.4,0.5,0,0.7
			c-0.4,0.2-0.8,0.2-1.2,0C271.9,130.3,271.9,130,272.3,129.8L272.3,129.8z M255.2,132.7c0.4-0.2,0.8-0.2,1.2,0
			c0.4,0.2,0.4,0.5,0,0.7c-0.4,0.2-0.9,0.2-1.2,0c-0.2,0-0.4-0.1-0.4-0.4S254.9,132.7,255.2,132.7L255.2,132.7z M168.4,129.2
			c-0.4,0.2-0.8,0.2-1.2,0c-0.2-0.1-0.3-0.3-0.2-0.5c0-0.1,0.1-0.2,0.2-0.2c0.4-0.2,0.8-0.2,1.2,0c0.2,0.1,0.3,0.3,0.2,0.5
			C168.5,129,168.4,129.1,168.4,129.2L168.4,129.2z M177.4,139c-0.4,0.2-0.8,0.2-1.2,0c-0.4-0.2-0.4-0.5,0-0.7
			c0.4-0.2,0.9-0.2,1.2,0C177.7,138.4,177.7,138.8,177.4,139L177.4,139z M168.3,138.3c-0.4,0.2-0.8,0.2-1.2,0
			c-0.3-0.2-0.3-0.5,0-0.7c0.4-0.2,0.8-0.2,1.2,0C168.6,137.8,168.6,138.1,168.3,138.3L168.3,138.3z M159,141.2
			c-0.4,0.2-0.8,0.2-1.2,0c-0.3-0.2-0.4-0.5,0-0.7c0.4-0.2,0.8-0.2,1.2,0c0.2,0.1,0.3,0.3,0.2,0.5
			C159.2,141.1,159.1,141.2,159,141.2z M165.3,147c-0.4,0.2-0.8,0.2-1.2,0c-0.2-0.1-0.3-0.3-0.2-0.5c0-0.1,0.1-0.2,0.2-0.2
			c0.4-0.2,0.8-0.2,1.2,0C165.6,146.5,165.6,146.8,165.3,147L165.3,147z M168.9,154.2c-0.4,0.2-0.8,0.2-1.2,0
			c-0.4-0.2-0.4-0.5,0-0.7c0.4-0.2,0.8-0.2,1.2,0C169.2,153.7,169.2,154,168.9,154.2L168.9,154.2z M139.8,140.7
			c-0.4,0.2-0.8,0.2-1.2,0c-0.3-0.2-0.4-0.5,0-0.7c0.4-0.2,0.8-0.2,1.2,0c0.2,0.1,0.3,0.3,0.2,0.5
			C139.9,140.6,139.8,140.7,139.8,140.7L139.8,140.7z M157,155.3c-0.4,0.2-0.8,0.2-1.2,0c-0.3-0.2-0.4-0.5,0-0.7
			c0.4-0.2,0.8-0.2,1.2,0c0.2,0.1,0.3,0.3,0.2,0.5C157.2,155.2,157.1,155.3,157,155.3z M137.9,152.6c-0.4,0.2-0.9,0.2-1.2,0
			c-0.3-0.2-0.3-0.5,0-0.7c0.4-0.2,0.8-0.2,1.2,0C138.2,152.1,138.2,152.4,137.9,152.6L137.9,152.6z M143,162.5
			c-0.4,0.2-0.9,0.2-1.2,0c-0.3-0.2-0.3-0.5,0-0.7c0.4-0.2,0.8-0.2,1.2,0C143.3,162,143.3,162.3,143,162.5L143,162.5z M135.7,213.4
			c-0.4,0.2-0.8,0.2-1.2,0c-0.4-0.2-0.3-0.5,0-0.7c0.4-0.2,0.8-0.2,1.2,0c0.2,0.1,0.3,0.3,0.2,0.5
			C135.9,213.3,135.8,213.4,135.7,213.4L135.7,213.4z M152.6,208.2c-0.4,0.2-0.8,0.2-1.2,0c-0.2-0.1-0.3-0.3-0.2-0.5
			c0-0.1,0.1-0.2,0.2-0.2c0.4-0.2,0.8-0.2,1.2,0c0.2,0.1,0.3,0.3,0.2,0.5C152.8,208.1,152.7,208.2,152.6,208.2L152.6,208.2z
			 M155.2,211.3c-0.4,0.2-0.9,0.2-1.2,0c-0.3-0.2-0.3-0.5,0-0.7c0.4-0.2,0.8-0.2,1.2,0C155.5,210.8,155.5,211.1,155.2,211.3
			L155.2,211.3z M153.7,220.6c-0.4,0.2-0.8,0.2-1.2,0c-0.3-0.2-0.4-0.5,0-0.7c0.4-0.2,0.9-0.2,1.2,0
			C154,220.1,154,220.4,153.7,220.6L153.7,220.6z M166.6,215.2c-0.4,0.2-0.8,0.2-1.2,0c-0.2-0.1-0.3-0.3-0.2-0.5
			c0-0.1,0.1-0.2,0.2-0.2c0.4-0.2,0.8-0.2,1.2,0c0.2,0.1,0.3,0.3,0.3,0.5C166.8,215.1,166.7,215.2,166.6,215.2L166.6,215.2z
			 M179,213.2c-0.4,0.2-0.8,0.2-1.2,0c-0.4-0.2-0.4-0.5,0-0.7c0.4-0.2,0.8-0.2,1.2,0C179.3,212.6,179.3,213,179,213.2z M170.3,221.6
			c-0.4,0.2-0.8,0.2-1.2,0c-0.3-0.2-0.4-0.5,0-0.7c0.4-0.2,0.8-0.2,1.2,0c0.2,0.1,0.3,0.3,0.3,0.5
			C170.5,221.5,170.4,221.6,170.3,221.6L170.3,221.6z M180.9,220.1c-0.4,0.2-0.8,0.2-1.2,0c-0.4-0.2-0.4-0.5,0-0.7
			c0.4-0.2,0.8-0.2,1.2,0C181.2,219.6,181.2,219.9,180.9,220.1L180.9,220.1z M180.2,228.8c-0.4,0.2-0.8,0.2-1.2,0
			c-0.3-0.2-0.3-0.5,0-0.7c0.4-0.2,0.8-0.2,1.2,0C180.5,228.3,180.5,228.6,180.2,228.8L180.2,228.8z M179.3,236.4
			c-0.4,0.2-0.8,0.2-1.2,0c-0.3-0.2-0.4-0.5,0-0.7c0.4-0.2,0.8-0.2,1.2,0c0.2,0.1,0.3,0.3,0.2,0.5
			C179.5,236.3,179.4,236.3,179.3,236.4L179.3,236.4z M280.3,232c0.4-0.2,0.8-0.2,1.2,0c0.3,0.2,0.4,0.5,0,0.7
			c-0.4,0.2-0.8,0.2-1.2,0c-0.2-0.1-0.3-0.3-0.3-0.5C280.1,232.1,280.2,232,280.3,232L280.3,232z M271.3,222.2
			c0.4-0.2,0.8-0.2,1.2,0c0.4,0.2,0.4,0.5,0,0.7c-0.4,0.2-0.8,0.2-1.2,0C271,222.7,271,222.4,271.3,222.2L271.3,222.2z M276.7,220.7
			c0.4-0.2,0.8-0.2,1.2,0c0.2,0.1,0.3,0.3,0.3,0.5c0,0.1-0.1,0.2-0.3,0.3c-0.4,0.2-0.8,0.2-1.2,0
			C276.3,221.2,276.3,220.9,276.7,220.7L276.7,220.7z M292.7,221.6c0.4-0.2,0.8-0.2,1.2,0c0.2,0.1,0.3,0.3,0.2,0.5
			c0,0.1-0.1,0.2-0.2,0.2c-0.4,0.2-0.8,0.2-1.2,0c-0.2,0-0.3-0.2-0.3-0.4C292.4,221.7,292.5,221.6,292.7,221.6L292.7,221.6z
			 M283.4,214.1c0.4-0.2,0.8-0.2,1.2,0c0.2,0.1,0.3,0.3,0.2,0.5c0,0.1-0.1,0.2-0.2,0.2c-0.4,0.2-0.8,0.2-1.2,0
			C283,214.6,283,214.3,283.4,214.1L283.4,214.1z M279.8,206.9c0.4-0.2,0.8-0.2,1.2,0c0.2,0.1,0.3,0.3,0.2,0.5
			c0,0.1-0.1,0.2-0.2,0.2c-0.4,0.2-0.8,0.2-1.2,0c-0.2,0-0.4-0.2-0.4-0.4C279.5,207.1,279.6,207,279.8,206.9L279.8,206.9z
			 M294.4,212c0.4-0.2,0.9-0.2,1.2,0c0.3,0.2,0.3,0.5,0,0.7c-0.4,0.2-0.8,0.2-1.2,0C294,212.5,294,212.2,294.4,212L294.4,212z
			 M291.8,205.8c0.4-0.2,0.8-0.2,1.2,0c0.4,0.2,0.3,0.5,0,0.7c-0.4,0.2-0.8,0.2-1.2,0C291.3,206.4,291.3,206,291.8,205.8
			L291.8,205.8z M306.9,206.3c0.4-0.2,0.8-0.2,1.2,0c0.2,0.1,0.3,0.3,0.3,0.5c0,0.1-0.1,0.2-0.3,0.3c-0.4,0.2-0.8,0.2-1.2,0
			C306.4,206.8,306.4,206.4,306.9,206.3L306.9,206.3z M224.5,203.4l-39.7-22.9l39.3-22.9l39.6,22.9L224.5,203.4z M321,207.5
			c-0.4,0.2-0.8,0.2-1.2,0c-0.2-0.1-0.3-0.3-0.2-0.5c0-0.1,0.1-0.2,0.2-0.2c0.4-0.2,0.8-0.2,1.2,0c0.2,0.1,0.3,0.3,0.2,0.5
			C321.2,207.4,321.1,207.5,321,207.5z"/>
		<path class="st0" d="M283.5,146.5c0.3-0.1,0.4-0.4,0.3-0.7c-0.1-0.2-0.2-0.3-0.3-0.3c-0.6-0.3-1.2-0.3-1.8,0
			c-0.5,0.3-0.5,0.7-0.1,1l-14.9,8.7v3.7l-3.8,2.2h-3.9l-5.5,3.2v1.4l-2.4,1.4l0.3,0.2l2.5-1.5v-1.4l5.3-3h3.9l4.1-2.4v-3.7
			l14.8-8.6C282.4,146.9,283,146.8,283.5,146.5z M282,145.6c0.4-0.2,0.8-0.2,1.2,0c0.2,0.1,0.3,0.3,0.2,0.5c0,0.1-0.1,0.2-0.2,0.2
			c-0.4,0.2-0.8,0.2-1.2,0C281.6,146.2,281.6,145.9,282,145.6L282,145.6z"/>
		<polygon class="st0" points="224.4,201.1 259.9,180.5 224.2,159.9 188.7,180.5 		"/>
		<path class="st1" d="M297.8,88.4c6.5,3.8,6.6,9.9,0.1,13.7L137,195.6c-6.5,3.8-17.1,3.8-23.7,0l-76.2-44
			c-6.5-3.8-6.6-9.9-0.1-13.7l160.9-93.5c6.5-3.8,17.1-3.8,23.7,0L297.8,88.4z"/>
		<path class="st2" d="M297.8,65.2c6.5,3.8,6.6,9.9,0.1,13.7L137,172.4c-6.5,3.8-17.1,3.8-23.7,0l-76.2-44
			c-6.5-3.8-6.6-9.9-0.1-13.7l160.9-93.5c6.5-3.8,17.1-3.8,23.7,0L297.8,65.2z"/>
		<polygon class="st3" points="197.8,28.5 52.7,112.8 140.2,163.4 285.4,79 		"/>
		<path class="st3" d="M98.7,144.2l-13.3-7.7c-3.3-1.7-7.3-1.7-10.6,0c-1.8,0.7-2.8,2.7-2.1,4.6c0.4,1,1.1,1.7,2.1,2.1l13.3,7.7
			c3.3,1.7,7.3,1.7,10.6,0c1.9-0.7,2.8-2.7,2.1-4.6C100.5,145.3,99.7,144.5,98.7,144.2L98.7,144.2z M98.3,150.1
			c-3,1.5-6.6,1.5-9.7,0l-13.3-7.7c-1-0.5-1.8-1.4-1.9-2.6c0.1-1.1,0.8-2.1,1.8-2.5c3-1.5,6.6-1.5,9.7,0l13.3,7.7
			c1.4,0.4,2.2,1.9,1.8,3.3C99.7,149.2,99.1,149.8,98.3,150.1L98.3,150.1z"/>
		<path class="st3" d="M264.6,53.5l-22.7-13.1c-0.7-0.4-1.6-0.4-2.3,0c-0.6,0.4-0.6,1,0,1.3l22.7,13.1c0.7,0.4,1.6,0.4,2.3,0
			c0.4-0.1,0.6-0.5,0.4-0.9C264.9,53.8,264.8,53.6,264.6,53.5"/>
		<path class="st3" d="M302.7,72.6c0,0.2,0,0.3-0.1,0.5c0,0.2-0.1,0.3-0.1,0.4s-0.1,0.3-0.1,0.5s-0.1,0.3-0.2,0.4S302,74.8,302,75
			s-0.1,0.2-0.2,0.4s-0.2,0.4-0.4,0.6s-0.3,0.4-0.4,0.5l-0.1,0.1c-0.2,0.2-0.5,0.5-0.7,0.7l-0.5,0.4c-0.2,0.1-0.3,0.3-0.5,0.4
			c-0.2,0.1-0.4,0.3-0.6,0.4s-0.4,0.3-0.6,0.4L137,172.4c-0.5,0.3-1,0.6-1.6,0.8l-0.5,0.2c-0.4,0.2-0.9,0.3-1.3,0.5l-0.5,0.2
			l-0.9,0.2l-0.7,0.2c-0.3,0.1-0.6,0.1-0.9,0.2l-0.6,0.1c-0.6,0.1-1.3,0.2-1.9,0.3l-0.6,0.1l-1.1,0.1h-0.7h-0.9H124h-0.8l-0.8-0.1
			l-0.8-0.1l-0.8-0.1l-0.9-0.1l-0.7-0.1l-1-0.3l-0.6-0.1c-0.6-0.2-1.2-0.4-1.8-0.6c-0.3-0.1-0.6-0.2-0.8-0.4l-0.4-0.2
			c-0.4-0.2-0.8-0.4-1.2-0.6l-76.2-44c-1.8-0.9-3.3-2.4-4.2-4.1c-0.5-0.9-0.7-1.8-0.7-2.8v14c0,2.5,1.6,5,4.9,6.9l76.2,44
			c0.4,0.2,0.8,0.4,1.2,0.6l0.4,0.2c0.2,0.1,0.5,0.2,0.8,0.3h0.1c0.6,0.2,1.2,0.4,1.8,0.6l0.1,0.1l0.4,0.1l1,0.3l0.3,0.1l0.4,0.1
			c0.3,0,0.6,0.1,0.9,0.1l0.4,0.1h0.4c0.3,0,0.6,0.1,0.8,0.1h0.4h0.4h0.8h0.4h1.7h0.3c0.4,0,0.8,0,1.1-0.1h0.4h0.1
			c0.6-0.1,1.3-0.1,1.9-0.3h0.1l0.5-0.1c0.3-0.1,0.6-0.1,0.9-0.2l0.7-0.2l0.9-0.2l0.2-0.1l0.3-0.1c0.4-0.2,0.9-0.3,1.3-0.5l0.5-0.2
			c0.5-0.2,1.1-0.5,1.6-0.8L297.8,93l0.2-0.1c0.1-0.1,0.3-0.2,0.4-0.3s0.4-0.3,0.6-0.4l0.5-0.4l0.5-0.4l0.1-0.1
			c0.2-0.2,0.4-0.4,0.6-0.6l0.1-0.1c0.1-0.1,0.2-0.2,0.3-0.4c0-0.1,0.1-0.1,0.1-0.2c0.1-0.2,0.3-0.4,0.4-0.6s0.1-0.2,0.2-0.2
			c0,0,0-0.1,0.1-0.1c0.1-0.2,0.2-0.3,0.2-0.5s0.1-0.2,0.1-0.3v-0.1c0.1-0.2,0.1-0.3,0.1-0.5c0-0.1,0.1-0.2,0.1-0.3c0,0,0-0.1,0-0.1
			s0-0.3,0.1-0.5s0-0.2,0-0.3v-0.1v-14C302.6,72.3,302.7,72.5,302.7,72.6z"/>
		<path class="st2" d="M40.9,138.2c0,0.6-0.5,0.9-1,0.6c-0.6-0.4-1-1-1-1.7c0-0.6,0.5-0.9,1-0.6C40.5,136.8,40.9,137.5,40.9,138.2z
			 M44.6,139.2c-0.6-0.3-1-0.1-1,0.6c0,0.7,0.4,1.3,1,1.7c0.5,0.3,1,0.1,1-0.6C45.5,140.2,45.2,139.5,44.6,139.2L44.6,139.2z
			 M49.3,141.9c-0.6-0.3-1-0.1-1,0.6c0,0.7,0.4,1.3,1,1.7c0.5,0.3,1,0.1,1-0.6C50.2,142.9,49.9,142.2,49.3,141.9L49.3,141.9z
			 M53.9,144.6c-0.5-0.3-1-0.1-1,0.6c0,0.7,0.4,1.3,1,1.7c0.5,0.3,1,0.1,1-0.6C54.9,145.6,54.5,144.9,53.9,144.6L53.9,144.6z
			 M58.6,147.3c-0.5-0.3-1-0.1-1,0.6c0,0.7,0.4,1.3,1,1.7c0.6,0.3,1,0.1,1-0.6C59.6,148.3,59.2,147.6,58.6,147.3L58.6,147.3z
			 M94.7,168.1c-0.6-0.3-1-0.1-1,0.6c0,0.7,0.4,1.4,1,1.7c0.6,0.3,1,0.1,1-0.6C95.7,169.1,95.3,168.5,94.7,168.1L94.7,168.1z
			 M99.4,170.8c-0.6-0.3-1-0.1-1,0.6c0,0.7,0.4,1.3,1,1.7c0.6,0.3,1,0.1,1-0.6C100.4,171.8,100,171.2,99.4,170.8L99.4,170.8z
			 M104.1,173.5c-0.6-0.3-1-0.1-1,0.6c0,0.7,0.4,1.4,1,1.7c0.6,0.3,1,0.1,1-0.6C105.1,174.5,104.7,173.9,104.1,173.5L104.1,173.5z
			 M108.8,176.2c-0.6-0.3-1-0.1-1,0.6c0,0.7,0.4,1.3,1,1.7c0.6,0.3,1,0.1,1-0.6C109.7,177.2,109.4,176.6,108.8,176.2L108.8,176.2z
			 M113.4,178.9c-0.6-0.3-1-0.1-1,0.6c0,0.7,0.4,1.3,1,1.7c0.6,0.3,1,0.1,1-0.6C114.4,180,114,179.3,113.4,178.9L113.4,178.9z
			 M81.8,159.8l-10.2-5.9c-0.9-0.6-1.7-0.1-1.7,1c0,1.2,0.7,2.3,1.7,3l10.2,5.9c0.9,0.5,1.7,0.1,1.7-1
			C83.4,161.6,82.8,160.5,81.8,159.8L81.8,159.8z"/>
		<polygon class="st4" points="197.8,29.4 284.6,79.5 285.4,79 197.8,28.5 52.7,112.8 53.5,113.2 		"/>
		<path class="st3" d="M238.2,89.2l10.6-1.4v-7.9l-10.6-1.4c-1.2-2.9-3.1-5.4-5.4-7.5l5.7-5.3l-9.7-5.6l-9.2,3.3
			c-4.2-1.5-8.6-2.5-13-3.1l-2.5-6.1h-13.6l-2.4,6.1c-4.4,0.6-8.7,1.6-12.9,3.1l-9.2-3.3l-9.6,5.6l5.8,5.3c-2.3,2.1-4.2,4.6-5.3,7.5
			l-10.6,1.4v7.9l10.6,1.4c1.2,2.9,3.1,5.4,5.4,7.5l-5.7,5.3l9.7,5.6l9.2-3.3c4.2,1.5,8.6,2.6,13,3.1l2.5,6.1h13.6l2.4-6.1
			c4.4-0.6,8.8-1.6,12.9-3.1l9.2,3.3l9.6-5.6l-5.8-5.3C235.2,94.7,237,92.1,238.2,89.2z M215.2,94.1c-9.7,5.7-25.6,5.7-35.4,0
			s-9.8-14.8-0.1-20.5s25.6-5.7,35.3,0S225,88.4,215.2,94.1z"/>
		<polygon class="st0" points="232.7,54.4 232.7,63.3 238.4,58 238.4,49 		"/>
		<polygon class="st0" points="162.1,54.4 162.1,63.3 156.3,58 156.3,49.1 		"/>
		<path class="st0" d="M222.5,67.3c0-3.7-2.5-7.5-7.4-10.3c-0.6-0.3-1.2-0.7-1.8-1l-0.6-0.3c-0.4-0.2-0.7-0.3-1.1-0.5l-0.1,0
			c-0.9-0.3-1.8-0.6-2.7-0.9l-0.2-0.1c-0.2-0.1-0.4-0.1-0.6-0.2c-0.5-0.1-1-0.3-1.6-0.4l-0.4-0.1l-0.6-0.1c-0.4-0.1-0.9-0.2-1.3-0.2
			l-0.5-0.1l-0.6-0.1c-0.4-0.1-0.8-0.1-1.2-0.1l-0.6-0.1h-0.6l-1.3-0.1h-0.6h-2.6h-0.4c-0.6,0-1.1,0.1-1.7,0.1c-0.2,0-0.4,0-0.7,0
			L193,53c-1,0.1-1.9,0.2-2.8,0.4H190l-0.8,0.2c-0.5,0.1-0.9,0.2-1.4,0.3l-1,0.3l-1.3,0.4l-0.3,0.1l-0.4,0.2c-0.7,0.2-1.3,0.5-2,0.7
			l-0.7,0.3c-0.8,0.4-1.6,0.8-2.4,1.2l-0.3,0.2c-0.2,0.1-0.4,0.3-0.6,0.4s-0.6,0.4-0.9,0.6s-0.5,0.4-0.7,0.5s-0.5,0.4-0.8,0.6
			l-0.2,0.1c-0.1,0.1-0.2,0.2-0.3,0.3c-0.4,0.4-0.7,0.8-1,1.2c-0.1,0.1-0.2,0.2-0.2,0.2l-0.2,0.2c-0.2,0.3-0.4,0.6-0.6,0.9
			c-0.1,0.1-0.2,0.2-0.2,0.4s-0.1,0.1-0.1,0.2c-0.1,0.3-0.3,0.5-0.4,0.8s-0.1,0.3-0.2,0.5v0.2c-0.1,0.2-0.1,0.5-0.2,0.8
			s-0.1,0.3-0.1,0.5c0,0,0,0.1,0,0.1c0,0.3-0.1,0.5-0.1,0.8c0,0.2-0.1,0.3-0.1,0.5v0.2v8.9c0-0.2,0-0.5,0.1-0.7s0.1-0.5,0.1-0.8
			s0.1-0.4,0.2-0.6s0.1-0.5,0.2-0.8s0.2-0.4,0.3-0.6s0.2-0.5,0.4-0.8c0.1-0.2,0.2-0.4,0.3-0.6c0.2-0.3,0.4-0.6,0.6-0.9
			s0.3-0.3,0.4-0.5c0.3-0.4,0.6-0.8,0.9-1.2l0.4-0.4c0.2-0.2,0.5-0.4,0.8-0.6s0.4-0.4,0.7-0.6s0.6-0.4,0.9-0.6s0.6-0.4,1-0.6
			c0.8-0.4,1.5-0.8,2.4-1.2l0.7-0.3c0.6-0.3,1.3-0.5,2-0.8c0.2-0.1,0.5-0.2,0.7-0.2c0.4-0.1,0.9-0.2,1.3-0.4l1-0.3l1.4-0.3l1-0.2
			c0.9-0.2,1.9-0.3,2.8-0.4l0.9-0.1c0.6,0,1.1-0.1,1.7-0.1c0.4,0,0.7,0,1.1,0s0.9,0,1.4,0h1.1l1.3,0.1l1.2,0.1
			c0.4,0,0.8,0.1,1.2,0.1l1.1,0.2l1.3,0.2l1,0.2l1.6,0.4l0.9,0.2c0.9,0.3,1.8,0.6,2.7,0.9c0.4,0.2,0.9,0.4,1.3,0.5l0.6,0.3
			c0.6,0.3,1.2,0.6,1.8,1c4.3,2.5,6.7,5.7,7.3,8.9c0.1,0.5,0.1,0.9,0.1,1.4l0,0L222.5,67.3z"/>
		<polygon class="st0" points="238.2,72.6 238.1,81.6 248.7,80.1 248.7,71.2 		"/>
		<path class="st0" d="M238.2,72.6c-0.3,0.7-0.6,1.4-1,2.1c-0.3,0.5-0.6,1.1-1,1.6l-0.3,0.4c-0.3,0.4-0.7,0.9-1,1.3l-0.4,0.5
			c-0.5,0.6-1,1.1-1.6,1.6l0,0V89c0.6-0.5,1.1-1.1,1.6-1.6l0.4-0.5c0.2-0.2,0.4-0.4,0.6-0.7s0.3-0.4,0.5-0.6s0.2-0.2,0.3-0.4
			c0.3-0.5,0.7-1,1-1.5c0,0,0-0.1,0.1-0.1c0.4-0.7,0.7-1.4,1-2.1L238.2,72.6z"/>
		<path class="st0" d="M159,76.5c-0.9-1.2-1.6-2.5-2.1-3.9l0,0v8.9c1.2,2.9,3.1,5.4,5.4,7.5v-8.9C161.1,79,160,77.8,159,76.5z"/>
		<path class="st0" d="M219.8,87.7c-0.8,0.3-1.7,0.6-2.5,0.8s-1.7,0.5-2.6,0.7l-1,0.3c-1.2,0.3-2.4,0.6-3.7,0.8
			c-1.1,0.2-2.1,0.4-3.2,0.5v8.9c1.1-0.1,2.1-0.3,3.1-0.5h0.1c1.2-0.2,2.4-0.5,3.6-0.8l1-0.3c0.9-0.2,1.7-0.5,2.6-0.7l0.5-0.1
			c0.7-0.2,1.4-0.4,2-0.7l0,0L219.8,87.7z"/>
		<path class="st0" d="M186.8,90.5c-0.9-0.1-1.7-0.3-2.6-0.4l-1.3-0.3c-1-0.2-2-0.5-3-0.7c-0.3-0.1-0.7-0.2-1-0.3
			c-1.2-0.3-2.4-0.7-3.5-1.1l0,0v8.9c1.1,0.4,2.3,0.8,3.5,1.1l0.3,0.1l0.7,0.2c1,0.3,2,0.5,3,0.7c0.2,0,0.4,0.1,0.6,0.2
			s0.4,0.1,0.6,0.1c0.9,0.2,1.7,0.3,2.6,0.4c0.3,0,0.6,0.1,0.9,0.2l0.7,0.1v-8.9C187.8,90.7,187.3,90.6,186.8,90.5z"/>
		<polygon class="st0" points="238.6,85.4 238.6,94.4 229,100 229,91 		"/>
		<polygon class="st0" points="229,91 229,100 219.8,96.6 219.8,87.7 		"/>
		<polygon class="st0" points="166.2,91 166.2,100 156.5,94.4 156.5,85.4 		"/>
		<polygon class="st0" points="175.4,87.7 175.4,96.6 166.2,100 166.2,91 		"/>
		<polygon class="st0" points="206.9,90.8 206.9,99.7 204.5,105.9 204.5,96.9 		"/>
		<polygon class="st0" points="204.5,96.9 204.5,105.9 190.8,105.9 190.8,96.9 		"/>
		<polygon class="st0" points="190.8,96.9 190.8,105.9 188.4,99.7 188.4,90.8 		"/>
		<path class="st2" d="M238.2,72.6l10.6-1.4v-7.9l-10.6-1.4c-1.2-2.9-3.1-5.4-5.4-7.5l5.7-5.3l-9.7-5.6l-9.2,3.3
			c-4.2-1.5-8.6-2.6-13-3.1l-2.5-6.1h-13.6l-2.4,6.1c-4.4,0.6-8.7,1.6-12.9,3.1l-9.2-3.3l-9.6,5.6l5.8,5.3c-2.3,2.1-4.2,4.6-5.3,7.5
			l-10.6,1.4v7.9l10.6,1.4c1.2,2.9,3.1,5.5,5.4,7.5l-5.7,5.3l9.7,5.6l9.2-3.3c4.2,1.5,8.6,2.6,13,3.1l2.5,6.1h13.6l2.4-6.1
			c4.4-0.6,8.8-1.6,12.9-3.1L229,91l9.6-5.6l-5.8-5.3C235.2,78,237,75.5,238.2,72.6z M215.2,77.5c-9.7,5.7-25.6,5.7-35.4,0
			S170,62.7,179.8,57s25.6-5.7,35.3,0S225,71.8,215.2,77.5z"/>
		<polygon class="st0" points="146.3,74.9 146.2,83.9 146.2,76 146.2,67 		"/>
		<polygon class="st0" points="156.9,72.6 156.8,81.6 146.2,80.1 146.3,71.2 		"/>
		<path class="st5" d="M232.7,53.9l5.4-5l0.3,0.2l-5.4,5.1C232.9,54.1,232.8,54,232.7,53.9z M162.1,53.9l-5.5-5l-0.3,0.2l5.6,5.1
			L162.1,53.9z M215.1,56.5c-9.8-5.7-25.6-5.7-35.3,0c-5,2.9-7.4,6.7-7.2,10.5c0.1-3.6,2.5-7.2,7.2-10c9.7-5.7,25.6-5.7,35.4,0
			c4.8,2.8,7.2,6.4,7.4,10C222.6,63.2,220.1,59.4,215.1,56.5L215.1,56.5z M162,79.9l0.2-0.2c-2.4-2.1-4.2-4.6-5.4-7.5l-10.6-1.4
			v-7.4l0,0v7.9l10.6,1.4C158,75.4,159.8,77.8,162,79.9z M238.1,72.1c-1.2,2.9-3,5.4-5.3,7.5l0.2,0.2c2.2-2,3.9-4.5,5.1-7.2
			l10.6-1.4v-0.5L238.1,72.1z M229,90.5l-9.2-3.3c-4.2,1.5-8.5,2.5-12.9,3.1l-2.4,6.1h-13.6l-2.5-6.1c-4.4-0.6-8.8-1.6-13-3.1
			l-9.2,3.3l-9.4-5.4l-0.3,0.3l9.7,5.6l9.2-3.3c4.2,1.5,8.6,2.6,13,3.1l2.5,6.1h13.6l2.4-6.1c4.4-0.6,8.8-1.6,12.9-3.1L229,91
			l9.6-5.6l-0.3-0.3L229,90.5z"/>
		<path class="st1" d="M329.5,143.1c-0.5-0.5-1-0.9-1.6-1.3l-4.1-2.4l-9-5.2l-5.7-3.3l-0.5-0.3l-5.7-3.3l-4.4-2.6
			c-4.1-2.1-8.9-2.1-12.9,0l-29.5,17c-3.6,2.1-3.6,5.4,0,7.5l29.3,17c4.1,2.1,8.9,2.1,12.9,0l29.5-17
			C330.7,147.6,331.3,145.1,329.5,143.1z"/>
		<path class="st3" d="M253.4,131.1c0,0.1,0,0.1,0,0.1c0,0,0,0.1,0,0.1c0,0,0,0.1,0,0.1c0,0,0,0.1,0,0.1v0.1c0,0,0,0.1,0,0.1
			c0,0,0,0.1,0,0.1l0.1,0.1l0.1,0.1c0,0,0,0.1,0.1,0.1l0.1,0.1l0.1,0.1c0,0.1,0.1,0.1,0.1,0.2c0,0,0,0.1,0.1,0.1l0.1,0.2v0.1
			l0.2,0.3l0.1,0.1l0.2,0.2l0.1,0.1l0.1,0.1l0.1,0.1l0.1,0.1l0.1,0.1c0,0,0.1,0.1,0.2,0.1c0,0,0.1,0.1,0.1,0.1l0.2,0.1l0.2,0.1
			l29.3,17c0.2,0.1,0.4,0.2,0.6,0.3l0.2,0.1l0.6,0.2h0.1l0.7,0.2l0.5,0.1l0.4,0.1l0.5,0.1l0.4,0.1h0.1l0.6,0.1h0.2l0.7,0.1h1.6h0.5
			h0.4h0.5l0.4-0.1l0.5-0.1l0.5-0.1h0.1l0.7-0.2c0.1,0,0.1,0,0.2-0.1c0.2,0,0.4-0.1,0.5-0.2l0.2-0.1l0.5-0.2l0.2-0.1
			c0.2-0.1,0.5-0.2,0.7-0.4l29.5-17c1.8-1,2.7-2.4,2.7-3.8v8.1c0,1.4-0.9,2.7-2.7,3.8l-29.5,17c-0.2,0.1-0.4,0.2-0.7,0.4l-0.2,0.1
			l-0.4,0.2h-0.1l-0.2,0.1l-0.6,0.2l-0.2,0.1h-0.1c-0.2,0.1-0.4,0.1-0.6,0.1h-0.1l-0.3,0.1h-0.2L294,161h-0.2h-0.2h-0.5h-0.2h-0.2
			h-0.5H291h-0.2h-0.1l-0.6-0.1h-0.1h-0.2l-0.6-0.1h-0.2h-0.1l-0.3-0.1l-0.5-0.1l-0.4-0.1l-0.5-0.1c0,0-0.1,0-0.1,0l-0.5-0.2h-0.1
			l-0.6-0.2l-0.2-0.1c-0.2-0.1-0.4-0.2-0.6-0.3L256,142.8l-0.1-0.1l-0.1-0.1l-0.2-0.1l-0.1-0.1l-0.1-0.1l-0.1-0.1l-0.1-0.1L255,142
			l-0.1-0.1l-0.1-0.1l0,0l-0.2-0.2l-0.1-0.1c-0.1-0.1-0.2-0.2-0.2-0.3l0,0l-0.1-0.1L254,141l-0.1-0.1c0-0.1-0.1-0.1-0.1-0.2l0,0
			v-0.1c0,0-0.1-0.1-0.1-0.1l-0.1-0.1l-0.1-0.1c0,0,0,0,0-0.1c0,0,0,0,0-0.1s0-0.1-0.1-0.1v-0.1v-0.1c0,0,0-0.1,0-0.1c0,0,0,0,0-0.1
			c0,0,0-0.1,0-0.1c0,0,0-0.1,0-0.1c0,0,0-0.1,0-0.1c0,0,0-0.1,0-0.1v-0.1v-8.1C253.4,131,253.4,131.1,253.4,131.1z"/>
		<path class="st2" d="M329.5,128.8c-0.5-0.5-1-0.9-1.6-1.3l-4.1-2.4l-9-5.2l-5.7-3.3l-0.5-0.3l-5.7-3.3l-4.4-2.6
			c-4.1-2.1-8.9-2.1-12.9,0l-29.5,17c-3.6,2.1-3.6,5.4,0,7.5l29.3,17c4.1,2.1,8.9,2.1,12.9,0l29.5-17
			C330.7,133.3,331.3,130.8,329.5,128.8z M326.2,134.8L298,151.1c-3.9,2-8.5,2-12.3,0l-28-16.3c-3.4-2-3.4-5.2,0-7.1l28.2-16.3
			c3.9-2,8.5-2,12.3,0l4.2,2.4l5.4,3.2l0.5,0.3l5.5,3.2l8.6,5l3.9,2.3c0.6,0.3,1.1,0.7,1.5,1.2C329.5,130.8,329,133.2,326.2,134.8
			L326.2,134.8z"/>
		<path class="st3" d="M326.2,134.8L298,151.1c-3.9,2-8.5,2-12.3,0l-28-16.3c-3.4-2-3.4-5.2,0-7.1l28.2-16.3c3.9-2,8.5-2,12.3,0
			l4.2,2.4l5.4,3.2l0.5,0.3l5.5,3.2l8.6,5l3.9,2.3c0.6,0.3,1.1,0.7,1.5,1.2C329.5,130.8,329,133.2,326.2,134.8z"/>
		<path class="st1" d="M254.2,129.1c0.1,0.1,0.2,0.2,0.2,0.3l0.1,0.1l0.2,0.2l0,0h0.1l0.1,0.1l0.1,0.1l0.1,0.1l0.1,0.1l0.1,0.1
			l0.1,0.1l0.2,0.1l0.1,0.1l0.1,0.1l29.3,17c0.2,0.1,0.4,0.2,0.6,0.3l0.2,0.1l0.6,0.2h0.1l0.5,0.2h0.1l0.5,0.1l0.4,0.1l0.5,0.1
			l0.3,0.1h0.1h0.2l0.6,0.1h0.2h0.1h0.6h1.6h0.5h0.2h0.2l0.5-0.1h0.2h0.2l0.5-0.1h0.2l0.3-0.1h0.1l0.6-0.1h0.1l0.2-0.1l0.6-0.2
			l0.2-0.1h0.1c0.1-0.1,0.3-0.1,0.4-0.2l0.2-0.1c0.2-0.1,0.5-0.2,0.7-0.4l29.5-17c0.7-0.4,1.3-0.9,1.9-1.6c-0.1-0.1-0.1-0.2-0.2-0.3
			c-0.5-0.5-1-0.9-1.6-1.3l-4.1-2.4l-0.3-0.2l-25.2,14.6c-0.2,0.1-0.4,0.2-0.7,0.4l-0.2,0.1c-0.2,0.1-0.3,0.2-0.5,0.2l-0.2,0.1
			l-0.5,0.2l-0.2,0.1c-0.2,0.1-0.5,0.1-0.7,0.2h-0.1l-0.5,0.1l-0.5,0.1h-0.4l-0.5,0.1h-0.4h-0.5H292h-1.1l-0.7-0.1h-0.2l-0.6-0.1
			h-0.1l-0.4-0.1l-0.5-0.1l-0.4-0.1l-0.5-0.1l-0.7-0.2h-0.1c-0.2-0.1-0.4-0.2-0.6-0.2l-0.2-0.1c-0.2-0.1-0.4-0.2-0.6-0.3l-25-14.5
			l-4.3,2.5C255.3,127.8,254.7,128.4,254.2,129.1L254.2,129.1L254.2,129.1z"/>
		<path class="st3" d="M253.4,116.8c0,0,0,0.1,0,0.1c0,0,0,0.1,0,0.1c0,0,0,0.1,0,0.1c0,0,0,0.1,0,0.1v0.1c0,0,0,0.1,0,0.1v0.1
			l0.1,0.1l0.1,0.1c0,0,0,0.1,0.1,0.1l0.1,0.1l0.1,0.1c0,0.1,0.1,0.1,0.1,0.2c0,0,0,0.1,0.1,0.1l0.1,0.2v0.1l0.2,0.3l0.1,0.1
			l0.2,0.2l0.1,0.1l0.1,0.1l0.1,0.1l0.1,0.1l0.1,0.1c0,0,0.1,0.1,0.2,0.1c0,0,0.1,0.1,0.1,0.1l0.2,0.1l0.2,0.1l29.3,17
			c0.2,0.1,0.4,0.2,0.6,0.3l0.2,0.1l0.6,0.2h0.1l0.7,0.2l0.5,0.1l0.4,0.1l0.5,0.1l0.4,0.1h0.1l0.6,0.1h0.2l0.7,0.1h1.6h0.5h0.4
			l0.5-0.1l0.4-0.1l0.5-0.1l0.5-0.1h0.1l0.7-0.2c0.1,0,0.1,0,0.2-0.1c0.2-0.1,0.4-0.1,0.5-0.2h0.2l0.5-0.2l0.2-0.1
			c0.2-0.1,0.5-0.2,0.7-0.4l29.5-17c1.8-1,2.7-2.4,2.7-3.8v8.2c0,1.4-0.9,2.7-2.7,3.8L298,145.6c-0.2,0.1-0.4,0.2-0.7,0.4l-0.2,0.1
			l-0.4,0.2h-0.1l-0.2,0.1l-0.6,0.2l-0.2,0.1h-0.1c-0.2,0.1-0.4,0.1-0.6,0.1h-0.1l-0.3,0.1h-0.2l-0.5,0.1h-0.2h-0.2l-0.5,0.1h-0.2
			h-0.2h-0.5H291h-0.2h-0.1H290h-0.1h-0.2c-0.2,0-0.4,0-0.6-0.1h-0.2h-0.1l-0.3-0.1l-0.5-0.1l-0.4-0.1l-0.5-0.1c0,0-0.1,0-0.1,0
			l-0.5-0.2h-0.1l-0.6-0.2l-0.2-0.1c-0.2-0.1-0.4-0.2-0.6-0.3l-29.1-17l-0.1-0.1l-0.1-0.1l-0.2-0.1l-0.1-0.1l-0.1-0.1l-0.1-0.1
			l-0.1-0.1l-0.1-0.1l-0.1-0.1h-0.1l0,0l-0.2-0.2l-0.1-0.1c-0.1-0.1-0.2-0.2-0.2-0.3l0,0l-0.1-0.1l-0.1-0.2l-0.1-0.1
			c0-0.1-0.1-0.1-0.1-0.2l0,0v-0.1c0,0-0.1-0.1-0.1-0.1l-0.1-0.1l-0.1-0.1c0,0,0,0,0-0.1c0,0,0,0,0-0.1s0-0.1-0.1-0.1v-0.1v-0.1
			c0,0,0-0.1,0-0.1l0,0c0,0,0-0.1,0-0.1c0,0,0-0.1,0-0.1c0,0,0-0.1,0-0.1c0,0,0-0.1,0-0.1V125v-8.2
			C253.6,116.9,253.4,116.8,253.4,116.8z"/>
		<path class="st2" d="M329.5,114.5c-0.5-0.5-1-0.9-1.6-1.3l-4.1-2.4l-9-5.2l-5.7-3.3l-0.5-0.3l-5.7-3.3l-4.4-2.6
			c-4.1-2.1-8.9-2.1-12.9,0l-29.5,17c-3.6,2.1-3.6,5.4,0,7.5l29.3,17c4.1,2.1,8.9,2.1,12.9,0l29.5-17
			C330.7,119,331.3,116.5,329.5,114.5z M326.2,120.5L298,136.8c-3.9,2-8.5,2-12.3,0l-28-16.3c-3.4-2-3.4-5.2,0-7.1l28.2-16.3
			c3.9-2,8.5-2,12.3,0l4.2,2.4l5.4,3.2l0.5,0.3l5.5,3.2l8.6,5l3.9,2.3c0.6,0.3,1.1,0.7,1.5,1.2C329.5,116.5,329,118.9,326.2,120.5
			L326.2,120.5z"/>
		<path class="st3" d="M326.2,120.5L298,136.8c-3.9,2-8.5,2-12.3,0l-28-16.3c-3.4-2-3.4-5.2,0-7.1l28.2-16.3c3.9-2,8.5-2,12.3,0
			l4.2,2.4l5.4,3.2l0.5,0.3l5.5,3.2l8.6,5l3.9,2.3c0.6,0.3,1.1,0.7,1.5,1.2C329.5,116.5,329,118.9,326.2,120.5z"/>
		
			<rect x="254.9" y="85" transform="matrix(0.5446 -0.8387 0.8387 0.5446 46.9513 259.3757)" class="st6" width="14.9" height="2.9"/>
		
			<radialGradient id="SVGID_1_" cx="289.4" cy="184.36" r="10.5" gradientTransform="matrix(-1 0 0 -1 553.88 260)" gradientUnits="userSpaceOnUse">
			<stop  offset="0.23" style="stop-color:#FFFFFF"/>
			<stop  offset="0.52" style="stop-color:#F9F8FD"/>
			<stop  offset="0.76" style="stop-color:#F3F3FB"/>
			<stop  offset="1" style="stop-color:#E8EAF7"/>
		</radialGradient>
		<path class="st7" d="M260,75.7c0,3.9,3.1,7,7,7s7-3.1,7-7s-3.1-7-7-7S260,71.8,260,75.7z"/>
		
			<radialGradient id="SVGID_2_" cx="287.45" cy="184.4" r="7.75" gradientTransform="matrix(-1 0 0 -1 553.88 260)" gradientUnits="userSpaceOnUse">
			<stop  offset="2.000000e-02" style="stop-color:#FFFFFF"/>
			<stop  offset="0.37" style="stop-color:#F9F8FD"/>
			<stop  offset="0.8" style="stop-color:#E8EAF7"/>
			<stop  offset="1" style="stop-color:#F9F8FD"/>
		</radialGradient>
		<path class="st8" d="M260,75.7c0,3.9,3.1,7,7,7s7-3.1,7-7s-3.1-7-7-7S260,71.8,260,75.7z"/>
		
			<radialGradient id="SVGID_3_" cx="647.4337" cy="458.0551" r="6.05" gradientTransform="matrix(0.8 0.6 0.97 -1.29 -702.45 291.02)" gradientUnits="userSpaceOnUse">
			<stop  offset="0.23" style="stop-color:#FFFFFF"/>
			<stop  offset="0.52" style="stop-color:#F9F8FD"/>
			<stop  offset="0.76" style="stop-color:#F3F3FB"/>
			<stop  offset="1" style="stop-color:#E8EAF7"/>
		</radialGradient>
		<path class="st9" d="M254.1,98.3c2.6,2,9.6-4.2,11.8-7.1s1.8-5.5-0.8-7.5s-5.3-1.5-7.4,1.3S251.4,96.3,254.1,98.3z"/>
		
			<radialGradient id="SVGID_4_" cx="643.6437" cy="458.1051" r="10.45" gradientTransform="matrix(0.8 0.6 0.97 -1.29 -702.45 291.02)" gradientUnits="userSpaceOnUse">
			<stop  offset="2.000000e-02" style="stop-color:#FFFFFF"/>
			<stop  offset="0.53" style="stop-color:#F9F8FD"/>
			<stop  offset="0.8" style="stop-color:#E8EAF7"/>
			<stop  offset="0.94" style="stop-color:#F9F8FD"/>
		</radialGradient>
		<path class="st10" d="M265.8,91.2c-1.6,2-3.4,3.7-5.5,5.2l-0.5,0.4c-2.2,1.5-4.5,2.5-5.8,1.5s-1-3.4-0.1-5.9
			c0.1-0.2,0.1-0.4,0.2-0.6c0.9-2.4,2-4.6,3.5-6.7c2.1-2.8,4.8-3.3,7.4-1.3S268,88.4,265.8,91.2z"/>
		
			<radialGradient id="SVGID_5_" cx="282.14" cy="175.34" r="28.47" gradientTransform="matrix(1 0 0 -1 0 260)" gradientUnits="userSpaceOnUse">
			<stop  offset="0.23" style="stop-color:#FFFFFF"/>
			<stop  offset="0.52" style="stop-color:#F9F8FD"/>
			<stop  offset="0.76" style="stop-color:#F3F3FB"/>
			<stop  offset="1" style="stop-color:#E8EAF7"/>
		</radialGradient>
		<path class="st11" d="M291.3,117c15.5,0,24.1-26.8,24.1-37.3s-8.7-16.1-24.1-16.1s-24.1,5.7-24.1,16.1S275.9,117,291.3,117z"/>
		
			<radialGradient id="SVGID_6_" cx="305.25" cy="183.12" r="43.28" gradientTransform="matrix(1 0 0 -1 0 260)" gradientUnits="userSpaceOnUse">
			<stop  offset="2.000000e-02" style="stop-color:#FFFFFF"/>
			<stop  offset="0.75" style="stop-color:#F9F8FD"/>
			<stop  offset="1" style="stop-color:#E8EAF7"/>
		</radialGradient>
		<path class="st12" d="M315.5,79.7c0,5.1-2,14-5.9,21.8c-0.3,0.6-0.6,1.2-0.9,1.8c-4.1,7.6-9.9,13.7-17.3,13.7s-13.2-6.1-17.3-13.7
			c-0.3-0.6-0.6-1.2-0.9-1.8c-3.9-7.8-5.9-16.7-5.9-21.8c0-10.4,8.7-16.1,24.1-16.1S315.5,69.3,315.5,79.7z"/>
		<path class="st6" d="M291.3,64c-6.3,0-10.3,1.2-10.3,2.7s4.1,2.7,10.4,2.7s10.4-1.2,10.4-2.7S297.6,64,291.3,64z M291.3,68.3
			c-5.5,0-9-0.9-9-2s3.5-2,9-2s9,0.9,9,2S296.8,68.3,291.3,68.3L291.3,68.3z"/>
		
			<linearGradient id="SVGID_7_" gradientUnits="userSpaceOnUse" x1="291.315" y1="196.66" x2="291.315" y2="193.19" gradientTransform="matrix(1 0 0 -1 0 260)">
			<stop  offset="2.000000e-02" style="stop-color:#FFFFFF"/>
			<stop  offset="0.2" style="stop-color:#FAFAFD"/>
			<stop  offset="1" style="stop-color:#E8EAF7"/>
		</linearGradient>
		<path class="st13" d="M300.3,66.4c0,0.9-2.2,1.6-5.8,1.8c-1,0.1-2,0.1-3.2,0.1s-2.2,0-3.2-0.1c-3.6-0.3-5.8-1-5.8-1.8
			c0-1.1,3.5-2,9-2S300.3,65.3,300.3,66.4z"/>
		<path class="st14" d="M294.5,66.2v2c-1,0.1-2,0.1-3.2,0.1s-2.2,0-3.2-0.1v-2H294.5z"/>
		<path class="st6" d="M291.3,66.9c-2,0-3.2-0.3-3.2-0.7s1.2-0.7,3.2-0.7s3.2,0.3,3.2,0.7S293.3,66.9,291.3,66.9z"/>
		<g>
			<defs>
				<path id="SVGID_8_" d="M291.3,64.4c11.4,0,18.8-6.2,18.8-14s-7.4-14-18.8-14s-18.8,6.2-18.8,14S279.9,64.4,291.3,64.4z"/>
			</defs>
			<clipPath id="SVGID_9_">
				<use xlink:href="#SVGID_8_"  style="overflow:visible;"/>
			</clipPath>
			<g class="st15">
				<rect x="272.6" y="36.5" class="st16" width="37.5" height="27.9"/>
				<ellipse class="st16" cx="291.3" cy="50.4" rx="18.5" ry="13.8"/>
				<ellipse class="st17" cx="291.3" cy="50.4" rx="18" ry="13.4"/>
				<path class="st18" d="M291.3,63.4c-9.7,0-17.5-5.8-17.5-13s7.8-13,17.5-13s17.5,5.8,17.5,13S301,63.4,291.3,63.4z"/>
				<ellipse class="st19" cx="291.3" cy="50.4" rx="17" ry="12.6"/>
				<ellipse class="st20" cx="291.3" cy="50.4" rx="16.4" ry="12.2"/>
				<path class="st21" d="M291.3,62.2c-8.8,0-15.9-5.3-15.9-11.8s7.1-11.9,15.9-11.9s15.9,5.3,15.9,11.8S300.1,62.2,291.3,62.2z"/>
				<path class="st22" d="M291.3,61.9c-8.5,0-15.4-5.1-15.4-11.5S282.8,39,291.3,39s15.4,5.1,15.4,11.5S299.8,61.9,291.3,61.9z"/>
				<path class="st23" d="M291.3,61.5c-8.2,0-14.8-5-14.8-11.1s6.6-11.1,14.8-11.1s14.8,5,14.8,11.1S299.5,61.5,291.3,61.5z"/>
				<path class="st24" d="M291.3,61.1c-7.9,0-14.3-4.8-14.3-10.7s6.4-10.7,14.3-10.7s14.3,4.8,14.3,10.7S299.2,61.1,291.3,61.1z"/>
				<ellipse class="st25" cx="291.3" cy="50.4" rx="13.8" ry="10.3"/>
				<path class="st26" d="M291.3,60.3c-7.3,0-13.2-4.4-13.2-9.9s5.9-9.9,13.2-9.9s13.2,4.4,13.2,9.9S298.6,60.3,291.3,60.3z"/>
				<path class="st27" d="M291.3,59.9c-7,0-12.7-4.2-12.7-9.5s5.7-9.5,12.7-9.5s12.7,4.2,12.7,9.5S298.3,59.9,291.3,59.9z"/>
				<ellipse class="st28" cx="291.3" cy="50.4" rx="12.2" ry="9.1"/>
				<path class="st29" d="M291.3,59.1c-6.4,0-11.7-3.9-11.7-8.7s5.2-8.7,11.7-8.7s11.7,3.9,11.7,8.7S297.8,59.1,291.3,59.1z"/>
				<path class="st30" d="M291.3,58.7c-6.1,0-11.1-3.7-11.1-8.3s5-8.3,11.1-8.3s11.1,3.7,11.1,8.3S297.5,58.7,291.3,58.7z"/>
				<path class="st31" d="M291.3,58.3c-5.9,0-10.6-3.5-10.6-7.9s4.8-7.9,10.6-7.9s10.6,3.5,10.6,7.9S297.2,58.3,291.3,58.3z"/>
				<path class="st31" d="M291.3,57.9c-5.6,0-10.1-3.4-10.1-7.5s4.5-7.5,10.1-7.5s10.1,3.4,10.1,7.5S296.9,57.9,291.3,57.9z"/>
				<ellipse class="st31" cx="291.3" cy="50.4" rx="9.5" ry="7.1"/>
				<path class="st32" d="M291.3,57c-4.9,0-8.8-2.9-8.8-6.6s3.9-6.6,8.8-6.6s8.8,2.9,8.8,6.6S296.2,57,291.3,57z"/>
				<ellipse class="st33" cx="291.3" cy="50.4" rx="8" ry="6"/>
				<path class="st34" d="M291.3,55.8c-4,0-7.3-2.4-7.3-5.4s3.3-5.5,7.3-5.5s7.3,2.4,7.3,5.5S295.4,55.8,291.3,55.8z"/>
				<path class="st35" d="M291.3,55.3c-3.6,0-6.6-2.2-6.6-4.9s2.9-4.9,6.6-4.9s6.5,2.2,6.5,4.9S294.9,55.3,291.3,55.3z"/>
				<path class="st36" d="M291.3,54.7c-3.2,0-5.8-1.9-5.8-4.3s2.6-4.3,5.8-4.3s5.8,1.9,5.8,4.3S294.5,54.7,291.3,54.7z"/>
				<path class="st2" d="M291.3,54.2c-2.8,0-5.1-1.7-5.1-3.8s2.3-3.8,5.1-3.8s5,1.7,5,3.8S294.1,54.2,291.3,54.2z"/>
			</g>
		</g>
		<g>
			<g>
				<defs>
					<path id="SVGID_10_" d="M310.1,50.5c0,7.7-7.4,13.9-18.8,13.9c-7.9,0-13.9-3-16.8-7.5c-1.3-1.9-2-4.2-2-6.5
						c0-0.8,0.1-1.7,0.3-2.5c1.4-6.5,8.3-11.5,18.5-11.5C302.7,36.5,310.1,42.8,310.1,50.5z"/>
				</defs>
				<clipPath id="SVGID_11_">
					<use xlink:href="#SVGID_10_"  style="overflow:visible;"/>
				</clipPath>
				<g class="st37">
					<rect x="272.6" y="36.5" class="st16" width="37.5" height="27.9"/>
					<path class="st16" d="M301.2,78.3c-17.2,0-31.2-10.4-31.2-23.2s13.9-23.2,31.2-23.2c7.9-0.1,15.6,2.3,22,6.8h-10.7v28.2h-11.3
						V78.3z"/>
					<path class="st38" d="M301.2,78.1c-17.1,0-30.9-10.3-30.9-23s13.8-23,30.9-23c7.8-0.1,15.5,2.2,21.9,6.8h-10.6v28h-11.3V78.1z"
						/>
					<path class="st39" d="M301.2,77.9c-17,0-30.7-10.2-30.7-22.9s13.7-22.9,30.7-22.9c7.8-0.1,15.4,2.2,21.7,6.7h-10.4v27.9h-11.3
						V77.9z"/>
					<path class="st40" d="M301.2,77.8c-16.8,0-30.4-10.2-30.4-22.7s13.6-22.7,30.4-22.7c7.7-0.1,15.2,2.2,21.5,6.6h-10.2v27.8
						h-11.3V77.8z"/>
					<path class="st41" d="M301.2,77.6c-16.7,0-30.2-10.1-30.2-22.5s13.5-22.5,30.2-22.5c7.6-0.1,15.1,2.2,21.4,6.6h-10.1v27.7
						h-11.3V77.6z"/>
					<path class="st42" d="M301.2,77.4c-16.5,0-30-10-30-22.3s13.4-22.3,30-22.3c7.6-0.1,15,2.2,21.2,6.5h-9.9v27.6h-11.3V77.4z"/>
					<path class="st19" d="M301.2,77.2c-16.4,0-29.7-9.9-29.7-22.2s13.3-22.2,29.7-22.2c7.5-0.1,14.9,2.2,21,6.5h-9.7v27.4h-11.3
						V77.2z"/>
					<path class="st20" d="M301.2,77.1c-16.3,0-29.5-9.8-29.5-22s13.2-22,29.5-22c7.5-0.1,14.8,2.1,20.9,6.4h-9.6v27.3h-11.3V77.1z"
						/>
					<path class="st43" d="M301.2,76.9c-16.2,0-29.2-9.8-29.2-21.8s13.1-21.8,29.2-21.8c7.4-0.1,14.6,2.1,20.7,6.4h-9.4v27.2h-11.3
						V76.9z"/>
					<path class="st44" d="M301.2,76.7c-16,0-29-9.7-29-21.6s13-21.6,29-21.6c7.3-0.1,14.5,2.1,20.5,6.3h-9.2v27.1h-11.3V76.7z"/>
					<path class="st45" d="M301.2,76.5c-15.9,0-28.8-9.6-28.8-21.4s12.9-21.5,28.8-21.5c7.3-0.1,14.4,2.1,20.3,6.3h-9.1v26.9h-11.3
						V76.5z"/>
					<path class="st24" d="M301.2,76.3c-15.8,0-28.5-9.5-28.5-21.3s12.8-21.3,28.5-21.3c7.2-0.1,14.3,2,20.2,6.2h-8.9v26.8h-11.3
						V76.3z"/>
					<path class="st46" d="M301.2,76.2c-15.6,0-28.3-9.4-28.3-21.1S285.6,34,301.2,34c7.2-0.1,14.2,2,20,6.2h-8.7v26.7h-11.3V76.2z"
						/>
					<ellipse class="st47" cx="301.2" cy="55.1" rx="28.1" ry="20.9"/>
					<ellipse class="st27" cx="301.2" cy="55.1" rx="27.8" ry="20.7"/>
					<ellipse class="st29" cx="301.2" cy="55.1" rx="27.6" ry="20.6"/>
					<ellipse class="st31" cx="301.2" cy="55.1" rx="27.4" ry="20.4"/>
					<ellipse class="st31" cx="301.2" cy="55.1" rx="27.1" ry="20.2"/>
					<ellipse class="st33" cx="301.2" cy="55.1" rx="23.3" ry="17.4"/>
					<ellipse class="st48" cx="301.2" cy="55.1" rx="19.5" ry="14.5"/>
					<path class="st49" d="M301.2,66.8c-8.7,0-15.7-5.2-15.7-11.7s7-11.7,15.7-11.7s15.7,5.2,15.7,11.7S309.9,66.8,301.2,66.8z"/>
					<path class="st50" d="M301.2,63.9c-6.6,0-11.9-4-11.9-8.9s5.3-8.9,11.9-8.9s11.9,4,11.9,8.9S307.8,63.9,301.2,63.9z"/>
					<path class="st51" d="M301.2,61.1c-4.5,0-8.1-2.7-8.1-6s3.6-6,8.1-6s8.1,2.7,8.1,6S305.7,61.1,301.2,61.1z"/>
					<path class="st2" d="M301.2,58.3c-2.4,0-4.3-1.4-4.3-3.2s1.9-3.2,4.3-3.2s4.3,1.4,4.3,3.2S303.6,58.3,301.2,58.3z"/>
				</g>
			</g>
		</g>
		<g>
			<defs>
				<path id="SVGID_12_" d="M294,55.7l-0.2,0.6c-0.3,0.9-1.1,1.5-2.1,1.5c-5.8,0.4-11.5,0.1-17.2-0.8c-1.3-1.9-2-4.2-2-6.5
					c0-0.8,0.1-1.7,0.3-2.5c1.6,0.4,6.9,1.4,18.8,0.7h0.1c1-0.1,1.9,0.5,2.3,1.4C294.7,51.9,294.7,53.9,294,55.7z"/>
			</defs>
			<clipPath id="SVGID_13_">
				<use xlink:href="#SVGID_12_"  style="overflow:visible;"/>
			</clipPath>
			<g class="st52">
				<rect x="272.6" y="48" class="st6" width="22.2" height="10.2"/>
				<path class="st6" d="M291.2,64.2c-10.3,0-18.6-6.2-18.6-13.9s8.4-13.9,18.6-13.9s18.6,6.2,18.6,13.9S301.5,64.2,291.2,64.2z"/>
				<ellipse class="st6" cx="291.2" cy="50.3" rx="18.3" ry="13.7"/>
				<ellipse class="st6" cx="291.2" cy="50.3" rx="18" ry="13.5"/>
				<path class="st6" d="M291.2,63.5c-9.8,0-17.7-5.9-17.7-13.2S281.4,37,291.2,37s17.7,6,17.7,13.3S301,63.5,291.2,63.5z"/>
				<path class="st6" d="M291.2,63.2c-9.6,0-17.4-5.8-17.4-13s7.8-13,17.4-13s17.4,5.8,17.4,13S300.8,63.2,291.2,63.2z"/>
				<path class="st6" d="M291.2,63c-9.5,0-17.1-5.7-17.1-12.8s7.7-12.8,17.1-12.8s17.1,5.7,17.1,12.8S300.6,63,291.2,63z"/>
				<path class="st6" d="M291.2,62.8c-9.3,0-16.8-5.6-16.8-12.5s7.5-12.5,16.8-12.5S308,43.3,308,50.3S300.5,62.8,291.2,62.8z"/>
				<path class="st6" d="M291.2,62.6c-9.1,0-16.5-5.5-16.5-12.3S282.1,38,291.2,38s16.5,5.5,16.5,12.3S300.3,62.6,291.2,62.6z"/>
				<ellipse class="st6" cx="291.2" cy="50.3" rx="16.2" ry="12.1"/>
				<path class="st6" d="M291.2,62.1c-8.8,0-15.9-5.3-15.9-11.8s7.1-11.8,15.9-11.8s15.9,5.3,15.9,11.8S300,62.1,291.2,62.1z"/>
				<path class="st6" d="M291.2,61.9c-8.6,0-15.6-5.2-15.6-11.6s7-11.6,15.6-11.6s15.6,5.2,15.6,11.6S299.8,61.9,291.2,61.9z"/>
				<path class="st6" d="M291.2,61.7c-8.4,0-15.3-5.1-15.3-11.4s6.8-11.4,15.3-11.4s15.3,5.1,15.3,11.4S299.6,61.7,291.2,61.7z"/>
				<ellipse class="st6" cx="291.2" cy="50.3" rx="15" ry="11.2"/>
				<path class="st6" d="M291.2,61.2c-8.1,0-14.7-4.9-14.7-10.9s6.6-10.9,14.7-10.9s14.7,4.9,14.7,10.9S299.3,61.2,291.2,61.2z"/>
				<path class="st6" d="M291.2,61c-7.9,0-14.4-4.8-14.4-10.7s6.4-10.7,14.4-10.7s14.4,4.8,14.4,10.7S299.1,61,291.2,61z"/>
				<path class="st6" d="M291.2,60.7c-7.8,0-14.1-4.7-14.1-10.5s6.3-10.5,14.1-10.5s14.1,4.7,14.1,10.5S298.9,60.7,291.2,60.7z"/>
				<path class="st6" d="M291.2,60.5c-7.6,0-13.8-4.6-13.8-10.2S283.6,40,291.2,40s13.8,4.6,13.8,10.3S298.8,60.5,291.2,60.5z"/>
				<path class="st6" d="M291.2,60.3c-7.4,0-13.4-4.5-13.4-10s6-10,13.4-10s13.5,4.5,13.5,10S298.6,60.3,291.2,60.3z"/>
				<path class="st6" d="M291.2,60.1c-7.2,0-13.1-4.4-13.1-9.8s5.9-9.8,13.1-9.8s13.1,4.4,13.1,9.8S298.4,60.1,291.2,60.1z"/>
				<path class="st6" d="M291.2,59.8c-7.1,0-12.8-4.3-12.8-9.6s5.7-9.6,12.8-9.6S304,45,304,50.3S298.3,59.8,291.2,59.8z"/>
				<path class="st6" d="M291.2,59.6c-6.9,0-12.5-4.2-12.5-9.3s5.6-9.3,12.5-9.3s12.5,4.2,12.5,9.3S298.1,59.6,291.2,59.6z"/>
				<path class="st6" d="M291.2,59.4c-6.8,0-12.2-4.1-12.2-9.1s5.5-9.1,12.2-9.1s12.2,4.1,12.2,9.1S297.9,59.4,291.2,59.4z"/>
				<path class="st6" d="M291.2,59.1c-6.6,0-11.9-4-11.9-8.9s5.3-8.9,11.9-8.9s11.9,4,11.9,8.9S297.8,59.1,291.2,59.1z"/>
				<path class="st6" d="M291.2,58.9c-6.4,0-11.6-3.9-11.6-8.6s5.2-8.7,11.6-8.7s11.6,3.9,11.6,8.7S297.6,58.9,291.2,58.9z"/>
				<path class="st6" d="M291.2,58.7c-6.2,0-11.3-3.8-11.3-8.4s5.1-8.4,11.3-8.4s11.3,3.8,11.3,8.4S297.4,58.7,291.2,58.7z"/>
				<path class="st6" d="M291.2,58.5c-6.1,0-11-3.7-11-8.2s4.9-8.2,11-8.2s11,3.7,11,8.2S297.2,58.5,291.2,58.5z"/>
				<path class="st6" d="M291.2,58.2c-5.9,0-10.7-3.6-10.7-8s4.8-8,10.7-8s10.7,3.6,10.7,8S297.1,58.2,291.2,58.2z"/>
				<path class="st6" d="M291.2,58c-5.7,0-10.4-3.5-10.4-7.7s4.6-7.8,10.4-7.8s10.4,3.5,10.4,7.8S296.9,58,291.2,58z"/>
				<path class="st6" d="M291.2,57.8c-5.6,0-10.1-3.4-10.1-7.5s4.5-7.5,10.1-7.5s10.1,3.4,10.1,7.5S296.7,57.8,291.2,57.8z"/>
				<path class="st6" d="M291.2,57.5c-5.4,0-9.8-3.3-9.8-7.3s4.4-7.3,9.8-7.3s9.8,3.2,9.8,7.3S296.6,57.5,291.2,57.5z"/>
				<path class="st6" d="M291.2,57.3c-5.2,0-9.5-3.2-9.5-7.1s4.2-7.1,9.5-7.1s9.5,3.2,9.5,7.1S296.4,57.3,291.2,57.3z"/>
				<path class="st6" d="M291.2,57.1c-5.1,0-9.2-3.1-9.2-6.8s4.1-6.8,9.2-6.8s9.2,3.1,9.2,6.8S296.2,57.1,291.2,57.1z"/>
				<path class="st6" d="M291.2,56.9c-4.9,0-8.9-3-8.9-6.6s4-6.6,8.9-6.6s8.9,3,8.9,6.6S296.1,56.9,291.2,56.9z"/>
				<path class="st6" d="M291.2,56.6c-4.7,0-8.5-2.8-8.5-6.4s3.8-6.4,8.5-6.4s8.6,2.9,8.6,6.4S295.9,56.6,291.2,56.6z"/>
				<path class="st6" d="M291.2,56.4c-4.5,0-8.2-2.8-8.2-6.2s3.7-6.2,8.2-6.2s8.2,2.8,8.2,6.2S295.7,56.4,291.2,56.4z"/>
				<path class="st6" d="M291.2,56.2c-4.4,0-7.9-2.7-7.9-5.9s3.6-5.9,7.9-5.9s7.9,2.7,7.9,5.9S295.6,56.2,291.2,56.2z"/>
				<path class="st6" d="M291.2,56c-4.2,0-7.6-2.5-7.6-5.7s3.4-5.7,7.6-5.7s7.6,2.5,7.6,5.7S295.4,56,291.2,56z"/>
				<path class="st6" d="M291.2,55.7c-4,0-7.3-2.4-7.3-5.5s3.3-5.5,7.3-5.5s7.3,2.4,7.3,5.5S295.2,55.7,291.2,55.7z"/>
				<path class="st6" d="M291.2,55.5c-3.9,0-7-2.3-7-5.2s3.1-5.2,7-5.2s7,2.3,7,5.2S295,55.5,291.2,55.5z"/>
				<path class="st6" d="M291.2,55.3c-3.7,0-6.7-2.2-6.7-5s3-5,6.7-5s6.7,2.2,6.7,5S294.9,55.3,291.2,55.3z"/>
				<path class="st6" d="M291.2,55c-3.5,0-6.4-2.1-6.4-4.8s2.9-4.8,6.4-4.8s6.4,2.1,6.4,4.8S294.7,55,291.2,55z"/>
				<path class="st6" d="M291.2,54.8c-3.4,0-6.1-2-6.1-4.5s2.7-4.5,6.1-4.5s6.1,2,6.1,4.5S294.5,54.8,291.2,54.8z"/>
				<path class="st6" d="M291.2,54.6c-3.2,0-5.8-1.9-5.8-4.3s2.6-4.3,5.8-4.3s5.8,1.9,5.8,4.3S294.4,54.6,291.2,54.6z"/>
				<path class="st6" d="M291.2,54.3c-3,0-5.5-1.8-5.5-4.1s2.5-4.1,5.5-4.1s5.5,1.8,5.5,4.1S294.2,54.3,291.2,54.3z"/>
				<path class="st6" d="M291.2,54.1c-2.9,0-5.2-1.7-5.2-3.9s2.3-3.9,5.2-3.9s5.2,1.7,5.2,3.9S294,54.1,291.2,54.1z"/>
				<path class="st6" d="M291.2,53.9c-2.7,0-4.9-1.6-4.9-3.6s2.2-3.6,4.9-3.6s4.9,1.6,4.9,3.6S293.9,53.9,291.2,53.9z"/>
				<path class="st6" d="M291.2,53.7c-2.5,0-4.6-1.5-4.6-3.4s2-3.4,4.6-3.4s4.6,1.5,4.6,3.4S293.7,53.7,291.2,53.7z"/>
				<path class="st6" d="M291.2,53.4c-2.4,0-4.3-1.4-4.3-3.2s1.9-3.2,4.3-3.2s4.3,1.4,4.3,3.2S293.5,53.4,291.2,53.4z"/>
				<path class="st6" d="M291.2,53.2c-2.2,0-4-1.3-4-3s1.8-3,4-3s4,1.3,4,3S293.4,53.2,291.2,53.2z"/>
				<path class="st6" d="M291.2,53c-2,0-3.6-1.2-3.6-2.7s1.6-2.7,3.6-2.7s3.7,1.2,3.7,2.7S293.2,53,291.2,53z"/>
				<path class="st6" d="M291.2,52.8c-1.9,0-3.4-1.1-3.4-2.5s1.5-2.5,3.4-2.5s3.4,1.1,3.4,2.5S293,52.8,291.2,52.8z"/>
				<path class="st6" d="M291.2,52.5c-1.7,0-3-1-3-2.3s1.4-2.3,3-2.3s3,1,3,2.3S292.9,52.5,291.2,52.5z"/>
				<path class="st6" d="M291.2,52.3c-1.5,0-2.7-0.9-2.7-2s1.2-2,2.7-2s2.7,0.9,2.7,2S292.7,52.3,291.2,52.3z"/>
				<path class="st6" d="M291.2,52.1c-1.3,0-2.4-0.8-2.4-1.8s1.1-1.8,2.4-1.8s2.4,0.8,2.4,1.8S292.5,52.1,291.2,52.1z"/>
				<path class="st6" d="M291.2,51.8c-1.2,0-2.1-0.7-2.1-1.6s1-1.6,2.1-1.6s2.1,0.7,2.1,1.6S292.4,51.8,291.2,51.8z"/>
				<path class="st6" d="M291.2,51.6c-1,0-1.8-0.6-1.8-1.3s0.8-1.4,1.8-1.4s1.8,0.6,1.8,1.4S292.2,51.6,291.2,51.6z"/>
				<path class="st6" d="M291.2,51.4c-0.8,0-1.5-0.5-1.5-1.1s0.7-1.1,1.5-1.1s1.5,0.5,1.5,1.1S292,51.4,291.2,51.4z"/>
				<path class="st6" d="M291.2,51.2c-0.7,0-1.2-0.4-1.2-0.9s0.5-0.9,1.2-0.9s1.2,0.4,1.2,0.9S291.8,51.2,291.2,51.2z"/>
				<path class="st6" d="M291.2,50.9c-0.5,0-0.9-0.3-0.9-0.7s0.4-0.7,0.9-0.7s0.9,0.3,0.9,0.7S291.7,50.9,291.2,50.9z"/>
				<path class="st6" d="M291.2,50.7c-0.3,0-0.6-0.2-0.6-0.4c0-0.3,0.3-0.5,0.6-0.5c0.3,0,0.6,0.2,0.6,0.5S291.5,50.7,291.2,50.7z"
					/>
			</g>
		</g>
		<path class="st53" d="M294,50.1c-0.4-0.9-1.2-1.5-2.2-1.5h-0.1c-11.9,0.7-17.2-0.2-18.8-0.7c0,0.1,0,0.2-0.1,0.3l0.3,0.1
			c3.5,0.7,7,0.9,10.6,0.8c2.4,0,5.1-0.1,7.9-0.3h0.1c0.8,0,1.6,0.5,1.9,1.2c0.7,1.7,0.7,3.6,0.1,5.3l-0.2,0.6
			c-0.3,0.7-1,1.2-1.7,1.3c-1.1,0.1-2.9,0.1-5,0.1c-4,0-8-0.3-12-1l-0.5-0.1c0.1,0.1,0.2,0.3,0.3,0.4c5.7,0.9,11.5,1.2,17.2,0.9
			c0.9-0.1,1.7-0.7,2.1-1.5l0.2-0.6C294.8,53.9,294.7,51.9,294,50.1z"/>
		<path class="st6" d="M291.3,36.5c-3.4,0-5.6,0.4-5.6,0.9s2.2,0.9,5.6,0.9s5.6-0.4,5.6-0.9S294.7,36.5,291.3,36.5z M291.3,38
			c-3,0-4.9-0.3-4.9-0.7s1.9-0.7,4.9-0.7s4.9,0.3,4.9,0.7S294.3,38,291.3,38L291.3,38z"/>
		<path class="st6" d="M309.5,101.5c-0.3,0.6-0.6,1.2-0.9,1.8c-3.1,2-9.3,3.3-17.3,3.3s-14.2-1.4-17.3-3.4c-0.3-0.6-0.6-1.2-0.9-1.8
			c0.2,0.2,0.4,0.3,0.6,0.5c3,2.1,9.3,3.5,17.6,3.5C300.2,105.5,306.8,103.9,309.5,101.5z"/>
		<path class="st6" d="M279.5,76.5c-5.9-0.9-6.4,5.9-3.9,10.2c1.1,2.1,3.1,3.6,5.4,4.1c2,0.3,3.9-0.8,4.7-2.6
			C287.3,84.6,285.4,77.4,279.5,76.5z"/>
		<g>
			
				<radialGradient id="SVGID_14_" cx="276.55" cy="179.05" r="8.35" gradientTransform="matrix(1 0 0 -1 0 260)" gradientUnits="userSpaceOnUse">
				<stop  offset="0.23" style="stop-color:#FFFFFF"/>
				<stop  offset="0.52" style="stop-color:#F9F8FD"/>
				<stop  offset="0.76" style="stop-color:#F3F3FB"/>
				<stop  offset="1" style="stop-color:#E8EAF7"/>
			</radialGradient>
			<path class="st54" d="M277.2,80.6c-1.3-0.2-1.4,1.3-0.9,2.2c0.2,0.5,0.7,0.8,1.2,0.9c0.4,0,0.8-0.2,1-0.6c0.4-1-0.1-2.1-1.1-2.5
				C277.3,80.7,277.3,80.6,277.2,80.6z"/>
			
				<radialGradient id="SVGID_15_" cx="281.21" cy="179.05" r="8.35" gradientTransform="matrix(1 0 0 -1 0 260)" gradientUnits="userSpaceOnUse">
				<stop  offset="0.23" style="stop-color:#FFFFFF"/>
				<stop  offset="0.52" style="stop-color:#F9F8FD"/>
				<stop  offset="0.76" style="stop-color:#F3F3FB"/>
				<stop  offset="1" style="stop-color:#E8EAF7"/>
			</radialGradient>
			<path class="st55" d="M281.8,80.6c-1.3-0.2-1.4,1.3-0.9,2.2c0.2,0.5,0.7,0.8,1.2,0.9c0.4,0,0.8-0.2,1-0.6c0.4-1-0.1-2.1-1.1-2.5
				C282,80.7,281.9,80.6,281.8,80.6z"/>
			
				<radialGradient id="SVGID_16_" cx="279.39" cy="174.83" r="8.35" gradientTransform="matrix(1 0 0 -1 0 260)" gradientUnits="userSpaceOnUse">
				<stop  offset="0.23" style="stop-color:#FFFFFF"/>
				<stop  offset="0.52" style="stop-color:#F9F8FD"/>
				<stop  offset="0.76" style="stop-color:#F3F3FB"/>
				<stop  offset="1" style="stop-color:#E8EAF7"/>
			</radialGradient>
			<path class="st56" d="M280,84.8c-1.3-0.2-1.4,1.3-0.9,2.2c0.2,0.5,0.7,0.8,1.2,0.9c0.4,0,0.8-0.2,1-0.6c0.4-1-0.1-2.1-1.1-2.5
				C280.2,84.9,280.1,84.9,280,84.8z"/>
		</g>
		<path class="st6" d="M301.9,48.4c3.3-1,4.1,2.9,3,5.5c-0.5,1.3-1.5,2.3-2.8,2.7c-1.1,0.3-2.3-0.1-2.9-1.1
			C298,53.5,298.5,49.3,301.9,48.4z"/>
		<path class="st6" d="M314.1,80.6c0,3.9-1.7,7-3.8,7s-3.8-3.1-3.8-7s1.7-7,3.8-7S314.1,76.7,314.1,80.6z"/>
		<rect x="303" y="89.6" transform="matrix(0.5445 -0.8388 0.8388 0.5445 65.0635 301.86)" class="st6" width="14.9" height="2.9"/>
		
			<radialGradient id="SVGID_17_" cx="317.79" cy="179.78" r="10.5" gradientTransform="matrix(1 0 0 -1 0 260)" gradientUnits="userSpaceOnUse">
			<stop  offset="0.23" style="stop-color:#FFFFFF"/>
			<stop  offset="0.52" style="stop-color:#F9F8FD"/>
			<stop  offset="0.76" style="stop-color:#F3F3FB"/>
			<stop  offset="1" style="stop-color:#E8EAF7"/>
		</radialGradient>
		<path class="st57" d="M322.2,80.3c0,3.9-3.1,7-7,7s-7-3.1-7-7s3.1-7,7-7S322.2,76.4,322.2,80.3z"/>
		
			<radialGradient id="SVGID_18_" cx="315.84" cy="179.82" r="7.75" gradientTransform="matrix(1 0 0 -1 0 260)" gradientUnits="userSpaceOnUse">
			<stop  offset="2.000000e-02" style="stop-color:#FFFFFF"/>
			<stop  offset="0.37" style="stop-color:#F9F8FD"/>
			<stop  offset="0.8" style="stop-color:#E8EAF7"/>
			<stop  offset="1" style="stop-color:#F9F8FD"/>
		</radialGradient>
		<path class="st58" d="M322.2,80.3c0,3.9-3.1,7-7,7s-7-3.1-7-7s3.1-7,7-7S322.2,76.4,322.2,80.3z"/>
		
			<radialGradient id="SVGID_19_" cx="659.0803" cy="3821.0828" r="7.21" gradientTransform="matrix(0.83 0.56 0.99 -1.45 -4013.97 5283.7397)" gradientUnits="userSpaceOnUse">
			<stop  offset="0" style="stop-color:#D0D3E2"/>
			<stop  offset="0.17" style="stop-color:#DADDE8"/>
			<stop  offset="0.69" style="stop-color:#F5F6F9"/>
			<stop  offset="1" style="stop-color:#FFFFFF"/>
		</radialGradient>
		<path class="st59" d="M312.4,105.3c-4.1,6-10.3,8.8-13.9,6.4s-3.2-9.3,0.8-15.2s10.3-8.8,13.9-6.4S316.4,99.3,312.4,105.3z"/>
		
			<radialGradient id="SVGID_20_" cx="688.6337" cy="473.7651" r="6.05" gradientTransform="matrix(0.8 0.6 0.97 -1.29 -702.45 291.02)" gradientUnits="userSpaceOnUse">
			<stop  offset="0.23" style="stop-color:#FFFFFF"/>
			<stop  offset="0.52" style="stop-color:#F9F8FD"/>
			<stop  offset="0.76" style="stop-color:#F3F3FB"/>
			<stop  offset="1" style="stop-color:#E8EAF7"/>
		</radialGradient>
		<path class="st60" d="M302.2,102.9c2.6,2,9.6-4.2,11.8-7.1s1.8-5.5-0.8-7.5s-5.3-1.5-7.4,1.3S299.5,100.9,302.2,102.9z"/>
		
			<radialGradient id="SVGID_21_" cx="549.26" cy="294.67" r="10.45" gradientTransform="matrix(1 0 0 -1 0 260)" gradientUnits="userSpaceOnUse">
			<stop  offset="2.000000e-02" style="stop-color:#FFFFFF"/>
			<stop  offset="0.53" style="stop-color:#F9F8FD"/>
			<stop  offset="0.8" style="stop-color:#E8EAF7"/>
			<stop  offset="0.94" style="stop-color:#F9F8FD"/>
		</radialGradient>
		<path class="st61" d="M313.9,95.8c-1.6,2-3.4,3.7-5.5,5.2l-0.5,0.4c-2.2,1.5-4.5,2.5-5.8,1.5s-1-3.4-0.1-6
			c0.1-0.2,0.1-0.4,0.2-0.6c0.9-2.4,2-4.6,3.5-6.7c2.1-2.9,4.8-3.3,7.4-1.3S316.1,93,313.9,95.8z"/>
		<path class="st5" d="M253.4,131.6c0,0,0,0.1,0,0.1c0,0,0,0.1,0,0.1c0,0,0,0.1,0,0.1c0,0,0,0.1,0,0.1c0,0,0,0.1,0,0.1v0.1v0.1
			l0.1,0.1l0.1,0.1c0,0,0,0.1,0.1,0.1c0,0.1,0.1,0.1,0.1,0.1l0.1,0.1c0,0.1,0.1,0.1,0.1,0.2c0,0,0,0.1,0.1,0.1l0.1,0.2v0.1l0.2,0.3
			l0.1,0.1l0.2,0.2l0.1,0.1l0.1,0.1l0.1,0.1l0.1,0.1l0.1,0.1c0,0,0.1,0.1,0.2,0.1l0.1,0.1l0.2,0.1l0.2,0.1l29.3,17.1
			c0.2,0.1,0.4,0.2,0.6,0.3l0.2,0.1l0.6,0.2h0.1l0.7,0.2l0.5,0.1l0.4,0.1l0.5,0.1l0.4,0.1h0.1c0.2,0,0.4,0.1,0.6,0.1h0.2l0.7,0.1
			h0.4h0.5h0.9c0.2,0,0.3,0,0.5,0h0.4l0.5-0.1l0.4-0.1l0.5-0.1l0.5-0.1h0.1l0.7-0.2l0.2-0.1l0.5-0.2l0.2-0.1l0.5-0.2l0.2-0.1
			c0.2-0.1,0.5-0.2,0.7-0.4l29.5-17.1c1.8-1,2.7-2.4,2.7-3.8v7.6l0,0v-8.1c0,1.4-0.9,2.7-2.7,3.8l-29.5,17c-0.2,0.1-0.4,0.2-0.7,0.4
			l-0.2,0.1l-0.5,0.2l-0.2,0.1c-0.2,0.1-0.4,0.1-0.5,0.2c-0.1,0-0.1,0-0.2,0.1l-0.7,0.2h-0.1l-0.5,0.1l-0.5,0.1l-0.4,0.1h-0.5h-0.4
			h-0.5h-1.6l-0.7-0.1h-0.2l-0.6-0.1h-0.1l-0.4-0.1l-0.5-0.1l-0.4-0.1l-0.5-0.1l-0.7-0.2h-0.1l-0.6-0.2l-0.1,0
			c-0.2-0.1-0.4-0.2-0.6-0.3l-29.3-17l-0.2-0.1l-0.2-0.1c-0.1,0-0.1-0.1-0.1-0.1c-0.1,0-0.1-0.1-0.2-0.1l-0.1-0.1l-0.1-0.1l-0.1-0.1
			l-0.1-0.1l-0.1-0.1l-0.2-0.2l-0.1-0.1l-0.2-0.3v-0.1l-0.1-0.2c0,0-0.1-0.1-0.1-0.1c0-0.1-0.1-0.1-0.1-0.2l-0.1-0.1l-0.1-0.1
			c0,0,0-0.1-0.1-0.1l-0.1-0.1l-0.1-0.1v-0.1v-0.1c0,0,0-0.1,0-0.1c0,0,0-0.1,0-0.1c0,0,0-0.1,0-0.1c0,0,0-0.1,0-0.1
			c0-0.1,0-0.1,0-0.1s0-0.1,0-0.2v0.7L253.4,131.6z"/>
		<g>
			<path class="st62" d="M95.8,103l12.2-7l-3.2,17.5l-12.2,7.1L95.8,103z M102.7,61.4l-4.8,30.5l12.2-7.1l4.8-30.4L102.7,61.4z"/>
			<polygon class="st2" points="106.2,30 94,37.1 111.6,47.2 123.8,40.2 			"/>
			
				<linearGradient id="SVGID_22_" gradientUnits="userSpaceOnUse" x1="96.8588" y1="178.7885" x2="109.6288" y2="168.1685" gradientTransform="matrix(1 0 0 -1 0 260)">
				<stop  offset="0" style="stop-color:#FFFFFF"/>
				<stop  offset="0.13" style="stop-color:#FCFCFC"/>
				<stop  offset="1" style="stop-color:#E8E8EA"/>
			</linearGradient>
			<polygon class="st63" points="110,84.8 97.8,91.8 107.3,97.3 119.5,90.2 			"/>
			<path class="st0" d="M111.6,47.2L94,37.1l-14.6,75.8l13.3,7.7l3.2-17.6l13.3,7.7l2.9,21l13.4,7.8L111.6,47.2z M97.8,91.8
				l4.8-30.4l4.6,35.9L97.8,91.8z"/>
			<polygon class="st62" points="123.8,40.2 111.6,47.2 125.5,139.5 137.7,132.4 			"/>
		</g>
		<g>
			<polygon class="st0" points="134.6,60.6 134.6,144.7 147.2,152 147.2,67.9 			"/>
			<polygon class="st62" points="147.2,67.9 147.2,152 159.6,144.9 159.6,60.8 			"/>
			<polygon class="st2" points="147.2,53.5 134.6,60.6 147.2,67.9 159.6,60.8 			"/>
		</g>
		
			<linearGradient id="SVGID_23_" gradientUnits="userSpaceOnUse" x1="129.1918" y1="182.0442" x2="52.0218" y2="141.0542" gradientTransform="matrix(1 0 0 -1 0 260)">
			<stop  offset="0" style="stop-color:#FFFFFF"/>
			<stop  offset="0.13" style="stop-color:#FCFCFC"/>
			<stop  offset="1" style="stop-color:#E8E8EA"/>
		</linearGradient>
		<path class="st64" d="M111.6,47.2L94,37.1l-14.6,75.8l13.3,7.7l3.2-17.6l13.3,7.7l2.9,21l13.4,7.8L111.6,47.2z M110.2,110
			L95,101.2l-3.2,17.5l-11.1-6.4l14.2-73.4l15.7,9l13.5,89.4l-10.8-6.2L110.2,110z"/>
		
			<linearGradient id="SVGID_24_" gradientUnits="userSpaceOnUse" x1="124.9923" y1="190.8921" x2="46.8523" y2="149.3921" gradientTransform="matrix(1 0 0 -1 0 260)">
			<stop  offset="0" style="stop-color:#FFFFFF"/>
			<stop  offset="0.13" style="stop-color:#FCFCFC"/>
			<stop  offset="1" style="stop-color:#E8E8EA"/>
		</linearGradient>
		<path class="st65" d="M101.5,61.2l-5,31.2l12.2,7l-4.9-38.2c0,0-0.2-1.8-1.2-1.8S101.5,61.2,101.5,61.2z M97.8,91.8l4.8-30.4
			l4.6,35.9L97.8,91.8z"/>
		
			<linearGradient id="SVGID_25_" gradientUnits="userSpaceOnUse" x1="171.6166" y1="182.4236" x2="63.0766" y2="80.9636" gradientTransform="matrix(1 0 0 -1 0 260)">
			<stop  offset="0" style="stop-color:#FFFFFF"/>
			<stop  offset="0.13" style="stop-color:#FCFCFC"/>
			<stop  offset="1" style="stop-color:#E8E8EA"/>
		</linearGradient>
		<path class="st66" d="M134.6,60.6v84.1l12.6,7.3V67.9L134.6,60.6z M146,150l-10.3-6V62.6l10.3,6V150z"/>
		
			<linearGradient id="SVGID_26_" gradientUnits="userSpaceOnUse" x1="143.0379" y1="207.4601" x2="136.9579" y2="53.8801" gradientTransform="matrix(1 0 0 -1 0 260)">
			<stop  offset="0" style="stop-color:#E4E4EA"/>
			<stop  offset="0.24" style="stop-color:#DEDEE5"/>
			<stop  offset="0.56" style="stop-color:#CCCCD6"/>
			<stop  offset="0.94" style="stop-color:#AFAFBE"/>
			<stop  offset="1" style="stop-color:#AAAABA"/>
		</linearGradient>
		<polygon class="st67" points="136.1,143.7 136.1,62.8 135.8,62.6 135.8,144 146,150 146,149.6 		"/>
		
			<linearGradient id="SVGID_27_" gradientUnits="userSpaceOnUse" x1="163.4331" y1="228.4042" x2="23.7231" y2="112.2042" gradientTransform="matrix(1 0 0 -1 0 260)">
			<stop  offset="0" style="stop-color:#E4E4EA"/>
			<stop  offset="0.24" style="stop-color:#DEDEE5"/>
			<stop  offset="0.56" style="stop-color:#CCCCD6"/>
			<stop  offset="0.94" style="stop-color:#AFAFBE"/>
			<stop  offset="1" style="stop-color:#AAAABA"/>
		</linearGradient>
		<path class="st68" d="M103.8,61.2l4.9,37.8l0.4,0.2l-4.9-38.2c0-0.3-0.1-0.7-0.3-1c-0.2-0.4-0.6-0.6-1-0.6
			C103.7,59.7,103.8,61.2,103.8,61.2z"/>
		
			<linearGradient id="SVGID_28_" gradientUnits="userSpaceOnUse" x1="183.1693" y1="201.9909" x2="46.2893" y2="88.1309" gradientTransform="matrix(1 0 0 -1 0 260)">
			<stop  offset="0" style="stop-color:#E4E4EA"/>
			<stop  offset="0.24" style="stop-color:#DEDEE5"/>
			<stop  offset="0.56" style="stop-color:#CCCCD6"/>
			<stop  offset="0.94" style="stop-color:#AFAFBE"/>
			<stop  offset="1" style="stop-color:#AAAABA"/>
		</linearGradient>
		<polygon class="st69" points="123.9,136.9 113.5,130.9 110.6,109.8 95.3,101 95.3,101.4 110.2,110 113.2,131.1 124,137.3 		"/>
		
			<linearGradient id="SVGID_29_" gradientUnits="userSpaceOnUse" x1="156.6703" y1="233.8396" x2="19.7903" y2="119.9796" gradientTransform="matrix(1 0 0 -1 0 260)">
			<stop  offset="0" style="stop-color:#E4E4EA"/>
			<stop  offset="0.24" style="stop-color:#DEDEE5"/>
			<stop  offset="0.56" style="stop-color:#CCCCD6"/>
			<stop  offset="0.94" style="stop-color:#AFAFBE"/>
			<stop  offset="1" style="stop-color:#AAAABA"/>
		</linearGradient>
		<polygon class="st70" points="94.8,38.9 80.7,112.3 91.8,118.7 91.9,118.4 81,112.1 95.1,39.1 		"/>
	</g>
</g>
</svg>
