<svg width="375" height="246" xmlns="http://www.w3.org/2000/svg"><g fill="#00A6BB" fill-rule="evenodd"><path d="M-150.591 19.201C7.277 22.386 106.702 47.855 147.683 95.61c61.472 71.63 277.575-114.737 324.914-106.332C519.937-2.32 647 4.627 647 32.51v173.871c-110.287-18.167-195.297-18.167-255.031 0-89.602 27.25-174.046 42.88-299.344 0s-175.843 27.25-227.202 0c-34.24-18.167-39.578-80.56-16.014-187.18z" fill-opacity=".687"/><path d="M-148.312-18.05C14.183 76.612 139.22 102.332 226.8 59.11 358.17-5.726 498.969-40.815 566.615-18.05 611.713-2.876 638.507 3.136 647-.018V228.78c-154.54-35.525-287.093-51.362-397.656-47.509C83.499 187.052 2.365 287.17-72.974 228.781c-50.225-38.925-84.568-61.75-103.026-68.473V-18.051h27.688z"/></g></svg>
