<svg width="1440px" height="516px" viewBox="0 0 1440 516" version="1.1" xmlns="http://www.w3.org/2000/svg" xmlns:xlink="http://www.w3.org/1999/xlink">
    <g id="Landing" stroke="none" stroke-width="1" fill="none" fill-rule="evenodd">
        <g id="Landing-Page" transform="translate(0.000000, -3420.000000)" fill="#00A6BB">
            <g id="Group-3" transform="translate(-52.000000, 3420.000000)">
                <path d="M48.9544646,90.4847893 C266.229048,100.630933 452.221949,148.12469 606.93317,232.966062 C839,360.22812 1026.5429,82.1720942 1188,40.3890143 C1349.4571,-1.39406561 1541,63.3071459 1541,115.303288 C1541,149.967382 1541,258.043282 1541,439.530988 C1334.68817,405.654689 1175.66008,405.654689 1063.91573,439.530988 C896.29921,490.345437 738.330795,519.492972 503.9371,439.530988 C269.543406,359.569004 174.989191,490.345437 78.9113446,439.530988 C14.8594473,405.654689 4.87382067,289.305956 48.9544646,90.4847893 Z" id="Path-4" fill-opacity="0.686653191"></path>
                <path d="M52.5494002,13.1828055 C360.955481,192.766276 598.268762,241.559039 764.489242,159.561093 C1013.81996,36.5641749 1281.04688,-30.0026545 1409.43474,13.1828055 C1495.02665,41.9731121 1545.88174,53.3766778 1562,47.3935025 L1562,481.437548 C1268.69145,414.043569 1017.11635,384.001203 807.2747,391.31045 C492.512224,402.274321 338.525235,592.202522 195.537318,481.437548 C100.212039,407.594233 35.0329335,364.294938 0,351.539664 L1.08385523e-14,13.1828055 L52.5494002,13.1828055 Z" id="Path-2"></path>
            </g>
        </g>
    </g>
</svg>
