<svg width="571" height="140" xmlns="http://www.w3.org/2000/svg"><g fill="none" fill-rule="evenodd"><path d="M86.33 106a6.4 6.4 0 011.67 3 6.54 6.54 0 01-1.21 5.78l-.46.51a6.6 6.6 0 01-9.27 0l-18.5-18.51a51.78 51.78 0 01-12.36 1.5c-25.87 0-46.2-19.42-46.2-47s20.2-47 46.2-47c26 0 46.19 19.42 46.19 47 0 17.56-8.21 31.86-20.92 39.86L86.33 106zM49.66 87.68a33.45 33.45 0 0013.99-4.4c10.03-5.81 16.47-17.06 16.47-32 0-22.55-14.52-36.55-33.92-36.55-19.4 0-33.93 14.11-33.93 36.55 0 22.44 14.53 36.56 33.93 36.56 1.17 0 2.32-.05 3.46-.16zM349.3 51.13c0-14.56-7.93-22-19.89-22S309 36.7 309 52v36.65a2.78 2.78 0 01-2.78 2.78H300a2.77 2.77 0 01-2.78-2.78V23a2.78 2.78 0 012.78-2.81h6.27A2.79 2.79 0 01309 23a2.78 2.78 0 004.56 2.14 28.16 28.16 0 0118.32-6.22C348.39 18.89 361 29 361 49.44v39.21a2.77 2.77 0 01-2.78 2.78h-6.14a2.78 2.78 0 01-2.78-2.78V51.13zm64.23-21.19h-4.12a2.56 2.56 0 01-2.56-2.55v-4.64a2.56 2.56 0 012.56-2.56h4.12a2.55 2.55 0 002.55-2.55V4.81a2.56 2.56 0 012.56-2.56h6.72a2.56 2.56 0 012.55 2.56v12.83a2.56 2.56 0 002.56 2.55H444a2.56 2.56 0 012.55 2.56v4.64a2.55 2.55 0 01-2.55 2.55h-13.53a2.56 2.56 0 00-2.56 2.56v39.43c0 7 2.6 9.49 9.88 9.49H444a2.56 2.56 0 012.5 2.58v4.9a2.55 2.55 0 01-2.5 2.53h-8.11c-12.61 0-19.76-5.2-19.76-19.5V32.5a2.56 2.56 0 00-2.6-2.56zM276.25 96.87a23.43 23.43 0 014.87 14.91c.007 8.073-3.297 14.59-9.91 19.55-6.613 4.96-16.13 7.44-28.55 7.44-11.387.007-20.507-2.197-27.36-6.61-6.853-4.413-10.28-9.983-10.28-16.71a14 14 0 012.94-9.18 10.21 10.21 0 018.35-3.58 7.24 7.24 0 012.66.46c-3.793 4.147-5.69 8.553-5.69 13.22-.04 5.393 2.483 9.847 7.57 13.36s12.63 5.27 22.63 5.27c8.967-.047 15.943-1.86 20.93-5.44s7.48-8.153 7.48-13.72c.007-6.18-2.227-10.493-6.7-12.94-4.473-2.447-12.43-3.917-23.87-4.41-13.153-.607-21.69-2.227-25.61-4.86-3.92-2.633-5.88-6.03-5.88-10.19 0-8.02 5.6-13.07 16.8-15.15-5.813-3.427-10.187-7.343-13.12-11.75a26 26 0 01-4.41-14.78c0-7.673 3-14.177 9-19.51a31.23 31.23 0 0121.44-8 42 42 0 015.93.4 30.88 30.88 0 0118.67 9.24l.05-.06a27.69 27.69 0 016.76 13.94c.233 1.482.35 2.98.35 4.48a27.64 27.64 0 01-7.9 19.46c-4.333 4.713-11.167 7.62-20.5 8.72-1.933.227-3.973.38-6.12.46-12.973.427-19.46 3.057-19.46 7.89.093 2.227 1.563 3.82 4.41 4.78 2.847.96 8.913 1.693 18.2 2.2 10.093.487 17.867 1.42 23.32 2.8a23.19 23.19 0 0113 8.31zm-53.42-53v.03c0 7.9 1.613 13.703 4.84 17.41a16.29 16.29 0 0024.38 0c3.34-3.607 5.007-9.94 5-19-.007-9.06-1.783-15.3-5.33-18.72a16.86 16.86 0 00-12-5.15c-5.633 0-9.857 2.113-12.67 6.34-2.813 4.227-4.22 10.59-4.22 19.09zm-108.96 5.79c0-10.78 3.613-19.78 10.84-27a36.17 36.17 0 0126.66-10.88c10.607 0 19.523 3.64 26.75 10.92 7.227 7.28 10.84 16.28 10.84 27 0 11.873-3.667 21.207-11 28a37.71 37.71 0 01-26.58 10.19 37.21 37.21 0 01-26.53-10.36c-7.313-6.933-10.973-16.223-10.98-27.87zm14.28.43c0 12.5 2.037 21.26 6.11 26.28s9.777 7.53 17.11 7.53c7.507 0 13.257-2.51 17.25-7.53 3.993-5.02 5.993-13.78 6-26.28 0-12.38-1.98-21.21-5.94-26.49-3.96-5.28-9.723-7.917-17.29-7.91-7.507 0-13.253 2.623-17.24 7.87-3.987 5.247-5.987 14.09-6 26.53zm248.9-42.58a7.6 7.6 0 012-5.31 6.24 6.24 0 014.81-2.2 6.45 6.45 0 014.88 2.2 7.48 7.48 0 012.06 5.31 7.32 7.32 0 01-2.06 5.17 6.45 6.45 0 01-4.88 2.2 6.24 6.24 0 01-4.82-2.2 7.43 7.43 0 01-1.99-5.17zm13 77.09a6.7 6.7 0 01-1.91 4.88 5.62 5.62 0 01-3.9 1.63 5.48 5.48 0 01-3.68-1.48 6.8 6.8 0 01-2-4 8.8 8.8 0 01-.11-1.26c-.087-8.667-.153-17.527-.2-26.58-.053-8.793-.12-17.417-.2-25.87a8 8 0 01.67-3.34 6.91 6.91 0 011.58-2.24 5.11 5.11 0 013.55-1.42 5.55 5.55 0 013.47 1.27 5.92 5.92 0 011.56 1.93 7.47 7.47 0 01.79 3.42c.087 8.44.153 17.05.2 25.83.047 9.273.12 18.35.22 27.23h-.04zm72.51-77.09a7.64 7.64 0 012-5.31 6.24 6.24 0 014.8-2.2 6.46 6.46 0 014.89 2.2 7.47 7.47 0 012.05 5.31 7.31 7.31 0 01-2.05 5.17 6.46 6.46 0 01-4.89 2.2 6.24 6.24 0 01-4.82-2.2 7.47 7.47 0 01-1.98-5.17zm13 77.09a6.7 6.7 0 01-1.91 4.88 5.62 5.62 0 01-3.89 1.63 5.48 5.48 0 01-3.69-1.48 6.79 6.79 0 01-2-4 6.63 6.63 0 01-.11-1.26c-.093-8.667-.163-17.527-.21-26.58-.04-8.793-.107-17.417-.2-25.87a7.81 7.81 0 01.68-3.34 6.77 6.77 0 011.58-2.24 5.1 5.1 0 013.54-1.42 5.53 5.53 0 013.47 1.27 5.92 5.92 0 011.56 1.93 7.34 7.34 0 01.79 3.42c.087 8.44.153 17.05.2 25.83.06 9.273.133 18.35.22 27.23h-.03zm63.99-64.42a7.94 7.94 0 013.72-3.56 6.23 6.23 0 014.1-.32 6 6 0 013.32 2.53 7.91 7.91 0 011.19 5 192.76 192.76 0 01-5.14 16.67c-1.947 5.42-3.86 10.863-5.74 16.33-1.793 5.06-3.557 10.04-5.29 14.94s-3.657 9.77-5.77 14.61c-1.887 2.32-3.993 3.32-6.32 3-2.32-.31-4.11-1.79-5.37-4.42-3.793-10-7.667-19.903-11.62-29.71a348.91 348.91 0 00-13.22-28.91 7.37 7.37 0 01-.79-5.61 6.44 6.44 0 012.69-3.64 6.16 6.16 0 014.5-.71 7.54 7.54 0 014.66 3.32 438.881 438.881 0 0110.43 22.44 738.149 738.149 0 019.48 23.07c.74-2 1.453-4 2.14-6s1.397-4 2.13-6a2587.43 2587.43 0 015.69-16.35 249.536 249.536 0 005.21-16.68z" fill="#FFF" fill-rule="nonzero"/><circle stroke="#FFF" stroke-width=".75" cx="564.08" cy="10.38" r="6.08"/><path d="M566.93 12.89h-1.7l-1.46-2h-.64v2h-1.39V7.5h2.33a4.83 4.83 0 01.82.06c.23.031.451.11.65.23.195.117.36.278.48.47.127.218.19.468.18.72a1.55 1.55 0 01-.28 1 2.12 2.12 0 01-.79.63l1.8 2.28zm-2.17-3.74a.67.67 0 00-.08-.35.56.56 0 00-.29-.22.79.79 0 00-.32-.07h-.94v1.43h.42c.186.012.374.012.56 0a.8.8 0 00.38-.15.79.79 0 00.21-.24 1 1 0 00.06-.4zM299.02 108.206v-1.972h15.606v1.972h-6.596V130h-2.38v-21.794h-6.63zm30.512 4.998c-3.366 0-6.324 2.176-6.596 6.494h13.056c.102-4.318-3.026-6.494-6.46-6.494zm8.602 10.914c-.85 3.502-3.842 6.154-8.5 6.154-5.27 0-9.112-3.672-9.112-9.554 0-5.916 3.774-9.554 9.112-9.554 5.44 0 8.772 3.876 8.772 8.602 0 .748 0 1.224-.068 1.87h-15.402c.204 4.352 3.23 6.63 6.698 6.63 3.162 0 5.304-1.666 5.984-4.148h2.516zm6.746-3.4c0-5.882 3.774-9.554 9.01-9.554 4.658 0 7.684 2.482 8.534 6.324h-2.55c-.612-2.652-2.856-4.284-5.984-4.284-3.638 0-6.596 2.482-6.596 7.514s2.958 7.548 6.596 7.548c3.128 0 5.338-1.598 5.984-4.318h2.55c-.85 3.706-3.876 6.324-8.534 6.324-5.236 0-9.01-3.672-9.01-9.554zM370.02 130v-25.16h2.38v9.758c1.19-2.278 3.638-3.502 6.46-3.502 4.114 0 7.412 2.584 7.412 8.024V130h-2.346v-10.608c0-4.114-2.244-6.222-5.644-6.222-3.468 0-5.882 2.176-5.882 6.698V130h-2.38zm38.638 0v-10.608c0-4.114-2.244-6.222-5.644-6.222-3.468 0-5.882 2.176-5.882 6.698V130h-2.38v-18.564h2.38v3.162c1.19-2.312 3.57-3.502 6.324-3.502 4.216 0 7.548 2.584 7.548 8.024V130h-2.346zm28.302-9.282c0 5.882-4.114 9.554-9.35 9.554s-9.214-3.672-9.214-9.554c0-5.916 4.08-9.554 9.282-9.554 5.236 0 9.282 3.638 9.282 9.554zm-16.15 0c0 5.1 3.264 7.48 6.8 7.48 3.502 0 6.902-2.38 6.902-7.48 0-5.1-3.332-7.48-6.868-7.48-3.536 0-6.834 2.38-6.834 7.48zM444.522 130v-25.16h2.38V130h-2.38zm28.472-9.282c0 5.882-4.114 9.554-9.35 9.554s-9.214-3.672-9.214-9.554c0-5.916 4.08-9.554 9.282-9.554 5.236 0 9.282 3.638 9.282 9.554zm-16.15 0c0 5.1 3.264 7.48 6.8 7.48 3.502 0 6.902-2.38 6.902-7.48 0-5.1-3.332-7.48-6.868-7.48-3.536 0-6.834 2.38-6.834 7.48zm22.624-.034c0-5.814 3.774-9.52 8.874-9.52 3.672 0 6.29 1.972 7.344 4.318v-4.046h2.38v19.04c0 5.202-3.57 8.636-8.67 8.636-4.794 0-8.126-2.448-8.874-6.324h2.346c.782 2.516 3.128 4.25 6.528 4.25 3.536 0 6.29-2.346 6.29-6.562v-4.59c-1.088 2.38-3.672 4.386-7.344 4.386-5.1 0-8.874-3.774-8.874-9.588zm16.218.034c0-4.624-3.094-7.48-6.902-7.48-3.91 0-6.902 2.72-6.902 7.446 0 4.692 2.992 7.514 6.902 7.514 3.808 0 6.902-2.856 6.902-7.48zm11.03 9.282v-18.564h2.38V130h-2.38zm1.19-22.066c-.952 0-1.734-.748-1.734-1.768s.782-1.734 1.734-1.734 1.734.714 1.734 1.734-.782 1.768-1.734 1.768zm17.728 5.27c-3.366 0-6.324 2.176-6.596 6.494h13.056c.102-4.318-3.026-6.494-6.46-6.494zm8.602 10.914c-.85 3.502-3.842 6.154-8.5 6.154-5.27 0-9.112-3.672-9.112-9.554 0-5.916 3.774-9.554 9.112-9.554 5.44 0 8.772 3.876 8.772 8.602 0 .748 0 1.224-.068 1.87h-15.402c.204 4.352 3.23 6.63 6.698 6.63 3.162 0 5.304-1.666 5.984-4.148h2.516zm20.686.952c0 2.992-2.618 5.202-6.46 5.202-4.216 0-7.174-2.108-7.48-5.508h2.448c.204 2.04 1.972 3.502 4.998 3.502 2.652 0 4.148-1.428 4.148-3.196 0-4.59-11.152-1.904-11.152-8.874 0-2.754 2.618-5.032 6.528-5.032 3.978 0 6.596 2.108 6.8 5.678h-2.38c-.136-2.074-1.666-3.638-4.488-3.638-2.482 0-4.046 1.326-4.046 2.958 0 5.032 10.982 2.346 11.084 8.908z" fill="#FFF" fill-rule="nonzero"/></g></svg>