<?xml version="1.0" encoding="UTF-8"?>
<svg width="335px" height="347px" viewBox="0 0 335 347" version="1.1" xmlns="http://www.w3.org/2000/svg" xmlns:xlink="http://www.w3.org/1999/xlink">
    <!-- Generator: Sketch 61.2 (89653) - https://sketch.com -->
    <title>Asset 1</title>
    <desc>Created with Sketch.</desc>
    <g id="Landing" stroke="none" stroke-width="1" fill="none" fill-rule="evenodd">
        <g id="Process-Page" transform="translate(-307.000000, -813.000000)" fill-rule="nonzero">
            <g id="Asset-1" transform="translate(475.500000, 982.500000) rotate(-22.000000) translate(-475.500000, -982.500000) translate(353.000000, 811.000000)">
                <path d="M238.39817,324.369772 L238.522293,324.108526 C238.572631,324.024064 238.618215,323.936846 238.658829,323.84728 C238.711681,323.764253 238.757359,323.676853 238.795365,323.586033 C238.845566,323.505771 238.891152,323.4227 238.931901,323.337228 C239.022304,323.162803 239.113506,322.988732 239.204498,322.814629 C239.254699,322.734366 239.300285,322.651296 239.341034,322.565823 C239.341034,322.466301 239.440333,322.391659 239.47757,322.304577 C239.568589,322.130457 239.659641,321.956233 239.750667,321.782063 C239.750667,321.694981 239.849966,321.62034 239.887203,321.533258 C239.92444,321.446176 239.986502,321.359094 240.023739,321.272011 C240.060976,321.184929 240.123038,321.097847 240.160275,321.010765 C240.197512,320.923683 240.259574,320.849042 240.296811,320.749519 C240.33756,320.664047 240.383146,320.580976 240.433347,320.500713 C240.524294,320.326566 240.615345,320.152424 240.706372,319.978254 C240.706372,319.891172 240.793258,319.816531 240.842908,319.717008 C240.883657,319.631536 240.929243,319.548465 240.979444,319.468202 C241.020058,319.378636 241.065641,319.291418 241.115979,319.206956 L241.240103,318.94571 C241.290304,318.865448 241.33589,318.782377 241.376639,318.696904 C241.467471,318.522568 241.558447,318.348429 241.649479,318.17425 C241.702331,318.091223 241.748009,318.003824 241.786015,317.913004 C241.836215,317.832741 241.881802,317.74967 241.922551,317.664198 C241.972889,317.579736 242.018472,317.492518 242.059087,317.402952 C242.109425,317.31849 242.155008,317.231272 242.195623,317.141705 C242.248474,317.058679 242.294152,316.971279 242.332158,316.880459 C242.382359,316.800197 242.427945,316.717126 242.468694,316.631654 C242.519032,316.547192 242.564616,316.459974 242.60523,316.370407 C242.60523,316.283325 242.704529,316.196243 242.741766,316.109161 C242.779003,316.022079 242.841065,315.947437 242.878302,315.847915 C242.915539,315.748393 242.977601,315.686191 243.014838,315.599109 C243.052075,315.512027 243.114137,315.424945 243.151374,315.337863 C243.191988,315.248297 243.237572,315.161079 243.28791,315.076617 C243.328659,314.991144 243.374245,314.908074 243.424446,314.827811 C243.515562,314.653824 243.606539,314.479537 243.69757,314.305358 C245.167801,311.107898 245.402209,307.47747 244.355425,304.11676 L162.533863,10.9863882 C160.758896,4.59207838 153.783153,-0.296956186 146.943946,0.0140511018 L16.1549732,6.23419686 C12.1646524,6.25872227 8.50523602,8.46217567 6.60987303,11.9816115 L6.47333713,12.2428577 L6.33680124,12.4543426 L6.22509006,12.7653499 L6.08855416,13.0141557 C6.04793959,13.103722 6.00235638,13.1909404 5.95201827,13.2754019 C5.9114037,13.3649681 5.86582049,13.4521865 5.81548238,13.536648 C5.81548238,13.62373 5.7285959,13.6983718 5.67894648,13.7978941 L5.54241059,14.0466999 L5.41828705,14.3079461 C5.36794894,14.3924076 5.32236573,14.4796259 5.28175116,14.5691922 C5.2315505,14.6494548 5.18596432,14.7325253 5.14521527,14.817998 C5.09487716,14.9024595 5.04929395,14.9896779 5.00867937,15.0792441 C4.95834127,15.1637056 4.91275805,15.250924 4.87214348,15.3404903 C4.82180537,15.4249518 4.77622216,15.5121701 4.73560759,15.6017364 C4.68279366,15.680431 4.63710007,15.7636972 4.5990717,15.8505422 C4.54873359,15.9350037 4.50315037,16.0222221 4.4625358,16.1117883 C4.41219769,16.1962498 4.36661448,16.2834682 4.32599991,16.3730344 C4.2756618,16.457496 4.23007859,16.5447143 4.18946402,16.6342806 C4.18946402,16.7089223 4.10257754,16.7960044 4.05292812,16.8830864 L3.91639223,17.1443325 L3.74261928,17.4304592 L3.60608338,17.6792651 L3.46954749,17.9405112 C3.42893292,18.0300774 3.38334971,18.1172958 3.3330116,18.2017573 C3.29239703,18.2913235 3.24681381,18.3785419 3.19647571,18.4630034 C3.15572666,18.5484761 3.11014047,18.6315466 3.05993981,18.7118093 C3.01932524,18.8013755 2.97374203,18.8885939 2.92340392,18.9730554 C2.88278935,19.0626216 2.83720614,19.14984 2.78686803,19.2343015 C2.74625346,19.3238677 2.70067024,19.4110861 2.65033213,19.4955476 L2.5262086,19.7443534 C2.47587049,19.828815 2.43028727,19.9160333 2.3896727,20.0055996 C2.33933459,20.0900611 2.29375138,20.1772794 2.25313681,20.2668457 C2.20293615,20.3471083 2.15734997,20.4301788 2.11660092,20.5156515 C2.06626281,20.600113 2.02067959,20.6873314 1.98006502,20.7768976 C1.92972692,20.8613591 1.8841437,20.9485775 1.84352913,21.0381438 C1.79319102,21.1226053 1.74760781,21.2098236 1.70699324,21.2993899 C1.65679258,21.3796525 1.6112064,21.462723 1.57045735,21.5481957 C1.52011924,21.6326572 1.47453602,21.7198756 1.43392145,21.8094418 C1.38358334,21.8939033 1.33800013,21.9811217 1.29738556,22.070688 L1.16084967,22.3319341 C0.0560152904,24.4270397 -0.273744328,26.8463132 0.229923125,29.1616541 L60.7649731,328.512389 C62.5027026,337.10863 70.4838462,343.602463 78.5767009,342.955567 L228.85307,331.050208 C232.939804,330.830325 236.565729,328.351668 238.261634,324.618578 C238.302383,324.533105 238.347969,324.450034 238.39817,324.369772 L238.39817,324.369772 Z" id="Path" fill="#A1B9CE"></path>
                <path d="M147.1204,2.01403311 L16.5452259,8.22621245 C9.54371001,8.54924578 4.90907824,14.065661 6.22263697,20.5636006 L66.6463389,319.530944 C68.3812278,328.116176 76.3493247,334.601691 84.4289501,333.955624 L234.459664,322.065513 C242.291448,321.444295 246.715415,314.101499 244.373315,305.727481 L162.684832,12.9723175 C160.912766,6.5861971 153.948427,1.70342414 147.1204,2.01403311 Z" id="Path" fill="#DDE5F4"></path>
                <path d="M144.288965,6 L21.8067468,11.8500095 C15.2336832,12.1610762 10.9301869,17.5114233 12.2323976,23.8322985 L71.3651657,313.037223 C73.0518386,321.299154 80.5426506,327.557816 88.0706687,326.960568 L228.213345,315.936364 C235.530529,315.364002 239.623191,308.296566 237.39083,300.208832 L159.022549,16.6653219 C157.003853,10.2318545 151.010801,5.89441001 144.288965,6 Z" id="Path" fill="#2F2F82"></path>
                <path d="M235,312.657196 C210.993191,302.022939 188.194193,288.229499 168.844306,270.15748 C124.902382,229.112978 89.6766223,178.541176 64.5118081,130.56886 C43.3688816,90.2333084 33.6690349,50.395266 20.5823354,12 C14.1323731,12.4353205 9.94861382,17.7213548 11.2311353,23.9526565 L70.6380271,313.042766 C72.3314535,321.301417 79.8522589,327.557594 87.4104194,326.960583 L228.114229,315.940757 C230.747387,315.773668 233.214233,314.597324 235,312.657196 Z" id="Path" fill="#2A2772"></path>
                <path d="M101.529015,292.420137 L80.5986113,293.998315 C77.2765017,294.071482 74.3780528,291.753895 73.7142736,288.493629 L69.1751499,266.689514 C68.7863925,265.272069 69.0521183,263.754784 69.8993464,262.554376 C70.7465745,261.353967 72.0862228,260.596654 73.5503608,260.490429 L94.1907653,259.000628 C97.4477486,258.956739 100.284681,261.216628 100.974234,264.404312 L105.790748,286.082172 C106.216897,287.499799 105.985156,289.034098 105.159407,290.262136 C104.333658,291.490174 103.001085,292.282291 101.529015,292.420137 L101.529015,292.420137 Z" id="Path" fill="#F06E9A"></path>
                <path d="M140.666794,289.436881 L119.983783,290.998853 C116.677515,291.058934 113.787944,288.753204 113.076888,285.487504 L108.204387,263.696086 C107.784851,262.293435 108.018335,260.773999 108.839002,259.566227 C109.65967,258.358456 110.978597,257.593217 112.423872,257.486294 L132.830608,256.000515 C136.077441,255.961041 138.92108,258.194077 139.687271,261.384875 L144.823489,283.0874 C145.602085,286.338334 143.730944,289.182901 140.666794,289.436881 Z" id="Path" fill="#FFE6B8"></path>
                <path d="M180.815743,286.47442 L160.370087,287.999542 C157.073992,288.0367 154.19099,285.807801 153.425571,282.630615 L148.232825,261.46489 C147.786034,260.120027 147.989099,258.646202 148.783347,257.469247 C149.577595,256.292292 150.874532,255.543345 152.299434,255.438797 L172.482324,254.00047 C175.71947,253.963395 178.562366,256.124925 179.364277,259.233004 L184.819788,280.311933 C185.595572,283.486172 183.793752,286.238832 180.815743,286.47442 Z" id="Path" fill="#1ABFF0"></path>
                <path d="M219.910679,282.492086 L199.673963,283.99957 C196.392244,284.035456 193.513669,281.820373 192.712133,278.642393 L187.197565,257.462857 C186.386599,254.33576 188.145771,251.644713 191.12763,251.432918 L211.089866,250 C214.315655,249.977088 217.15296,252.125037 218.001791,255.232776 L223.778363,276.300186 C224.639234,279.502033 222.917491,282.255373 219.910679,282.492086 Z" id="Path" fill="#B787BC"></path>
                <path d="M66.1643887,60.1636513 L63.3544173,62.1447674 C63.2485979,62.2290073 63.1214925,62.280859 62.9878993,62.2942856 C62.6954822,62.3021257 62.4143116,62.1792314 62.2182115,61.9578696 C61.9005625,61.5591544 61.9372144,61.1105999 62.2792978,60.8987824 L66.1033024,58.1077762 C66.48699,57.903242 66.958359,57.9962862 67.2395082,58.3320535 C67.3655885,58.4878505 67.442279,58.6790384 67.459419,58.8802869 L71.9798077,79.1898411 C72.0292981,79.3852566 71.9866697,79.5930316 71.8645092,79.7518178 C71.7423487,79.9106039 71.5546106,80.002263 71.3567271,79.9997313 C70.9141624,80.010226 70.5213363,79.7123247 70.4037803,79.27706 L66.1643887,60.1636513 Z" id="Path" fill="#FFFFFF"></path>
                <path d="M77.6859341,77.7399698 L86.2522086,67.9889617 C87.2548086,66.8241615 87.6205917,65.2439008 87.2312114,63.759462 C86.8528383,62.3005076 85.9902925,61.0118457 84.7837044,60.1028339 C83.4456387,59.0210139 81.7575786,58.4620143 80.0355408,58.5304839 C78.6438263,58.5508342 77.3195908,59.1311755 76.3642804,60.1394002 L75.4709403,61.1510673 C75.3238244,61.2991976 75.1233253,61.3825522 74.9141325,61.3825522 C74.7049396,61.3825522 74.5044406,61.2991976 74.3573246,61.1510673 C74.1791914,61.0519399 74.0535685,60.880095 74.0135509,60.6808048 C73.9735334,60.4815146 74.0231343,60.2747646 74.1492865,60.1150227 L75.030389,59.0667893 C76.2387576,57.8058646 77.8948651,57.0664306 79.6439397,57.0068889 C81.8191363,56.9212069 83.9497,57.6372434 85.6280943,59.0180343 C87.1851075,60.1620929 88.2895025,61.8142396 88.7486657,63.6863294 C89.2363426,65.5620707 88.7801247,67.5568849 87.5249122,69.0371951 L80.1823913,77.3621183 L91.0126097,76.7770578 C91.4681035,76.7742149 91.8669141,77.0809299 91.979375,77.5205721 C92.0285521,77.7063664 91.9887032,77.9043693 91.8714305,78.0569313 C91.7541577,78.2094934 91.5726433,78.2994658 91.3797358,78.3006528 L78.6037493,78.9954121 L78.4813739,78.9954121 C78.2497207,79.0186098 78.0178735,78.9532542 77.8327846,78.8125807 C77.5286107,78.5381095 77.4666494,78.0855372 77.6859341,77.7399698 L77.6859341,77.7399698 Z" id="Path" fill="#FFFFFF"></path>
                <path d="M96.3766019,61.0015893 C97.366918,60.9640846 98.2552917,61.59379 98.5281558,62.526674 C98.67449,62.934318 98.6030946,63.3865985 98.3378936,63.7319602 C98.0726925,64.0773219 97.648772,64.2700735 97.2081841,64.2456254 C96.2159489,64.2851168 95.3280683,63.6465095 95.0698299,62.7076163 C94.9300843,62.3037969 95.0027342,61.8584751 95.2640059,61.5173777 C95.5252776,61.1762802 95.9415498,60.9833006 96.3766019,61.0015893 Z M99.7557294,74.7144273 C100.758412,74.6738205 101.656603,75.3173272 101.920483,76.2653609 C102.072484,76.6745491 102.003847,77.131174 101.737886,77.4801297 C101.471925,77.8290854 101.044392,78.023463 100.600511,77.9972367 C99.5947704,78.0477796 98.6908914,77.4001972 98.4357577,76.4463031 C98.2837563,76.0371148 98.3523935,75.58049 98.6183546,75.2315343 C98.8843157,74.8825786 99.3118486,74.6882009 99.7557294,74.7144273 Z" id="Shape" fill="#FFFFFF"></path>
                <path d="M105.010368,57.159408 L102.318986,59.1760311 C102.220259,59.2585557 102.099558,59.3067105 101.973631,59.3138128 C101.68733,59.328884 101.410451,59.2040753 101.223379,58.9756214 C100.913751,58.5873275 100.937568,58.1364055 101.223379,57.9234702 L104.879372,55.1052081 C105.254024,54.9043788 105.710534,54.9973121 105.986888,55.330669 C106.112809,55.4865784 106.191597,55.678486 106.213154,55.8817959 L110.976663,76.1858085 C111.028949,76.3784493 110.992285,76.5857317 110.877628,76.7457054 C110.762972,76.9056791 110.583604,77 110.393133,77 C109.961309,77.0032421 109.57872,76.7078043 109.45234,76.2734878 L105.010368,57.159408 Z" id="Path" fill="#FFFFFF"></path>
                <path d="M116.077422,74.728722 L124.745305,64.9767529 C125.751048,63.7913102 126.094033,62.2081018 125.664432,60.7340929 C125.243779,59.2970761 124.347246,58.0318156 123.1113,57.1309064 C121.713219,56.0434247 119.953914,55.479949 118.158225,55.5445205 C116.740133,55.571476 115.394451,56.1530524 114.430653,57.1555015 L113.537056,58.1761994 C113.383592,58.325652 113.17444,58.4097507 112.956219,58.4097507 C112.737998,58.4097507 112.528846,58.325652 112.375382,58.1761994 C112.190841,58.0754604 112.060011,57.9033151 112.016068,57.703415 C111.972125,57.5035149 112.019289,57.2950591 112.1456,57.1309064 L113.02643,56.0856133 C114.252631,54.8099919 115.958642,54.0613561 117.762489,54.0073248 C120.031426,53.9190074 122.255764,54.6318084 124.017662,56.0118279 C125.610368,57.1524879 126.757241,58.7772218 127.272905,60.6234148 C127.83248,62.4839761 127.413031,64.4905469 126.149527,65.9974508 L118.745445,74.359795 L129.953693,73.7695119 C130.42697,73.7681371 130.843798,74.0692952 130.974946,74.5073658 C131.030429,74.694438 130.992646,74.8957222 130.872671,75.052231 C130.752696,75.2087397 130.564116,75.3027485 130.362194,75.3067075 L117.136972,75.9953712 L117.009316,75.9953712 C116.767665,76.0187759 116.525812,75.9528369 116.332736,75.8109077 C115.975616,75.5643938 115.865987,75.0997148 116.077422,74.728722 Z" id="Path" fill="#FFFFFF"></path>
                <path d="M143.437421,6.00237383 L43,10.7668018 C68.4088705,11.8366212 93.6887831,12.5622738 118.839738,12.9437598 C128.63638,13.0805971 140.242593,13.9762598 147.069043,21.5769531 C149.039851,23.9435749 150.661922,26.5783129 151.886245,29.401562 C161.345933,48.9693041 169.258125,69.2834318 177.307596,89.9583125 L182,102 L158.288382,16.663248 C156.2544,10.2223347 150.210587,5.88373803 143.437421,6.00237383 Z" id="Path" fill="#4C459B"></path>
                <path d="M85.5866941,279.638675 C80.8699611,276.769592 76.6789679,273.139052 73.189947,268.899721 C71.7866519,267.074725 70.6050784,265.094721 69.6692709,263 C69.0397179,264.112662 68.8457154,265.413293 69.123814,266.656852 L73.5866429,287.683749 C74.2392651,290.831447 77.0889961,293.069014 80.3552668,292.998374 L100.933867,291.474685 C102.795172,291.371242 104.405187,290.164611 105,288.427309 C98.114562,286.478811 91.5691591,283.515629 85.5866941,279.638675 L85.5866941,279.638675 Z" id="Path" fill="#E44C78"></path>
                <path d="M128.420702,278.581213 C120.521393,273.896716 114.1024,267.113771 109.890157,259 C108.335594,260.232852 107.659624,262.257938 108.165507,264.166745 L113.049917,285.582527 C113.762711,288.791934 116.659345,291.057918 119.973694,290.998873 L140.707258,289.476305 C143.032345,289.327639 144.877164,287.477286 145,285.170685 C139.15531,283.862075 133.558573,281.637641 128.420702,278.581213 L128.420702,278.581213 Z" id="Path" fill="#FDCE8B"></path>
                <path d="M176.425293,279.587957 C165.564777,274.046353 156.183352,265.956887 149.07013,256 C148.085753,257.24817 147.755869,258.896874 148.183335,260.432053 L153.294723,281.62397 C154.048149,284.805088 156.885981,287.036746 160.130434,286.999542 L180.305021,285.410458 C181.915995,285.326747 183.343915,284.338431 184,282.853027 C181.419986,281.899452 178.891582,280.809586 176.425293,279.587957 Z" id="Path" fill="#00A1D3"></path>
                <path d="M222,282.441658 C221.241634,282.07624 220.483268,281.686462 219.737541,281.284503 C208.197735,275.060225 198.250498,265.827345 189.567204,256.046338 C188.98579,255.388586 188.391737,254.706474 187.835602,254 C186.256504,255.195847 185.616188,257.212258 186.230393,259.054941 L191.817024,279.76193 C192.629035,282.869004 195.545226,285.034665 198.86983,284.99958 L219.370997,283.513549 C220.346844,283.448772 221.272216,283.071481 222,282.441658 L222,282.441658 Z" id="Path" fill="#9E75A2"></path>
                <path d="M178.25229,259.242552 C177.451856,256.128802 174.614197,253.963328 171.383014,254.00047 L151.237302,255.441422 C151.158355,255.434488 151.078947,255.434488 151,255.441422 C155.319467,256.120233 159.703831,256.295325 164.064113,255.963146 C166.949209,255.689862 170.196503,255.192982 172.806828,257.205345 C174.133949,258.348712 175.22058,259.741866 176.004163,261.304604 C177.690258,264.174084 179.376353,267.080831 181,270 L178.25229,259.242552 Z" id="Path" fill="#7DCEF3"></path>
                <path d="M210.048264,252 L192,253.268283 L205.751058,254.705469 C208.047048,254.751565 210.282459,255.438458 212.196867,256.686127 C215.2663,259.029101 215.781964,263.147422 217.414903,266.565266 C218.425175,268.4885 219.626033,270.308909 221,272 L216.850127,257.072597 C216.014813,254.059988 213.222687,251.977789 210.048264,252 Z" id="Path" fill="#D0A4CB"></path>
                <path d="M144,278 L139.795345,261.075455 C139.036365,258.068004 136.219487,255.96328 133.00321,256.000486 L113,257.436798 L124.780498,258.286616 C127.803371,258.502063 131.000401,258.789325 133.712279,260.560777 C136.784912,262.595552 138.501605,266.078609 140.006822,269.346219 C141.313002,272.230813 142.656501,275.139345 144,278 Z" id="Path" fill="#FFF8DB"></path>
                <path d="M94.541078,260.000678 L82,260.911422 L91.1229723,261.83431 C92.5945902,261.8975 94.0424661,262.230815 95.3956044,262.817913 C98.5729984,264.384393 100.137624,268.160945 101.305076,271.536769 C102.604919,275.325464 103.820513,279.150589 105,283 L101.016222,265.173704 C100.348157,262.11743 97.6427323,259.956052 94.541078,260.000678 Z" id="Path" fill="#F395BE"></path>
                <path d="M67.8174942,88.9946177 C67.4450738,89.0167064 67.0722043,88.9707464 66.7079223,88.8578516 L66.765314,88.4749064 C67.0738154,88.621134 67.3968315,88.6950307 67.7218415,88.6937322 C68.2096705,88.6937322 68.783587,88.3518169 68.678369,87.3260708 C68.5731509,86.3003247 67.9896692,86.2592949 67.4061874,86.040469 C66.8227056,85.8216432 66.1913975,85.5481109 66.0287878,84.5497181 C65.8661781,83.5513252 66.4113988,83.0589671 67.1861861,83.0042606 C67.5280661,82.9834733 67.8701274,83.0388415 68.2001052,83.16838 L68.1427136,83.5513252 C67.8391163,83.3781191 67.5124239,83.3033813 67.1861861,83.3324994 C66.6218349,83.3324994 66.2296586,83.6744148 66.3253113,84.5223648 C66.4209641,85.3703149 66.9183584,85.4250214 67.4348832,85.616494 C67.9514081,85.8079666 68.783587,86.1362053 68.9653272,87.2850409 C69.1470674,88.4338765 68.5922815,88.9399113 67.8174942,88.9946177 Z" id="Path" fill="#FFFFFF"></path>
                <path d="M73.7909408,86.8818957 L73.5818815,86.4294479 C73.4628789,86.7735627 73.1197382,87.004762 72.7351916,86.9999255 C71.9616725,86.9999255 71.6062718,86.5769852 71.4390244,85.9081494 L71,84.0688508 L71.2926829,84.0688508 L71.7003484,85.8392986 C71.825784,86.370433 72.0452962,86.8228808 72.7456446,86.8228808 C73.1322259,86.7850523 73.4329606,86.4895885 73.456446,86.1245374 L72.9442509,84 L73.2369338,84 L73.7909408,86.2524031 C73.8536585,86.4982986 73.9268293,86.6261643 74,86.8720599 L73.7909408,86.8818957 Z" id="Path" fill="#FFFFFF"></path>
                <path d="M76.7040816,86.9514563 L76.2755102,85.184466 C76.1530612,84.6601942 75.9285714,84.2135922 75.255102,84.2135922 C74.8727272,84.2552538 74.5695386,84.5397179 74.5204082,84.9029126 L75.0306122,87 L74.744898,87 L74.2040816,84.7184466 C74.1428571,84.4854369 74.0714286,84.3495146 74,84.1165049 L74.2244898,84.1165049 L74.4285714,84.5728155 C74.5573565,84.2448489 74.8775376,84.0201782 75.244898,84 C76.0306122,84 76.3979592,84.4174757 76.5612245,85.0776699 L77,86.8932039 L76.7040816,86.9514563 Z" id="Path" fill="#FFFFFF"></path>
                <path d="M80.7759399,87.8630137 L80.594558,87.3150685 C80.4170658,87.7121704 80.0967893,87.9691727 79.7409958,88 L79.7409958,88 C78.7914078,88 78.28994,87.109589 78.0765495,85.9452055 C77.8631589,84.7808219 78.0765495,83.8082192 78.9621203,83.7534247 C79.3760636,83.7589287 79.7668117,83.9997363 80.029073,84.4109589 L79.5916224,82 L79.8903691,82 L80.7119228,86.6027397 C80.7882851,87.0208536 80.8844904,87.4325809 81,87.8356164 L80.7759399,87.8630137 Z M80.1464378,84.9178082 C79.9232869,84.4240617 79.5231681,84.1055594 79.0794851,84.0684932 C78.4926611,84.0684932 78.2045838,84.7123288 78.4286439,85.9589041 C78.652704,87.2054795 79.0261374,87.7808219 79.7943434,87.7260274 C80.1483678,87.710835 80.4582944,87.4164865 80.5732189,86.9863014 L80.1464378,84.9178082 Z" id="Shape" fill="#FFFFFF"></path>
                <path d="M84.8709677,86.8689884 C84.8709677,86.8015916 84.6989247,86.6090295 84.655914,86.5127484 C84.4965383,86.8068233 84.1606782,86.9910228 83.7956989,86.9845256 C83.1887011,87.0764165 82.5997444,86.7509365 82.4193548,86.2239053 C82.2688172,85.6462189 82.516129,85.2610947 83.9354839,85.1840698 L84.2795699,85.1840698 L84.2043011,84.924111 C84.185288,84.7151337 84.0731007,84.521814 83.8930487,84.3877651 C83.7129967,84.2537161 83.4802484,84.1902307 83.2473118,84.2116311 C82.8656494,84.2238654 82.4945099,84.3268857 82.172043,84.5101024 L82,84.288656 C82.3349989,84.1344531 82.70011,84.0396447 83.0752688,84.0094409 C83.7020103,83.9341083 84.2824899,84.3175448 84.3870968,84.8759704 L84.688172,86.0024588 C84.7747755,86.2960764 84.878867,86.5853333 85,86.8689884 L84.8709677,86.8689884 Z M84.3763441,85.3766319 L84.1290323,85.3766319 C82.9462366,85.4344006 82.6451613,85.6654751 82.7741935,86.1950209 C82.8950834,86.5907752 83.3343659,86.8376586 83.7849462,86.7630792 C84.1539427,86.7776404 84.4901432,86.5743417 84.6129032,86.2624177 L84.3763441,85.3766319 Z" id="Shape" fill="#FFFFFF"></path>
                <path d="M87.463035,87.8723898 C87.4392907,88.4035239 87.1339344,88.8573237 86.7042802,89 L86.5175097,88.6519722 C86.92607,88.4849188 87.0661479,88.2761021 87.1011673,88.025522 L87.229572,87.037123 L85,83.1809745 L85.3501946,83.1809745 L87.311284,86.6473318 L87.6848249,83 L88,83 L87.463035,87.8723898 Z" id="Path" fill="#FFFFFF"></path>
                <polygon id="Path" fill="#FFFFFF" points="90.48 88 90.25 88 90.38 87 90.75 87"></polygon>
                <polygon id="Path" fill="#FFFFFF" points="96.5721393 86.8198614 93.3482587 81.7205543 94.2636816 87 93.9950249 87 93 81.1801386 93.4179104 81.1801386 96.6218905 86.3210162 95.7064677 81 96.0049751 81 97 86.8198614"></polygon>
                <path d="M100.88775,85.9974981 C99.8028427,86.0457866 99.3037852,85.3890621 99.0868037,84.5488411 C98.8698221,83.70862 99.0108601,83.0615533 100.07407,83.003607 C101.137279,82.9456607 101.636337,83.5927275 101.896715,84.452264 C102.157092,85.3118004 101.961809,85.9395518 100.88775,85.9974981 Z M100.128315,83.2160767 C99.3363324,83.2160767 99.2169926,83.8341703 99.4014269,84.5391834 C99.5858612,85.2441964 99.9655789,85.8333169 100.833505,85.7850284 C101.701431,85.7367398 101.733978,85.1379616 101.538695,84.4329485 C101.343412,83.7279355 100.985392,83.1677881 100.128315,83.2160767 L100.128315,83.2160767 Z" id="Shape" fill="#FFFFFF"></path>
                <polygon id="Path" fill="#FFFFFF" points="104.458824 85 104.247059 85 102 82.0805369 102.352941 82.0805369 104.247059 84.6375839 104.682353 82 105 82"></polygon>
                <path d="M106.421458,83.6127677 C106.611221,84.2918325 107.013072,84.8350843 107.861423,84.7865796 C108.214485,84.7669047 108.554427,84.6628326 108.843725,84.485851 L109,84.7089722 C108.658825,84.8797078 108.276725,84.9793286 107.883748,85 C106.879122,85 106.320996,84.3888417 106.097745,83.5933658 C105.874495,82.79789 105.974958,82.0509187 107.024234,82.0024141 C108.073511,81.9539095 108.575824,82.6426752 108.810237,83.4963566 L106.421458,83.6127677 Z M107.057722,82.2158344 C106.399133,82.2158344 106.209371,82.7105816 106.354483,83.3993473 L108.430712,83.3023381 C108.218624,82.5456659 107.805611,82.1770307 107.057722,82.2158344 L107.057722,82.2158344 Z" id="Shape" fill="#FFFFFF"></path>
                <path d="M114.679671,85.748142 L114.088296,83.3932692 C113.952772,82.8391815 113.694045,82.2347222 112.856263,82.2850938 C112.39944,82.3596905 112.052667,82.7454111 112.01848,83.2169686 L112.634497,85.9118497 L112.289528,85.9118497 L111.722793,83.5191982 C111.550308,82.8139957 111.119097,82.3606512 110.49076,82.3984299 C110.041988,82.4609214 109.694697,82.8315565 109.652977,83.292526 L110.305955,86 L109.960986,86 L109.271047,83.1288183 C109.195541,82.8428199 109.105061,82.5611728 109,82.2850938 L109.271047,82.2850938 L109.529774,82.8769602 C109.670229,82.458201 110.045892,82.1689741 110.478439,82.1465719 C111.030059,82.1030007 111.553807,82.4004092 111.809035,82.902146 C111.91691,82.4194639 112.312956,82.0601966 112.794661,82.0080499 C113.19109,81.9660717 113.587309,82.0894665 113.893484,82.3502573 C114.19966,82.6110481 114.389854,82.9871424 114.420945,83.3932692 L115,85.7733278 L114.679671,85.748142 Z" id="Path" fill="#FFFFFF"></path>
                <path d="M119.151263,86 C118.796592,86.0037703 118.45442,85.8062643 118.195146,85.4480637 L118.195146,85.9857947 L117.9848,85.9857947 C117.939628,85.5602803 117.875751,85.1395798 117.793577,84.7263721 L117,80 L117.267713,80 L117.688404,82.4905434 C117.799921,82.010625 118.100959,81.6835167 118.443736,81.6697961 C119.246874,81.6697961 119.715371,82.5754483 119.916156,83.7358151 C120.11694,84.8961819 119.992645,85.9433422 119.151263,86 Z M118.481981,81.9386616 C118.106101,81.9707883 117.801918,82.4029813 117.764893,82.9575203 L118.118657,85.0801425 C118.35418,85.49728 118.707859,85.7276008 119.074773,85.7027784 C119.763177,85.7027784 119.86835,84.8537295 119.677127,83.7499659 C119.485903,82.6462024 118.979162,81.8962092 118.481981,81.9386616 L118.481981,81.9386616 Z" id="Shape" fill="#FFFFFF"></path>
                <path d="M121.425815,83.6068971 C121.625536,84.2973085 122.024979,84.8321342 122.868246,84.7932378 C123.220414,84.7711527 123.558565,84.6633882 123.844661,84.4820665 L124,84.7057209 C123.662929,84.8810128 123.281946,84.9811797 122.890438,84.997444 C121.891831,85.0460645 121.33705,84.3945495 121.104042,83.597173 C120.871034,82.7997964 120.970894,82.0510404 122.013883,82.0024199 C123.056872,81.9537993 123.556175,82.6442107 123.800279,83.4999319 L121.425815,83.6068971 Z M122.04717,82.2066261 C121.392528,82.2066261 121.203903,82.7122795 121.359241,83.4026909 L123.423028,83.3054498 C123.201115,82.5469697 122.790577,82.1774537 122.04717,82.2066261 Z" id="Shape" fill="#FFFFFF"></path>
                <path d="M125.951515,81.3458491 C125.754187,81.2511053 125.526043,81.2067273 125.29697,81.2185282 C124.812121,81.2185282 124.727273,81.7767813 124.666667,81.9726596 L125.29697,84 L124.969697,84 L124.266667,81.7473996 C124.169697,81.4633761 124.060606,81.2479099 124,81.1107951 L124.266667,81.1107951 L124.545455,81.6494604 C124.630303,81.4144065 124.775758,81.0324438 125.284848,81.0030621 C125.53074,80.9885711 125.777092,81.0256825 126,81.1107951 L125.951515,81.3458491 Z" id="Path" fill="#FFFFFF"></path>
                <polygon id="Path" fill="#FFFFFF" points="130.693069 83.9898219 129.792079 80.3969466 129.188119 81.1094148 129 80.8346056 129.722772 80 130.009901 80 131 84"></polygon>
                <polygon id="Path" fill="#FFFFFF" points="134.240964 84 133.795181 84 134.662651 80.2487562 132.084337 80.3681592 132 80.1293532 134.771084 80 135 80.2587065"></polygon>
                <path d="M105.789136,258.876974 C106.794294,263.579161 104.109787,267.664669 99.7827042,267.998704 C95.1934384,268.075221 91.1865439,264.756368 90.1969293,260.058944 C89.2285453,255.369604 91.9253107,251.32264 96.2278772,251.001452 C100.792741,250.920788 104.784907,254.209099 105.789136,258.876974 Z" id="Path" fill="#FFFFFF"></path>
                <path d="M184.703174,252.934193 C185.926371,257.613438 183.25876,261.685156 178.730327,261.982456 C174.201895,262.279756 169.621412,258.76386 168.320138,254.071689 C167.018864,249.379519 169.816603,245.372431 174.31901,245.023427 C178.821417,244.674422 183.492989,248.267875 184.703174,252.934193 Z" id="Path" fill="#FFFFFF"></path>
                <path d="M102.968314,260.873854 C103.035765,261.091572 102.994296,261.326405 102.855666,261.511773 C102.717035,261.69714 102.496357,261.81283 102.2562,261.826041 L102.126725,261.826041 L102.424518,263.046794 C102.496943,263.262796 102.459285,263.498239 102.322521,263.684497 C102.185756,263.870755 101.965278,263.986864 101.725352,263.998981 C101.191471,264.021302 100.719494,263.674614 100.611865,263.181077 L100.314072,261.960324 L95.1350643,262.314342 L95.1350643,262.314342 C94.9184944,262.333041 94.7021271,262.276615 94.5265309,262.155645 C94.0654527,261.918552 93.8740692,261.387831 94.0863152,260.934892 L98.4366819,253.134283 L98.4366819,253.134283 C98.4438806,253.110339 98.4438806,253.084981 98.4366819,253.061038 C98.4619665,253.068535 98.4890824,253.068535 98.514367,253.061038 L98.514367,253 L98.6049996,253 C98.6049996,253 98.6049996,253 98.6049996,253 L98.6956323,253 C98.6956323,253 98.6956323,253 98.6956323,253 L99.0581628,253 C99.0581628,253 99.1358479,253 99.1746905,253 C99.2135331,253 99.1746905,253 99.1746905,253 L99.2653231,253 L99.3689033,253 L99.3689033,253 L99.4336409,253 L99.511326,253 L99.511326,253.061038 L99.5890111,253.134283 L99.5890111,253.231943 L99.5890111,253.231943 C99.5963623,253.264127 99.5963623,253.297419 99.5890111,253.329603 C99.5890111,253.329603 99.5890111,253.329603 99.5890111,253.415056 L99.5890111,253.415056 L101.129766,259.90946 L101.298084,259.90946 C101.653587,259.732928 102.081425,259.745988 102.424072,259.943833 C102.766718,260.141678 102.973513,260.495056 102.968314,260.873854 L102.968314,260.873854 Z M98.9286876,256.222787 L96.5851865,260.409968 L99.8609091,260.190233 L98.9286876,256.222787 Z" id="Shape" fill="#2A2772"></path>
                <path d="M179,250.071283 L177.600597,259.418518 C177.56884,259.739934 177.286648,259.985029 176.949997,259.98359 C176.836562,260.00547 176.719719,260.00547 176.606284,259.98359 C176.12862,259.826372 175.817856,259.384139 175.845205,258.900535 L177.072752,250.789395 L173.120051,251.060159 C172.613515,251.055853 172.171935,250.728618 172.03981,250.25964 C171.966449,250.058175 171.995523,249.835403 172.118396,249.657492 C172.24127,249.479582 172.44381,249.366994 172.665859,249.35317 L177.919759,249 L178.07934,249 C178.202202,249.020719 178.321822,249.056321 178.435328,249.105951 L178.435328,249.105951 C178.468511,249.118623 178.497996,249.13882 178.521257,249.164813 C178.545692,249.168038 178.570474,249.168038 178.59491,249.164813 L178.656287,249.223674 C178.663112,249.246764 178.663112,249.271219 178.656287,249.294308 C178.678803,249.323949 178.708227,249.348137 178.742215,249.364942 C178.742215,249.364942 178.742215,249.364942 178.742215,249.447349 C178.742215,249.529755 178.742215,249.447349 178.742215,249.517983 C178.788497,249.627021 178.817462,249.742101 178.828143,249.859381 C178.899977,249.917963 178.958475,249.990092 179,250.071283 L179,250.071283 Z" id="Path" fill="#2F2F82"></path>
                <path d="M159.763008,313.52805 L153.737751,313.999816 C152.759337,314.012984 151.905261,313.319415 151.689164,312.33622 L150.074395,305.383883 C149.936135,304.962936 149.99252,304.499946 150.227435,304.127237 C150.462351,303.754528 150.849947,303.513113 151.279447,303.47199 L157.2324,303.000224 C158.20721,302.985767 159.060033,303.67315 159.280988,304.651404 L160.919858,311.603742 C161.061749,312.018601 161.013526,312.477354 160.788718,312.851301 C160.56391,313.225247 160.186735,313.474102 159.763008,313.52805 Z" id="Path" fill="#474FA0"></path>
                <polygon id="Path" fill="#474FA0" points="113 317 115.941176 307 123 316.182631"></polygon>
                <polygon id="Path" fill="#474FA0" points="201 311 191 306.173862 198.224287 300"></polygon>
                <path d="M166.750529,329.081959 C163.150018,328.901991 159.541428,329.018517 155.958658,329.430442 C154.088067,329.604684 148.572222,329.156634 148.068602,331.919608 C147.493035,335.093294 150.670642,334.831932 152.685124,334.80704 C155.634902,334.80704 168.597138,336.176081 168.99284,331.620908 C169.042809,330.969694 168.82961,330.326241 168.404308,329.844675 C167.979006,329.363109 167.379913,329.08681 166.750529,329.081959 L166.750529,329.081959 Z" id="Path" fill="#2A2772"></path>
            </g>
        </g>
    </g>
</svg>