<?xml version="1.0" encoding="UTF-8"?>
<svg width="383px" height="275px" viewBox="0 0 383 275" version="1.1" xmlns="http://www.w3.org/2000/svg" xmlns:xlink="http://www.w3.org/1999/xlink">
    <!-- Generator: Sketch 61.2 (89653) - https://sketch.com -->
    <title>backend</title>
    <desc>Created with Sketch.</desc>
    <defs>
        <rect id="path-1" x="0" y="0" width="83" height="108" rx="5"></rect>
        <filter x="-42.2%" y="-23.1%" width="184.3%" height="164.8%" filterUnits="objectBoundingBox" id="filter-3">
            <feOffset dx="0" dy="10" in="SourceAlpha" result="shadowOffsetOuter1"></feOffset>
            <feGaussianBlur stdDeviation="10" in="shadowOffsetOuter1" result="shadowBlurOuter1"></feGaussianBlur>
            <feColorMatrix values="0 0 0 0 0   0 0 0 0 0   0 0 0 0 0  0 0 0 0.1 0" type="matrix" in="shadowBlurOuter1"></feColorMatrix>
        </filter>
        <rect id="path-4" x="0" y="0" width="160" height="71" rx="5"></rect>
        <filter x="-21.9%" y="-35.2%" width="143.8%" height="198.6%" filterUnits="objectBoundingBox" id="filter-6">
            <feOffset dx="0" dy="10" in="SourceAlpha" result="shadowOffsetOuter1"></feOffset>
            <feGaussianBlur stdDeviation="10" in="shadowOffsetOuter1" result="shadowBlurOuter1"></feGaussianBlur>
            <feColorMatrix values="0 0 0 0 0   0 0 0 0 0   0 0 0 0 0  0 0 0 0.1 0" type="matrix" in="shadowBlurOuter1"></feColorMatrix>
        </filter>
        <linearGradient x1="0.403995365%" y1="3.47913192%" x2="68.2782223%" y2="67.8106134%" id="linearGradient-7">
            <stop stop-color="#5A9FD4" offset="0%"></stop>
            <stop stop-color="#306998" offset="100%"></stop>
        </linearGradient>
        <linearGradient x1="63.6593018%" y1="71.7137038%" x2="37.2229532%" y2="34.2194739%" id="linearGradient-8">
            <stop stop-color="#FFD43B" offset="0%"></stop>
            <stop stop-color="#FFE873" offset="100%"></stop>
        </linearGradient>
        <radialGradient cx="52.0915669%" cy="50.7028571%" fx="52.0915669%" fy="50.7028571%" r="49.7828571%" gradientTransform="translate(0.520916,0.507029),scale(0.190476,1.000000),rotate(-90.000000),translate(-0.520916,-0.507029)" id="radialGradient-9">
            <stop stop-color="#B8B8B8" stop-opacity="0.5" offset="0%"></stop>
            <stop stop-color="#7F7F7F" stop-opacity="0" offset="100%"></stop>
        </radialGradient>
        <rect id="path-10" x="0" y="0" width="160" height="71" rx="5"></rect>
        <filter x="-21.9%" y="-35.2%" width="143.8%" height="198.6%" filterUnits="objectBoundingBox" id="filter-12">
            <feOffset dx="0" dy="10" in="SourceAlpha" result="shadowOffsetOuter1"></feOffset>
            <feGaussianBlur stdDeviation="10" in="shadowOffsetOuter1" result="shadowBlurOuter1"></feGaussianBlur>
            <feColorMatrix values="0 0 0 0 0   0 0 0 0 0   0 0 0 0 0  0 0 0 0.1 0" type="matrix" in="shadowBlurOuter1"></feColorMatrix>
        </filter>
        <rect id="path-13" x="0" y="0" width="74" height="74" rx="5"></rect>
        <filter x="-47.3%" y="-33.8%" width="194.6%" height="194.6%" filterUnits="objectBoundingBox" id="filter-15">
            <feOffset dx="0" dy="10" in="SourceAlpha" result="shadowOffsetOuter1"></feOffset>
            <feGaussianBlur stdDeviation="10" in="shadowOffsetOuter1" result="shadowBlurOuter1"></feGaussianBlur>
            <feColorMatrix values="0 0 0 0 0   0 0 0 0 0   0 0 0 0 0  0 0 0 0.1 0" type="matrix" in="shadowBlurOuter1"></feColorMatrix>
        </filter>
    </defs>
    <g id="Landing" stroke="none" stroke-width="1" fill="none" fill-rule="evenodd">
        <g id="Services-Page" transform="translate(-335.000000, -1092.000000)">
            <g id="backend" transform="translate(355.000000, 1102.000000)">
                <g id="techno" transform="translate(55.000000, 0.000000)">
                    <mask id="mask-2" fill="white">
                        <use xlink:href="#path-1"></use>
                    </mask>
                    <g id="Mask">
                        <use fill="black" fill-opacity="1" filter="url(#filter-3)" xlink:href="#path-1"></use>
                        <use fill="#FFFFFF" fill-rule="evenodd" xlink:href="#path-1"></use>
                    </g>
                    <g id="java" mask="url(#mask-2)">
                        <g transform="translate(21.000000, 17.000000)">
                            <path d="M24.6832418,0 C25.8360917,1.33274021 26.2162869,3.23843416 25.8851491,4.95729537 C25.5294827,6.88790036 24.4747476,8.59430605 23.2360472,10.0640569 C22.242634,11.247331 21.1020484,12.2935943 19.9124054,13.2651246 C18.5265326,14.3985765 17.1651886,15.6192171 16.2944189,17.2135231 C15.5585573,18.5088968 15.3868562,20.1032028 15.889695,21.5106762 C16.7114072,23.9270463 18.6246475,25.7206406 19.6671182,28 C18.5142683,26.9661922 17.3859471,25.8950178 16.331212,24.7615658 C15.2274196,23.5658363 14.1849489,22.2953737 13.4981447,20.8007117 C13.032099,19.7544484 12.8236048,18.5338078 13.1792713,17.4252669 C13.5349378,16.2918149 14.3321212,15.3825623 15.1293047,14.5355872 C17.349154,12.2811388 20.0841064,10.6245552 22.2548983,8.33274021 C23.4568057,7.0747331 24.4502189,5.56761566 24.793621,3.83629893 C25.0757013,2.5658363 24.9407933,1.25800712 24.6832418,0 L24.6832418,0 Z" id="Path" stroke="#E92E2F" stroke-width="0.09375" fill="#E92E2F" fill-rule="nonzero"></path>
                            <path d="M23.1066735,13.6679537 C25.458909,11.9195624 28.2112671,10.8069498 31,10 C28.7932635,11.4182754 26.4895277,12.7142857 24.5859144,14.536036 C23.8947936,15.2084942 23.2400476,15.9787645 22.9369245,16.9202059 C22.7065509,17.6171171 22.8035503,18.3873874 23.0824236,19.047619 C23.5916705,20.2213642 24.4525402,21.1750322 25.1072862,22.2509653 C25.6650328,23.1679537 25.7620322,24.3416988 25.3376598,25.3320463 C24.6950387,26.7870013 23.4340464,27.8507079 22.1245545,28.6943372 C21.9548055,28.7921493 21.8093064,28.975547 21.6031827,29 C22.4761773,28.2052767 23.1551732,27.0804376 23.1309233,25.8700129 C23.1066735,24.965251 22.6095515,24.1705277 22.0275551,23.5225225 C20.8271875,22.0797941 19.8208186,20.2458172 20.0269424,18.3018018 C20.2330661,16.3577864 21.6153076,14.7927928 23.1066735,13.6679537 L23.1066735,13.6679537 Z" id="Path" stroke="#E92E2F" stroke-width="0.09375" fill="#E92E2F" fill-rule="nonzero"></path>
                            <path d="M32.1377157,28.9368278 C32.6515228,28.3045134 33.4711674,28.1433353 34.2174111,28.0441487 C35.5141623,27.8705722 36.8965481,28.2053269 37.8752282,29.1104043 C38.6826394,29.8419052 39.135279,30.9825507 38.9640099,32.0860012 C38.7805074,33.3630282 37.9363958,34.4292837 36.9821826,35.2351746 C35.2572588,36.6361848 33.1286294,37.4544739 31,38 C31.122335,37.8636185 31.2569035,37.7396353 31.4159391,37.6404487 C33.0307614,36.760168 34.6333502,35.7311074 35.8199999,34.2929022 C36.5417765,33.4002231 37.1045176,32.234781 36.8720811,31.0569406 C36.627411,29.6931253 35.3184263,28.7012597 33.9849745,28.6268698 C33.3488324,28.5648782 32.7493908,28.8128446 32.1377157,28.9368278 L32.1377157,28.9368278 Z" id="Path" stroke="#0774BB" stroke-width="0.09375" fill="#0774BB" fill-rule="nonzero"></path>
                            <path d="M6.63343518,29.4110828 C8.9540604,28.5341896 11.4764791,27.968094 14.0115099,28.0013937 C12.535895,28.3787908 11.0224437,28.7006883 9.63511345,29.2778838 C9.30719902,29.4332826 8.92883621,29.5775815 8.73965481,29.8772791 C8.63875806,30.1103773 8.91622412,30.2657761 9.11801761,30.3434755 C9.97563998,30.6542731 10.921547,30.6986727 11.8422298,30.7763721 C15.0709258,30.9650707 18.3122338,30.8540715 21.5283177,30.6764729 C24.7065653,30.4988743 27.8595887,30.1214772 31,29.6774807 C30.3063349,29.9660784 29.6000576,30.2546762 28.9568408,30.6209733 C28.6289264,30.8207718 28.2253394,30.8762713 27.8595887,30.9539707 C24.0002881,31.7087649 20.0400907,31.941863 16.1051175,31.9973626 C14.5790541,32.0084625 13.0656029,31.9862627 11.5521517,31.8974634 C9.86213114,31.7975642 8.1594985,31.686565 6.50731424,31.2980681 C6.02805468,31.175969 5.52357094,31.04277 5.14520813,30.7430724 C4.95602673,30.6098734 4.95602673,30.3434755 5.11998395,30.1880767 C5.53618303,29.8106796 6.11633934,29.633081 6.63343518,29.4110828 L6.63343518,29.4110828 Z" id="Path" stroke="#0774BB" stroke-width="0.09375" fill="#0774BB" fill-rule="nonzero"></path>
                            <path d="M10.4696033,35.040753 C11.0957115,34.5445801 11.8422252,34.2662391 12.5887389,34 C12.3479281,34.2904427 12.0107928,34.5687836 11.9867118,34.9681423 C11.9746712,35.2222797 12.1793605,35.4159082 12.3840497,35.536926 C12.7813876,35.7426562 13.2268878,35.8152669 13.6723879,35.8757758 C15.9841723,36.1178114 18.3200377,36.2509309 20.6559032,36.0936078 C22.7870795,35.9846918 24.9062151,35.6337402 27.0133103,35.258585 C27.5912564,35.8031651 28.2775674,36.1783202 29,36.5050683 C26.4594453,37.2553786 23.8466473,37.6910426 21.2218088,37.8967729 C18.7414568,38.0661978 16.2249831,38.054096 13.7566717,37.6547373 C12.7813876,37.4732106 11.7820225,37.2674804 10.8910223,36.8076128 C10.529806,36.6139843 10.1204275,36.3598469 10.0120626,35.9362847 C9.93981933,35.5732313 10.2047113,35.2464833 10.4696033,35.040753 L10.4696033,35.040753 Z" id="Path" stroke="#0774BB" stroke-width="0.09375" fill="#0774BB" fill-rule="nonzero"></path>
                            <path d="M10.4088399,39.8552224 C10.973332,39.4157331 11.6728114,39.1900494 12.3600192,39 C12.139131,39.2019275 11.7464408,39.4513674 11.9182428,39.7958319 C12.2495751,40.211565 12.8631535,40.2590774 13.3540162,40.3659802 C15.4279113,40.61542 17.5263494,40.7817133 19.6002444,40.6272981 C21.1710051,40.5322734 22.7172227,40.2590774 24.2511687,39.9977594 C25.1347216,40.4966391 26.0550893,40.9242503 27,41.3043492 C25.551955,41.9338878 23.9934658,42.3377428 22.4349767,42.622817 C19.8088611,43.0741843 17.0968445,43.1335748 14.4584574,42.7297198 C13.2926584,42.5277923 12.1023163,42.2664743 11.0469614,41.7082042 C10.6419997,41.4825205 10.2124948,41.2212025 10.0406928,40.7817133 C9.9057056,40.4372487 10.1265938,40.069028 10.4088399,39.8552224 L10.4088399,39.8552224 Z" id="Path" stroke="#0774BB" stroke-width="0.09375" fill="#0774BB" fill-rule="nonzero"></path>
                            <path d="M4.23925722,43.678051 C5.40130499,43.3230212 6.60124562,43.0367068 7.82644816,43.0023491 C8.31905537,42.9908965 8.82429353,43.0138017 9.25374597,43.2428532 C7.7885553,43.3230212 6.32336464,43.6551459 5.00974542,44.2621323 C4.71923348,44.4110158 4.39082867,44.5828044 4.27715008,44.8920239 C4.27715008,45.2470537 4.71923348,45.3615795 5.00974542,45.4761052 C6.84123375,46.0945443 8.79903162,46.289238 10.7189366,46.4724792 C16.4407588,46.9076771 22.2004738,46.7931513 27.922296,46.3235958 C30.0821891,46.1059969 32.2547132,45.8883979 34.3514516,45.3501269 C35.0208922,45.1439806 35.7787494,44.9378342 36.2208328,44.3995632 C36.4860828,44.0788911 36.3092495,43.678051 36.0439994,43.4031892 C36.4734519,43.6207881 37.0797377,43.8956499 36.991321,44.4224684 C36.8271186,44.972192 36.2082018,45.2585063 35.7029637,45.5219155 C34.0862016,46.2663329 32.3052371,46.6442679 30.5369035,46.9763925 C25.3961052,47.8925985 20.1289974,48.0987449 14.8997824,47.961314 C10.9589248,47.8353356 7.01806711,47.4917584 3.12773327,46.8847719 C2.4330308,46.7358885 1.64991165,46.6099101 1.14467349,46.1174494 C0.816268683,45.7738722 1.10678063,45.292864 1.42255448,45.0409074 C2.21830458,44.3766581 3.24141185,44.0101757 4.23925722,43.678051 L4.23925722,43.678051 Z" id="Path" stroke="#0774BB" stroke-width="0.09375" fill="#0774BB" fill-rule="nonzero"></path>
                            <path d="M35.4542892,47.9825347 C36.7152638,47.52603 38.0636327,47.0434393 39,46 C38.8376963,47.1347403 37.901329,47.9173198 36.9774466,48.4259965 C35.2045912,49.3911778 33.2194925,49.8346396 31.2468788,50.1998433 C27.0769231,50.8911219 22.8445429,51.0606808 18.6121627,50.9824228 C15.7281514,50.8911219 12.8191704,50.773735 9.98509867,50.1476714 C9.31091422,49.9520265 8.58679017,49.8215966 8,49.4042208 C10.5219493,49.8476825 13.0813532,50.0302844 15.6407571,50.1346284 C19.8481675,50.2650583 24.0680628,50.0954994 28.2505034,49.5476937 C30.6725735,49.195533 33.1071285,48.7651142 35.4542892,47.9825347 L35.4542892,47.9825347 Z" id="Path" stroke="#0774BB" stroke-width="0.09375" fill="#0774BB" fill-rule="nonzero"></path>
                            <path d="M2.4877451,66.1981424 C2.5,62.1362229 2.4754902,58.0743034 2.5,54 C3.33333333,54.0247678 4.16666667,54 5,54.0247678 C4.9877451,58.5696594 5,63.126935 4.9877451,67.6842105 C4.96323529,68.9597523 4.93872549,70.2972136 4.32598039,71.4365325 C3.65196078,72.6501548 2.45098039,73.504644 1.17647059,74 C0.772058824,73.5541796 0.404411765,73.0835913 0,72.6377709 L0,72.6377709 C1.02941176,72.0309598 2.05882353,71.1640867 2.30392157,69.9133127 C2.53676471,68.6873065 2.46323529,67.4365325 2.4877451,66.1981424 L2.4877451,66.1981424 Z" id="Path" stroke="#E92E2F" stroke-width="0.09375" fill="#E92E2F" fill-rule="nonzero"></path>
                            <path d="M7.60552444,58.9376685 C9.24543446,58.224648 11.0675567,57.8558443 12.8532365,58.0525396 C13.7764451,58.1631807 14.7360962,58.5073975 15.3313228,59.2572984 C15.8293695,59.8965582 16.0115817,60.7202198 15.9994342,61.5192945 C15.9994342,64.2730289 15.9994342,67.0144698 15.9994342,69.7682042 C15.3920602,69.7682042 14.7846861,69.7682042 14.1651645,69.7682042 C14.1044271,69.3625201 14.0436897,68.9445426 13.9950998,68.526565 C13.3026933,69.0797706 12.5616969,69.6083893 11.6992257,69.8296715 C10.7152797,70.0878341 9.63415387,70.0632472 8.67450283,69.68215 C7.93350645,69.3748136 7.35042733,68.6986734 7.14392014,67.9118922 C6.8402331,66.7686007 6.99815036,65.4286139 7.79988415,64.5066046 C8.51658557,63.658356 9.59771143,63.2403785 10.6666898,63.0436832 C11.6506358,62.8469879 12.6588768,62.8469879 13.6671178,62.8469879 C13.6428228,62.0725001 13.7885926,61.2242515 13.3512832,60.5358179 C12.9990063,60.0071993 12.3551898,59.7982105 11.7599632,59.7613301 C10.4601826,59.650689 9.17254957,59.9826124 7.94565393,60.4128834 C7.82417911,59.9211451 7.71485178,59.4294068 7.60552444,58.9376685 L7.60552444,58.9376685 Z M10.6180999,64.6418326 C10.0836107,64.813941 9.58556395,65.2073316 9.43979417,65.7728306 C9.26972943,66.399797 9.31831935,67.1374044 9.71918625,67.666023 C10.1079057,68.1823482 10.8124596,68.3052828 11.4198337,68.2315221 C12.2701574,68.1331744 13.0111538,67.6414361 13.6671178,67.1128175 C13.6671178,66.1908082 13.6549703,65.2810924 13.6671178,64.3590831 C12.6467293,64.3590831 11.6020459,64.2976158 10.6180999,64.6418326 L10.6180999,64.6418326 Z" id="Shape" stroke="#E92E2F" stroke-width="0.09375" fill="#E92E2F" fill-rule="nonzero"></path>
                            <path d="M29.6002045,58.9423609 C31.2509136,58.2291926 33.0715485,57.8480164 34.8679084,58.0570485 C35.7660883,58.1677125 36.6885434,58.4997047 37.2832841,59.2128731 C37.8416122,59.8891534 38.0115381,60.7867619 37.9994006,61.6474823 C37.987263,64.3648997 38.0115381,67.0700211 37.9751254,69.7874385 C37.3682471,69.7628465 36.7613688,69.7997345 36.1544904,69.7628465 C36.0938026,69.3447823 36.0452523,68.9390141 35.9724269,68.5332459 C35.1227973,69.2710062 34.1032417,69.8735105 32.9501729,69.9718786 C31.8942046,70.0702467 30.7047231,69.9349906 29.8793685,69.1726382 C29.0176013,68.3611018 28.8719505,67.0454291 29.0904267,65.9264925 C29.2967653,64.893628 30.061432,64.0452035 30.9838871,63.5902513 C32.4282575,62.8770829 34.0789666,62.8401949 35.6568502,62.8524909 C35.6325751,62.1024345 35.7660883,61.3031941 35.3898237,60.6269138 C35.0985221,60.0858895 34.4795063,59.8399694 33.8969031,59.7784894 C32.5496332,59.6309373 31.2023633,59.9752255 29.9400564,60.4178817 C29.8308183,59.9260414 29.7094426,59.4342012 29.6002045,58.9423609 L29.6002045,58.9423609 Z M32.5739083,64.6600039 C32.0641305,64.832148 31.5907654,65.2256202 31.432977,65.7666444 C31.2630511,66.3937408 31.3116014,67.1315011 31.7000035,67.6725254 C32.1005432,68.2012537 32.8166596,68.3119177 33.4356755,68.2381417 C34.2731676,68.1151816 35.0378343,67.6479334 35.6689878,67.0823171 C35.6447126,66.1847087 35.6568502,65.2748042 35.6568502,64.3648997 C34.6251571,64.3648997 33.5691888,64.3034197 32.5739083,64.6600039 L32.5739083,64.6600039 Z" id="Shape" stroke="#E92E2F" stroke-width="0.09375" fill="#E92E2F" fill-rule="nonzero"></path>
                            <path d="M17,58 C17.8526188,58 18.7052375,58 19.5578563,58 C20.0572473,59.6833156 20.544458,61.3538789 21.043849,63.0371945 C21.3361754,64.0701382 21.7015834,65.0903294 21.908648,66.1487779 C22.0182704,66.6206164 22.1157125,67.1052072 22.2496955,67.5642933 C23.2971985,64.4654623 24.1010962,61.2646121 24.5152253,58 C25.3434836,58 26.1717418,58 27,58 C26.2813642,62.1317747 25.1485993,66.1997875 23.4433618,70 C22.4689403,70 21.4945189,70 20.5200974,70 C19.3507917,65.9957492 18.1693057,62.0042508 17,58 L17,58 Z" id="Path" stroke="#E92E2F" stroke-width="0.09375" fill="#E92E2F" fill-rule="nonzero"></path>
                            <g id="Group" stroke="none" stroke-width="1" fill="none" fill-rule="evenodd" transform="translate(38.000000, 58.000000)">
                                <polygon id="Path" stroke="#E92E2F" stroke-width="0.09375" fill="#E92E2F" fill-rule="nonzero" points="0.425 0.155555556 0.1125 0.155555556 0.1125 0.0555555556 0.8625 0.0555555556 0.8625 0.155555556 0.55 0.155555556 0.55 0.955555556 0.4125 0.955555556 0.4125 0.155555556"></polygon>
                                <path d="M1.825,0.566666667 C1.8125,0.444444444 1.8125,0.288888889 1.8125,0.177777778 L1.8125,0.177777778 C1.775,0.277777778 1.7375,0.4 1.6875,0.522222222 L1.5125,0.955555556 L1.4125,0.955555556 L1.25,0.533333333 C1.2,0.4 1.1625,0.288888889 1.1375,0.188888889 L1.1375,0.188888889 C1.1375,0.3 1.125,0.455555556 1.1125,0.588888889 L1.0875,0.977777778 L0.9625,0.977777778 L1.0375,0.0777777778 L1.2,0.0777777778 L1.375,0.511111111 C1.4125,0.622222222 1.45,0.722222222 1.475,0.811111111 L1.475,0.811111111 C1.5,0.722222222 1.5375,0.622222222 1.5875,0.511111111 L1.7625,0.0777777778 L1.925,0.0777777778 L1.9875,0.977777778 L1.8625,0.977777778 L1.825,0.566666667 Z" id="Path" stroke="#E92E2F" stroke-width="0.09375" fill="#E92E2F" fill-rule="nonzero"></path>
                            </g>
                        </g>
                    </g>
                </g>
                <g id="techno-copy-4" transform="translate(183.000000, 164.000000)">
                    <mask id="mask-5" fill="white">
                        <use xlink:href="#path-4"></use>
                    </mask>
                    <g id="Mask">
                        <use fill="black" fill-opacity="1" filter="url(#filter-6)" xlink:href="#path-4"></use>
                        <use fill="#FFFFFF" fill-rule="evenodd" xlink:href="#path-4"></use>
                    </g>
                    <g id="python" mask="url(#mask-5)" fill-rule="nonzero">
                        <g transform="translate(14.000000, 15.000000)">
                            <path d="M50.1285591,17.3992988 C50.1285591,13.3472357 48.9639057,11.2665216 46.6345988,11.1571567 C45.7093582,11.1125028 44.7851024,11.2631914 43.922994,11.5992505 C43.4016874,11.7482454 42.9168234,12.0018799 42.4984901,12.3444149 L42.4984901,22.012089 C43.9940322,22.9389104 45.3157176,23.3680287 46.4635462,23.2994439 C48.9050187,23.1400306 50.1266897,21.1733156 50.1285591,17.3992988 Z M53,17.5661267 C53,19.6236702 52.5120794,21.3308752 51.5362381,22.6877418 C50.5258642,24.1883966 48.821599,25.0840198 47.0019413,25.0705996 C45.5437877,25.1187943 44.0426373,24.6674323 42.4984901,23.7165135 L42.4984901,32.5 L40,31.6158124 L40,12.1080754 C40.4420195,11.5856908 40.9771653,11.1483711 41.5787317,10.81794 C43.0593184,9.95784977 44.8661202,9.51853643 46.9991372,9.5 L47.0327869,9.53614603 C48.8534709,9.45256115 50.5746206,10.3624013 51.5194133,11.907882 C52.5064711,13.3759671 53,15.2611219 53,17.5633462 L53,17.5661267 Z" id="path46" fill="#646464"></path>
                            <path d="M66.9919628,23.3786849 C66.9919628,26.1484694 66.7240549,28.0662987 66.1882391,29.1321728 C65.6524234,30.1980468 64.6325874,31.0481419 63.1287312,31.6824578 C61.8660512,32.1914963 60.5280386,32.4681258 59.1744109,32.5 L58.7805863,30.9346718 C59.8120422,30.8179989 60.8326036,30.6136291 61.832057,30.3236079 C62.9894191,29.9134417 63.7824264,29.2884265 64.2191162,28.4513527 C64.5763267,27.7668122 64.7504669,26.4646973 64.7415366,24.5450079 L64.7415366,23.8976708 C63.1308007,24.6649937 61.3796515,25.0600262 59.6084216,25.055623 C58.4734323,25.0707627 57.3711669,24.6597002 56.5033693,23.8976708 C55.5411533,23.1426535 54.9827577,21.9546415 55.0004061,20.7000485 L55.0004061,10.3370739 L57.3874653,9.5 L57.3874653,19.9159893 C57.3874653,21.0320878 57.7321735,21.8886934 58.4215897,22.4858061 C59.1811155,23.109398 60.1356484,23.4175817 61.1006685,23.3507825 C62.1937327,23.3284605 63.3671692,22.8876016 64.6129408,22.0254155 L64.6129408,9.87110275 L67,9.87110275 L66.9919628,23.3786849 Z" id="path48" fill="#646464"></path>
                            <path d="M77.9972011,25.4640487 C77.6977209,25.4889381 77.437425,25.5 77.1743303,25.5 C75.7636945,25.5 74.6656004,25.1672198 73.880048,24.5016593 C73.0944955,23.8360988 72.7026523,22.9142699 72.7045182,21.7361726 L72.7045182,12.0403761 L71,12.0403761 L71,10.4917035 L72.710116,10.4917035 L72.710116,6.37389381 L75.2011196,5.5 L75.2011196,10.4778761 L78,10.4778761 L78,12.0265487 L75.1983207,12.0265487 L75.1983207,21.6642699 C75.1983207,22.5860988 75.448354,23.2405973 75.9484206,23.6277655 C76.3813141,23.943031 77.0651739,24.1227876 78,24.1670354 L77.9972011,25.4640487 Z" id="path50" fill="#646464"></path>
                            <path d="M92,24.4887112 L89.538674,24.4887112 L89.538674,14.7831609 C89.5612041,13.8870833 89.3258859,13.0039453 88.8618785,12.2431797 C88.4035383,11.472549 87.575657,11.0124801 86.6933702,11.0380997 C85.5662983,11.0380997 84.1556169,11.6458137 82.461326,12.8612418 L82.461326,24.4943556 L80,24.4943556 L80,1.29303857 L82.461326,0.5 L82.461326,11.0663217 C83.9481129,9.92964421 85.7562722,9.31751529 87.6132597,9.32220132 C88.8097087,9.27726003 89.9658077,9.76784464 90.7790055,10.6655691 C91.594785,11.5739631 92.0309409,12.7720004 91.9944751,14.0042333 L91.9944751,24.5 L92,24.4887112 Z" id="path52" fill="#646464"></path>
                            <path d="M106.21087,17.7543451 C106.21087,16.253916 105.907642,15.0122124 105.301185,14.0292344 C104.638037,12.871669 103.351348,12.1495421 101.951369,12.1492218 C99.1593788,12.2996229 97.7633837,14.1796354 97.7633837,17.7892596 C97.7633837,19.4400897 98.0551696,20.8196609 98.6387413,21.927973 C99.3882305,23.3379825 100.506743,24.0362729 102.002861,24.0121013 C104.806293,23.978082 106.208963,21.8921633 106.21087,17.7543451 Z M109,17.7704595 C109,19.9083024 108.418335,21.6889429 107.255006,23.112381 C105.975344,24.7023345 104.207465,25.4982065 101.951369,25.5 C99.6952731,25.5017875 97.9502793,24.7103917 96.7163874,23.1258096 C95.5721291,21.7023715 95,19.921731 95,17.7838882 C95,15.7749604 95.6169459,14.0820538 96.8508378,12.7051684 C98.1031322,11.2596065 100.001971,10.4452094 101.985697,10.502868 C103.975548,10.44962 105.88085,11.2588403 107.152023,12.6971112 C108.384008,14.0704157 109,15.7615318 109,17.7704595 Z" id="path54" fill="#646464"></path>
                            <path d="M121.988542,24.4945216 L119.508442,24.4945216 L119.508442,14.5429849 C119.508442,13.4473024 119.174422,12.5944961 118.506381,11.9845662 C117.841124,11.3737232 116.950404,11.0751497 115.839787,11.0998025 C114.628193,11.1345714 113.456179,11.5320853 112.4801,12.2393124 L112.4801,24.5 L110,24.5 L110,11.9325213 C111.425153,10.9098842 112.738038,10.2424309 113.938655,9.93016141 C114.914649,9.66341173 115.920946,9.51891872 116.933703,9.5 C117.495002,9.49719761 118.054969,9.5541401 118.603804,9.66993681 C119.498917,9.85007095 120.32286,10.2787753 120.978131,10.9053189 C121.642592,11.5330519 122.012531,12.403999 121.999676,13.310342 L121.988542,24.4945216 Z" id="path56" fill="#646464"></path>
                            <path d="M14.6805295,2.50036091 C13.5328852,2.50362161 12.3874805,2.60545342 11.2561003,2.8048086 C8.22196509,3.35834985 7.67127624,4.52078648 7.67127624,6.66299113 L7.67127624,9.48881924 L14.8409243,9.48881924 L14.8409243,10.4326071 L4.98198992,10.4326071 C2.89953063,10.4326071 1.07637628,11.7278936 0.504301459,14.1939199 C-0.153317264,17.0225157 -0.18272298,18.7855446 0.504301459,21.7386872 C1.01489161,23.9334783 2.23121892,25.5 4.31367821,25.5 L6.7784118,25.5 L6.7784118,22.1095598 C6.82713455,19.5745003 8.80733315,17.535347 11.2561003,17.4985612 L18.4150553,17.4985612 C19.3733747,17.49125 20.2895948,17.089891 20.9619623,16.3828641 C21.6343297,15.6758372 22.0077083,14.7211208 22,13.7289452 L22,6.66299113 C22,4.65086868 20.361179,3.13970105 18.4150553,2.8048086 C17.1806762,2.59495853 15.9314192,2.49311604 14.6805295,2.50036091 Z M10.8150145,4.77541546 C11.3695538,4.76305848 11.8762581,5.09909487 12.0972903,5.62579563 C12.3183225,6.1524964 12.2097965,6.765285 11.8226523,7.17653032 C11.4355082,7.58777565 10.8466135,7.71582485 10.3323839,7.50057412 C9.81815441,7.28532338 9.48069045,6.76951078 9.47839111,6.19524878 C9.47240948,5.42253165 10.0687619,4.78905406 10.8150145,4.77541546 L10.8150145,4.77541546 Z" id="path1948" fill="url(#linearGradient-7)"></path>
                            <path d="M23.8808717,10.5 L23.8808717,13.771412 C23.8808717,16.3066877 21.6998318,18.4409338 19.2092068,18.4409338 L11.740121,18.4409338 C9.66887747,18.4811839 8.00868299,20.1418178 8,22.1820448 L8,29.1945679 C8,31.1914752 9.76268194,32.3643492 11.740121,32.9384257 C14.1717729,33.6871914 16.7775549,33.6871914 19.2092068,32.9384257 C21.0918181,32.3890702 22.9493278,31.3205737 22.9493278,29.1945679 L22.9493278,26.390108 L15.480242,26.390108 L15.480242,25.4616972 L26.6866598,25.4616972 C28.8621216,25.4616972 29.6709472,23.9674502 30.4267808,21.7288266 C31.2077158,19.4215334 31.1742472,17.2021372 30.4267808,14.241111 C29.8884934,12.1123584 28.8649107,10.5082403 26.6866598,10.5082403 L23.8808717,10.5 Z M19.6805569,28.2606635 C20.2601352,28.2483774 20.7895202,28.583052 21.0194924,29.1071318 C21.2494646,29.6312117 21.1341947,30.2402574 20.7279486,30.6475473 C20.3217024,31.0548372 19.7054374,31.179206 19.1692737,30.9621043 C18.63311,30.7450026 18.2838953,30.2296948 18.28603,29.6587733 C18.2798391,28.8937398 18.9037618,28.2682141 19.6805569,28.2606635 L19.6805569,28.2606635 Z" id="path1950" fill="url(#linearGradient-8)"></path>
                            <path d="M127.911306,7.5 L128.291423,7.5 L128.291423,4.82727273 L129.192982,4.82727273 L129.192982,4.50818182 L127,4.50818182 L127,4.82727273 L127.901559,4.82727273 L127.901559,7.5 M129.519493,7.5 L129.846004,7.5 L129.846004,5.05909091 L130.550195,7.5 L130.913255,7.5 L131.64425,5.06727273 L131.64425,7.5 L132,7.5 L132,4.5 L131.529727,4.5 L130.725634,7.06090909 L130.040936,4.5 L129.51462,4.5 L129.51462,7.5" id="text3004" fill="#646464"></path>
                            <path d="M26,37.5 C26,38.6 21.3008628,39.5 15.5,39.5 C9.69913721,39.5 5,38.6085714 5,37.5 C5,36.3914286 9.70205956,35.5 15.5,35.5 C21.2979404,35.5 26,36.3914286 26,37.5 Z" id="path1894" fill="url(#radialGradient-9)" opacity="0.44"></path>
                        </g>
                    </g>
                </g>
                <g id="techno-copy-5" transform="translate(0.000000, 129.000000)">
                    <mask id="mask-11" fill="white">
                        <use xlink:href="#path-10"></use>
                    </mask>
                    <g id="Mask">
                        <use fill="black" fill-opacity="1" filter="url(#filter-12)" xlink:href="#path-10"></use>
                        <use fill="#FFFFFF" fill-rule="evenodd" xlink:href="#path-10"></use>
                    </g>
                    <g id="nodejs" mask="url(#mask-11)">
                        <g transform="translate(20.000000, 18.000000)">
                            <g id="Group" stroke-width="1" fill="none" fill-rule="evenodd" transform="translate(101.000000, 11.500000)">
                                <path d="M9.51158537,0.144537634 C9.22334146,0.144537634 8.94297561,0.205333333 8.69481707,0.348688172 L0.842719512,4.97815054 C0.334585366,5.27716129 0.0257195122,5.8415914 0.0257195122,6.44221505 L0.0257195122,15.6843441 C0.0257195122,16.2844946 0.334585366,16.8482151 0.842719512,17.1479355 L2.89332927,18.3565161 C3.88967073,18.8577849 4.25692683,18.8499785 4.71037805,18.8499785 C6.18542683,18.8499785 7.02768293,17.9361505 7.02768293,16.348129 L7.02768293,7.22498925 C7.02768293,7.09606452 6.91831707,7.00380645 6.79435366,7.00380645 L5.8107561,7.00380645 C5.68470732,7.00380645 5.57742683,7.09606452 5.57742683,7.22498925 L5.57742683,16.348129 C5.57742683,17.0518925 4.85913415,17.759914 3.69364634,17.1649677 L1.55962195,15.8884946 C1.48408537,15.8466237 1.42615854,15.7725806 1.42615854,15.6843441 L1.42615854,6.44197849 C1.42615854,6.35445161 1.48339024,6.26526882 1.55962195,6.2207957 L9.39503659,1.60860215 C9.46711175,1.56560504 9.55629069,1.56560504 9.62836585,1.60860215 L17.4640122,6.22103226 C17.538622,6.26692473 17.5974756,6.35184946 17.5974756,6.44245161 L17.5974756,15.6845806 C17.5974756,15.7728172 17.5539146,15.8631828 17.4806951,15.9057634 L9.62836585,20.5181935 C9.56117073,20.5591183 9.4684878,20.5591183 9.39503659,20.5181935 L7.37779268,19.2928172 C7.31542995,19.258282 7.240192,19.258282 7.17782927,19.2928172 C6.62103659,19.6150108 6.51630488,19.6523871 5.99403659,19.8373763 C5.86543902,19.8832688 5.67010976,19.9544731 6.06076829,20.1780215 L8.69481707,21.7606022 C8.94317304,21.906888 9.22509443,21.983293 9.51181707,21.9820535 C9.79850549,21.9838466 10.0804721,21.9074893 10.3285854,21.7608387 L18.1809146,17.148172 C18.6890488,16.8465591 18.9976829,16.2847312 18.9976829,15.6845806 L18.9976829,6.44221505 C18.9976829,5.84182796 18.6890488,5.27834409 18.1809146,4.97862366 L10.3285854,0.34916129 C10.0825122,0.205569892 9.80029268,0.144774194 9.51181707,0.144774194 L9.51158537,0.144537634 Z" id="Path" fill="#83CD29" fill-rule="nonzero"></path>
                                <path d="M11.6122439,6.74855914 C9.37626829,6.74855914 8.04464634,7.72010753 8.04464634,9.33580645 C8.04464634,11.0882366 9.36630488,11.569871 11.512378,11.7865591 C14.0796951,12.0432258 14.2796585,12.4281075 14.2796585,12.944043 C14.2796585,13.8389462 13.5808293,14.2205161 11.9292195,14.2205161 C9.85381707,14.2205161 9.39781707,13.6915699 9.24512195,12.6376989 C9.22704878,12.5246237 9.14154878,12.4333118 9.0282439,12.4333118 L8.01128049,12.4333118 C7.88615854,12.4333118 7.77795122,12.5435484 7.77795122,12.6717634 C7.77795122,14.0208602 8.49670732,15.6162151 11.9292195,15.6162151 C14.4138171,15.6162151 15.8469268,14.6205376 15.8469268,12.875914 C15.8469268,11.1466667 14.6893171,10.6823011 12.2790976,10.3570323 C9.84385366,10.0279785 9.61168293,9.86688172 9.61168293,9.28470968 C9.61168293,8.80402151 9.80863415,8.16105376 11.6122439,8.16105376 C13.2235366,8.16105376 13.8190244,8.51589247 14.0630122,9.62511828 C14.0843293,9.7292043 14.1742317,9.81223656 14.2796585,9.81223656 L15.2968537,9.81223656 C15.3594146,9.81223656 15.420122,9.77296774 15.4634512,9.72707527 C15.5060854,9.67810753 15.5362073,9.62298925 15.5301829,9.55698925 C15.372622,7.64701075 14.1251098,6.74855914 11.6122439,6.74855914 L11.6122439,6.74855914 Z" id="Path" fill="#83CD29" fill-rule="nonzero"></path>
                            </g>
                            <path d="M63.2601316,0.5 C63.1716921,0.5 63.0847929,0.523468583 63.0079913,0.56771488 C62.8527263,0.659382262 62.7569556,0.826940711 62.7560845,1.00844588 L62.7560845,13.9740876 C62.7560845,14.1012895 62.6974852,14.2153001 62.5882244,14.2791366 C62.4792098,14.3432072 62.3444761,14.3432072 62.2354615,14.2791366 L60.1356933,13.0589407 C59.8239507,12.8769467 59.4395752,12.8769467 59.1278326,13.0589407 L50.7458027,17.9399599 C50.4324951,18.1225182 50.2419891,18.4732656 50.2419891,18.8383822 L50.2419891,28.6006563 C50.2419891,28.9653017 50.4327285,29.2993245 50.7458027,29.4818827 L59.1278326,34.3631376 C59.4394449,34.5456208 59.8240811,34.5456208 60.1356933,34.3631376 L68.5177232,29.4818827 C68.830091,29.3004814 69.0223791,28.9643037 69.0217718,28.6006563 L69.0217718,4.26269428 C69.0213067,3.89045761 68.8224227,3.54725006 68.5011474,3.36427203 L63.5120384,0.550754627 C63.4338282,0.506705083 63.3469799,0.498931634 63.2601316,0.5 L63.2601316,0.5 Z M9.33946681,12.6860507 C9.17977796,12.6924108 9.02942765,12.7206779 8.88608124,12.8045369 L0.503817866,17.6857917 C0.191255678,17.8669659 -0.00104136934,18.203315 1.88626892e-13,18.5670182 L0.0168135942,31.6685775 C0.0168135942,31.8506646 0.109965418,32.0200316 0.268720406,32.1090729 C0.423814752,32.2030972 0.617673147,32.2030972 0.772767493,32.1090729 L5.74483364,29.2279501 C6.05977552,29.0390317 6.26545662,28.7106624 6.26545662,28.3464881 L6.26545662,22.2280771 C6.26545662,21.8629605 6.45572914,21.5279955 6.7695037,21.3466151 L8.88584777,20.1094589 C9.03886549,20.0196889 9.21289358,19.9728431 9.38989486,19.9737769 C9.56265764,19.9737769 9.74008969,20.0173553 9.89370848,20.1094589 L12.010286,21.3466151 C12.3231535,21.5276264 12.51561,21.8641885 12.5143331,22.2280771 L12.5143331,28.3462525 C12.5143331,28.7104268 12.7221154,29.0411517 13.0349561,29.2277145 L18.0070222,32.1090729 C18.1621166,32.2030972 18.355975,32.2030972 18.5110693,32.1090729 C18.6669813,32.018025 18.7630495,31.8501018 18.7632096,31.6683419 L18.7795678,18.5670182 C18.7815781,18.2030523 18.5890167,17.866241 18.2757384,17.6857917 L9.89370848,12.8045369 C9.75199631,12.7206779 9.60117907,12.6926463 9.44032292,12.6860507 L9.33946681,12.6860507 Z M84.660304,12.8045369 C84.4852066,12.8045369 84.3136111,12.8492931 84.1564903,12.9402189 L75.7744604,17.8214737 C75.4620217,18.0028034 75.2697075,18.3390267 75.2704114,18.7027002 L75.2704114,28.4649743 C75.2704114,28.8322108 75.4753941,29.1648202 75.7910363,29.3464363 L84.1060623,34.1259296 C84.4130664,34.3025989 84.7880084,34.3160257 85.0971137,34.1424187 L90.1364172,31.3121766 C90.2963395,31.2226642 90.404433,31.0554172 90.4051334,30.8716812 C90.4068857,30.6894709 90.3104103,30.5206797 90.1532266,30.4309502 L81.7207686,25.5496953 C81.5629475,25.4587696 81.4520524,25.2747979 81.4520524,25.0920041 L81.4520524,22.0415143 C81.4520524,21.858956 81.5641148,21.6917091 81.7207686,21.6007833 L84.3411598,20.0753028 C84.4970607,19.9842604 84.6893059,19.9842604 84.8452068,20.0753028 L87.4653645,21.6007833 C87.6216281,21.6913612 87.7178404,21.8594466 87.7175048,22.0412787 L87.7175048,24.4479856 C87.717024,24.6297952 87.8131668,24.7979149 87.9694116,24.8884811 C88.1265324,24.9801135 88.3165714,24.9803491 88.4732252,24.8884811 L93.4959529,21.9399883 C93.8077925,21.7579391 94,21.4220365 94,21.0585263 L94,18.7029357 C94,18.338997 93.8085602,18.0042676 93.4959529,17.8214737 L85.1643511,12.9402189 C85.0111886,12.8508278 84.8372432,12.8040855 84.660304,12.8047724 L84.660304,12.8045369 Z M59.5980275,20.0924986 C59.6419186,20.0924986 59.6932805,20.1033343 59.7325024,20.1261836 L62.6050338,21.8040707 C62.6830105,21.8495336 62.7395086,21.9336282 62.7395086,22.0243185 L62.7395086,25.3800928 C62.7395086,25.4712542 62.6834774,25.5551132 62.6050338,25.6005761 L59.7325024,27.2784633 C59.6544477,27.3234333 59.5586502,27.3234333 59.4805955,27.2784633 L56.6082976,25.6005761 C56.5300874,25.5548776 56.4738228,25.4712542 56.4738228,25.3800928 L56.4738228,22.0243185 C56.4738228,21.9333927 56.5303209,21.8500048 56.6082976,21.8040707 L59.4805955,20.1264191 C59.5159027,20.1042618 59.5566819,20.0925876 59.598261,20.0927342 L59.598261,20.0924986 L59.5980275,20.0924986 Z" id="Shape" fill="#404137" fill-rule="nonzero"></path>
                            <path d="M34.4953126,12.5 C34.3187215,12.5 34.1440191,12.5435966 33.9858426,12.6321611 L25.5097061,17.3701336 C25.1926448,17.5474921 25,17.8898192 25,18.244995 L25,27.7537502 C25,28.1093849 25.1928809,28.4342745 25.5097061,28.6123213 L33.9858426,33.3665841 C34.3009136,33.544472 34.6899477,33.544472 35.0050187,33.3665841 L43.4811551,28.6123213 C43.7970123,28.4355315 43.991374,28.1079884 43.9906273,27.7537502 L43.9906273,18.244995 C43.9906273,17.8893603 43.7979803,17.5474921 43.4811551,17.3701336 L35.0050187,12.6321611 C34.8500815,12.5451948 34.6742337,12.4996003 34.4953126,12.5 L34.4953126,12.5 Z M85.1823866,20.9854475 C85.1486265,20.9854475 85.1110891,20.9854475 85.0806342,21.0019673 L83.4499996,21.9263882 C83.3880922,21.9598069 83.349219,22.0227725 83.3480112,22.0915863 L83.3480112,23.9073884 C83.3480112,23.9757621 83.3886177,24.0383997 83.4499996,24.0725865 L85.0806342,24.9804876 C85.1417801,25.0149038 85.2069394,25.0149038 85.267377,24.9804876 L86.8980116,24.072357 C86.9596391,24.0387707 86.9984216,23.9760392 87,23.9073884 L87,22.0913568 C86.9984216,22.0227061 86.9596391,21.9599745 86.8980116,21.9263882 L85.267377,21.0017379 C85.2371582,20.9845297 85.2163827,20.9856769 85.1823866,20.9856769 L85.1823866,20.9854475 Z" id="Shape" fill="#83CD29" fill-rule="nonzero"></path>
                        </g>
                    </g>
                </g>
                <g id="techno-copy-3" transform="translate(174.000000, 48.000000)">
                    <mask id="mask-14" fill="white">
                        <use xlink:href="#path-13"></use>
                    </mask>
                    <g id="Mask">
                        <use fill="black" fill-opacity="1" filter="url(#filter-15)" xlink:href="#path-13"></use>
                        <use fill="#FFFFFF" fill-rule="evenodd" xlink:href="#path-13"></use>
                    </g>
                    <g id="c" mask="url(#mask-14)">
                        <g transform="translate(17.000000, 14.500000)">
                            <g id="Group" stroke-width="1" fill="none" fill-rule="evenodd" transform="translate(0.000000, 0.500000)">
                                <path d="M19.7726444,16.5409253 C16.168997,16.5409253 13.2528875,19.6049822 13.2528875,23.3914591 C13.2528875,24.6245552 13.5610942,25.7829181 14.1182371,26.7918149 L25.4151976,19.9537367 C24.2772036,17.911032 22.1790274,16.5409253 19.7726444,16.5409253 Z" id="Path" fill="#5E98CF"></path>
                                <path d="M6.68571429,23.3914591 C6.68571429,15.7935943 12.5416413,9.6405694 19.7726444,9.6405694 C24.6091185,9.6405694 28.8410334,12.405694 31.1051672,16.5160142 L38.9881459,11.7455516 C38.6680851,11.1601423 38.193921,10.6743772 37.5656535,10.2882562 C32.3142857,7.09964413 27.0629179,3.92348754 21.8234043,0.747330961 C20.412766,-0.112099644 19.03769,-0.0747330961 17.6389058,0.784697509 C15.5525836,2.08007117 5.09726444,8.37010676 1.97963526,10.2633452 C0.699392097,11.0480427 0.0711246201,12.2437722 0.0711246201,13.7882562 C0.0711246201,20.1779359 0.0711246201,26.5676157 0.0711246201,32.9697509 C0.0711246201,33.7295374 0.225227964,34.4145907 0.53343465,35 L8.42826748,30.2295374 C7.31398176,28.2117438 6.68571429,25.8825623 6.68571429,23.3914591 Z" id="Path" fill="#5E98CF"></path>
                            </g>
                            <g id="Group" stroke-width="1" fill="none" fill-rule="evenodd" transform="translate(1.000000, 23.500000)">
                                <path d="M13.8,3.42553191 C14.94,5.44414894 17.076,6.8143617 19.524,6.8143617 C21.996,6.8143617 24.144,5.43191489 25.272,3.38882979 L19.584,0.0244680851 L13.8,3.42553191 Z" id="Path" fill="#044E87" fill-rule="nonzero"></path>
                                <path d="M19.536,13.6042553 C14.616,13.6042553 10.332,10.8760638 8.04,6.8143617 L0.048,11.5 C0.372,12.087234 0.852,12.5888298 1.512,12.9680851 C4.668,14.8276596 15.252,21.0180851 17.364,22.2781915 C18.78,23.1345745 20.172,23.1590426 21.6,22.3148936 C26.904,19.1952128 32.232,16.0755319 37.536,12.9558511 C38.196,12.5643617 38.676,12.075 39,11.487766 L31.02,6.77765957 C28.752,10.8638298 24.456,13.6042553 19.536,13.6042553 Z" id="Path" fill="#044E87" fill-rule="nonzero"></path>
                            </g>
                            <path d="M40,14.5438972 C40,13.7682013 39.8430899,13.0910064 39.5051298,12.5 L20,23.9630621 L39.5292698,35.5 C39.8430899,34.9213062 40,34.256424 40,33.4930407 C40,33.4930407 40,20.8602784 40,14.5438972 Z M33.3494267,24.7880086 L31.8286059,24.7880086 L31.8286059,26.3394004 L30.3077852,26.3394004 L30.3077852,24.7880086 L28.7748944,24.7880086 L28.7748944,23.2366167 L30.2957151,23.2366167 L30.2957151,21.6852248 L31.8165359,21.6852248 L31.8165359,23.2366167 L33.3373567,23.2366167 L33.3373567,24.7880086 L33.3494267,24.7880086 Z M38.9257695,24.7880086 L37.4049487,24.7880086 L37.4049487,26.3394004 L35.8841279,26.3394004 L35.8841279,24.7880086 L34.3633072,24.7880086 L34.3633072,23.2366167 L35.8841279,23.2366167 L35.8841279,21.6852248 L37.4049487,21.6852248 L37.4049487,23.2366167 L38.9257695,23.2366167 L38.9257695,24.7880086 Z" id="Shape" fill="#0062A2" fill-rule="nonzero"></path>
                            <g id="Group" stroke-width="1" fill="none" fill-rule="evenodd" transform="translate(7.000000, 10.500000)">
                                <polygon id="Path" fill="#FFFFFF" fill-rule="nonzero" points="30.3821561 11.2031674 28.8832714 11.2031674 28.8832714 12.7425339 27.3724907 12.7425339 27.3724907 14.2941176 28.8832714 14.2941176 28.8832714 15.8334842 30.3821561 15.8334842 30.3821561 14.2941176 31.8929368 14.2941176 31.8929368 12.7425339 30.3821561 12.7425339"></polygon>
                                <polygon id="Path" fill="#FFFFFF" fill-rule="nonzero" points="24.8981413 11.2031674 23.3873606 11.2031674 23.3873606 12.7425339 21.8884758 12.7425339 21.8884758 14.2941176 23.3873606 14.2941176 23.3873606 15.8334842 24.8981413 15.8334842 24.8981413 14.2941176 26.397026 14.2941176 26.397026 12.7425339 24.8981413 12.7425339"></polygon>
                                <path d="M18.8788104,16.8230769 C17.7605948,18.8633484 15.6312268,20.2438914 13.1806691,20.2438914 C10.7539033,20.2438914 8.63643123,18.8755656 7.5063197,16.8597285 C6.95910781,15.8823529 6.63791822,14.7461538 6.63791822,13.5244344 C6.63791822,9.81040724 9.56431227,6.80497738 13.1806691,6.80497738 C15.595539,6.80497738 17.7011152,8.14886878 18.8312268,10.1524887 L24.5531599,6.76832579 C22.2810409,2.73665158 18.0342007,0.0244343891 13.1806691,0.0244343891 C5.92416357,0.0244343891 0.0475836431,6.05972851 0.0475836431,13.5122172 C0.0475836431,15.9556561 0.678066914,18.2524887 1.78438662,20.219457 C4.05650558,24.2633484 8.30334572,27 13.1806691,27 C18.0579926,27 22.3286245,24.2633484 24.5888476,20.2072398 L18.8788104,16.8230769 Z" id="Path" fill="#FFFFFF" fill-rule="nonzero"></path>
                            </g>
                        </g>
                    </g>
                </g>
            </g>
        </g>
    </g>
</svg>