<?xml version="1.0" encoding="UTF-8"?>
<svg width="366px" height="112px" viewBox="0 0 366 112" version="1.1" xmlns="http://www.w3.org/2000/svg" xmlns:xlink="http://www.w3.org/1999/xlink">
    <!-- Generator: Sketch 61.2 (89653) - https://sketch.com -->
    <title>code-quality</title>
    <desc>Created with Sketch.</desc>
    <defs>
        <rect id="path-1" x="0" y="0" width="83" height="72" rx="5"></rect>
        <filter x="-42.2%" y="-34.7%" width="184.3%" height="197.2%" filterUnits="objectBoundingBox" id="filter-3">
            <feOffset dx="0" dy="10" in="SourceAlpha" result="shadowOffsetOuter1"></feOffset>
            <feGaussianBlur stdDeviation="10" in="shadowOffsetOuter1" result="shadowBlurOuter1"></feGaussianBlur>
            <feColorMatrix values="0 0 0 0 0   0 0 0 0 0   0 0 0 0 0  0 0 0 0.1 0" type="matrix" in="shadowBlurOuter1"></feColorMatrix>
        </filter>
        <rect id="path-4" x="0" y="0" width="216" height="71" rx="5"></rect>
        <filter x="-16.2%" y="-35.2%" width="132.4%" height="198.6%" filterUnits="objectBoundingBox" id="filter-6">
            <feOffset dx="0" dy="10" in="SourceAlpha" result="shadowOffsetOuter1"></feOffset>
            <feGaussianBlur stdDeviation="10" in="shadowOffsetOuter1" result="shadowBlurOuter1"></feGaussianBlur>
            <feColorMatrix values="0 0 0 0 0   0 0 0 0 0   0 0 0 0 0  0 0 0 0.1 0" type="matrix" in="shadowBlurOuter1"></feColorMatrix>
        </filter>
    </defs>
    <g id="Landing" stroke="none" stroke-width="1" fill="none" fill-rule="evenodd">
        <g id="Services-Page" transform="translate(-340.000000, -1818.000000)">
            <g id="code-quality" transform="translate(360.000000, 1828.000000)">
                <g id="techno-copy-7">
                    <mask id="mask-2" fill="white">
                        <use xlink:href="#path-1"></use>
                    </mask>
                    <g id="Mask">
                        <use fill="black" fill-opacity="1" filter="url(#filter-3)" xlink:href="#path-1"></use>
                        <use fill="#FFFFFF" fill-rule="evenodd" xlink:href="#path-1"></use>
                    </g>
                    <g id="eslint-1" mask="url(#mask-2)" fill-rule="nonzero">
                        <g transform="translate(14.000000, 14.000000)">
                            <path d="M17.4304286,17.4564872 L28.0695714,11.1484749 C28.3359094,10.9905084 28.6640906,10.9905084 28.9304286,11.1484749 L39.5695714,17.4564872 C39.8358229,17.6144558 40,17.906211 40,18.2219877 L40,30.8380123 C40,31.1536154 39.8357143,31.4453739 39.5695714,31.6035128 L28.9304286,37.9115251 C28.6640906,38.0694916 28.3359094,38.0694916 28.0695714,37.9115251 L17.4304286,31.6035128 C17.164144,31.4455781 17,31.1538014 17,30.8380123 L17,18.2217627 C17,17.9059347 17.1642857,17.6144012 17.4304286,17.4562622" id="Path" fill="#8080F2"></path>
                            <path d="M55.6537181,23.9133946 L42.9456308,1.44187666 C42.4840674,0.629436139 41.6313782,0.03 40.7082514,0.03 L15.291858,0.03 C14.3687312,0.03 13.5156045,0.629436139 13.0540411,1.44187666 L0.346172551,23.8638121 C-0.11539085,24.676475 -0.11539085,25.7021422 0.346172551,26.5148051 L13.0540411,48.8022232 C13.5156045,49.6146637 14.3687312,50.03 15.291858,50.03 L40.7080326,50.03 C41.6311594,50.03 42.4840674,49.6271149 42.945412,48.814452 L55.6534993,26.4907921 C56.1155002,25.6785739 56.1155002,24.7258351 55.6534993,23.9133946 L55.6537181,23.9133946 Z M45.1307288,34.7192537 C45.1307288,35.0494328 44.9351659,35.3551541 44.6534153,35.5205771 L28.4661025,45.0130575 C28.1825001,45.1782229 27.8340156,45.1782229 27.5504132,45.0130575 L11.3506315,35.5205771 C11.0690997,35.3551541 10.8720056,35.0496551 10.8720056,34.7190314 L10.8720056,15.733626 C10.8720056,15.4030023 11.066256,15.0977256 11.3480065,14.9323026 L27.5344444,5.43959987 C27.817896,5.27415698 28.1664633,5.27415698 28.4499149,5.43959987 L44.6505716,14.9323026 C44.9325409,15.0977256 45.1307288,15.4030023 45.1307288,15.733626 L45.1307288,34.7190314 L45.1307288,34.7192537 Z" id="Shape" fill="#4B32C3"></path>
                        </g>
                    </g>
                </g>
                <g id="techno-copy-11" transform="translate(110.000000, 0.000000)">
                    <mask id="mask-5" fill="white">
                        <use xlink:href="#path-4"></use>
                    </mask>
                    <g id="Mask">
                        <use fill="black" fill-opacity="1" filter="url(#filter-6)" xlink:href="#path-4"></use>
                        <use fill="#FFFFFF" fill-rule="evenodd" xlink:href="#path-4"></use>
                    </g>
                    <g id="sonarqube" mask="url(#mask-5)">
                        <g transform="translate(21.000000, 13.000000)" id="Group">
                            <g transform="translate(0.000000, 13.459416)">
                                <path d="M0.93724922,20.0244281 C1.90069485,20.6149582 3.9003539,21.3068334 5.44691213,21.3068334 C7.0332501,21.3068334 7.68621979,20.7513843 7.68621979,19.8889764 C7.68621979,19.0265686 7.17199403,18.6075456 5.20726352,17.9507513 C1.72702237,16.773589 0.388094915,14.8704449 0.419142508,12.8630323 C0.419142508,9.71256385 3.10767003,7.32803052 7.27289871,7.32803052 C9.23762921,7.32803052 10.9927885,7.77433876 12.0270614,8.29470688 L11.0985443,11.9265646 C10.340789,11.5114394 8.89416521,10.9598882 7.44754142,10.9598882 C6.17167939,10.9598882 5.44788237,11.4763584 5.44788237,12.3426642 C5.44788237,13.1388079 6.10570325,13.5549075 8.1703682,14.2808893 C11.3721512,15.3878896 12.7188406,17.0094113 12.7498882,19.5050344 C12.7498882,22.651605 10.2709319,24.9708487 5.44788237,24.9708487 C3.24350325,24.9708487 1.28265369,24.4836126 0.00679166101,23.7936863 L0.93724922,20.0244281 Z M31.1814859,15.9813431 C31.1814859,22.1731391 26.8076563,25.012751 22.2941124,25.012751 C17.3672474,25.0088531 13.583322,21.7570395 13.583322,16.2883019 C13.583322,10.8195642 17.1644679,7.33095393 22.5754812,7.33095393 C27.739084,7.33095393 31.1814859,10.8926496 31.1814859,15.9813431 L31.1814859,15.9813431 Z M18.9875437,16.1518758 C18.9875437,19.0577517 20.1935487,21.2366714 22.4328563,21.2366714 C24.4703546,21.2366714 25.7743535,19.1902799 25.7743535,16.1518758 C25.7743535,13.6270184 24.8118782,11.0641567 22.4328563,11.0641567 C19.9189715,11.0641567 18.9875437,13.6582016 18.9875437,16.1518758 Z M33.0491927,13.1066503 C33.0491927,10.9978926 32.9793356,9.19901703 32.9104488,7.71197254 L37.457951,7.71197254 L37.6975996,10.0263439 L37.8023852,10.0263439 C38.4912537,8.95442452 40.2114844,7.33095393 42.9999463,7.33095393 C46.4462292,7.33095393 49.0299711,9.61121875 49.0299711,14.5946693 L49.0299711,24.6317324 L43.7906897,24.6317324 L43.7906897,15.2514635 C43.7906897,13.0715693 43.0329344,11.5845248 41.138061,11.5845248 C39.6914372,11.5845248 38.8327772,12.5862822 38.4893132,13.5578309 C38.349599,13.8686875 38.2797419,14.3851578 38.2797419,14.8704449 L38.2797419,24.6278345 L33.0491927,24.6278345 L33.0491927,13.1066503 Z M61.4325143,24.6278345 L61.1249491,22.930304 L61.0279254,22.930304 C59.9257358,24.2818969 58.2006539,25.0088531 56.2048758,25.0088531 C52.7935215,25.0088531 50.7628149,22.5151789 50.7628149,19.8188144 C50.7628149,15.425894 54.6883949,13.3122639 60.6485626,13.3473449 L60.6485626,13.1066503 C60.6485626,12.2052636 60.163444,10.9277306 57.5816425,10.9277306 C55.8604416,10.9277306 54.0354253,11.5124139 52.9332357,12.2052636 L51.9629984,8.81897289 C53.135045,8.15828078 55.4442098,7.33095393 58.5072489,7.33095393 C64.1220121,7.33095393 65.9130701,10.651955 65.9130701,14.6297503 L65.9130701,20.5106897 C65.9130701,22.1341603 65.9829272,23.6913667 66.1565997,24.6278345 L61.4325143,24.6278345 Z M60.8135029,16.6371629 C58.0599695,16.6020819 55.9215665,17.2617995 55.9215665,19.3013697 C55.9215665,20.6529626 56.819036,21.3097822 57.9901124,21.3097822 C59.215572,21.3149071 60.3081356,20.5354092 60.7067768,19.3715317 C60.7774803,19.0763796 60.8123392,18.7737145 60.8105922,18.470145 L60.8135029,16.6371629 Z M68.672425,13.2781574 C68.672425,10.7883811 68.6025679,9.16393603 68.533681,7.71197254 L73.0462547,7.71197254 L73.2208974,10.8224876 L73.3557604,10.8224876 C74.2183013,8.36779229 76.2839365,7.33095393 77.9042328,7.33095393 C78.2729037,7.31669979 78.6420769,7.33889463 79.0064223,7.39721804 L79.0064223,12.3455876 C78.5414024,12.2536164 78.0686754,12.2066268 77.5947271,12.2052636 C75.6649251,12.2052636 74.3580155,13.2469743 74.0048491,14.8704449 C73.9367983,15.2590351 73.9043214,15.6530678 73.9078254,16.0476073 L73.9078254,24.6278345 L68.668544,24.6278345 L68.672425,13.2781574 Z M113.562394,20.0595091 C113.562394,21.7882226 113.597322,23.3113226 113.701137,24.6278345 L111.01358,24.6278345 L110.839908,21.8934656 L110.773932,21.8934656 C109.981248,23.2411606 108.221237,25.0117765 105.262984,25.0117765 C102.643343,25.0117765 99.5075362,23.5588385 99.5075362,17.6778991 L99.5075362,7.88250517 L102.539528,7.88250517 L102.539528,17.1507097 C102.539528,20.3313868 103.502973,22.4800979 106.260388,22.4800979 C108.291094,22.4800979 109.70279,21.058343 110.255825,19.710648 C110.438083,19.2112328 110.531038,18.6833986 110.530402,18.1514926 L110.530402,7.88250517 L113.562394,7.88250517 L113.562394,20.0595091 Z M117.081444,24.6278345 C117.151301,23.4857531 117.217277,21.7882226 117.217277,20.3002037 L117.217277,0.0633406893 L120.2124,0.0633406893 L120.2124,10.581793 L120.282257,10.581793 C121.349518,8.7137299 123.27932,7.50148656 125.966877,7.50148656 C130.097177,7.50148656 133.025354,10.9628116 132.990425,16.0476073 C132.990425,22.0328152 129.235607,25.012751 125.519598,25.012751 C123.106618,25.012751 121.179726,24.0762832 119.938793,21.8622825 L119.834007,21.8622825 L119.699144,24.6317324 L117.081444,24.6278345 Z M120.2124,17.9156704 C120.222453,18.2883426 120.268924,18.6591224 120.351144,19.0226707 C120.933286,21.1324029 122.691356,22.5843664 124.895735,22.5843664 C128.067441,22.5843664 129.958433,19.9903215 129.958433,16.1528502 C129.958433,12.7967682 128.237233,9.92694772 125.000521,9.92694772 C122.934886,9.92694772 121.005084,11.3448047 120.386072,13.659176 C120.317186,14.0090115 120.2124,14.4212132 120.2124,14.9065004 L120.2124,17.9156704 Z M137.130428,16.80867 C137.196404,20.9258148 139.815074,22.6194474 142.847066,22.6194474 C145.016516,22.6194474 146.327307,22.2394032 147.460544,21.7570395 L147.978651,23.9359592 C146.91139,24.418323 145.086373,24.9737721 142.432774,24.9737721 C137.301189,24.9737721 134.234269,21.582609 134.234269,16.5328944 C134.234269,11.4831797 137.196404,7.5034355 142.053411,7.5034355 C147.495472,7.5034355 148.942096,12.3124555 148.942096,15.3966599 C148.938928,15.8708373 148.906525,16.3443627 148.845073,16.8145168 L137.130428,16.80867 Z M146.01392,14.6297503 C146.048849,12.6915252 145.225117,9.68040627 141.813763,9.68040627 C138.746843,9.68040627 137.405005,12.5200181 137.156624,14.6297503 L146.01392,14.6297503 Z" id="Shape" fill="#1B171B" fill-rule="nonzero"></path>
                                <path d="M95.9089261,10.897522 C93.2362549,6.94895033 87.9673029,5.76830851 83.877044,8.20147479 C79.786785,10.6346411 78.2853522,15.8427717 80.4484565,20.0944686 C82.6115608,24.3461656 87.6934634,26.1756395 92.0532031,24.2721521 L95.5373252,29.9533247 L98.3015313,28.0647977 L94.8193496,22.3826507 C97.8845843,19.3141005 98.3421974,14.4892132 95.9089261,10.8945986 M92.0066317,21.215233 C89.8970404,22.6555089 87.1313295,22.6775834 84.9992143,21.2711626 C82.8670992,19.8647419 81.7884914,17.3068149 82.2663708,14.7902025 C82.7442503,12.2735902 84.6845006,10.2939291 87.1823378,9.77438152 C89.6801749,9.2548339 92.2436601,10.2977225 93.6773803,12.416724 C95.6320038,15.3103865 94.884437,19.2472282 92.0066317,21.215233" id="Shape" fill="#1B171B" fill-rule="nonzero"></path>
                            </g>
                            <g transform="translate(136.000000, 0.459416)">
                                <path d="M33.5582329,36.9685556 L31.4362621,36.9685556 C31.4362621,19.7646375 17.3338372,5.76691298 0.00119409083,5.76691298 L0.00119409083,3.63074525 C18.5038148,3.63074525 33.5582329,18.5858613 33.5582329,36.9685556 Z" id="Path" fill="#4E9BCD" fill-rule="nonzero"></path>
                                <path d="M35.0262509,25.4963639 C32.4769923,14.70192 23.7904156,5.68826316 12.8979538,2.54421266 L13.3802199,0.832365523 C24.8774433,4.15507733 34.0482152,13.6736465 36.7421536,25.0846661 L35.0262509,25.4963639 Z M36.6582393,15.3689869 C34.0327827,9.60618898 29.560247,4.5803689 24.0643427,1.21881769 L24.7993162,0.00120207984 C30.5344245,3.50937208 35.2027602,8.75560583 37.9449252,14.7747439 L36.6582393,15.3689869 Z" id="Shape" fill="#4E9BCD" fill-rule="nonzero"></path>
                            </g>
                        </g>
                    </g>
                </g>
            </g>
        </g>
    </g>
</svg>