<?xml version="1.0" encoding="UTF-8"?>
<svg width="290px" height="207px" viewBox="0 0 290 207" version="1.1" xmlns="http://www.w3.org/2000/svg" xmlns:xlink="http://www.w3.org/1999/xlink">
    <!-- Generator: Sketch 61.2 (89653) - https://sketch.com -->
    <title>frontend</title>
    <desc>Created with Sketch.</desc>
    <defs>
        <rect id="path-1" x="0" y="0" width="80" height="80" rx="5"></rect>
        <filter x="-43.8%" y="-31.2%" width="187.5%" height="187.5%" filterUnits="objectBoundingBox" id="filter-3">
            <feOffset dx="0" dy="10" in="SourceAlpha" result="shadowOffsetOuter1"></feOffset>
            <feGaussianBlur stdDeviation="10" in="shadowOffsetOuter1" result="shadowBlurOuter1"></feGaussianBlur>
            <feColorMatrix values="0 0 0 0 0   0 0 0 0 0   0 0 0 0 0  0 0 0 0.1 0" type="matrix" in="shadowBlurOuter1"></feColorMatrix>
        </filter>
        <rect id="path-4" x="0" y="0" width="101" height="80" rx="5"></rect>
        <filter x="-34.7%" y="-31.2%" width="169.3%" height="187.5%" filterUnits="objectBoundingBox" id="filter-6">
            <feOffset dx="0" dy="10" in="SourceAlpha" result="shadowOffsetOuter1"></feOffset>
            <feGaussianBlur stdDeviation="10" in="shadowOffsetOuter1" result="shadowBlurOuter1"></feGaussianBlur>
            <feColorMatrix values="0 0 0 0 0   0 0 0 0 0   0 0 0 0 0  0 0 0 0.1 0" type="matrix" in="shadowBlurOuter1"></feColorMatrix>
        </filter>
        <rect id="path-7" x="0" y="0" width="160" height="61" rx="5"></rect>
        <filter x="-21.9%" y="-41.0%" width="143.8%" height="214.8%" filterUnits="objectBoundingBox" id="filter-9">
            <feOffset dx="0" dy="10" in="SourceAlpha" result="shadowOffsetOuter1"></feOffset>
            <feGaussianBlur stdDeviation="10" in="shadowOffsetOuter1" result="shadowBlurOuter1"></feGaussianBlur>
            <feColorMatrix values="0 0 0 0 0   0 0 0 0 0   0 0 0 0 0  0 0 0 0.1 0" type="matrix" in="shadowBlurOuter1"></feColorMatrix>
        </filter>
    </defs>
    <g id="Landing" stroke="none" stroke-width="1" fill="none" fill-rule="evenodd">
        <g id="Services-Page" transform="translate(-790.000000, -775.000000)">
            <g id="frontend" transform="translate(810.000000, 785.000000)">
                <g id="techno">
                    <mask id="mask-2" fill="white">
                        <use xlink:href="#path-1"></use>
                    </mask>
                    <g id="Mask">
                        <use fill="black" fill-opacity="1" filter="url(#filter-3)" xlink:href="#path-1"></use>
                        <use fill="#FFFFFF" fill-rule="evenodd" xlink:href="#path-1"></use>
                    </g>
                    <g id="react" mask="url(#mask-2)" fill="#00D8FF" fill-rule="nonzero">
                        <g transform="translate(12.000000, 14.000000)">
                            <circle id="Oval" cx="28" cy="25.5" r="5"></circle>
                            <path d="M28.009968,37.5 C20.9825561,37.5 14.8422926,36.6663755 10.247063,35.079476 C7.26664293,34.0550218 4.73478106,32.689083 2.93058028,31.1323144 C1.01673193,29.4851528 0,27.6873362 0,25.9497817 C0,22.6152838 3.62833749,19.3510917 9.71876112,17.2218341 C14.7027412,15.4742358 21.2018512,14.5 28,14.5 C34.6785333,14.5 41.0879316,15.4441048 46.0420078,17.1716157 C48.9426842,18.1759825 51.3848345,19.4816594 53.1192595,20.9279476 C55.003204,22.5148472 56,24.2524017 56,25.9497817 C56,29.4148472 51.9430402,32.9200873 45.4040584,35.0995633 C40.7789249,36.6462882 34.5987896,37.5 28.009968,37.5 Z M28.009968,16.9104803 C21.5606978,16.9104803 15.1812033,17.8545852 10.5161979,19.4917031 C4.91420434,21.460262 2.40227839,24.1519651 2.40227839,25.9497817 C2.40227839,27.8179039 5.10359559,30.7606987 11.0245639,32.7995633 C15.3705945,34.2960699 21.251691,35.0895197 28.009968,35.0895197 C34.3495906,35.0895197 40.260591,34.2860262 44.6564614,32.809607 C50.8066928,30.750655 53.6176575,27.8078603 53.6176575,25.9497817 C53.6176575,24.9956332 52.8999644,23.8707424 51.5941616,22.7759825 C50.0889996,21.5104803 47.8960484,20.3554585 45.2744749,19.4414847 C40.5596298,17.8144105 34.4293343,16.9104803 28.009968,16.9104803 Z" id="Shape"></path>
                            <path d="M16.7712017,50.5 C15.7639202,50.5 14.8751424,50.2798184 14.1246189,49.8394551 C11.2904052,48.1780847 10.3028743,43.3941385 11.4977867,37.0388961 C12.4754423,31.8245949 14.865267,25.6995424 18.2327474,19.7846633 C21.5409759,13.9798749 25.5108502,8.87566454 29.4313478,5.42281632 C31.7224195,3.40114867 34.0431171,1.91992683 36.1366826,1.13928288 C38.417879,0.28858115 40.3929408,0.28858115 41.8347359,1.12927463 C44.7874533,2.85069461 45.7651089,8.13505362 44.3825657,14.9006345 C43.4049101,19.7045972 41.0743371,25.4993773 37.8154852,31.2341078 C34.3393764,37.3391438 30.586759,42.2632056 26.9625206,45.4758556 C24.612197,47.5575728 22.1927463,49.0788277 19.9806771,49.8694799 C18.825266,50.2898266 17.738982,50.5 16.7712017,50.5 Z M19.2499042,20.3851586 L20.2769364,20.9856539 C17.0872116,26.5902771 14.7270127,32.6052388 13.8184843,37.4892676 C12.722325,43.3440972 13.7789831,46.8670032 15.2997806,47.7577379 C15.6750424,47.9779196 16.1688078,48.0980186 16.7712017,48.0980186 C18.7363882,48.0980186 21.8273599,46.8369784 25.4022218,43.6743696 C28.828954,40.6418681 32.4136911,35.9179714 35.7614209,30.0431253 C38.9017692,24.5285765 41.133589,18.9840028 42.061868,14.4302465 C43.3555335,8.05498757 42.2396236,4.15176785 40.6496989,3.22100007 C39.8399235,2.75061205 38.5265074,2.81066159 36.946458,3.40114867 C35.1195258,4.08171006 33.0555862,5.41280807 30.9817713,7.24431886 C27.2587798,10.5270267 23.4567859,15.4110555 20.2769364,20.9956622 L19.2499042,20.3851586 Z" id="Shape"></path>
                            <path d="M39.1931799,50.5 C36.5129582,50.5 33.1134123,48.8580425 29.5660601,45.7543424 C25.6048501,42.2902126 21.5746638,37.1340656 18.2046792,31.2170114 L18.2046792,31.2170114 C14.8938171,25.4100886 12.5289156,19.3728912 11.5336862,14.1967204 C10.9523146,11.1731157 10.8439233,8.39980948 11.218366,6.16714777 C11.6322238,3.73424735 12.6077457,2.00218243 14.0562478,1.15116788 C16.9926672,-0.580897034 21.9885216,1.20122756 27.0730598,5.79670614 C30.6795345,9.05058532 34.4633769,13.9964817 37.7249702,19.723309 C41.2033461,25.8305899 43.5386864,31.5874531 44.4649394,36.3731584 C45.0660186,39.4768586 45.1645561,42.3602961 44.7408446,44.7030891 C44.2875718,47.1960611 43.2627812,48.9681738 41.7847178,49.8392122 C41.045686,50.2797374 40.1687017,50.5 39.1931799,50.5 Z M20.2542605,30.0155791 C23.4468775,35.6222632 27.4080875,40.6983147 31.1130998,43.93217 C35.5571438,47.8168012 39.0847886,48.6578038 40.6121208,47.7567296 C42.1985755,46.8256195 43.3613187,43.0110719 42.1591605,36.8437194 C41.2723224,32.3183244 39.0355198,26.8117596 35.6852427,20.9347532 C32.5418944,15.4181766 28.9255659,10.6825309 25.5063125,7.59885461 C20.717387,3.27369829 16.8350071,2.30254051 15.2485523,3.23365055 C14.4405443,3.70421154 13.8394652,4.89563191 13.5537063,6.57763714 C13.2285323,8.51995271 13.3270699,11.0029128 13.8591727,13.7361713 C14.8051333,18.6520319 17.0714972,24.4289189 20.2542605,30.0155791 L20.2542605,30.0155791 Z" id="Shape"></path>
                        </g>
                    </g>
                </g>
                <g id="techno-copy" transform="translate(149.000000, 0.000000)">
                    <mask id="mask-5" fill="white">
                        <use xlink:href="#path-4"></use>
                    </mask>
                    <g id="Mask">
                        <use fill="black" fill-opacity="1" filter="url(#filter-6)" xlink:href="#path-4"></use>
                        <use fill="#FFFFFF" fill-rule="evenodd" xlink:href="#path-4"></use>
                    </g>
                    <g id="apple-ios" mask="url(#mask-5)" fill="#000000" fill-rule="nonzero">
                        <g transform="translate(21.000000, 21.000000)" id="Shape">
                            <path d="M2.09690652,3.26546933 C2.09690652,3.92253815 1.69489889,4.40861538 1.00526036,4.40861538 C0.430963757,4.40861538 0,3.92253815 0,3.26546933 C0,2.63625868 0.459437286,2.12184296 1.06269002,2.12184296 C1.69489889,2.12184296 2.09690652,2.63625868 2.09690652,3.26546933 Z M0.507214903,37.6246932 L0.507214903,11.3419403 L1.58969162,11.3419403 L1.58969162,37.6246932 L0.507214903,37.6246932 Z M37.5937455,18.8982318 C37.5937455,32.1491197 30.2026929,38.1727309 22.1123498,38.1727309 C13.8477873,38.1727309 7.15506008,31.6572787 7.15506008,19.4462694 C7.15506008,6.90816667 14.0808841,0.172730908 22.694368,0.172730908 C31.1331499,0.171770281 37.5937455,6.79721425 37.5937455,18.8982318 Z M8.25201486,19.1720104 C8.25201486,29.2192076 13.1446359,37.0243014 22.1635056,37.0243014 C31.2451137,37.0243014 36.4538391,28.9790508 36.4538391,19.0576958 C36.4538391,9.85729136 32.2802954,1.46093163 22.7566237,1.46093163 C13.2329521,1.46093163 8.25201486,9.36641099 8.25201486,19.1720104 Z M41.5665267,34.7769147 C43.3825588,35.9815409 46.51706,37.1448601 49.2128758,37.1448601 C54.3294243,37.1448601 58.8798803,33.5823751 58.8798803,28.338793 C58.8798803,23.4727372 55.848656,20.9338002 50.7021862,18.7526968 C46.0962309,16.8007028 41.9550215,14.6820401 41.9550215,9.48024529 C41.9550215,4.0599078 46.2458376,0.226045703 52.0776024,0.226045703 C55.2135515,0.226045703 57.5792674,1.10213747 58.6796004,1.86871776 L58.2423628,2.81397467 C57.3070798,2.15738616 54.7792095,1.3206801 52.0293422,1.3206801 C45.8660296,1.3206801 43.1813136,5.95570506 43.1813136,9.36785193 C43.1813136,14.0806877 46.8519859,15.6565962 51.5834178,17.9015813 C57.0846002,20.584132 60,22.9496759 60,28.0971953 C60,33.6275246 56.0392838,38.1165342 48.9971526,38.1165342 C46.0807876,38.1165342 42.7252546,37.1314113 41.0747551,35.8715491 L41.5665267,34.7769147 Z"></path>
                        </g>
                    </g>
                </g>
                <g id="techno-copy-2" transform="translate(40.000000, 106.000000)">
                    <mask id="mask-8" fill="white">
                        <use xlink:href="#path-7"></use>
                    </mask>
                    <g id="Mask">
                        <use fill="black" fill-opacity="1" filter="url(#filter-9)" xlink:href="#path-7"></use>
                        <use fill="#FFFFFF" fill-rule="evenodd" xlink:href="#path-7"></use>
                    </g>
                    <g id="android" mask="url(#mask-8)">
                        <g transform="translate(16.000000, 18.000000)">
                            <g id="android-(1)" transform="translate(0.000000, 0.675403)">
                                <path d="M1.55555556,8.95135135 C0.732666667,8.95135135 0.0648148148,9.61971892 0.0648148148,10.4432432 L0.0648148148,16.4108108 C0.0648148148,17.2343351 0.732666667,17.9027027 1.55555556,17.9027027 C2.37844444,17.9027027 3.0462963,17.2343351 3.0462963,16.4108108 L3.0462963,10.4432432 C3.0462963,9.61971892 2.37844444,8.95135135 1.55555556,8.95135135 Z" id="Path" fill="#8BC34A" fill-rule="nonzero"></path>
                                <path d="M19.4444444,8.95135135 C18.6215556,8.95135135 17.9537037,9.61971892 17.9537037,10.4432432 L17.9537037,16.4108108 C17.9537037,17.2343351 18.6215556,17.9027027 19.4444444,17.9027027 C20.2673333,17.9027027 20.9351852,17.2343351 20.9351852,16.4108108 L20.9351852,10.4432432 C20.9351852,9.61971892 20.2673333,8.95135135 19.4444444,8.95135135 Z" id="Path" fill="#8BC34A" fill-rule="nonzero"></path>
                                <path d="M4.47222222,18.0846532 C4.47222222,18.9129818 5.14007407,19.5852485 5.96296296,19.5852485 L5.96296296,22.4994047 C5.96296296,23.3277333 6.63081481,24 7.4537037,24 C8.27659259,24 8.94444444,23.3277333 8.94444444,22.4994047 L8.94444444,19.5852485 L11.9259259,19.5852485 L11.9259259,22.4994047 C11.9259259,23.3277333 12.5937778,24 13.4166667,24 C14.2395556,24 14.9074074,23.3277333 14.9074074,22.4994047 L14.9074074,19.5852485 C15.7302963,19.5852485 16.3981481,18.9129818 16.3981481,18.0846532 L16.3981481,9.08108108 L4.47222222,9.08108108 L4.47222222,18.0846532 Z" id="Path" fill="#8BC34A" fill-rule="nonzero"></path>
                                <path d="M14.1560741,2.85493606 L15.4828333,1.23125899 C15.7452037,0.91073701 15.7004815,0.436725632 15.3829537,0.17188118 C15.0639352,-0.0914584739 14.5958426,-0.0478193312 14.3334722,0.272702648 L12.8829815,2.04685951 C12.1346296,1.70527037 11.31025,1.50513222 10.4351852,1.50513222 C9.54819444,1.50513222 8.71337963,1.71279435 7.95757407,2.0649171 L6.54584259,0.283236234 C6.28794444,-0.0402953411 5.81985185,-0.09446807 5.49785185,0.165861988 C5.17734259,0.426192047 5.12516667,0.898698625 5.38157407,1.223735 L6.69044444,2.87600323 C5.34728704,3.97902018 4.47222222,5.6403172 4.47222222,7.52432432 L16.3981481,7.52432432 C16.3981481,5.62827882 15.5126481,3.95795301 14.1560741,2.85493606 Z M8.94444444,5.2671273 C8.533,5.2671273 8.19907407,4.93005254 8.19907407,4.51472828 C8.19907407,4.09940403 8.533,3.76232927 8.94444444,3.76232927 C9.35588889,3.76232927 9.68981481,4.09940403 9.68981481,4.51472828 C9.68981481,4.93005254 9.35588889,5.2671273 8.94444444,5.2671273 Z M11.9259259,5.2671273 C11.5144815,5.2671273 11.1805556,4.93005254 11.1805556,4.51472828 C11.1805556,4.09940403 11.5144815,3.76232927 11.9259259,3.76232927 C12.3373704,3.76232927 12.6712963,4.09940403 12.6712963,4.51472828 C12.6712963,4.93005254 12.3373704,5.2671273 11.9259259,5.2671273 Z" id="Shape" fill="#8BC34A" fill-rule="nonzero"></path>
                            </g>
                            <g id="Group-2" transform="translate(25.000000, 6.675403)">
                                <g id="Group" transform="translate(0.064456, 0.000000)" fill="#D6D6D8" fill-rule="nonzero">
                                    <path d="M11.1197251,14.9564069 C10.9114086,14.9564069 10.9770976,15.5579521 10.9768967,4.51157558 C10.9768967,4.2735054 10.7814367,4.0796255 10.5409787,4.0796255 L7.51988638,4.0796255 C6.51606974,4.0796255 5.56247406,4.51276991 4.90397677,5.26818488 C2.97488907,7.48068488 4.55182737,10.9307119 7.62434599,10.9307119 L9.47167396,10.9307119 C9.51546664,10.9307119 9.55122397,10.9661437 9.55122397,11.0095378 C9.55122397,15.0517544 9.60244935,14.9564069 9.45921916,14.9564069 L7.69867302,14.9564069 C3.74809104,14.9564069 0.380674913,11.9890891 0.0325431852,8.20106613 C-0.3820811,3.69226383 3.23041334,0.0541295546 7.51988638,0.0541295546 L14.9029709,0.0541295546 C15.1106847,0.0541295546 15.0397728,-0.691730769 15.0397728,14.8154758 C15.0397728,15.021299 15.1038548,14.9564069 11.1197251,14.9564069 Z M31.3750455,14.9564069 C27.4903535,14.9564069 27.4423422,15.0336404 27.4421414,14.7452092 L27.4421414,7.50556681 C27.4421414,5.63165992 25.9100001,4.08062078 23.976493,4.08062078 C21.9963808,4.08062078 20.5279199,5.73258097 20.5279199,7.60867746 L20.5279199,14.8118927 C20.5279199,15.0177159 20.6058627,14.9564069 16.5809538,14.9564069 C16.4009617,14.9564069 16.4652446,15.2277194 16.4652446,7.68232794 C16.4652446,3.76810391 19.4596195,0.431339406 23.2822383,0.0859784076 C27.8256287,-0.326066127 31.5048165,3.24876855 31.5048165,7.50536774 C31.5048165,15.197861 31.5773356,14.9564069 31.3750455,14.9564069 Z M40.4501748,14.9564069 C32.6540731,14.9564069 32.9304893,15.0294601 32.9304893,14.7832287 L32.9304893,11.1034919 C32.9304893,10.8572605 32.647243,10.9309109 40.4501748,10.9309109 C42.5405722,10.9309109 44.1807889,9.0906444 43.8686154,6.98961538 C43.6225327,5.33068826 42.1076675,4.07982456 40.3453133,4.07982456 L33.0516222,4.07982456 C32.9847279,4.07982456 32.9304893,4.02588056 32.9304893,3.95979419 L32.9304893,0.118225371 C32.9304893,0.0827935223 32.9594165,0.0541295546 32.9949729,0.0541295546 L40.2707854,0.0541295546 C44.2213675,0.0541295546 47.5889844,3.02144737 47.937518,6.80947031 C48.3523431,11.3180736 44.7398487,14.9564069 40.4501748,14.9564069 Z M64.4345023,14.9337146 C64.4345023,14.9691464 60.4075844,14.9510324 60.3718271,14.9512314 L60.3718271,12.9441565 C60.3718271,11.8049629 59.4365119,10.8781613 58.2868534,10.8781613 L49.4801052,10.8781613 C49.4332992,10.8781613 49.3953322,10.8403408 49.3953322,10.7941599 L49.3953322,6.91576586 C49.3953322,6.88093118 49.4240585,6.85246626 49.4592132,6.85246626 L58.972671,6.85246626 C59.8977412,6.85246626 60.6032453,5.96368421 60.3007142,5.02056005 C60.1231328,4.46678813 59.5614616,4.08002362 58.9351057,4.08002362 L49.4240585,4.08002362 C49.3794623,4.08002362 49.3953322,0.148083671 49.3953322,0.103893387 C49.3953322,0.0268589744 58.7547121,0.05432861 58.8322531,0.05432861 C63.5347434,0.05432861 66.249488,5.31257422 63.0385603,9.07949729 C64.6195163,11.093141 64.4345023,12.4696086 64.4345023,14.9337146 Z" id="Combined-Shape"></path>
                                    <path d="M74.1510536,0.0925472335 C73.8959311,0.0672672065 73.6408086,0.0547267206 73.3874941,0.0547267206 C71.3943244,0.0547267206 69.4881375,0.829450068 68.0656789,2.23876181 C63.5976201,6.66555331 66.3236141,14.2959413 72.60927,14.9181882 C77.3635882,15.3883569 81.3346604,11.4444737 80.8607753,6.74258772 C80.5076216,3.23981106 77.685806,0.443083671 74.1510536,0.0925472335 Z M76.7884578,8.08441971 C76.3326524,10.8198381 72.9160196,11.887969 70.9363092,9.92647773 C68.9409298,7.94906208 70.0656786,4.57447706 72.7950876,4.1277969 C75.1580844,3.74063428 77.1783734,5.74313091 76.7884578,8.08441971 Z" id="Shape"></path>
                                </g>
                                <path d="M87.8934796,14.8298092 C87.8934796,14.9103554 87.9593813,14.9759117 88.0403519,14.9759117 L92.1059642,14.9759117 C92.0249936,14.9759117 91.9590919,14.9103554 91.9590919,14.8298092 C91.9590919,10.8556604 91.901026,10.9340081 92.1129964,10.9340081 L88.0473842,10.9340081 C87.91399,10.9340081 87.8874935,10.9035922 87.886207,11.8682899 C87.8874899,10.9033882 87.9139811,10.9338083 88.0473842,10.9338083 L95.4145106,10.9338083 C96.4189087,10.9338083 97.3728759,10.4984987 98.031491,9.73980479 C99.9603211,7.51768721 98.3824979,4.05479736 95.3094295,4.05479736 L92.1492362,4.05479736 C92.1568297,4.05495837 92.1647045,4.05499723 92.1728705,4.05499723 C89.9043731,4.05499723 88.8383216,4.07771885 88.3373873,4.05479736 L88.1072582,4.05479736 C88.0380422,4.05479736 87.9897386,4.05198678 87.9562957,3.99575571 C87.8945088,3.96219024 87.893431,3.91324842 87.8934796,3.84253896 L87.8934796,3.59279009 C87.8739966,3.12170822 87.8934782,2.17061299 87.8934796,0.250735112 C87.8934796,0.250668472 87.8934796,0.25060185 87.8934796,0.250535245 C87.8934796,0.183712214 87.8875918,0.134115923 87.9381561,0.0975279597 C88.0273367,0.0196682442 88.2936247,0.00219891653 89.0866587,0.00208380804 C90.0804995,-0.00620126896 91.9010391,0.0128937794 95.2350892,0.0128937794 C99.1861771,0.0128937794 102.554397,2.99210629 102.902993,6.79556895 C103.318093,11.3227488 99.7045502,14.9759117 95.4145106,14.9759117 L88.0403519,14.9759117 C87.9594481,14.9759117 87.8933878,14.9104636 87.8934792,14.8298092 L87.8934796,14.8298092 Z M87.8862067,11.8682827 C87.8861746,11.8923704 87.8861584,11.9170784 87.8861564,11.9424227 L87.8862067,11.8682827 Z M82.4885359,14.9759117 C82.4421235,14.9759117 82.4043506,14.9383368 82.4041496,14.8919677 L82.4041496,0.0682568458 C82.4041496,0.0376772459 82.4290637,0.0128937794 82.4598045,0.0128937794 L86.3459952,0.0128937794 C86.4131025,0.0128937794 86.4675517,0.0670576458 86.4675517,0.133613245 L86.4675517,14.8923674 C86.4675517,14.9385367 86.4297788,14.9759117 86.3835673,14.9759117 L82.4885359,14.9759117 Z M4.16276358,8.19303667 C4.44364946,11.2595909 6.68772275,13.7891035 9.6173344,14.654726 C9.6173344,14.7866379 9.65128985,14.9759117 9.52531313,14.9759117 L7.76445198,14.9759117 C3.81316313,14.9759117 0.445144463,11.9964993 0.0969504444,8.19303667 C-0.31774803,3.66585683 3.29539279,0.0128937794 7.58563334,0.0128937794 L11.6514465,0.0128937794 C7.32925968,0.0128937794 3.75168167,3.69823523 4.16276358,8.19303667 Z M26.1007951,0.290908312 C23.0104475,1.16912244 20.7215691,4.05159949 20.6050357,7.40376321 C20.5925786,7.6340096 20.5963962,6.81755428 20.5963962,14.8308085 C20.5963962,15.0374706 20.674353,14.9759117 16.6487238,14.9759117 C16.4686996,14.9759117 16.5329941,15.24833 16.5329941,7.67218414 C16.5329941,2.74227296 21.1658028,-1.09296848 26.1007951,0.290908312 Z M37.0663951,11.1070927 C37.0663951,15.0030936 37.0004934,14.9759193 37.2411954,14.9759193 L33.1755831,14.9759193 C32.9346803,14.9759193 33.000783,15.0044927 33.000783,11.1070927 C33.000783,10.8684519 32.9322693,10.9338083 37.2405926,10.9338083 C37.1445529,10.9338083 37.0663951,11.0115564 37.0663951,11.1070927 Z M33.1217367,4.05499723 C33.0550312,4.05499723 33.000783,4.00083336 33.000582,3.93447763 L33.000582,0.0772508456 C33.000582,0.0416745792 33.0295144,0.0128937794 33.0650773,0.0128937794 L37.1306895,0.0128937794 C37.0951267,0.0128937794 37.0661943,0.0418744459 37.0661943,0.0772508456 L37.0661943,3.93447763 C37.0661943,4.00103323 37.1206435,4.05499723 37.1873488,4.05499723 L33.1217367,4.05499723 Z M53.5629156,4.05499723 C53.5183114,4.05499723 49.4685719,4.07078669 49.4685719,4.02641629 L49.4685719,0.0626605791 C49.4685719,0.0352788459 49.4910749,0.0128937794 49.5186009,0.0128937794 L53.5842131,0.0128937794 C53.5566871,0.0128937794 53.534184,0.0352788459 53.534184,0.0626605791 C53.534184,0.107230846 53.5183114,4.05499723 53.5629156,4.05499723 Z M53.534184,10.7964999 C53.534184,10.8428689 53.5723588,10.8806437 53.6189722,10.8808436 L49.5533599,10.8808436 C49.5065457,10.8808436 49.4685719,10.8428689 49.4685719,10.7964999 L49.4685719,6.90229774 C49.4685719,6.86732108 49.4973033,6.83874014 49.5324644,6.83874014 L53.5980765,6.83874014 C53.5629156,6.83874014 53.534184,6.86732108 53.534184,6.90229774 L53.534184,10.7964999 Z M75.5021525,0.291108178 C68.2397054,2.30756296 68.1159387,12.6384711 75.4770375,14.6976973 C67.9513855,16.7857044 62.7566039,7.56325681 68.1422593,2.20643044 C69.5649724,0.791374442 71.4715004,0.0134933794 73.4650266,0.0134933794 C73.7183865,0.0134933794 73.9735547,0.0260849792 74.2287229,0.0514680458 C74.6651206,0.0948391123 75.0906688,0.175984978 75.5021525,0.291108178 Z" id="Combined-Shape" fill="#D6D6D8" fill-rule="nonzero"></path>
                            </g>
                        </g>
                    </g>
                </g>
            </g>
        </g>
    </g>
</svg>