<?xml version="1.0" encoding="UTF-8"?>
<svg width="330px" height="264px" viewBox="0 0 330 264" version="1.1" xmlns="http://www.w3.org/2000/svg" xmlns:xlink="http://www.w3.org/1999/xlink">
    <!-- Generator: Sketch 61.2 (89653) - https://sketch.com -->
    <title>ui-design</title>
    <desc>Created with Sketch.</desc>
    <defs>
        <rect id="path-1" x="0" y="0" width="282" height="200" rx="10"></rect>
        <filter x="-12.4%" y="-12.5%" width="124.8%" height="135.0%" filterUnits="objectBoundingBox" id="filter-3">
            <feOffset dx="0" dy="10" in="SourceAlpha" result="shadowOffsetOuter1"></feOffset>
            <feGaussianBlur stdDeviation="10" in="shadowOffsetOuter1" result="shadowBlurOuter1"></feGaussianBlur>
            <feColorMatrix values="0 0 0 0 0   0 0 0 0 0   0 0 0 0 0  0 0 0 0.1 0" type="matrix" in="shadowBlurOuter1"></feColorMatrix>
        </filter>
    </defs>
    <g id="Landing" stroke="none" stroke-width="1" fill="none" fill-rule="evenodd">
        <g id="Services-Page" transform="translate(-358.000000, -401.000000)">
            <g id="ui-design" transform="translate(358.000000, 401.000000)">
                <g id="Group" transform="translate(28.000000, 34.000000)">
                    <mask id="mask-2" fill="white">
                        <use xlink:href="#path-1"></use>
                    </mask>
                    <g id="Mask">
                        <use fill="black" fill-opacity="1" filter="url(#filter-3)" xlink:href="#path-1"></use>
                        <use fill="#FFFFFF" fill-rule="evenodd" xlink:href="#path-1"></use>
                    </g>
                    <g id="experience_design" mask="url(#mask-2)" fill-rule="nonzero">
                        <g transform="translate(29.000000, 23.000000)">
                            <circle id="Oval" fill="#00ACC1" opacity="0.4" cx="151.5" cy="77.8472763" r="16.5"></circle>
                            <rect id="Rectangle" fill="#3F3D56" x="59" y="101.347276" width="93" height="25"></rect>
                            <path d="M146.515901,38.3918056 L142.796336,40.1003365 L146.088313,37.7113032 C145.553276,36.9007848 144.952217,36.1331542 144.290899,35.4157726 L128.159615,39.3071409 L142.73072,33.9125505 C142.064871,33.3423746 141.35775,32.819275 140.614797,32.3472763 L116.034497,36.1898537 C113.424692,39.3572368 112.00201,43.2916736 112,47.3472763 L149,47.3472763 C148.9985,44.2019608 148.141605,41.1127531 146.515901,38.3918056 L146.515901,38.3918056 Z" id="Path" fill="#F2F2F2"></path>
                            <path d="M149,11.2625151 C134.188493,4.05754811 117.921823,0.324112661 101.442507,0.347276265 C67.9029583,0.347276265 37.9168507,15.5153088 18,39.3472763 C52.1057188,31.8941935 111.486494,18.9924828 149,11.2625151 Z" id="Path" fill="#F2F2F2"></path>
                            <rect id="Rectangle" fill="#2F2E41" x="0" y="151.129199" width="222" height="1"></rect>
                            <path d="M129.535513,47.3472763 L117,28.3472763 C117,28.3472763 135.984053,35.1099873 133.829571,47.3472763 L129.535513,47.3472763 Z" id="Path" fill="#3F3D56"></path>
                            <path d="M130.464486,47.3472763 L143,28.3472763 C143,28.3472763 124.015945,35.1099873 126.17043,47.3472763 L130.464486,47.3472763 Z" id="Path" fill="#00ACC1"></path>
                            <path d="M152,152.347276 L59,152.347276 L59,12.3472763 L152,12.3472763 L152,152.347276 Z M59.4335664,151.909776 L151.566434,151.909776 L151.566434,12.7847763 L59.4335664,12.7847763 L59.4335664,151.909776 Z" id="Shape" fill="#2F2E41"></path>
                            <rect id="Rectangle" fill="#2F2E41" x="59" y="15.1291988" width="93" height="1"></rect>
                            <circle id="Oval" fill="#00ACC1" cx="61" cy="14.3472763" r="1"></circle>
                            <circle id="Oval" fill="#00ACC1" cx="64" cy="14.3472763" r="1"></circle>
                            <circle id="Oval" fill="#00ACC1" cx="66" cy="14.3472763" r="1"></circle>
                            <rect id="Rectangle" fill="#00ACC1" x="62" y="18.3472763" width="4" height="2"></rect>
                            <rect id="Rectangle" fill="#00ACC1" x="62" y="35.3472763" width="19" height="2"></rect>
                            <rect id="Rectangle" fill="#F2F2F2" transform="translate(140.500000, 19.347276) rotate(-180.000000) translate(-140.500000, -19.347276) " x="131" y="18.3472763" width="19" height="2"></rect>
                            <rect id="Rectangle" fill="#F2F2F2" x="62" y="39.3472763" width="32" height="1"></rect>
                            <rect id="Rectangle" fill="#F2F2F2" x="62" y="42.3472763" width="31" height="1"></rect>
                            <rect id="Rectangle" fill="#F2F2F2" x="62" y="45.3472763" width="22" height="1"></rect>
                            <rect id="Rectangle" fill="#F2F2F2" x="70" y="84.3472763" width="13" height="1"></rect>
                            <rect id="Rectangle" fill="#F2F2F2" x="70" y="87.3472763" width="12" height="1"></rect>
                            <rect id="Rectangle" fill="#F2F2F2" x="70" y="89.3472763" width="9" height="1"></rect>
                            <rect id="Rectangle" fill="#F2F2F2" x="99" y="84.3472763" width="13" height="1"></rect>
                            <rect id="Rectangle" fill="#F2F2F2" x="99" y="87.3472763" width="12" height="1"></rect>
                            <rect id="Rectangle" fill="#F2F2F2" x="99" y="89.3472763" width="9" height="1"></rect>
                            <rect id="Rectangle" fill="#F2F2F2" x="129" y="84.3472763" width="13" height="1"></rect>
                            <rect id="Rectangle" fill="#F2F2F2" x="130" y="87.3472763" width="12" height="1"></rect>
                            <rect id="Rectangle" fill="#F2F2F2" x="130" y="89.3472763" width="9" height="1"></rect>
                            <rect id="Rectangle" fill="#00ACC1" x="89" y="133.347276" width="19" height="2"></rect>
                            <rect id="Rectangle" fill="#F2F2F2" x="89" y="137.347276" width="32" height="1"></rect>
                            <rect id="Rectangle" fill="#F2F2F2" x="89" y="140.347276" width="31" height="1"></rect>
                            <rect id="Rectangle" fill="#F2F2F2" x="89" y="143.347276" width="22" height="1"></rect>
                            <rect id="Rectangle" fill="#00ACC1" opacity="0.3" x="68" y="59.1291988" width="76" height="1"></rect>
                            <rect id="Rectangle" fill="#00ACC1" opacity="0.3" x="68" y="67.3472763" width="16" height="14"></rect>
                            <rect id="Rectangle" fill="#3F3D56" x="97" y="67.3472763" width="16" height="14"></rect>
                            <rect id="Rectangle" fill="#3F3D56" x="128" y="67.3472763" width="16" height="14"></rect>
                            <path d="M103.17398,81.3472763 L103,81.3433061 C103.003742,81.1182231 103.112475,75.8134925 104.900098,74.3472763 L105,74.5136058 C103.284502,75.9206751 103.17483,81.2931884 103.17398,81.3472763 Z" id="Path" fill="#00ACC1"></path>
                            <circle id="Oval" fill="#00ACC1" cx="107" cy="72.3472763" r="1"></circle>
                            <path d="M106.652017,76.2237868 C106.117089,76.364803 105.547419,76.3854479 105,76.2836563 C105.710019,75.524952 106.884606,75.1868037 108,75.419995 C107.642279,75.782365 107.177449,76.0595393 106.652017,76.2237868 Z" id="Path" fill="#00ACC1"></path>
                            <path d="M134.17398,81.3472763 L134,81.3433061 C134.003742,81.1182231 134.112475,75.8134925 135.900098,74.3472763 L136,74.5136058 C134.284502,75.9206751 134.17483,81.2931884 134.17398,81.3472763 Z" id="Path" fill="#00ACC1"></path>
                            <circle id="Oval" fill="#00ACC1" cx="137" cy="72.3472763" r="1"></circle>
                            <path d="M136.652017,76.2237868 C136.117089,76.364803 135.547419,76.3854479 135,76.2836563 C135.710019,75.524952 136.884606,75.1868037 138,75.419995 C137.642279,75.782365 137.177449,76.0595393 136.652017,76.2237868 Z" id="Path" fill="#00ACC1"></path>
                            <rect id="Rectangle" fill="#00ACC1" x="62" y="109.347276" width="19" height="2"></rect>
                            <rect id="Rectangle" fill="#F2F2F2" x="62" y="112.347276" width="32" height="1"></rect>
                            <rect id="Rectangle" fill="#F2F2F2" x="62" y="115.347276" width="31" height="1"></rect>
                            <rect id="Rectangle" fill="#F2F2F2" x="62" y="118.347276" width="22" height="1"></rect>
                            <circle id="Oval" fill="#00ACC1" opacity="0.4" cx="133" cy="111.347276" r="7"></circle>
                            <circle id="Oval" fill="#00ACC1" opacity="0.4" cx="121" cy="115.347276" r="5"></circle>
                            <circle id="Oval" fill="#2F2E41" cx="36" cy="127.347276" r="17"></circle>
                            <rect id="Rectangle" fill="#2F2E41" x="29" y="140.347276" width="5" height="9"></rect>
                            <rect id="Rectangle" fill="#2F2E41" x="39" y="140.347276" width="5" height="9"></rect>
                            <ellipse id="Oval" fill="#2F2E41" cx="33.5" cy="149.847276" rx="4.5" ry="1.5"></ellipse>
                            <ellipse id="Oval" fill="#2F2E41" cx="43.5" cy="149.847276" rx="4.5" ry="1.5"></ellipse>
                            <circle id="Oval" fill="#FFFFFF" cx="37" cy="122.347276" r="6"></circle>
                            <circle id="Oval" fill="#3F3D56" cx="37" cy="120.347276" r="2"></circle>
                            <path d="M20.2506217,110.890284 C18.8817953,104.598804 23.2573816,98.2415277 30.0237689,96.690911 C36.7901562,95.1402942 43.3850456,98.9835206 44.7538742,105.275005 C46.1227028,111.56649 41.6383702,113.88689 34.8719851,115.437507 C28.1056,116.988124 21.6194482,117.181762 20.2506217,110.890284 Z" id="Path" fill="#00ACC1"></path>
                            <ellipse id="Oval" fill="#2F2E41" transform="translate(49.523259, 107.945369) rotate(-65.076830) translate(-49.523259, -107.945369) " cx="49.5232595" cy="107.945369" rx="8.61280719" ry="2.70239911"></ellipse>
                            <ellipse id="Oval" fill="#2F2E41" transform="translate(17.927929, 113.179220) rotate(-27.893290) translate(-17.927929, -113.179220) " cx="17.927929" cy="113.17922" rx="2.70249079" ry="8.61251589"></ellipse>
                            <ellipse id="Oval" fill="#2F2E41" transform="translate(178.677716, 114.196742) rotate(-21.078320) translate(-178.677716, -114.196742) " cx="178.677716" cy="114.196742" rx="2.70229194" ry="8.61314756"></ellipse>
                            <circle id="Oval" fill="#2F2E41" cx="195" cy="127.347276" r="17"></circle>
                            <polygon id="Rectangle" fill="#2F2E41" transform="translate(199.904784, 145.355668) rotate(179.839572) translate(-199.904784, -145.355668) " points="197.289999 140.66699 202.519591 140.666978 202.51957 150.044346 197.289977 150.044358"></polygon>
                            <polygon id="Rectangle" fill="#2F2E41" transform="translate(189.446359, 145.385881) rotate(179.839510) translate(-189.446359, -145.385881) " points="186.831583 140.697222 192.061155 140.69721 192.061134 150.074541 186.831562 150.074553"></polygon>
                            <ellipse id="Oval" fill="#2F2E41" transform="translate(198.175734, 150.159098) rotate(-0.160490) translate(-198.175734, -150.159098) " cx="198.175734" cy="150.159098" rx="4.35797668" ry="1.63558105"></ellipse>
                            <ellipse id="Oval" fill="#2F2E41" transform="translate(187.716018, 149.970343) rotate(-0.160490) translate(-187.716018, -149.970343) " cx="187.716018" cy="149.970343" rx="4.35797668" ry="1.63558105"></ellipse>
                            <circle id="Oval" fill="#FFFFFF" cx="194" cy="122.347276" r="6"></circle>
                            <circle id="Oval" fill="#3F3D56" cx="194" cy="122.347276" r="2"></circle>
                            <path d="M210.75572,110.863674 C212.107198,104.563879 207.714834,98.2147658 200.945096,96.6825349 C194.175358,95.1503041 187.591813,99.0151798 186.240333,105.314975 C184.888852,111.61477 189.378932,113.923897 196.14867,115.456124 C202.918407,116.98835 209.404239,117.163471 210.75572,110.863674 Z" id="Path" fill="#00ACC1"></path>
                            <ellipse id="Oval" fill="#2F2E41" transform="translate(213.991224, 119.113536) rotate(-25.534750) translate(-213.991224, -119.113536) " cx="213.991224" cy="119.113536" rx="8.60831504" ry="2.70380938"></ellipse>
                            <path d="M203,133.365083 C203.004593,135.03144 198.788918,138.333914 194.100967,138.347276 C189.413017,138.360582 185.004596,133.681792 185,132.015435 C184.995411,130.349078 189.396376,132.326207 194.084326,132.312866 C198.772276,132.299526 202.995402,131.698736 203,133.365083 Z" id="Path" fill="#FFFFFF"></path>
                            <circle id="Oval" fill="#00ACC1" opacity="0.4" cx="200" cy="102.347276" r="24"></circle>
                            <circle id="Oval" fill="#2F2E41" cx="41" cy="76.3472763" r="17"></circle>
                            <polygon id="Rectangle" fill="#2F2E41" transform="translate(33.102000, 93.005580) rotate(10.261060) translate(-33.102000, -93.005580) " points="30.4864732 88.3166609 35.7161812 88.3174124 35.7175277 97.6945001 30.4878197 97.6937486"></polygon>
                            <polygon id="Rectangle" fill="#2F2E41" transform="translate(43.393865, 94.870233) rotate(10.261060) translate(-43.393865, -94.870233) " points="40.7783379 90.1813132 46.0080459 90.1820647 46.0093924 99.5591524 40.7796844 99.5584009"></polygon>
                            <ellipse id="Oval" fill="#2F2E41" transform="translate(43.456739, 100.643796) rotate(-49.738940) translate(-43.456739, -100.643796) " cx="43.4567385" cy="100.643796" rx="1.63502244" ry="4.35946891"></ellipse>
                            <ellipse id="Oval" fill="#2F2E41" transform="translate(33.379291, 98.817990) rotate(-49.738940) translate(-33.379291, -98.817990) " cx="33.3792909" cy="98.8179903" rx="1.63502244" ry="4.35946891"></ellipse>
                            <circle id="Oval" fill="#FFFFFF" cx="43" cy="71.3472763" r="6"></circle>
                            <circle id="Oval" fill="#3F3D56" cx="45" cy="69.3472763" r="2"></circle>
                            <path d="M28.0086175,57.3000162 C27.7547473,50.9881498 33.141293,45.6419685 40.0398149,45.3589715 C46.9383368,45.0759745 52.7365047,49.9633299 52.9903791,56.2751963 C53.2442535,62.5870627 48.4489027,64.0211666 41.5503786,64.3041636 C34.6518546,64.5871606 28.2624877,63.6118783 28.0086175,57.3000162 Z" id="Path" fill="#00ACC1"></path>
                            <ellipse id="Oval" fill="#2F2E41" transform="translate(57.383743, 72.880997) rotate(-12.910100) translate(-57.383743, -72.880997) " cx="57.3837435" cy="72.8809973" rx="8.60735613" ry="2.70410944"></ellipse>
                            <ellipse id="Oval" fill="#2F2E41" transform="translate(23.593294, 78.504906) rotate(-12.910100) translate(-23.593294, -78.504906) " cx="23.593294" cy="78.5049058" rx="8.60735613" ry="2.70410944"></ellipse>
                            <path d="M37.0647121,82.4945904 C36.6709017,84.7327188 38.1151661,86.8755322 40.2905669,87.2806981 C42.4659677,87.6858641 44.5487249,86.1999545 44.9425354,83.9618261 C45.3363461,81.723698 43.654396,80.931715 41.4789954,80.5265487 C39.3035948,80.1213824 37.4585229,80.2564622 37.0647121,82.4945904 Z" id="Path" fill="#FFFFFF"></path>
                            <polygon id="Rectangle" fill="#3F3D56" transform="translate(72.233465, 66.601280) rotate(16.688760) translate(-72.233465, -66.601280) " points="64.1690419 59.4033912 80.2946457 59.4070276 80.297889 73.7991686 64.1722852 73.7955322"></polygon>
                            <path d="M68.1843598,72.3472763 L68,72.2863837 C68.0655522,72.076448 69.632508,67.1354493 71.9390108,66.3472763 L72,66.5361485 C69.7865526,67.2925305 68.2000637,72.2968115 68.1843598,72.3472763 Z" id="Path" fill="#00ACC1"></path>
                            <circle id="Oval" fill="#00ACC1" cx="74" cy="65.3472763" r="1"></circle>
                            <path d="M72.5173636,69.3469853 C71.9866417,69.354786 71.4634041,69.205634 71,68.9144519 C71.8895545,68.2093338 73.0641414,68.1575519 74,68.7821964 C73.558264,69.1132824 73.0470014,69.3080404 72.5173636,69.3469853 L72.5173636,69.3469853 Z" id="Path" fill="#00ACC1"></path>
                        </g>
                    </g>
                </g>
                <g id="marvel-6" transform="translate(121.000000, 219.000000)" fill-rule="nonzero">
                    <polygon id="Path" fill="#1FB6FF" points="0.0084420376 0.0084420376 74.9737359 0.0084420376 74.9737359 29.9251473 0.0084420376 29.9251473"></polygon>
                    <path d="M55.9580462,18.2498093 C36.8755237,16.8134904 21.1053285,21.2983228 17.5585002,22.9691428 C15.5945539,23.8485217 15.4479908,24.9624017 15.7411171,25.5779669 C16.0049308,26.046969 16.942935,26.3400953 17.968877,25.812468 C25.5315357,21.7966376 40.8620415,18.6015608 55.9580462,19.5102524 C56.3097978,19.5102524 56.6029241,19.2171261 56.6029241,18.8653745 C56.6029241,18.5429356 56.3097978,18.2498093 55.9580462,18.2498093 L55.9580462,18.2498093 Z M60.6773797,12.6217842 C59.8859387,13.5011631 58.7134335,14.1753536 58.3323693,13.8529147 C57.9806177,13.5304758 58.3323693,12.4752211 58.3323693,12.4752211 C60.2083776,11.2734032 63.8431438,8.22488963 63.8431438,5.87987919 C63.8431438,3.71074453 61.8791976,3.03655402 59.7980008,5.05912553 C58.1271809,6.84719599 56.8960504,9.01633065 56.2511725,11.3906537 C55.1666052,12.4459084 53.4664726,13.7942894 51.9129032,13.7942894 C51.1214622,13.7942894 50.8869611,13.2373495 51.0042116,12.4752211 C52.32328,12.4459084 55.9580462,11.449279 55.9580462,8.43007804 C55.9580462,7.93176332 55.7235452,7.46276123 55.3717936,7.11100967 C54.9907294,6.7592581 54.4924147,6.61269495 53.9941,6.64200758 C52.3525926,6.64200758 50.2420832,8.31282752 49.2161412,10.657838 C48.9230149,10.5992127 48.6592012,10.5112748 48.3953875,10.3940243 C48.6592012,9.80777168 48.8937022,9.22151907 49.0402654,8.60595383 C49.2747664,7.37482334 48.7471391,6.61269495 47.721197,6.70063284 C47.0763191,6.7592581 46.2848781,7.31619808 46.138315,8.60595383 C46.0796897,9.2508317 46.1969402,9.9250222 46.4900665,10.5112748 C46.0503771,11.8889684 44.2036814,13.6184136 43.5881161,13.5597884 C42.9725509,13.5011631 43.676054,11.0389022 44.2916192,9.22151907 C44.6433708,8.8697675 44.9071845,8.45939067 45.0830603,7.99038858 C45.2589361,7.63863702 45.1416855,7.19894756 44.789934,6.99375915 C43.8519298,6.64200758 42.7966751,7.08169704 42.3862983,7.99038858 C42.1224846,8.43007804 41.9172962,8.89908013 41.7414204,9.36808222 C41.2431057,9.98364746 40.422352,10.7457759 40.187851,10.6871506 C39.8360994,10.4526495 40.979292,8.95770539 40.8327288,8.13695174 C40.7154783,7.4334486 40.0999131,6.96444652 39.3964099,7.02307178 C38.3704679,7.16963493 36.9927742,9.10426854 36.9927742,9.10426854 C37.1393374,8.75251698 37.2565879,8.37145278 37.2859005,7.99038858 C37.2272753,7.25757282 35.8495817,6.93513388 35.1753911,8.25420226 C34.7063891,9.51464537 34.3546375,10.8337137 34.1494491,12.1820948 C33.8563228,12.79766 32.7131302,14.5857305 31.8044386,14.6443557 C31.0716229,14.702981 31.9803144,11.4785916 32.0975649,11.3027158 C32.5079418,10.6871506 33.0062565,9.39739485 32.889006,8.84045487 C32.889006,8.57664119 32.7717554,8.31282752 32.566567,8.13695174 C32.3613786,7.96107595 32.0682523,7.93176332 31.8044386,7.99038858 C31.3354365,8.10763911 30.9543724,8.40076541 30.7198713,8.81114224 C30.3974324,8.40076541 29.869805,8.22488963 29.3421777,8.31282752 C26.3229767,8.63526646 24.3883431,13.8236021 24.5935315,16.2565504 C24.7694073,17.5756188 25.3849725,18.3670598 26.5574778,18.2204966 C27.8765461,18.0446209 28.9611135,16.1686125 28.9611135,16.1686125 C28.9611135,16.1686125 29.2542398,17.7221819 30.661246,17.5463061 C31.7165007,17.2238672 32.6545049,16.5789893 33.3286954,15.6996104 C33.2993828,15.7875483 33.2700702,15.8754862 33.2700702,15.9634241 C33.0355691,17.2824925 35.2340164,17.1359293 35.4392048,16.1392999 C36.0840827,11.1854653 37.7842153,9.13358117 38.28253,9.13358117 C38.6929068,9.13358117 37.1979627,11.4785916 38.0480289,12.3579705 C38.6929068,13.1494116 39.865412,12.5338463 40.8327288,11.7130927 C40.6568531,12.3286579 40.5689152,12.9735358 40.5396025,13.6184136 C40.4809773,14.9961073 40.979292,16.1099872 42.3569856,16.0806746 C44.1743687,16.0220494 46.1090023,13.7942894 47.3694455,11.68378 C47.6918844,11.8889684 48.0729486,12.0355316 48.4540128,12.1234695 C48.3367623,12.6217842 48.278137,13.1200989 48.3074496,13.6477263 C48.4247002,15.259921 49.5678927,15.8754862 50.8869611,15.8168609 C52.4405305,15.7582357 54.2579136,14.5857305 55.4890441,13.5304758 C55.4890441,13.589101 55.4597315,13.6477263 55.4304189,13.7063515 C55.3131683,14.4977926 55.4890441,15.9341115 56.6322367,15.9927367 C57.9513051,16.1099872 60.2083776,14.7616062 61.3515702,13.3839126 C62.318887,12.7683474 61.3808828,11.8889684 60.6773797,12.6217842 L60.6773797,12.6217842 Z M61.9085102,5.90919182 C62.0550734,5.90919182 62.1430112,6.05575497 62.1430112,6.17300549 C62.1430112,7.55069913 58.5961829,10.5112748 58.5961829,10.5112748 C58.5961829,10.5112748 60.9118808,5.90919182 61.9085102,5.90919182 L61.9085102,5.90919182 Z M53.3785347,8.81114224 C53.4957852,8.81114224 53.6130358,8.84045487 53.7009736,8.92839276 C53.7889115,9.01633065 53.8182242,9.13358117 53.7889115,9.2508317 C53.7889115,10.0422727 52.7043442,10.6285253 51.5025264,10.6285253 C52.1474042,9.71983379 52.88022,8.81114224 53.3785347,8.81114224 Z M29.7818671,10.9802769 C29.6646166,11.8010306 28.1989851,15.5530473 27.3782314,15.5530473 C26.3522894,15.6116725 27.8765461,10.2767738 29.5473661,10.3060864 C29.869805,10.3060864 29.869805,10.5405874 29.7818671,10.9802769 L29.7818671,10.9802769 Z M16.942935,11.9769063 C17.9102518,11.9769063 16.1514939,16.9307409 16.385995,19.0998756 C16.620496,21.2690102 19.0534444,20.653445 18.8775686,19.3636892 C18.5844423,17.2531798 20.0793864,10.5112748 21.5450179,10.5112748 C22.6295853,10.5112748 20.3432001,15.1426704 20.8122022,18.0153082 C21.1053285,19.9206292 23.7141526,19.3343766 23.4210263,18.1325588 C22.6295853,14.3512294 25.2970347,10.6871506 24.9452831,8.01970121 C24.7694073,6.90582125 24.1538421,6.29025601 23.3917137,6.29025601 C20.9294527,6.29025601 18.9361938,11.1854653 18.9361938,11.1854653 C18.9361938,11.1854653 19.1706949,8.40076541 17.177436,8.28351489 C14.3047982,8.13695174 11.3442225,15.259921 11.4028478,21.7086997 C11.461473,23.7605838 14.0702972,23.4381449 13.8944214,21.7673249 C13.7478582,18.8946871 15.4479908,11.9769063 16.942935,11.9769063 L16.942935,11.9769063 Z" id="Shape" fill="#FFFFFF"></path>
                </g>
                <g id="adobe-xd-1" transform="translate(279.000000, 100.000000)" fill-rule="nonzero">
                    <path d="M41.146,48.75 L8.854,48.75 C3.958,48.75 0,44.792 0,39.896 L0,8.854 C0,3.958 3.958,0 8.854,0 L41.146,0 C46.042,0 50,3.958 50,8.854 L50,39.896 C50,44.792 46.042,48.75 41.146,48.75 Z" id="Path" fill="#FF26BE"></path>
                    <path d="M40.354,46.666 L9.646,46.666 C5.48,46.666 2.084,43.27 2.084,39.104 L2.084,9.646 C2.084,5.48 5.48,2.084 9.646,2.084 L40.334,2.084 C44.522,2.084 47.8960879,5.48 47.8960879,9.646 L47.8960879,39.084 C47.916,43.27 44.52,46.666 40.354,46.666 L40.354,46.666 Z" id="Path" fill="#2E001F"></path>
                    <path d="M19.77,22.812 L25.604,34.02 C25.708,34.186 25.646,34.354 25.478,34.354 L21.852,34.354 C21.622,34.354 21.518,34.292 21.414,34.084 C20.08,31.334 18.726,28.584 17.33,25.626 L17.288,25.626 C16.038,28.418 14.662,31.356 13.33,34.106 C13.226,34.272 13.122,34.336 12.954,34.336 L9.52,34.336 C9.312,34.336 9.29,34.17 9.396,34.044 L15.104,23.168 L9.584,12.168 C9.458,12.002 9.584,11.876 9.708,11.876 L13.292,11.876 C13.5,11.876 13.584,11.918 13.666,12.106 C14.978,14.856 16.312,17.69 17.562,20.46 L17.604,20.46 C18.812,17.71 20.146,14.856 21.438,12.126 C21.542,11.96 21.604,11.856 21.814,11.856 L25.168,11.856 C25.334,11.856 25.398,11.982 25.294,12.148 L19.77,22.812 Z M26.6259991,26.208 C26.6259991,21.354 29.856,17.562 34.98,17.562 C35.418,17.562 35.646,17.562 36.064,17.604 L36.064,12.084 C36.064,11.958 36.168,11.876 36.272,11.876 L39.564,11.876 C39.73,11.876 39.772,11.938 39.772,12.042 L39.772,31.168 C39.772,31.73 39.772,32.438 39.876,33.21 C39.876,33.336 39.834,33.376 39.71,33.44 C37.96,34.274 36.1259991,34.6480865 34.376,34.6480865 C29.854,34.666 26.624,31.876 26.6259991,26.208 L26.6259991,26.208 Z M36.062,20.876 C35.77,20.75 35.354,20.668 34.854,20.668 C32.228,20.668 30.396,22.688 30.396,26.044 C30.396,29.878 32.272,31.42 34.626,31.42 C35.126,31.42 35.668,31.358 36.064,31.19 L36.064,20.876 L36.062,20.876 Z" id="Shape" fill="#FFD9F2"></path>
                </g>
                <g id="sketch-2" transform="translate(240.000000, 4.000000)" fill-rule="nonzero">
                    <g id="a-link" transform="translate(0.000000, 16.840786)" fill="#EA6C00">
                        <polygon id="a" points="10.125651 0 24.9984122 28.5589665 0 0"></polygon>
                    </g>
                    <g id="b-link" transform="translate(37.500000, 31.126501) scale(-1, 1) translate(-37.500000, -31.126501) translate(25.000000, 16.840786)" fill="#EA6C00">
                        <polygon id="b" points="10.125651 0 24.9984122 28.5589665 0 0"></polygon>
                    </g>
                    <g id="c-link" transform="translate(9.821429, 16.840786)" fill="#FDAD00">
                        <polygon id="c" points="0 0 29.4632372 0 14.7316186 28.5589665"></polygon>
                    </g>
                    <g id="d-link" transform="translate(9.821429, 0.769358)" fill="#FDD231">
                        <polygon id="d" points="15.1677759 0 0.798332402 1.48210657 0 16.0540478"></polygon>
                    </g>
                    <g id="e-link" transform="translate(32.589286, 8.805072) scale(-1, 1) translate(-32.589286, -8.805072) translate(25.000000, 0.769358)" fill="#FDD231">
                        <polygon id="e" points="15.1677759 0 0.798332402 1.48210657 0 16.0540478"></polygon>
                    </g>
                    <g id="f-link" transform="translate(44.642857, 9.697929) scale(-1, 1) translate(-44.642857, -9.697929) translate(39.285714, 2.555072)" fill="#FDAD00">
                        <polygon id="f" points="0 14.267665 10.7018236 0 9.93384705 14.267665"></polygon>
                    </g>
                    <g id="g-link" transform="translate(0.000000, 2.555072)" fill="#FDAD00">
                        <polygon id="g" points="0 14.267665 10.7018236 0 9.93384705 14.267665"></polygon>
                    </g>
                    <g id="h-link" transform="translate(9.821429, 0.769358)" fill="#FEEEB7">
                        <polygon id="h" points="14.7316186 0 0 16.0540478 29.4632372 16.0540478"></polygon>
                    </g>
                </g>
                <g id="Group" transform="translate(37.000000, 0.000000)">
                    <rect id="Rectangle" fill="#2D2E36" x="0" y="0" width="50" height="50" rx="10"></rect>
                    <g id="figma-1" transform="translate(11.111111, 4.166667)" fill-rule="nonzero">
                        <path d="M6.94444444,41.6583367 C10.7777778,41.6583367 13.8888889,38.5478475 13.8888889,34.7152806 L13.8888889,27.7722244 L6.94444444,27.7722244 C3.11111111,27.7722244 0,30.8827136 0,34.7152806 C0,38.5478475 3.11111111,41.6583367 6.94444444,41.6583367 Z" id="path0_fill" fill="#0ACF83"></path>
                        <path d="M0,20.8291683 C0,16.9966014 3.11111111,13.8861122 6.94444444,13.8861122 L13.8888889,13.8861122 L13.8888889,27.7722244 L6.94444444,27.7722244 C3.11111111,27.7722244 0,24.6617353 0,20.8291683 Z" id="path1_fill" fill="#A259FF"></path>
                        <path d="M0,6.94305611 C0,3.11048914 3.11111111,0 6.94444444,0 L13.8888889,0 L13.8888889,13.8861122 L6.94444444,13.8861122 C3.11111111,13.8861122 0,10.7756231 0,6.94305611 Z" id="path1_fill_1_" fill="#F24E1E"></path>
                        <path d="M13.8888889,0 L20.8333333,0 C24.6666667,0 27.7777778,3.11048914 27.7777778,6.94305611 C27.7777778,10.7756231 24.6666667,13.8861122 20.8333333,13.8861122 L13.8888889,13.8861122 L13.8888889,0 Z" id="path2_fill" fill="#FF7262"></path>
                        <path d="M27.7777778,20.8291683 C27.7777778,24.6617353 24.6666667,27.7722244 20.8333333,27.7722244 C17,27.7722244 13.8888889,24.6617353 13.8888889,20.8291683 C13.8888889,16.9966014 17,13.8861122 20.8333333,13.8861122 C24.6666667,13.8861122 27.7777778,16.9966014 27.7777778,20.8291683 Z" id="path3_fill" fill="#1ABCFE"></path>
                    </g>
                </g>
                <g id="invision" transform="translate(0.000000, 144.000000)" fill-rule="nonzero">
                    <path d="M45.4673828,0 L4.53261719,0 C2.02929688,0 0,2.02929688 0,4.53261719 L0,45.4673828 C0,47.9707031 2.02929688,50 4.53261719,50 L45.4673828,50 C47.9707031,50 50,47.9707031 50,45.4673828 L50,4.53261719 C50,2.02929688 47.9707031,0 45.4673828,0" id="Path" fill="#DC395F"></path>
                    <path d="M16.7099609,15.7314453 C18.3720703,15.7314453 19.7644531,14.4287109 19.7644531,12.7212891 C19.7644531,11.0150391 18.3720703,9.7125 16.7099609,9.7125 C15.0478516,9.7125 13.6558594,11.0150391 13.6558594,12.7212891 C13.6558594,14.4285156 15.0478516,15.7314453 16.7099609,15.7314453 M10.3767578,31.8486328 C10.1972656,32.6123047 10.1072266,33.4369141 10.1072266,34.1095703 C10.1072266,36.7601562 11.5445313,38.5197266 14.5990234,38.5197266 C17.1322266,38.5197266 19.1859375,37.0154297 20.6646484,34.5863281 L19.7617188,38.2099609 L24.7919922,38.2099609 L27.6669922,26.6789063 C28.3857422,23.759375 29.778125,22.2439453 31.8894531,22.2439453 C33.5513672,22.2439453 34.584375,23.2775391 34.584375,24.9837891 C34.584375,25.478125 34.5394531,26.0166016 34.3597656,26.6007813 L32.8773438,31.9009766 C32.6527344,32.6646484 32.5632813,33.4287109 32.5632813,34.146875 C32.5632813,36.6630859 34.0451172,38.5035156 37.1445312,38.5035156 C39.7947266,38.5035156 41.9056641,36.7974609 43.0736328,32.7097656 L41.0974609,31.946875 C40.1091797,34.6853516 39.2556641,35.1804688 38.5818359,35.1804688 C37.9080078,35.1804688 37.5486328,34.7316406 37.5486328,33.8337891 C37.5486328,33.4294922 37.6388672,32.9808594 37.7732422,32.440625 L39.2109375,27.2769531 C39.5701172,26.0644531 39.7050781,24.9892578 39.7050781,24.0013672 C39.7050781,20.1384766 37.3691406,18.1224609 34.5394531,18.1224609 C31.8894531,18.1224609 29.1941406,20.5128906 27.846875,23.0287109 L28.8347656,18.5130859 L21.1542969,18.5130859 L20.0761719,22.4904297 L23.6697266,22.4904297 L21.4568359,31.3498047 C19.7191406,35.2126953 16.5271484,35.2753906 16.1265625,35.1857422 C15.46875,35.0373047 15.0480469,34.7875 15.0480469,33.9328125 C15.0480469,33.4396484 15.1378906,32.73125 15.3625,31.8771484 L18.7316406,18.5130859 L10.1972656,18.5130859 L9.11914062,22.4904297 L12.6673828,22.4904297 L10.3769531,31.8486328" id="Shape" fill="#FFFFFF"></path>
                </g>
            </g>
        </g>
    </g>
</svg>