<svg width="28" height="33" xmlns="http://www.w3.org/2000/svg"><g fill-rule="nonzero" fill="none"><path d="M16.838 29.607c-.133-.143-.323-.143-.457 0l-.381.407 1.39 1.486.61-.651-1.162-1.242zM8.536 31.5l1.455-1.201V18.126a.464.464 0 000-.179V4.772A4.217 4.217 0 008.455 1.5H7a4.217 4.217 0 011.536 3.272v13.175c.012.06.012.12 0 .18V31.5zM11.838 29.607c-.134-.143-.324-.143-.457 0l-.381.407 1.39 1.486.61-.651-1.162-1.242zM26.818 30.567a.407.407 0 00-.446 0L26 30.82l1 .68v-.81l-.182-.123zM22.838 29.607c-.133-.143-.323-.143-.457 0l-.381.407 1.39 1.486.61-.651-1.162-1.242zM2.493 5.67C2.496 4.2 3.533 2.924 5 2.585a3.317 3.317 0 00-2.767.599A3.138 3.138 0 001 5.67V17.5l1.395-1.18a.45.45 0 01.098-.06V5.67z" fill="#D4E1F4"/><path d="M8.232 16.504l-.468.454.472.542v-1l-.004.004zM4.212 16.584a.796.796 0 00-.673-.018L3 16.824l1.163.676.837-.458-.788-.458z" fill="#D4E1F4"/><path d="M.263 18.121c.16.073.348.046.481-.069l1.82-1.568 1.473 1.539a.453.453 0 00.642.01l1.536-1.51 1.215 1.413v14.117c0 .172.099.328.255.403.155.074.34.053.475-.054l2.179-1.73 2.178 1.73c.164.13.398.13.562 0l2.178-1.73 2.178 1.73c.164.13.398.13.562 0l2.178-1.73 2.178 1.73c.164.13.398.13.562 0l2.178-1.73 2.177 1.73a.452.452 0 00.73-.349V3.923C27.998 2.033 26.456.502 24.553.5H4.165C1.865.503.003 2.353 0 4.635v13.08c0 .175.103.334.263.406zm24.29-16.728a2.542 2.542 0 012.548 2.53v27.201l-1.728-1.373a.452.452 0 00-.562 0l-2.178 1.73-2.178-1.73a.452.452 0 00-.562 0l-2.178 1.73-2.177-1.73a.452.452 0 00-.562 0l-2.178 1.73-2.179-1.73a.452.452 0 00-.562 0l-1.729 1.374V17.87a.443.443 0 000-.178V4.635a4.12 4.12 0 00-1.582-3.242h17.807zM.899 4.635c0-1.79 1.462-3.242 3.266-3.242 1.803 0 3.265 1.452 3.265 3.242v11.926l-.845-.983a.45.45 0 00-.658-.028l-1.554 1.528L2.92 15.56a.452.452 0 00-.62-.03L.9 16.737V4.635z" fill="#415467"/><g fill="#00AABE"><path d="M10.45 16.753h.17c.24 0 .435-.198.435-.442a.439.439 0 00-.435-.443h-.17a.438.438 0 00-.435.443c0 .244.195.442.435.442zM12.317 16.753H13.6c.24 0 .435-.198.435-.442a.438.438 0 00-.435-.443h-1.284a.438.438 0 00-.435.443c0 .244.195.442.435.442zM15.326 16.753h9.209c.24 0 .435-.198.435-.442a.439.439 0 00-.435-.443h-9.21a.439.439 0 00-.434.443c0 .244.195.442.435.442zM10.45 13.068h.17c.24 0 .435-.198.435-.442a.439.439 0 00-.435-.442h-.17a.438.438 0 00-.435.442c0 .244.195.442.435.442zM12.317 13.068H13.6c.24 0 .435-.198.435-.442a.438.438 0 00-.435-.442h-1.284a.438.438 0 00-.435.442c0 .244.195.442.435.442zM15.326 13.068h9.209c.24 0 .435-.198.435-.442a.439.439 0 00-.435-.442h-9.21a.439.439 0 00-.434.442c0 .244.195.442.435.442zM10.45 9.384h.17c.24 0 .435-.198.435-.442a.439.439 0 00-.435-.442h-.17a.438.438 0 00-.435.442c0 .244.195.442.435.442zM12.317 9.384H13.6c.24 0 .435-.198.435-.442a.438.438 0 00-.435-.442h-1.284a.438.438 0 00-.435.442c0 .244.195.442.435.442zM15.326 9.384h9.209c.24 0 .435-.198.435-.442a.439.439 0 00-.435-.442h-9.21a.439.439 0 00-.434.442c0 .244.195.442.435.442zM10.45 20.437h.17c.24 0 .435-.198.435-.442a.439.439 0 00-.435-.442h-.17a.438.438 0 00-.435.442c0 .244.195.442.435.442zM12.317 20.437H13.6c.24 0 .435-.198.435-.442a.438.438 0 00-.435-.442h-1.284a.438.438 0 00-.435.442c0 .244.195.442.435.442zM15.326 20.437h9.209c.24 0 .435-.198.435-.442a.439.439 0 00-.435-.442h-9.21a.439.439 0 00-.434.442c0 .244.195.442.435.442zM11.966 28.78a1.541 1.541 0 001.066-1.699 1.523 1.523 0 00-1.501-1.316.65.65 0 01-.646-.656c0-.363.288-.657.645-.657.357 0 .646.294.646.656 0 .245.194.442.434.442s.435-.197.435-.442c0-.68-.44-1.279-1.08-1.475v-.227a.438.438 0 00-.434-.442.438.438 0 00-.435.442v.227a1.541 1.541 0 00-1.066 1.7c.109.757.748 1.317 1.5 1.316a.65.65 0 01.65.652.651.651 0 01-.642.66h-.015a.652.652 0 01-.638-.655.438.438 0 00-.435-.442.438.438 0 00-.434.442 1.54 1.54 0 001.08 1.475v.277c0 .244.194.442.435.442.24 0 .435-.198.435-.442v-.277zM24.535 26.973h-.828a.439.439 0 00-.435.443c0 .244.195.442.435.442h.828c.24 0 .435-.198.435-.442a.439.439 0 00-.435-.443zM19.77 26.973a.438.438 0 00-.434.443c0 .244.194.442.434.442h2.379c.24 0 .435-.198.435-.442a.439.439 0 00-.435-.443H19.77zM15.006 27.858h3.224c.24 0 .435-.198.435-.442a.439.439 0 00-.435-.443h-3.224a.439.439 0 00-.435.443c0 .244.195.442.435.442z"/></g></g></svg>
