<svg width="28" height="32" xmlns="http://www.w3.org/2000/svg"><g fill-rule="nonzero" fill="none"><path d="M6.5 1H4.278C3.296 1.002 2.5 2.067 2.5 3.382V4h2.222v-.618C4.723 2.067 5.52 1.002 6.5 1zM4.722 29.185V27H2.5v2.185c.001 1.002.796 1.814 1.778 1.815H6.5c-.981-.001-1.777-.813-1.778-1.815zM2.5 4h3v21h-3z" fill="#D4E1F4"/><path d="M27.5 22.548V9.452C27.5 8.65 26.893 8 26.146 8H13.5v.968h12.646c.249 0 .45.217.451.484v2.054h-.78c-.248 0-.45.216-.45.484 0 .267.202.484.45.484h.78v10.074c0 .267-.202.484-.451.484H13.5V24h12.646c.747 0 1.353-.65 1.354-1.452z" fill="#00ACC1"/><path d="M15.733 0H3.267C1.739.002.502 1.252.5 2.796v26.408C.502 30.748 1.74 31.998 3.267 32h12.466c1.528-.002 2.765-1.253 2.767-2.796v-6.312a.464.464 0 00-.461-.466.464.464 0 00-.461.466v3.136H1.422V4.21h16.156v4.177c0 .258.206.466.46.466a.464.464 0 00.462-.466V2.796C18.498 1.253 17.26.002 15.733 0zm1.845 26.96v2.244a1.856 1.856 0 01-1.845 1.864H3.267a1.856 1.856 0 01-1.845-1.864V26.96h16.156zM1.422 3.28v-.484A1.856 1.856 0 013.267.932h12.466a1.856 1.856 0 011.845 1.864v.483H1.422z" fill="#415467"/><path d="M7.952 29h3.096c.25 0 .452-.224.452-.5s-.202-.5-.452-.5H7.952c-.25 0-.452.224-.452.5s.202.5.452.5z" fill="#415467"/><g fill="#00ACC1"><path d="M20.139 20.948c.332 0 .66-.068.964-.2a2.418 2.418 0 002.84-.69 2.267 2.267 0 000-2.849 2.418 2.418 0 00-2.84-.69 2.424 2.424 0 00-2.616.451 2.271 2.271 0 00-.552 2.532 2.377 2.377 0 002.204 1.446zm.447-2.314c0-.42.189-.82.517-1.093.329.273.518.672.518 1.093 0 .42-.19.82-.518 1.094a1.425 1.425 0 01-.517-1.094zm2.964 0c0 .797-.664 1.442-1.482 1.443-.024 0-.047-.002-.07-.003a2.26 2.26 0 000-2.88c.023-.001.046-.003.07-.003.818 0 1.481.646 1.482 1.443zM20.14 17.19l.07.003a2.26 2.26 0 000 2.88l-.07.003c-.815-.005-1.472-.65-1.472-1.443s.657-1.438 1.472-1.443zM23.919 12.93a.441.441 0 00.447-.435c0-.24-.2-.435-.447-.435H19.93a.441.441 0 00-.447.435c0 .24.2.436.447.436h3.988zM18.79 12.93a.442.442 0 00.447-.435c0-.24-.2-.435-.448-.435h-.293a.441.441 0 00-.447.435c0 .24.2.436.447.436h.293zM17.328 12.93a.442.442 0 00.448-.435c0-.24-.2-.435-.448-.435H13.02a.441.441 0 00-.447.435c0 .24.2.436.447.436h4.308z"/></g><path d="M14.5 7.654V6.478c0-.264-.26-.478-.58-.478h-1.84c-.32 0-.58.214-.58.478v18.044c0 .264.26.478.58.478h1.84c.32 0 .58-.214.58-.478v-1.057H13.34v.58h-.682V6.955h.682v.699H14.5z" fill="#415467"/></g></svg>
