<?xml version="1.0" encoding="UTF-8"?>
<svg width="72px" height="81px" viewBox="0 0 72 81" version="1.1" xmlns="http://www.w3.org/2000/svg" xmlns:xlink="http://www.w3.org/1999/xlink">
    <!-- Generator: Sketch 53.2 (72643) - https://sketchapp.com -->
    <title>c</title>
    <desc>Created with Sketch.</desc>
    <g id="Landing" stroke="none" stroke-width="1" fill="none" fill-rule="evenodd">
        <g id="Landing-Page" transform="translate(-622.000000, -4762.000000)">
            <g id="Languages" transform="translate(0.000000, 4701.000000)">
                <g id="c" transform="translate(622.000000, 61.000000)">
                    <g id="Group" fill="#5E98CF">
                        <path d="M35.9963526,28.8284698 C29.4358663,28.8284698 24.1270517,34.1686833 24.1270517,40.7679715 C24.1270517,42.9170819 24.6881459,44.9359431 25.7024316,46.694306 L46.268693,34.7765125 C44.1969605,31.2163701 40.3772036,28.8284698 35.9963526,28.8284698 Z" id="Path"></path>
                        <path d="M12.1714286,40.7679715 C12.1714286,27.5259786 22.8322188,16.8021352 35.9963526,16.8021352 C44.8012158,16.8021352 52.5054711,21.6213523 56.6273556,28.7850534 L70.9784195,20.4708185 C70.3957447,19.4505338 69.5325228,18.6039146 68.3887538,17.9309609 C58.8285714,12.3736655 49.2683891,6.83807829 39.7297872,1.3024911 C37.1617021,-0.195373665 34.6583587,-0.13024911 32.1118541,1.36761566 C28.3136778,3.6252669 9.27963526,14.5879004 3.60395137,17.8875445 C1.27325228,19.2551601 0.129483283,21.3391459 0.129483283,24.0309609 C0.129483283,35.1672598 0.129483283,46.3035587 0.129483283,57.4615658 C0.129483283,58.7857651 0.410030395,59.9797153 0.97112462,61 L15.343769,52.6857651 C13.3151976,49.1690391 12.1714286,45.1096085 12.1714286,40.7679715 Z" id="Path"></path>
                    </g>
                    <g id="Group" transform="translate(1.000000, 40.000000)" fill="#044E87" fill-rule="nonzero">
                        <path d="M24.7692308,6.10638298 C26.8153846,9.70478723 30.6492308,12.1473404 35.0430769,12.1473404 C39.48,12.1473404 43.3353846,9.68297872 45.36,6.04095745 L35.1507692,0.0436170213 L24.7692308,6.10638298 Z" id="Path"></path>
                        <path d="M35.0646154,24.2510638 C26.2338462,24.2510638 18.5446154,19.387766 14.4307692,12.1473404 L0.0861538462,20.5 C0.667692308,21.5468085 1.52923077,22.4409574 2.71384615,23.1170213 C8.37846154,26.4319149 27.3753846,37.4670213 31.1661538,39.7132979 C33.7076923,41.2398936 36.2061538,41.2835106 38.7692308,39.7787234 C48.2892308,34.2175532 57.8523077,28.656383 67.3723077,23.0952128 C68.5569231,22.3973404 69.4184615,21.525 70,20.4781915 L55.6769231,12.0819149 C51.6061538,19.3659574 43.8953846,24.2510638 35.0646154,24.2510638 Z" id="Path"></path>
                    </g>
                    <path d="M72,23.643469 C72,22.2607066 71.7175619,21.0535332 71.1092336,20 L36,40.4341542 L71.1526856,61 C71.7175619,59.9684154 72,58.7831906 72,57.4223769 C72,57.4223769 72,34.9031049 72,23.643469 Z M60.028968,41.9047109 L57.2914906,41.9047109 L57.2914906,44.6702355 L54.5540133,44.6702355 L54.5540133,41.9047109 L51.7948099,41.9047109 L51.7948099,39.1391863 L54.5322873,39.1391863 L54.5322873,36.3736617 L57.2697646,36.3736617 L57.2697646,39.1391863 L60.007242,39.1391863 L60.007242,41.9047109 L60.028968,41.9047109 Z M70.066385,41.9047109 L67.3289077,41.9047109 L67.3289077,44.6702355 L64.5914303,44.6702355 L64.5914303,41.9047109 L61.8539529,41.9047109 L61.8539529,39.1391863 L64.5914303,39.1391863 L64.5914303,36.3736617 L67.3289077,36.3736617 L67.3289077,39.1391863 L70.066385,39.1391863 L70.066385,41.9047109 Z" id="Shape" fill="#0062A2" fill-rule="nonzero"></path>
                    <g id="Group" transform="translate(12.000000, 16.000000)" fill="#FFFFFF" fill-rule="nonzero">
                        <polygon id="Path" points="55.067658 19.9167421 52.3509294 19.9167421 52.3509294 22.6533937 49.6126394 22.6533937 49.6126394 25.4117647 52.3509294 25.4117647 52.3509294 28.1484163 55.067658 28.1484163 55.067658 25.4117647 57.805948 25.4117647 57.805948 22.6533937 55.067658 22.6533937"></polygon>
                        <polygon id="Path" points="45.127881 19.9167421 42.3895911 19.9167421 42.3895911 22.6533937 39.6728625 22.6533937 39.6728625 25.4117647 42.3895911 25.4117647 42.3895911 28.1484163 45.127881 28.1484163 45.127881 25.4117647 47.8446097 25.4117647 47.8446097 22.6533937 45.127881 22.6533937"></polygon>
                        <path d="M34.2178439,29.9076923 C32.1910781,33.5348416 28.3315985,35.9891403 23.8899628,35.9891403 C19.4914498,35.9891403 15.6535316,33.5565611 13.6052045,29.9728507 C12.6133829,28.2352941 12.0312268,26.2153846 12.0312268,24.0434389 C12.0312268,17.440724 17.335316,12.0977376 23.8899628,12.0977376 C28.2669145,12.0977376 32.0832714,14.4868778 34.1315985,18.0488688 L44.5026022,12.0325792 C40.3843866,4.86515837 32.6869888,0.043438914 23.8899628,0.043438914 C10.7375465,0.043438914 0.0862453532,10.7728507 0.0862453532,24.0217195 C0.0862453532,28.3656109 1.22899628,32.4488688 3.23420074,35.9457014 C7.35241636,43.1348416 15.0498141,48 23.8899628,48 C32.7301115,48 40.470632,43.1348416 44.5672862,35.9239819 L34.2178439,29.9076923 Z" id="Path"></path>
                    </g>
                </g>
            </g>
        </g>
    </g>
</svg>