<?xml version="1.0" encoding="UTF-8"?>
<svg width="60px" height="109px" viewBox="0 0 60 109" version="1.1" xmlns="http://www.w3.org/2000/svg" xmlns:xlink="http://www.w3.org/1999/xlink">
    <!-- Generator: Sketch 53.2 (72643) - https://sketchapp.com -->
    <title>java</title>
    <desc>Created with Sketch.</desc>
    <g id="Landing" stroke="none" stroke-width="1" fill="none" fill-rule="evenodd">
        <g id="Landing-Page" transform="translate(-779.000000, -4743.000000)" fill-rule="nonzero" stroke-width="0.09375">
            <g id="Languages" transform="translate(0.000000, 4701.000000)">
                <g id="java" transform="translate(780.000000, 42.000000)">
                    <path d="M36.0755072,0 C37.7604417,1.95151246 38.3161116,4.74199288 37.832141,7.2588968 C37.3123208,10.0858541 35.770785,12.5845196 33.9603766,14.7366548 C32.508465,16.469306 30.8414553,18.0013345 29.1027463,19.4239324 C27.07724,21.0836299 25.0875833,22.8709964 23.81492,25.205516 C22.7394299,27.1023132 22.4884822,29.4368327 23.2234004,31.4977758 C24.4243644,35.036032 27.2206387,37.6623665 28.7442496,41 C27.0593151,39.48621 25.4102303,37.9177046 23.8686945,36.2580071 C22.2554593,34.5071174 20.7318484,32.6467972 19.7280576,30.4581851 C19.0469139,28.9261566 18.7421917,27.13879 19.2620119,25.5155694 C19.7818321,23.8558719 20.9469464,22.5244662 22.1120607,21.2842527 C25.3564558,17.9830961 29.353694,15.5573843 32.5263898,12.2015125 C34.2830237,10.3594306 35.7349353,8.15258007 36.2368307,5.61743772 C36.6491019,3.75711744 36.4519287,1.84208185 36.0755072,0 L36.0755072,0 Z" id="Path" stroke="#E92E2F" fill="#E92E2F"></path>
                    <path d="M33.5187978,20.4054054 C36.9402313,17.8288288 40.9436613,16.1891892 45,15 C41.7902015,17.0900901 38.439313,19 35.6704209,21.6846847 C34.6651544,22.6756757 33.7127966,23.8108108 33.2718902,25.1981982 C32.9368013,26.2252252 33.0778914,27.3603604 33.4835252,28.3333333 C34.224248,30.0630631 35.4764221,31.4684685 36.4287799,33.0540541 C37.2400476,34.4054054 37.3811377,36.1351351 36.7638687,37.5945946 C35.8291472,39.7387387 33.9949767,41.3063063 32.0902611,42.5495495 C31.8433535,42.6936937 31.6317184,42.963964 31.3319021,43 C32.6017125,41.8288288 33.5893428,40.1711712 33.5540703,38.3873874 C33.5187978,37.0540541 32.7957113,35.8828829 31.949171,34.9279279 C30.2031817,32.8018018 28.7393726,30.0990991 29.0391889,27.2342342 C29.3390052,24.3693694 31.3495383,22.0630631 33.5187978,20.4054054 L33.5187978,20.4054054 Z" id="Path" stroke="#E92E2F" fill="#E92E2F"></path>
                    <path d="M46.7065736,41.4052417 C47.4772842,40.4567702 48.7067512,40.2150029 49.8261166,40.0662231 C51.7712435,39.8058584 53.8448221,40.3079903 55.3128424,41.6656064 C56.5239591,42.7628578 57.2029185,44.473826 56.9460149,46.1290018 C56.6707611,48.0445423 55.4045936,49.6439256 53.9732739,50.8527618 C51.3858882,52.9542771 48.1929441,54.1817109 45,55 C45.1835025,54.7954277 45.3853553,54.6094529 45.6239086,54.4606731 C48.0461421,53.1402519 50.4500252,51.5966611 52.2299998,49.4393533 C53.3126648,48.1003347 54.1567764,46.3521715 53.8081216,44.5854109 C53.4411165,42.539688 51.4776394,41.0518896 49.4774618,40.9403047 C48.5232486,40.8473173 47.6240862,41.2192669 46.7065736,41.4052417 L46.7065736,41.4052417 Z" id="Path" stroke="#0774BB" fill="#0774BB"></path>
                    <path d="M10.3245039,43.1166241 C13.6269321,41.8012844 17.216528,40.952141 20.8240718,41.0020906 C18.7241582,41.5681862 16.5704007,42.0510324 14.596123,42.9168257 C14.1294755,43.1499239 13.5910361,43.3663722 13.3218165,43.8159187 C13.1782326,44.165566 13.5730882,44.3986642 13.8602558,44.5152132 C15.0807184,44.9814096 16.4268169,45.0480091 17.7370194,45.1645582 C22.3317021,45.447606 26.9443328,45.2811073 31.5210675,45.0147094 C36.0439583,44.7483114 40.5309531,44.1822158 45,43.516221 C44.0128611,43.9491177 43.0077743,44.3820143 42.0924273,44.93146 C41.6257799,45.2311577 41.0514445,45.314407 40.5309531,45.4309561 C35.0388715,46.5631473 29.4032059,46.9127946 23.8034364,46.9960439 C21.6317309,47.0126938 19.4779734,46.979394 17.3242158,46.8461951 C14.9191866,46.6963463 12.4962094,46.5298476 10.1450241,45.9471021 C9.4630009,45.7639535 8.74508172,45.5641551 8.20664234,45.1146086 C7.93742265,44.9148101 7.93742265,44.5152132 8.17074638,44.2821151 C8.7630297,43.7160195 9.58863675,43.4496215 10.3245039,43.1166241 L10.3245039,43.1166241 Z" id="Path" stroke="#0774BB" fill="#0774BB"></path>
                    <path d="M14.6920469,50.5611295 C15.6147328,49.8168701 16.7148582,49.3993587 17.8149837,49 C17.4601045,49.435664 16.9632737,49.8531754 16.9277858,50.4522135 C16.9100418,50.8334195 17.2116891,51.1238622 17.5133364,51.3053889 C18.0988871,51.6139843 18.7554135,51.7229003 19.41194,51.8136637 C22.8187802,52.176717 26.2611083,52.3763964 29.7034363,52.1404117 C32.8441171,51.9770377 35.9670539,51.4506103 39.0722467,50.8878775 C39.9239568,51.7047476 40.9353625,52.2674804 42,52.7576024 C38.2560246,53.8830679 34.4055855,54.536564 30.5374024,54.8451593 C26.8821468,55.0992967 23.1736594,55.081144 19.5361477,54.482106 C18.0988871,54.2098159 16.6261384,53.9012206 15.3130855,53.2114191 C14.7807667,52.9209764 14.1774721,52.5397704 14.0177765,51.904427 C13.9113127,51.3598469 14.3016798,50.8697249 14.6920469,50.5611295 L14.6920469,50.5611295 Z" id="Path" stroke="#0774BB" fill="#0774BB"></path>
                    <path d="M15.6012351,58.2828335 C16.4313706,57.6235996 17.4600168,57.2850741 18.4706165,57 C18.1457809,57.3028913 17.5682953,57.677051 17.8209452,58.1937479 C18.3081987,58.8173475 19.2105199,58.8886161 19.9323768,59.0489703 C22.9822224,59.42313 26.0681609,59.6725699 29.1180065,59.4409472 C31.4279487,59.2984101 33.7017981,58.8886161 35.9576011,58.4966391 C37.2569436,59.2449587 38.6104254,59.8863755 40,60.4565237 C37.870522,61.4008318 35.5786262,62.0066143 33.2867304,62.4342254 C29.4247957,63.1112765 25.4365361,63.2003622 21.556555,62.5945796 C19.8421447,62.2916884 18.0916416,61.8997115 16.5396492,61.0623062 C15.9441172,60.7237807 15.3124924,60.3318038 15.0598424,59.6725699 C14.8613318,59.155873 15.1861674,58.6035419 15.6012351,58.2828335 L15.6012351,58.2828335 Z" id="Path" stroke="#0774BB" fill="#0774BB"></path>
                    <path d="M5.6789271,63.0848816 C7.35744054,62.5168339 9.09068812,62.0587309 10.8604251,62.0037586 C11.5719689,61.9854344 12.3017573,62.0220827 12.9220775,62.3885651 C10.805691,62.5168339 8.68930447,63.0482334 6.79185449,64.0194117 C6.37222613,64.2576253 5.89786364,64.5324871 5.73366123,65.0272383 C5.73366123,65.595286 6.37222613,65.7785272 6.79185449,65.9617684 C9.43733764,66.9512708 12.2652679,67.2627809 15.038464,67.5559668 C23.3033183,68.2522833 31.6229067,68.0690421 39.8877609,67.3177532 C43.0076065,66.969595 46.1456969,66.6214367 49.174319,65.7602031 C50.1412887,65.4303689 51.2359714,65.1005348 51.8745363,64.2393011 C52.2576752,63.7262258 52.0022492,63.0848816 51.6191103,62.6451027 C52.2394305,62.993261 53.1151766,63.4330399 52.9874637,64.2759494 C52.7502824,65.1555071 51.8562916,65.6136101 51.1265031,66.0350649 C48.79118,67.2261326 46.2186757,67.8308286 43.6644162,68.362228 C36.2388186,69.8281576 28.630774,70.1579918 21.0774635,69.9381023 C15.3851135,69.736537 9.6927636,69.1868134 4.0733925,68.2156351 C3.06993337,67.9774215 1.93876127,67.7758562 1.20897282,66.9879191 C0.73461032,66.4381955 1.15423868,65.6685825 1.61035647,65.2654518 C2.75977328,64.2026529 4.2375949,63.6162811 5.6789271,63.0848816 L5.6789271,63.0848816 Z" id="Path" stroke="#0774BB" fill="#0774BB"></path>
                    <path d="M51.8530004,69.7755486 C53.6834474,69.136442 55.6407571,68.4608151 57,67 C56.7643979,68.5886364 55.4051551,69.6842477 54.0640354,70.396395 C51.4905356,71.747649 48.6089408,72.3684954 45.7454692,72.8797807 C39.6923077,73.8475706 33.54853,74.0849531 27.4047523,73.975392 C23.2182843,73.8475706 18.9955699,73.6832289 14.8815948,72.8067399 C13.90294,72.5328371 12.8517922,72.3502352 12,71.7659092 C15.6608941,72.3867556 19.3761579,72.6423982 23.0914217,72.7884797 C29.1989529,72.9710816 35.3246073,72.7336991 41.3958921,71.9667712 C44.9118002,71.4737461 48.4458317,70.8711599 51.8530004,69.7755486 L51.8530004,69.7755486 Z" id="Path" stroke="#0774BB" fill="#0774BB"></path>
                    <path d="M3.48284314,96.6873065 C3.5,90.7975232 3.46568627,84.9077399 3.5,79 C4.66666667,79.0359133 5.83333333,79 7,79.0359133 C6.98284314,85.6260062 7,92.2340557 6.98284314,98.8421053 C6.94852941,100.691641 6.91421569,102.63096 6.05637255,104.282972 C5.1127451,106.042724 3.43137255,107.281734 1.64705882,108 C1.08088235,107.35356 0.566176471,106.671207 0,106.024768 L0,106.024768 C1.44117647,105.144892 2.88235294,103.887926 3.2254902,102.074303 C3.55147059,100.296594 3.44852941,98.4829721 3.48284314,96.6873065 L3.48284314,96.6873065 Z" id="Path" stroke="#E92E2F" fill="#E92E2F"></path>
                    <path d="M10.8746464,86.4065028 C13.2434053,85.336972 15.8753597,84.7837664 18.4546749,85.0788094 C19.7881985,85.2447711 21.1743611,85.7610963 22.0341329,86.8859476 C22.7535337,87.8448372 23.0167292,89.0803297 22.9991828,90.2789417 C22.9991828,94.4095433 22.9991828,98.5217047 22.9991828,102.652306 C22.1218647,102.652306 21.2445466,102.652306 20.3496821,102.652306 C20.2619503,102.04378 20.1742185,101.416814 20.104033,100.789848 C19.1038904,101.619656 18.0335623,102.412584 16.7877705,102.744507 C15.3665152,103.131751 13.8048889,103.094871 12.4187263,102.523225 C11.3483982,102.06222 10.5061728,101.04801 10.2078847,99.8678383 C9.76922559,98.152901 9.9973283,96.1429208 11.1553882,94.7599069 C12.1906236,93.487534 13.7522498,92.8605677 15.2963297,92.5655248 C16.7175851,92.2704818 18.1739332,92.2704818 19.6302812,92.2704818 C19.5951885,91.1087501 19.8057448,89.8363773 19.1740758,88.8037269 C18.6652313,88.0107989 17.7352741,87.6973158 16.8755023,87.6419952 C14.9980416,87.4760335 13.1381272,87.9739185 11.3659446,88.619325 C11.1904809,87.8817176 11.0325637,87.1441102 10.8746464,86.4065028 L10.8746464,86.4065028 Z M15.2261443,94.9627489 C14.4541043,95.2209115 13.7347035,95.8109974 13.5241471,96.659246 C13.2784981,97.5996954 13.3486835,98.7061066 13.9277135,99.4990346 C14.4891971,100.273522 15.5068861,100.457924 16.3842042,100.347283 C17.6124496,100.199762 18.6827777,99.4621542 19.6302812,98.6692262 C19.6302812,97.2862123 19.6127349,95.9216385 19.6302812,94.5386246 C18.1563868,94.5386246 16.6473996,94.4464237 15.2261443,94.9627489 L15.2261443,94.9627489 Z" id="Shape" stroke="#E92E2F" fill="#E92E2F"></path>
                    <path d="M42.8669621,86.4135414 C45.2513196,85.3437888 47.8811257,84.7720245 50.4758677,85.0855727 C51.7732387,85.2515688 53.1056738,85.749557 53.9647437,86.8193096 C54.7712176,87.8337301 55.0166662,89.1801428 54.9991341,90.4712235 C54.9816021,94.5473496 55.0166662,98.6050317 54.9640701,102.681158 C54.087468,102.64427 53.210866,102.699602 52.334264,102.64427 C52.2466038,102.017173 52.1764756,101.408521 52.0712834,100.799869 C50.8440405,101.906509 49.3713491,102.810266 47.7058053,102.957818 C46.1805177,103.10537 44.4623777,102.902486 43.270199,101.758957 C42.0254241,100.541653 41.8150396,98.5681436 42.1306164,96.8897388 C42.428661,95.340442 43.5331796,94.0678053 44.8656147,93.385377 C46.9519275,92.3156244 49.336285,92.2602924 51.6154503,92.2787364 C51.5803862,91.1536518 51.7732387,89.9547912 51.2297454,88.9403707 C50.8089764,88.1288343 49.9148424,87.7599541 49.0733044,87.667734 C47.1272479,87.4464059 45.1811914,87.9628382 43.3578592,88.6268225 C43.2000708,87.8890621 43.0247504,87.1513018 42.8669621,86.4135414 L42.8669621,86.4135414 Z M47.162312,94.9900058 C46.4259663,95.2482219 45.7422167,95.8384302 45.5143002,96.6499667 C45.2688516,97.5906111 45.3389798,98.6972517 45.9000051,99.5087881 C46.4785624,100.301881 47.5129528,100.467877 48.4070869,100.357213 C49.6167977,100.172772 50.7213162,99.4719001 51.6329823,98.6234757 C51.5979183,97.277063 51.6154503,95.9122063 51.6154503,94.5473496 C50.1252269,94.5473496 48.5999393,94.4551295 47.162312,94.9900058 L47.162312,94.9900058 Z" id="Shape" stroke="#E92E2F" fill="#E92E2F"></path>
                    <path d="M25,85 C26.2789281,85 27.5578563,85 28.8367844,85 C29.5858709,87.3846971 30.316687,89.7513284 31.0657734,92.1360255 C31.5042631,93.5993624 32.0523752,95.0446334 32.362972,96.544102 C32.5274056,97.2125399 32.6735688,97.8990436 32.8745432,98.5494155 C34.4457978,94.1594049 35.6516443,89.6248672 36.272838,85 C37.5152253,85 38.7576127,85 40,85 C38.9220463,90.8533475 37.2228989,96.6163656 34.6650426,102 C33.2034105,102 31.7417783,102 30.2801462,102 C28.5261876,96.3273114 26.7539586,90.6726886 25,85 L25,85 Z" id="Path" stroke="#E92E2F" fill="#E92E2F"></path>
                    <g id="Group" transform="translate(55.000000, 84.000000)" fill="#E92E2F" stroke="#E92E2F">
                        <polygon id="Path" points="0.6375 0.155555556 0.16875 0.155555556 0.16875 0.0555555556 1.29375 0.0555555556 1.29375 0.155555556 0.825 0.155555556 0.825 0.955555556 0.61875 0.955555556 0.61875 0.155555556"></polygon>
                        <path d="M2.7375,0.566666667 C2.71875,0.444444444 2.71875,0.288888889 2.71875,0.177777778 L2.71875,0.177777778 C2.6625,0.277777778 2.60625,0.4 2.53125,0.522222222 L2.26875,0.955555556 L2.11875,0.955555556 L1.875,0.533333333 C1.8,0.4 1.74375,0.288888889 1.70625,0.188888889 L1.70625,0.188888889 C1.70625,0.3 1.6875,0.455555556 1.66875,0.588888889 L1.63125,0.977777778 L1.44375,0.977777778 L1.55625,0.0777777778 L1.8,0.0777777778 L2.0625,0.511111111 C2.11875,0.622222222 2.175,0.722222222 2.2125,0.811111111 L2.2125,0.811111111 C2.25,0.722222222 2.30625,0.622222222 2.38125,0.511111111 L2.64375,0.0777777778 L2.8875,0.0777777778 L2.98125,0.977777778 L2.79375,0.977777778 L2.7375,0.566666667 Z" id="Path"></path>
                    </g>
                </g>
            </g>
        </g>
    </g>
</svg>