<?xml version="1.0" encoding="UTF-8"?>
<svg width="200px" height="57px" viewBox="0 0 200 57" version="1.1" xmlns="http://www.w3.org/2000/svg" xmlns:xlink="http://www.w3.org/1999/xlink">
    <!-- Generator: Sketch 53.2 (72643) - https://sketchapp.com -->
    <title>nodejs</title>
    <desc>Created with Sketch.</desc>
    <g id="Landing" stroke="none" stroke-width="1" fill="none" fill-rule="evenodd">
        <g id="Landing-Page" transform="translate(-924.000000, -4769.000000)" fill-rule="nonzero">
            <g id="Languages" transform="translate(0.000000, 4701.000000)">
                <g id="nodejs" transform="translate(924.000000, 68.000000)">
                    <g id="Group" transform="translate(167.968750, 20.048276)" fill="#83CD29">
                        <path d="M16.0351563,0.240186207 C15.5492187,0.240186207 15.0765625,0.341213793 14.6582031,0.579434483 L1.42070313,8.27246897 C0.5640625,8.76935172 0.043359375,9.70729655 0.043359375,10.7053862 L0.043359375,26.0635448 C0.043359375,27.0608483 0.5640625,27.9976138 1.42070313,28.4956759 L4.87773438,30.5040414 C6.55742188,31.3370276 7.1765625,31.3240552 7.94101563,31.3240552 C10.4277344,31.3240552 11.8476563,29.8054966 11.8476563,27.1665931 L11.8476563,12.0061655 C11.8476563,11.7919241 11.6632813,11.6386138 11.4542969,11.6386138 L9.79609375,11.6386138 C9.58359375,11.6386138 9.40273438,11.7919241 9.40273438,12.0061655 L9.40273438,27.1665931 C9.40273438,28.3360759 8.19179688,29.5126345 6.22695313,28.5239793 L2.62929688,26.4027931 C2.50195313,26.3332138 2.40429688,26.2101724 2.40429688,26.0635448 L2.40429688,10.7049931 C2.40429688,10.5595448 2.50078125,10.4113448 2.62929688,10.3374414 L15.8386719,2.67310345 C15.9601802,2.60165276 16.110523,2.60165276 16.2320312,2.67310345 L29.4417969,10.3378345 C29.5675781,10.4140966 29.6667969,10.5552207 29.6667969,10.7057793 L29.6667969,26.0639379 C29.6667969,26.2105655 29.5933594,26.360731 29.4699219,26.4314897 L16.2320312,34.0962207 C16.11875,34.1642276 15.9625,34.1642276 15.8386719,34.0962207 L12.4378906,32.0599448 C12.3327561,32.0025558 12.2059158,32.0025558 12.1007812,32.0599448 C11.1621094,32.5953517 10.9855469,32.6574621 10.1050781,32.964869 C9.88828125,33.041131 9.55898437,33.1594552 10.2175781,33.5309379 L14.6582031,36.1608 C15.0768953,36.4038913 15.552174,36.5308577 16.0355469,36.5287448 C16.5188621,36.5317776 16.994217,36.4048906 17.4125,36.1611931 L30.6503906,28.496069 C31.5070313,27.9948621 32.0273438,27.0612414 32.0273438,26.0639379 L32.0273438,10.7053862 C32.0273438,9.70768966 31.5070313,8.77131724 30.6503906,8.27325517 L17.4125,0.58022069 C16.9976563,0.341606897 16.521875,0.24057931 16.0355469,0.24057931 L16.0351563,0.240186207 Z" id="Path"></path>
                        <path d="M19.5765625,11.2144552 C15.8070313,11.2144552 13.5621094,12.828931 13.5621094,15.5138276 C13.5621094,18.4259379 15.7902344,19.2262966 19.4082031,19.5863793 C23.7363281,20.0128966 24.0734375,20.6524759 24.0734375,21.5098345 C24.0734375,22.9969448 22.8953125,23.6310207 20.1109375,23.6310207 C16.6121094,23.6310207 15.8433594,22.7520414 15.5859375,21.0007655 C15.5554687,20.8128621 15.4113281,20.6611241 15.2203125,20.6611241 L13.5058594,20.6611241 C13.2949219,20.6611241 13.1125,20.8443103 13.1125,21.0573724 C13.1125,23.2992414 14.3242187,25.950331 20.1109375,25.950331 C24.2996094,25.950331 26.715625,24.2957586 26.715625,21.3966207 C26.715625,18.5230345 24.7640625,17.7513724 20.7007812,17.2108552 C16.5953125,16.6640483 16.2039062,16.3963448 16.2039062,15.4289172 C16.2039062,14.630131 16.5359375,13.5616759 19.5765625,13.5616759 C22.2929687,13.5616759 23.296875,14.151331 23.7082031,15.9945931 C23.7441406,16.1675586 23.8957031,16.3055379 24.0734375,16.3055379 L25.7882812,16.3055379 C25.89375,16.3055379 25.9960937,16.2402828 26.0691406,16.1640207 C26.1410156,16.0826483 26.1917969,15.9910552 26.1816406,15.8813793 C25.9160156,12.7074621 23.8128906,11.2144552 19.5765625,11.2144552 L19.5765625,11.2144552 Z" id="Path"></path>
                    </g>
                    <path d="M106.180078,0.150558621 C106.032103,0.150657393 105.886706,0.189540623 105.758203,0.26337931 C105.498418,0.416354807 105.338176,0.695978119 105.336719,0.998875862 L105.336719,22.6360759 C105.336719,22.8483517 105.238672,23.0386138 105.055859,23.1451448 C104.873459,23.2520666 104.648026,23.2520666 104.465625,23.1451448 L100.952344,21.108869 C100.430744,20.8051554 99.7876158,20.8051554 99.2660156,21.108869 L85.2414063,29.2543655 C84.7171875,29.5590207 84.3984375,30.1443517 84.3984375,30.7536621 L84.3984375,47.0450483 C84.3984375,47.6535724 84.7175781,48.2109931 85.2414063,48.5156483 L99.2660156,56.6615379 C99.7873977,56.9660679 100.430962,56.9660679 100.952344,56.6615379 L114.976953,48.5156483 C115.499599,48.2129238 115.821331,47.6519069 115.820313,47.0450483 L115.820313,6.4296 C115.819537,5.8084075 115.486769,5.23565911 114.949219,4.93030345 L106.601563,0.235075862 C106.470703,0.161565517 106.325391,0.148593103 106.180078,0.150558621 L106.180078,0.150558621 Z M15.9613281,20.4865862 C15.6941406,20.4972 15.4425781,20.5443724 15.2027344,20.6843172 L1.17773437,28.8302069 C0.654762894,29.1325523 0.333016133,29.6938552 0.334765625,30.3008069 L0.362890625,52.1648276 C0.362890625,52.4686966 0.51875,52.7513379 0.784375,52.899931 C1.0438751,53.0568398 1.36823427,53.0568398 1.62773437,52.899931 L9.946875,48.0918828 C10.4738281,47.7766138 10.8179687,47.2286276 10.8179687,46.6208897 L10.8179687,36.4104207 C10.8179687,35.8011103 11.1363281,35.2421172 11.6613281,34.9394276 L15.2023437,32.8748483 C15.4583693,32.7250392 15.7495489,32.6468624 16.0457031,32.6484207 C16.3347656,32.6484207 16.6316406,32.7211448 16.8886719,32.8748483 L20.4300781,34.9394276 C20.9535604,35.2415013 21.275574,35.8031596 21.2734375,36.4104207 L21.2734375,46.6204966 C21.2734375,47.2282345 21.6210937,47.7801517 22.1445312,48.0914897 L30.4636719,52.899931 C30.723172,53.0568398 31.0475311,53.0568398 31.3070312,52.899931 C31.5678994,52.7479894 31.7286384,52.4677572 31.7289062,52.1644345 L31.75625,30.3008069 C31.7596399,29.6934169 31.437451,29.1313426 30.9132812,28.8302069 L16.8886719,20.6843172 C16.6515625,20.5443724 16.3992187,20.4975931 16.1300781,20.4865862 L15.9613281,20.4865862 Z M141.986328,20.6843172 C141.693359,20.6843172 141.40625,20.7590069 141.143359,20.9107448 L127.11875,29.0566345 C126.595985,29.3592393 126.27421,29.9203323 126.275391,30.5272345 L126.275391,46.8186207 C126.275391,47.431469 126.618359,47.986531 127.146484,48.2896138 L141.058984,56.2656828 C141.572656,56.5605103 142.2,56.5829172 142.717187,56.2932 L151.148828,51.5700621 C151.416406,51.4206828 151.597266,51.1415793 151.598437,50.8349586 C151.601369,50.5308842 151.439949,50.2492036 151.176953,50.0994621 L137.067969,41.9535724 C136.803906,41.8018345 136.618359,41.4948207 136.618359,41.1897724 L136.618359,36.0990828 C136.618359,35.7944276 136.805859,35.5153241 137.067969,35.3635862 L141.452344,32.8178483 C141.713193,32.6659157 142.034853,32.6659157 142.295703,32.8178483 L146.679687,35.3635862 C146.941144,35.5147436 147.102124,35.7952462 147.101562,36.0986897 L147.101562,40.1150276 C147.100758,40.4184333 147.261622,40.6989932 147.523047,40.850131 C147.785937,41.0030483 148.103906,41.0034414 148.366016,40.850131 L156.769922,35.9296552 C157.291684,35.6258495 157.613067,35.0652916 157.613281,34.4586621 L157.613281,30.5276276 C157.613281,29.9202828 157.292969,29.3616828 156.769922,29.0566345 L142.829687,20.9107448 C142.57342,20.761568 142.282379,20.683564 141.986328,20.6847103 L141.986328,20.6843172 Z M100.052734,32.8465448 C100.126172,32.8465448 100.212109,32.8646276 100.277734,32.9027586 L105.083984,35.7028345 C105.214453,35.7787034 105.308984,35.9190414 105.308984,36.0703862 L105.308984,41.6705379 C105.308984,41.822669 105.215234,41.9626138 105.083984,42.0384828 L100.277734,44.8385586 C100.147135,44.913605 99.9868491,44.913605 99.85625,44.8385586 L95.0503906,42.0384828 C94.9195313,41.9622207 94.8253906,41.822669 94.8253906,41.6705379 L94.8253906,36.0703862 C94.8253906,35.9186483 94.9199219,35.7794897 95.0503906,35.7028345 L99.85625,32.9031517 C99.9153251,32.8661753 99.9835558,32.8466933 100.053125,32.8469379 L100.053125,32.8465448 L100.052734,32.8465448 Z" id="Shape" fill="#404137"></path>
                    <path d="M58.0914062,20.5994069 C57.7992188,20.5994069 57.5101563,20.6740966 57.2484375,20.8258345 L43.2238281,28.9434207 C42.6992188,29.2472897 42.3804687,29.8338 42.3804687,30.4423241 L42.3804687,46.7337103 C42.3804687,47.3430207 42.6996094,47.8996552 43.2238281,48.2047034 L57.2484375,56.3502 C57.7697538,56.6549759 58.4134494,56.6549759 58.9347656,56.3502 L72.959375,48.2047034 C73.481992,47.9018088 73.8035828,47.340628 73.8023438,46.7337103 L73.8023438,30.4423241 C73.8023438,29.8330138 73.4835938,29.2472897 72.959375,28.9434207 L58.9347656,20.8258345 C58.6784067,20.6768348 58.3874489,20.5987176 58.0914063,20.5994069 L58.0914062,20.5994069 Z M141.958203,35.1375517 C141.902344,35.1375517 141.840234,35.1375517 141.789844,35.1658552 L139.091797,36.749669 C138.989365,36.8069253 138.925045,36.9148046 138.923047,37.0327034 L138.923047,40.1437241 C138.923047,40.260869 138.990234,40.3681862 139.091797,40.4267586 L141.789844,41.982269 C141.891016,42.0412345 141.998828,42.0412345 142.098828,41.982269 L144.796875,40.4263655 C144.898844,40.368822 144.963013,40.2613437 144.965625,40.1437241 L144.965625,37.0323103 C144.963013,36.9146907 144.898844,36.8072125 144.796875,36.749669 L142.098828,35.1654621 C142.048828,35.1359793 142.014453,35.1379448 141.958203,35.1379448 L141.958203,35.1375517 Z" id="Shape" fill="#83CD29"></path>
                </g>
            </g>
        </g>
    </g>
</svg>