<?xml version="1.0" encoding="UTF-8"?>
<svg width="206px" height="59px" viewBox="0 0 206 59" version="1.1" xmlns="http://www.w3.org/2000/svg" xmlns:xlink="http://www.w3.org/1999/xlink">
    <!-- Generator: Sketch 53.2 (72643) - https://sketchapp.com -->
    <title>python</title>
    <desc>Created with Sketch.</desc>
    <defs>
        <linearGradient x1="-1.23697358%" y1="3.47913192%" x2="68.8829887%" y2="67.8106134%" id="linearGradient-1">
            <stop stop-color="#5A9FD4" offset="0%"></stop>
            <stop stop-color="#306998" offset="100%"></stop>
        </linearGradient>
        <linearGradient x1="63.6593018%" y1="71.7137038%" x2="37.2229532%" y2="34.2194739%" id="linearGradient-2">
            <stop stop-color="#FFD43B" offset="0%"></stop>
            <stop stop-color="#FFE873" offset="100%"></stop>
        </linearGradient>
        <radialGradient cx="52.0915669%" cy="50.7028571%" fx="52.0915669%" fy="50.7028571%" r="49.7828571%" gradientTransform="translate(0.520916,0.507029),scale(0.187500,1.000000),rotate(-90.000000),translate(-0.520916,-0.507029)" id="radialGradient-3">
            <stop stop-color="#B8B8B8" stop-opacity="0.5" offset="0%"></stop>
            <stop stop-color="#7F7F7F" stop-opacity="0" offset="100%"></stop>
        </radialGradient>
    </defs>
    <g id="Landing" stroke="none" stroke-width="1" fill="none" fill-rule="evenodd">
        <g id="Landing-Page" transform="translate(-1210.000000, -4784.000000)" fill-rule="nonzero">
            <g id="Languages" transform="translate(0.000000, 4701.000000)">
                <g id="python" transform="translate(1210.000000, 83.000000)">
                    <path d="M78.3615186,25.3641199 C78.3615186,19.0217602 76.4801553,15.7649903 72.7174288,15.5938104 C71.2228094,15.5239175 69.7297807,15.7597778 68.3371441,16.2857834 C67.4950335,16.5189928 66.7117916,16.915986 66.0360224,17.4521277 L66.0360224,32.5841393 C68.4518982,34.0348162 70.5869284,34.7064797 72.441113,34.5991296 C76.3850302,34.3496132 78.3584987,31.2712766 78.3615186,25.3641199 Z M83,25.6252418 C83,28.8457447 82.2118205,31.5178917 80.6354616,33.6416828 C79.0033191,35.9905337 76.2502753,37.3923789 73.3108283,37.3713733 C70.9553494,37.4468085 68.5304142,36.7403288 66.0360224,35.2519342 L66.0360224,49 L62,47.6160542 L62,17.082205 C62.7140315,16.2645595 63.5784977,15.5800591 64.5502588,15.0628627 C66.9419758,13.7166344 69.8606557,13.0290135 73.3062985,13 L73.3606557,13.0565764 C76.3017607,12.9257479 79.0820795,14.3498455 80.608283,16.7688588 C82.202761,19.0667311 83,22.0174081 83,25.6208897 L83,25.6252418 Z" id="path46" fill="#646464"></path>
                    <path d="M104.987274,34.723159 C104.987274,39.0584739 104.563087,42.0602936 103.714712,43.7286182 C102.866337,45.3969429 101.251597,46.7275264 98.870491,47.7203688 C96.8712478,48.5171247 94.7527278,48.95011 92.6094839,49 L91.9859283,46.5499211 C93.6190668,46.3673026 95.2349556,46.0474195 96.8174236,45.5934733 C98.6499135,44.951474 99.9055084,43.9731894 100.596934,42.6629868 C101.162517,41.5915322 101.438239,39.5534393 101.4241,36.548708 L101.4241,35.5354847 C98.8737678,36.7365119 96.1011149,37.3548236 93.2966676,37.3479316 C91.4996011,37.3716286 89.7543475,36.7282264 88.3803348,35.5354847 C86.856826,34.3537185 85.9726996,32.4942215 86.0006431,30.5305107 L86.0006431,14.3102026 L89.7801535,13 L89.7801535,29.3032876 C89.7801535,31.0502244 90.3259413,32.3909984 91.4175171,33.3256096 C92.6200996,34.3016665 94.1314433,34.784041 95.6593918,34.6794856 C97.3900767,34.6445469 99.2480179,33.9545069 101.22049,32.6049982 L101.22049,13.5808565 L105,13.5808565 L104.987274,34.723159 Z" id="path48" fill="#646464"></path>
                    <path d="M120.995602,37.9442754 C120.52499,37.982854 120.115954,38 119.702519,38 C117.485806,38 115.760229,37.4841906 114.52579,36.4525719 C113.29135,35.4209532 112.675596,33.9921184 112.678529,32.1660675 L112.678529,17.137583 L110,17.137583 L110,14.7371405 L112.687325,14.7371405 L112.687325,8.3545354 L116.601759,7 L116.601759,14.715708 L121,14.715708 L121,17.1161504 L116.597361,17.1161504 L116.597361,32.0546184 C116.597361,33.4834532 116.990271,34.4979259 117.77609,35.0980365 C118.456351,35.586698 119.530988,35.8653208 121,35.9339049 L120.995602,37.9442754 Z" id="path50" fill="#646464"></path>
                    <path d="M144,36.9825964 L140.102901,36.9825964 L140.102901,22.019873 C140.138573,20.63842 139.765986,19.2769156 139.031308,18.1040687 C138.305602,16.916013 136.99479,16.2067402 135.597836,16.2462371 C133.813306,16.2462371 131.579727,17.1831295 128.897099,19.0569144 L128.897099,36.9912982 L125,36.9912982 L125,1.22260113 L128.897099,0 L128.897099,16.289746 C131.251179,14.5373682 134.114098,13.5936694 137.054328,13.6008937 C138.948705,13.5316092 140.779196,14.2879272 142.066759,15.6719191 C143.35841,17.0723598 144.04899,18.919334 143.991252,20.8190263 L143.991252,37 L144,36.9825964 Z" id="path52" fill="#646464"></path>
                    <path d="M165.617082,25.6069522 C165.617082,23.2062656 165.14058,21.2195399 164.187577,19.6467751 C163.145487,17.7946704 161.123547,16.6392674 158.92358,16.638755 C154.536167,16.8793966 152.34246,19.8874167 152.34246,25.6628154 C152.34246,28.3041436 152.800981,30.5114574 153.718022,32.2847569 C154.895791,34.540772 156.653453,35.6580366 159.004495,35.6193621 C163.40989,35.5649312 165.614085,32.2274613 165.617082,25.6069522 Z M170,25.6327352 C170,29.0532838 169.085956,31.9023086 167.257867,34.1798096 C165.246969,36.7237352 162.468873,37.9971304 158.92358,37.9999951 C155.378286,38.0028599 152.636153,36.7366267 150.69718,34.2012954 C148.89906,31.9237945 148,29.0747697 148,25.654221 C148,22.4399367 148.969486,19.7312861 150.908459,17.5282695 C152.876351,15.2153704 155.860241,13.912335 158.977523,14.0045887 C162.104432,13.919392 165.098478,15.2141445 167.096036,17.515378 C169.032012,19.7126651 170,22.4184508 170,25.6327352 Z" id="path54" fill="#646464"></path>
                    <path d="M189.982813,36.9912345 L186.262663,36.9912345 L186.262663,21.0687759 C186.262663,19.3156838 185.761632,17.9511938 184.759572,16.9753059 C183.761686,15.9979571 182.425606,15.5202395 180.75968,15.559684 C178.94229,15.6153142 177.184268,16.2513364 175.72015,17.3828998 L175.72015,37 L172,37 L172,16.892034 C174.137729,15.2558147 176.107057,14.1878895 177.907982,13.6882583 C179.371974,13.2614588 180.88142,13.03027 182.400554,13.0001696 C183.242503,12.9955162 184.082454,13.0866242 184.905706,13.2718989 C186.248376,13.5601135 187.48429,14.2460405 188.467196,15.2485102 C189.463888,16.2528831 190.018797,17.6463985 189.999514,19.0965473 L189.982813,36.9912345 Z" id="path56" fill="#646464"></path>
                    <path d="M23.3553878,2.0005649 C21.5295901,2.00566861 19.7073553,2.16505753 17.9074322,2.47709172 C13.080399,3.34350411 12.2043031,5.16297015 12.2043031,8.51598612 L12.2043031,12.9390214 L23.6105613,12.9390214 L23.6105613,14.4162545 L7.92589306,14.4162545 C4.61288964,14.4162545 1.71241681,16.4436596 0.802297775,20.3035268 C-0.24391383,24.7308941 -0.29069565,27.4904176 0.802297775,32.1127278 C1.61460028,35.5480529 3.54966646,38 6.86266988,38 L10.783837,38 L10.783837,32.6932241 C10.8613504,28.7253048 14.0116664,25.5335866 17.9074322,25.4760088 L29.2966789,25.4760088 C30.8212779,25.4645653 32.2789008,24.8363511 33.3485763,23.7297003 C34.4182518,22.6230495 35.0122632,21.1287107 34.999808,19.5757404 L34.999808,8.51598612 C34.999808,5.36657706 32.3927848,3.00127122 29.2966789,2.47709172 C27.332894,2.14863074 25.3454397,1.98922511 23.3553878,2.0005649 Z M17.2057049,5.56151985 C18.0879265,5.5421785 18.894047,6.06814849 19.2456891,6.89254968 C19.5973312,7.71695088 19.4246762,8.67609826 18.8087651,9.31978659 C18.192854,9.96347493 17.255976,10.1638998 16.4378836,9.82698557 C15.6197911,9.49007138 15.0829166,8.68271253 15.0792586,7.78386765 C15.0697423,6.57439737 16.0184848,5.58286722 17.2057049,5.56151985 L17.2057049,5.56151985 Z" id="path1948" fill="url(#linearGradient-1)"></path>
                    <path d="M36.8570166,14 L36.8570166,19.120471 C36.8570166,23.0887286 33.4432149,26.4292878 29.5448454,26.4292878 L17.8541024,26.4292878 C14.612156,26.4922879 12.0135908,29.091541 12,32.2849398 L12,43.2610628 C12,46.3866568 14.7589804,48.2224596 17.8541024,49.1210141 C21.6601663,50.2929953 25.7387816,50.2929953 29.5448454,49.1210141 C32.4915413,48.2611533 35.3989479,46.588724 35.3989479,43.2610628 L35.3989479,38.8714734 L23.7082049,38.8714734 L23.7082049,37.4183087 L41.2486849,37.4183087 C44.6537556,37.4183087 45.9197435,35.0794873 47.1027873,31.5755546 C48.3251204,27.9641393 48.2727347,24.4903017 47.1027873,19.855652 C46.2602506,16.5236914 44.6581211,14.0128979 41.2486849,14.0128979 L36.8570166,14 Z M30.2826108,41.7992994 C31.1897768,41.780069 32.0183795,42.3039074 32.378336,43.1242064 C32.7382925,43.9445053 32.55787,44.8977942 31.9220064,45.5352914 C31.2861429,46.1727887 30.3215542,46.3674528 29.4823415,46.0276415 C28.6431288,45.6878301 28.0965318,44.8812614 28.0998731,43.9876451 C28.0901829,42.7902015 29.0667576,41.8111177 30.2826108,41.7992994 L30.2826108,41.7992994 Z" id="path1950" fill="url(#linearGradient-2)"></path>
                    <path d="M199.45809,10 L200.066277,10 L200.066277,5.54545455 L201.508772,5.54545455 L201.508772,5.01363636 L198,5.01363636 L198,5.54545455 L199.442495,5.54545455 L199.442495,10 M202.031189,10 L202.553606,10 L202.553606,5.93181818 L203.680312,10 L204.261209,10 L205.430799,5.94545455 L205.430799,10 L206,10 L206,5 L205.247563,5 L203.961014,9.26818182 L202.865497,5 L202.023392,5 L202.023392,10" id="text3004" fill="#646464"></path>
                    <path d="M40,56 C40,57.65 32.83941,59 24,59 C15.16059,59 8,57.6628571 8,56 C8,54.3371429 15.1650431,53 24,53 C32.8349569,53 40,54.3371429 40,56 Z" id="path1894" fill="url(#radialGradient-3)" opacity="0.44"></path>
                </g>
            </g>
        </g>
    </g>
</svg>