<?xml version="1.0" encoding="UTF-8"?>
<svg width="100px" height="89px" viewBox="0 0 100 89" version="1.1" xmlns="http://www.w3.org/2000/svg" xmlns:xlink="http://www.w3.org/1999/xlink">
    <!-- Generator: Sketch 53.2 (72643) - https://sketchapp.com -->
    <title>react</title>
    <desc>Created with Sketch.</desc>
    <g id="Landing" stroke="none" stroke-width="1" fill="none" fill-rule="evenodd">
        <g id="Landing-Page" transform="translate(-250.000000, -4754.000000)" fill="#00D8FF" fill-rule="nonzero">
            <g id="Languages" transform="translate(0.000000, 4701.000000)">
                <g id="react" transform="translate(250.000000, 53.000000)">
                    <ellipse id="Oval" cx="50" cy="44.3401198" rx="8.91651865" ry="8.91776447"></ellipse>
                    <path d="M50,64.7692615 C37.4777975,64.7692615 26.5364121,63.2948104 18.348135,60.488024 C13.0373002,58.6760479 8.52575488,56.2600798 5.31083481,53.5065868 C1.90053286,50.5932136 0.0888099467,47.4133733 0.0888099467,44.3401198 C0.0888099467,38.4423154 6.55417407,32.6688623 17.4067496,28.9027944 C26.2877442,25.8117764 37.8685613,24.0886228 49.982238,24.0886228 C61.8827709,24.0886228 73.30373,25.758483 82.1314387,28.8139721 C87.3001776,30.5904192 91.651865,32.8998004 94.7424512,35.4578842 C98.0994671,38.2646707 99.8756661,41.3379242 99.8756661,44.3401198 C99.8756661,50.4688623 92.6465364,56.6686627 80.9946714,60.5235529 C72.7531083,63.2592814 61.740675,64.7692615 50,64.7692615 Z M50,28.3520958 C38.5079929,28.3520958 27.1403197,30.0219561 18.8277087,32.9175649 C8.84547069,36.3994012 4.36944938,41.1602794 4.36944938,44.3401198 C4.36944938,47.6443114 9.18294849,52.8493014 19.7335702,56.455489 C27.4777975,59.1023952 37.9573712,60.5057884 50,60.5057884 C61.2966252,60.5057884 71.8294849,59.0846307 79.6625222,56.4732535 C90.6216696,52.8315369 95.6305506,47.6265469 95.6305506,44.3401198 C95.6305506,42.652495 94.3516874,40.6628743 92.0248668,38.7265469 C89.3428064,36.4882236 85.4351687,34.4453094 80.7637655,32.8287425 C72.3623446,29.9508982 61.4387211,28.3520958 50,28.3520958 Z" id="Shape"></path>
                    <path d="M29.7690941,88.7868263 C27.9573712,88.7868263 26.3587922,88.396008 25.008881,87.6143713 C19.9111901,84.6654691 18.1349911,76.1740519 20.2841918,64.8936128 C22.0426288,55.6383234 26.3410302,44.7664671 32.3978686,34.2676647 C38.348135,23.9642715 45.4884547,14.9043912 52.5399645,8.7756487 C56.660746,5.18722555 60.8348135,2.55808383 64.6003552,1.17245509 C68.7033748,-0.33752495 72.2557726,-0.33752495 74.8490231,1.15469062 C80.1598579,4.21017964 81.9182948,13.5898204 79.4316163,25.5986028 C77.6731794,34.1255489 73.4813499,44.4111776 67.6198934,54.5902196 C61.3676732,65.4265469 54.6181172,74.1666667 48.0994671,79.8690619 C43.8721137,83.5640719 39.5204263,86.2642715 35.5417407,87.6676647 C33.4635879,88.4137725 31.5097691,88.7868263 29.7690941,88.7868263 Z M34.2273535,35.3335329 L36.0746004,36.3994012 C30.3374778,46.347505 26.0923623,57.0239521 24.4582593,65.693014 C22.4866785,76.0852295 24.3872114,82.3383234 27.1225577,83.9193613 C27.7975133,84.3101796 28.6856128,84.5233533 29.7690941,84.5233533 C33.30373,84.5233533 38.8632327,82.2850299 45.2930728,76.6714571 C51.4564831,71.2888224 57.9040853,62.903992 63.9253996,52.4762475 C69.5737123,42.688024 73.5879218,32.846507 75.2575488,24.7636727 C77.5843694,13.4477046 75.5772647,6.51956088 72.7175844,4.86746507 C71.2611012,4.03253493 68.8987567,4.13912176 66.0568384,5.18722555 C62.7708703,6.39520958 59.0586146,8.75788423 55.3285968,12.0087824 C48.6323268,17.8355289 41.7939609,26.5045908 36.0746004,36.4171657 L34.2273535,35.3335329 Z" id="Shape"></path>
                    <path d="M70.2309059,88.8401198 C65.3996448,88.8401198 59.2717584,85.9267465 52.8774423,80.4197605 C45.7371226,74.2732535 38.4724689,65.1245509 32.3978686,54.6257485 L32.3978686,54.6257485 C26.4298401,44.3223553 22.1669627,33.6103792 20.3730018,24.4261477 C19.3250444,19.0612774 19.1296625,14.140519 19.8046181,10.1790419 C20.5506217,5.86227545 22.3090586,2.78902196 24.920071,1.27904192 C30.2131439,-1.79421158 39.2184725,1.36786427 48.383659,9.52175649 C54.8845471,15.2952096 61.705151,24.0708583 67.5843694,34.2321357 C73.8543517,45.0684631 78.0639432,55.2830339 79.7335702,63.7744511 C80.8170515,69.2814371 80.9946714,74.3976048 80.2309059,78.554491 C79.4138544,82.9778443 77.5666075,86.1221557 74.9023091,87.6676647 C73.5701599,88.4493014 71.9893428,88.8401198 70.2309059,88.8401198 Z M36.0923623,52.494012 C41.8472469,62.4421158 48.9875666,71.4487026 55.6660746,77.1866267 C63.6767318,84.0792415 70.035524,85.5714571 72.7886323,83.9726547 C75.6483126,82.3205589 77.7442274,75.5522954 75.5772647,64.6093812 C73.9786856,56.5798403 69.946714,46.8093812 63.9076377,36.3816367 C58.2415631,26.5934132 51.722913,18.1908184 45.5595027,12.7193613 C36.9271758,5.04510978 29.928952,3.32195609 27.0692718,4.9740519 C25.6127886,5.80898204 24.5293073,7.92295409 24.0142096,10.9073852 C23.4280639,14.3536926 23.6056838,18.7592814 24.5648313,23.608982 C26.2699822,32.3313373 30.3552398,42.5814371 36.0923623,52.494012 L36.0923623,52.494012 Z" id="Shape"></path>
                </g>
            </g>
        </g>
    </g>
</svg>