<?xml version="1.0" encoding="UTF-8"?>
<svg width="100px" height="108px" viewBox="0 0 100 108" version="1.1" xmlns="http://www.w3.org/2000/svg" xmlns:xlink="http://www.w3.org/1999/xlink">
    <!-- Generator: Sketch 53.2 (72643) - https://sketchapp.com -->
    <title>tensorflow</title>
    <desc>Created with Sketch.</desc>
    <g id="Landing" stroke="none" stroke-width="1" fill="none" fill-rule="evenodd">
        <g id="Landing-Page" transform="translate(-69.000000, -4743.000000)" fill-rule="nonzero">
            <g id="Languages" transform="translate(0.000000, 4701.000000)">
                <g id="tensorflow" transform="translate(69.000000, 42.000000)">
                    <path d="M57.3318989,17 L57.3318989,33.5446724 L86,50.0893448 L86,33.5446724 L57.3318989,17 Z M0,33.5446724 L0,50.0893448 L14.3340505,58.361681 L14.3340505,41.8170086 L0,33.5446724 Z M42.9978484,41.8170086 L28.6637978,50.0893448 L28.6637978,99.723362 L42.9978484,108 L42.9978484,74.9106552 L57.3318989,83.1829914 L57.3318989,66.638319 L42.9978484,58.3659828 L42.9978484,41.8170086 Z" id="Shape" fill="#E55B2D"></path>
                    <path d="M57,17 L14,41.8170086 L14,58.361681 L42.6695356,41.8170086 L42.6695356,58.361681 L57.0043034,50.0893448 L57.0043034,17 L57,17 Z M100,25.2723362 L85.6652322,33.5446724 L85.6652322,50.0893448 L100,41.8170086 L100,25.2723362 Z M71.3347678,58.3659828 L57,66.638319 L57,83.1829914 L71.3347678,74.9106552 L71.3347678,58.3659828 Z M57,83.1829914 L42.6652322,74.9106552 L42.6652322,108 L57,99.7276638 L57,83.1829914 Z" id="Shape" fill="#ED8E24"></path>
                    <path d="M57.141019,0 L0,33.5 L14.286327,41.875 L57.141019,16.75 L85.713673,33.5 L100,25.125 L57.141019,0 Z M57.141019,50.25 L42.8546921,58.625 L57.141019,67 L71.427346,58.625 L57.141019,50.25 Z" id="Shape" fill="#F8BF3C"></path>
                </g>
            </g>
        </g>
    </g>
</svg>